<?xml version="1.0" encoding="UTF-8"?>
<svg width="314px" height="73px" viewBox="0 0 314 73" version="1.1" xmlns="http://www.w3.org/2000/svg" xmlns:xlink="http://www.w3.org/1999/xlink">
    <title>Goldenage</title>
    <g id="Page-1" stroke="none" stroke-width="1" fill="none" fill-rule="evenodd">
        <g id="Desktop" transform="translate(-30.000000, -15.000000)">
            <g id="Goldenage" transform="translate(30.000000, 15.000000)">
                <path d="M118,32.0722892 C117.585865,32.5783133 117.135177,33.0149233 116.64752,33.3825301 C116.160278,33.7501369 115.651436,34.05408 115.12141,34.2951807 C114.591384,34.5362815 114.049312,34.7137185 113.494778,34.8283133 C112.94066,34.942908 112.389034,35 111.840731,35 C110.756587,35 109.738903,34.8073658 108.788512,34.4216867 C107.83812,34.0360077 107.00985,33.506161 106.302872,32.8313253 C105.596309,32.1564896 105.03596,31.3613089 104.62141,30.4457831 C104.207275,29.5302574 104,28.5420318 104,27.4819277 C104,26.4456462 104.204367,25.4730285 104.612272,24.563253 C105.020591,23.6534775 105.58094,22.8615827 106.293734,22.186747 C107.006527,21.5119113 107.83812,20.9787788 108.788512,20.5873494 C109.738903,20.19592 110.756587,20 111.840731,20 C113.096012,20 114.23831,20.253012 115.267624,20.7590361 C116.297353,21.2650602 117.17173,21.9398959 117.890339,22.7831325 L115.971279,24.7168675 C115.422977,23.9820646 114.807797,23.4546824 114.125326,23.1355422 C113.443271,22.816402 112.681462,22.6566265 111.840731,22.6566265 C111.146214,22.6566265 110.494481,22.7831325 109.885117,23.0361446 C109.276169,23.2891566 108.74282,23.6354053 108.285901,24.0753012 C107.828982,24.5151972 107.469677,25.0269715 107.207572,25.6114458 C106.945882,26.19592 106.814621,26.819414 106.814621,27.4819277 C106.814621,28.1567634 106.945882,28.7860077 107.207572,29.3704819 C107.469677,29.9549562 107.828982,30.4700164 108.285901,30.9156627 C108.74282,31.3613089 109.276169,31.7108434 109.885117,31.9638554 C110.494481,32.2168675 111.146214,32.3433735 111.840731,32.3433735 C112.498695,32.3433735 113.120104,32.2230285 113.704961,31.9819277 C114.289817,31.7408269 114.814028,31.4216867 115.276762,31.0240964 L115.276762,29.6325301 L112.279373,29.6325301 L112.279373,27.246988 L118,27.246988 L118,32.0722892" id="Fill-1" fill="#001B60"></path>
                <path d="M131,29.5 C131,30.2841283 130.857374,31.0106908 130.572123,31.6800987 C130.286872,32.3495066 129.894652,32.9284539 129.395462,33.4169408 C128.896272,33.9054276 128.311183,34.2915296 127.639384,34.5748355 C126.96799,34.8581414 126.252026,35 125.491086,35 C124.730551,35 124.017423,34.8581414 123.351702,34.5748355 C122.686386,34.2915296 122.103728,33.9025493 121.604538,33.4078947 C121.105348,32.9132401 120.713128,32.3314145 120.427877,31.6620066 C120.142626,30.9925987 120,30.2717928 120,29.5 C120,28.7401316 120.145867,28.0254934 120.436791,27.3560855 C120.72812,26.6866776 121.123177,26.1015625 121.622366,25.6011513 C122.121556,25.1007401 122.704214,24.7084704 123.36953,24.4251645 C124.035251,24.1418586 124.742301,24 125.491086,24 C126.252026,24 126.96799,24.1418586 127.639384,24.4251645 C128.311183,24.7084704 128.896272,25.0945724 129.395462,25.5830592 C129.894652,26.0715461 130.286872,26.6533717 130.572123,27.3289474 C130.857374,28.004523 131,28.7282072 131,29.5 Z M128.432739,29.5 C128.432739,29.0538651 128.355754,28.6377467 128.200972,28.2516447 C128.046596,27.8655428 127.835494,27.5279605 127.568071,27.2384868 C127.300648,26.9490132 126.988655,26.7228618 126.632091,26.5600329 C126.275527,26.3972039 125.895462,26.3157895 125.491086,26.3157895 C125.087115,26.3157895 124.706645,26.3972039 124.350081,26.5600329 C123.993517,26.7228618 123.681524,26.9490132 123.4141,27.2384868 C123.146677,27.5279605 122.935981,27.8655428 122.781199,28.2516447 C122.626823,28.6377467 122.549433,29.0538651 122.549433,29.5 C122.549433,29.9461349 122.626823,30.3622533 122.781199,30.7483553 C122.935981,31.1344572 123.146677,31.4720395 123.4141,31.7615132 C123.681524,32.0509868 123.993517,32.2771382 124.350081,32.4399671 C124.706645,32.6027961 125.087115,32.6842105 125.491086,32.6842105 C125.895462,32.6842105 126.275527,32.6027961 126.632091,32.4399671 C126.988655,32.2771382 127.300648,32.0509868 127.568071,31.7615132 C127.835494,31.4720395 128.046596,31.1344572 128.200972,30.7483553 C128.355754,30.3622533 128.432739,29.9461349 128.432739,29.5 L128.432739,29.5 Z" id="Fill-2" fill="#001B60"></path>
                <path d="M137,34.6591716 C136.76807,34.7603012 136.504937,34.8420656 136.211066,34.9053254 C135.91766,34.9685853 135.613543,35 135.29918,35 C134.862332,35 134.44225,34.9462076 134.038934,34.8390533 C133.636084,34.7318989 133.284463,34.558042 132.983607,34.3183432 C132.683215,34.0786444 132.4443,33.7662184 132.266393,33.3810651 C132.088953,32.9959118 132,32.5320065 132,31.9893491 L132,19 L135.012295,19 L135.012295,31.5159763 C135.012295,31.9704142 135.111494,32.2828402 135.309426,32.4532544 C135.507824,32.6236686 135.74348,32.7088757 136.016393,32.7088757 C136.358234,32.7088757 136.686103,32.6142012 137,32.4248521 L137,34.6591716" id="Fill-3" fill="#001B60"></path>
                <path d="M148,34.7345972 L145.356115,34.7345972 L145.356115,34.1658768 C145.02052,34.4566997 144.654676,34.6682464 144.258993,34.8009479 C143.863309,34.9336493 143.443918,35 143,35 C142.268721,35 141.597122,34.8453253 140.985612,34.535545 C140.374101,34.2257648 139.846795,33.8087031 139.402878,33.2843602 C138.959369,32.7600172 138.614781,32.1499354 138.368705,31.4549763 C138.123038,30.7600172 138,30.0267126 138,29.2559242 C138,28.4342956 138.141024,27.6729858 138.422662,26.971564 C138.704709,26.2701422 139.079137,25.6604912 139.546763,25.1421801 C140.014388,24.623869 140.548234,24.2162861 141.147482,23.9194313 C141.747139,23.6225765 142.364781,23.4739336 143,23.4739336 C143.443918,23.4739336 143.875572,23.5372684 144.294964,23.6635071 C144.714765,23.7897458 145.074477,23.9668246 145.374101,24.1943128 L145.374101,19 L148,19 L148,34.7345972 Z M145.392086,31.7962085 L145.392086,26.5260664 C145.272319,26.4377424 145.134565,26.3524343 144.978417,26.2701422 C144.822678,26.1878501 144.660808,26.1184834 144.492806,26.0616114 C144.325213,26.0047393 144.157211,25.9603619 143.989209,25.92891 C143.821615,25.897458 143.671599,25.8815166 143.539568,25.8815166 C143.107914,25.8815166 142.7155,25.9603619 142.361511,26.1184834 C142.00793,26.2766049 141.699313,26.5040931 141.435252,26.8009479 C141.171599,27.0978027 140.967626,27.4549763 140.823741,27.8720379 C140.679856,28.2890995 140.607914,28.7505386 140.607914,29.2559242 C140.607914,29.7488152 140.679856,30.2007755 140.823741,30.6113744 C140.967626,31.0219733 141.165468,31.376131 141.417266,31.6729858 C141.669065,31.9698406 141.971959,32.2007755 142.32554,32.3649289 C142.679529,32.5290823 143.06622,32.6113744 143.485612,32.6113744 C144.169065,32.6113744 144.804693,32.3395088 145.392086,31.7962085 L145.392086,31.7962085 Z" id="Fill-4" fill="#001B60"></path>
                <path d="M161,29.4819079 C161,29.6509046 160.991086,29.8256579 160.973258,30.0065789 C160.955429,30.1875 160.934765,30.3745888 160.910859,30.5674342 L152.67423,30.5674342 C152.769449,30.8688322 152.90316,31.1554276 153.075365,31.4268092 C153.247974,31.6981908 153.458671,31.9333882 153.708266,32.1324013 C153.957861,32.3314145 154.240276,32.4880757 154.555105,32.6027961 C154.87034,32.7175164 155.21799,32.7746711 155.598055,32.7746711 C156.061588,32.7746711 156.525122,32.6932566 156.988655,32.5304276 C157.452188,32.3675987 157.838736,32.1476151 158.147488,31.8700658 L159.769854,33.5164474 C159.056726,34.0592105 158.35859,34.442023 157.675041,34.6652961 C156.991896,34.8885691 156.269854,35 155.508914,35 C154.736629,35 154.014587,34.8552632 153.342788,34.5657895 C152.671394,34.2763158 152.089141,33.8844572 151.595624,33.3898026 C151.102512,32.895148 150.713128,32.3133224 150.427877,31.6439145 C150.142626,30.9745066 150,30.2598684 150,29.5 C150,28.7401316 150.142626,28.0254934 150.427877,27.3560855 C150.713128,26.6866776 151.105348,26.104852 151.604538,25.6101974 C152.103728,25.1155428 152.686386,24.7236842 153.351702,24.4342105 C154.017423,24.1447368 154.730551,24 155.491086,24 C156.21637,24 156.911669,24.1356908 157.576985,24.4070724 C158.242707,24.6784539 158.831037,25.0555099 159.341977,25.5378289 C159.853323,26.020148 160.257293,26.5962171 160.554295,27.265625 C160.851702,27.9350329 161,28.6739309 161,29.4819079 Z M158.307942,28.46875 C158.106159,27.8055099 157.746353,27.2717928 157.229335,26.8675987 C156.712318,26.4634046 156.127229,26.2615132 155.473258,26.2615132 C154.831442,26.2615132 154.255267,26.4634046 153.743922,26.8675987 C153.232982,27.2717928 152.876418,27.8055099 152.67423,28.46875 L158.307942,28.46875 L158.307942,28.46875 Z" id="Fill-5" fill="#001B60"></path>
                <path d="M173,35 L170.262357,35 L170.262357,28.6003373 C170.262357,28.2171164 170.202299,27.8798482 170.081749,27.5893761 C169.961632,27.2989039 169.800035,27.0577572 169.596958,26.8659359 C169.394314,26.6741147 169.163152,26.5320405 168.903042,26.4392917 C168.643363,26.346543 168.374179,26.3001686 168.095057,26.3001686 C167.676806,26.3001686 167.265036,26.3714165 166.859316,26.5134907 C166.454027,26.6555649 166.086329,26.8815346 165.756654,27.1905565 L165.756654,35 L163,35 L163,24.2782462 L165.756654,24.2782462 L165.756654,25.0758853 C165.921708,24.9152614 166.124352,24.7668634 166.365019,24.6306914 C166.606118,24.4945194 166.856291,24.3802698 167.11597,24.2875211 C167.37608,24.1947723 167.64224,24.1235245 167.914449,24.074199 C168.18709,24.0248735 168.450225,24 168.703422,24 C169.261234,24 169.796578,24.086425 170.309886,24.2596965 C170.823194,24.432968 171.279468,24.6985666 171.678707,25.0573356 C172.077947,25.4161046 172.398116,25.8798482 172.638783,26.4485666 C172.879882,27.017285 173,27.6913997 173,28.470489 L173,35" id="Fill-6" fill="#001B60"></path>
                <path d="M196,35 L192.898518,35 L191.548461,32 L184.469783,32 L183.101482,35 L180,35 L186.896237,20 L189.103763,20 L196,35 Z M190.435576,29.58125 L188.009122,24.18125 L185.54618,29.58125 L190.435576,29.58125 L190.435576,29.58125 Z" id="Fill-7" fill="#001B60"></path>
                <path d="M207,26.36969 L205.902878,26.36969 C206.178793,26.9207807 206.316547,27.5086108 206.316547,28.1331803 C206.316547,28.6107922 206.229889,29.0729569 206.055755,29.5200918 C205.882031,29.9672268 205.633094,30.3742824 205.309353,30.7416762 C204.985612,31.10907 204.593198,31.4213548 204.131295,31.6785304 C203.669801,31.9357061 203.151079,32.1072957 202.57554,32.1928817 C202.179856,32.2542532 201.883094,32.3490241 201.685252,32.4776119 C201.48741,32.6061998 201.388489,32.7347876 201.388489,32.8633754 C201.388489,32.9919633 201.48741,33.1113662 201.685252,33.2215844 C201.883094,33.3318025 202.179856,33.4052813 202.57554,33.4420207 C203.918738,33.5643461 204.958633,33.9075253 205.696043,34.4707233 C206.433453,35.0339213 206.802158,35.7812337 206.802158,36.7118255 C206.802158,37.1894374 206.688522,37.63031 206.460432,38.0344432 C206.23275,38.4385763 205.906148,38.7876005 205.480216,39.0815155 C205.054693,39.3754305 204.542103,39.6021292 203.942446,39.761194 C203.343198,39.9202588 202.671599,40 201.928058,40 C201.172662,40 200.492479,39.9202588 199.886691,39.761194 C199.281311,39.6021292 198.76259,39.378353 198.330935,39.0907003 C197.899281,38.8030477 197.569817,38.456946 197.341727,38.0528129 C197.114045,37.6486797 197,37.2015447 197,36.7118255 C197,35.9770379 197.206835,35.3616533 197.620504,34.8656716 C198.034173,34.36969 198.708633,33.9993738 199.643885,33.7543054 C199.356115,33.6440873 199.149281,33.4942073 199.023381,33.304248 C198.897482,33.1142887 198.840664,32.921407 198.852518,32.7256028 C198.864781,32.5297986 198.945716,32.3427617 199.095324,32.1653272 C199.24534,31.9878927 199.458306,31.85012 199.733813,31.7520092 C199.422335,31.6050517 199.125572,31.4150924 198.843525,31.1825488 C198.561887,30.9500052 198.307227,30.6803048 198.079137,30.3742824 C197.851455,30.0682601 197.671599,29.7250809 197.539568,29.3455798 C197.407946,28.9660787 197.341727,28.5619455 197.341727,28.1331803 C197.341727,27.5574575 197.461903,27.0188916 197.701439,26.5166475 C197.941383,26.0144035 198.265124,25.5768709 198.672662,25.2032147 C199.080608,24.8295585 199.553957,24.5356435 200.093525,24.3214696 C200.633094,24.1072957 201.20291,24 201.802158,24 C202.389961,24 202.935252,24.0918485 203.438849,24.2755454 L207,24.2755454 L207,26.36969 Z M203.744604,28.1331803 C203.744604,27.8638973 203.693918,27.6125665 203.591727,27.380023 C203.489944,27.1474794 203.352191,26.9420729 203.178058,26.7646383 C203.004333,26.5872038 202.80036,26.4460912 202.566547,26.3421355 C202.332734,26.2381797 202.084205,26.1859931 201.820144,26.1859931 C201.556491,26.1859931 201.310824,26.2381797 201.082734,26.3421355 C200.855052,26.4460912 200.654349,26.5872038 200.480216,26.7646383 C200.306491,26.9420729 200.168738,27.1474794 200.066547,27.380023 C199.964765,27.6125665 199.913669,27.8638973 199.913669,28.1331803 C199.913669,28.4024632 199.964765,28.6567164 200.066547,28.8955224 C200.168738,29.1343284 200.306491,29.3426573 200.480216,29.5200918 C200.654349,29.6975264 200.855052,29.838639 201.082734,29.9425947 C201.310824,30.0465505 201.556491,30.0987371 201.820144,30.0987371 C202.084205,30.0987371 202.332734,30.0465505 202.566547,29.9425947 C202.80036,29.838639 203.004333,29.6975264 203.178058,29.5200918 C203.352191,29.3426573 203.489944,29.1343284 203.591727,28.8955224 C203.693918,28.6567164 203.744604,28.4024632 203.744604,28.1331803 Z M204.21223,36.7118255 C204.21223,36.2830602 203.999673,35.9707755 203.573741,35.7749713 C203.148218,35.5791671 202.599657,35.4810563 201.928058,35.4810563 C201.208633,35.4810563 200.642086,35.585012 200.228417,35.793341 C199.814748,36.00167 199.607914,36.3076923 199.607914,36.7118255 C199.607914,37.128066 199.823741,37.4403507 200.255396,37.6486797 C200.68705,37.8570087 201.244604,37.9609644 201.928058,37.9609644 C202.623774,37.9609644 203.178058,37.8599311 203.591727,37.6578645 C204.005396,37.4557979 204.21223,37.1405908 204.21223,36.7118255 L204.21223,36.7118255 Z" id="Fill-8" fill="#001B60"></path>
                <path d="M219,29.4819079 C219,29.6509046 218.991086,29.8256579 218.973258,30.0065789 C218.955429,30.1875 218.934765,30.3745888 218.910859,30.5674342 L210.67423,30.5674342 C210.769449,30.8688322 210.90316,31.1554276 211.075365,31.4268092 C211.247974,31.6981908 211.458671,31.9333882 211.708266,32.1324013 C211.957861,32.3314145 212.240276,32.4880757 212.555105,32.6027961 C212.87034,32.7175164 213.21799,32.7746711 213.598055,32.7746711 C214.061588,32.7746711 214.525122,32.6932566 214.988655,32.5304276 C215.452188,32.3675987 215.838736,32.1476151 216.147488,31.8700658 L217.769854,33.5164474 C217.056726,34.0592105 216.35859,34.442023 215.675041,34.6652961 C214.991896,34.8885691 214.269854,35 213.508914,35 C212.736629,35 212.014587,34.8552632 211.342788,34.5657895 C210.671394,34.2763158 210.089141,33.8844572 209.595624,33.3898026 C209.102512,32.895148 208.713128,32.3133224 208.427877,31.6439145 C208.142626,30.9745066 208,30.2598684 208,29.5 C208,28.7401316 208.142626,28.0254934 208.427877,27.3560855 C208.713128,26.6866776 209.105348,26.104852 209.604538,25.6101974 C210.103728,25.1155428 210.686386,24.7236842 211.351702,24.4342105 C212.017423,24.1447368 212.730551,24 213.491086,24 C214.21637,24 214.911669,24.1356908 215.576985,24.4070724 C216.242707,24.6784539 216.831037,25.0555099 217.341977,25.5378289 C217.853323,26.020148 218.257293,26.5962171 218.554295,27.265625 C218.851702,27.9350329 219,28.6739309 219,29.4819079 Z M216.307942,28.46875 C216.106159,27.8055099 215.746353,27.2717928 215.229335,26.8675987 C214.712318,26.4634046 214.127229,26.2615132 213.473258,26.2615132 C212.831442,26.2615132 212.255267,26.4634046 211.743922,26.8675987 C211.232982,27.2717928 210.876418,27.8055099 210.67423,28.46875 L216.307942,28.46875 L216.307942,28.46875 Z" id="Fill-9" fill="#001B60"></path>
                <path d="M242,35 L238.898518,35 L237.548461,32 L230.469783,32 L229.101482,35 L226,35 L232.896237,20 L235.103763,20 L242,35 Z M236.435576,29.58125 L234.009122,24.18125 L231.54618,29.58125 L236.435576,29.58125 L236.435576,29.58125 Z" id="Fill-10" fill="#001B60"></path>
                <path d="M252,34.7345972 L249.356115,34.7345972 L249.356115,34.1658768 C249.02052,34.4566997 248.654676,34.6682464 248.258993,34.8009479 C247.863309,34.9336493 247.443918,35 247,35 C246.268721,35 245.597122,34.8453253 244.985612,34.535545 C244.374101,34.2257648 243.846795,33.8087031 243.402878,33.2843602 C242.959369,32.7600172 242.614781,32.1499354 242.368705,31.4549763 C242.123038,30.7600172 242,30.0267126 242,29.2559242 C242,28.4342956 242.141024,27.6729858 242.422662,26.971564 C242.704709,26.2701422 243.079137,25.6604912 243.546763,25.1421801 C244.014388,24.623869 244.548234,24.2162861 245.147482,23.9194313 C245.747139,23.6225765 246.364781,23.4739336 247,23.4739336 C247.443918,23.4739336 247.875572,23.5372684 248.294964,23.6635071 C248.714765,23.7897458 249.074477,23.9668246 249.374101,24.1943128 L249.374101,19 L252,19 L252,34.7345972 Z M249.392086,31.7962085 L249.392086,26.5260664 C249.272319,26.4377424 249.134565,26.3524343 248.978417,26.2701422 C248.822678,26.1878501 248.660808,26.1184834 248.492806,26.0616114 C248.325213,26.0047393 248.157211,25.9603619 247.989209,25.92891 C247.821615,25.897458 247.671599,25.8815166 247.539568,25.8815166 C247.107914,25.8815166 246.7155,25.9603619 246.361511,26.1184834 C246.00793,26.2766049 245.699313,26.5040931 245.435252,26.8009479 C245.171599,27.0978027 244.967626,27.4549763 244.823741,27.8720379 C244.679856,28.2890995 244.607914,28.7505386 244.607914,29.2559242 C244.607914,29.7488152 244.679856,30.2007755 244.823741,30.6113744 C244.967626,31.0219733 245.165468,31.376131 245.417266,31.6729858 C245.669065,31.9698406 245.971959,32.2007755 246.32554,32.3649289 C246.679529,32.5290823 247.06622,32.6113744 247.485612,32.6113744 C248.169065,32.6113744 248.804693,32.3395088 249.392086,31.7962085 L249.392086,31.7962085 Z" id="Fill-11" fill="#001B60"></path>
                <polyline id="Fill-12" fill="#001B60" points="265 24 260.863085 35 258.155979 35 254 24 257.012132 24 259.509532 31.3713299 262.006932 24 265 24"></polyline>
                <path d="M266,22.7141134 L269,22.7141134 L269,20 L266,20 L266,22.7141134 Z M266.04,35 L268.96,35 L268.96,24.5235223 L266.04,24.5235223 L266.04,35 Z" id="Fill-13" fill="#001B60"></path>
                <path d="M279,31.7848933 C279,32.3025452 278.879746,32.7631363 278.638826,33.1666667 C278.398317,33.570197 278.085163,33.907225 277.699774,34.1781609 C277.314796,34.4490969 276.881387,34.6539409 276.399549,34.7922824 C275.91812,34.930624 275.442438,35 274.972912,35 C274.17833,35 273.446953,34.8526273 272.778781,34.5574713 C272.110609,34.2623153 271.523702,33.7898194 271.018059,33.1395731 L272.589165,31.5500821 C272.902319,31.9474548 273.263493,32.2573892 273.672686,32.4802956 C274.08229,32.703202 274.521445,32.8144499 274.990971,32.8144499 C275.400575,32.8144499 275.740406,32.7393268 276.011287,32.58867 C276.282167,32.4380131 276.417607,32.2122332 276.417607,31.91133 C276.417607,31.5981117 276.225118,31.3362069 275.839729,31.1256158 C275.454751,30.9150246 274.91299,30.7073071 274.214447,30.5024631 C273.805253,30.3821839 273.407962,30.2286535 273.022573,30.0418719 C272.637595,29.8550903 272.29448,29.6264368 271.993228,29.3555008 C271.692387,29.0845649 271.451467,28.7746305 271.27088,28.4252874 C271.090293,28.0759442 271,27.6728243 271,27.2151067 C271,26.7093596 271.117381,26.2549261 271.352144,25.8513957 C271.586907,25.4478654 271.893905,25.1108374 272.273138,24.8399015 C272.65237,24.5689655 273.082906,24.3612479 273.564334,24.2167488 C274.046173,24.0722496 274.533757,24 275.027088,24 C276.616253,24 277.916479,24.6022167 278.927765,25.8062397 L277.374718,27.3776683 C277.073876,27.0045156 276.730761,26.7093596 276.345372,26.4926108 C275.960394,26.2758621 275.538888,26.1674877 275.081264,26.1674877 C274.924892,26.1674877 274.759491,26.1884236 274.58465,26.2307061 C274.41022,26.2729885 274.247691,26.3329228 274.097065,26.41133 C273.94685,26.4897373 273.823312,26.591954 273.726862,26.7183908 C273.630823,26.8448276 273.582393,26.9864532 273.582393,27.1428571 C273.582393,27.4199507 273.766263,27.660509 274.133183,27.865353 C274.500513,28.070197 275.027088,28.2746305 275.713318,28.4794745 C276.15904,28.612069 276.580135,28.7803777 276.977427,28.9852217 C277.374718,29.1900657 277.723989,29.4277504 278.024831,29.6986864 C278.326082,29.9696223 278.563718,30.2766831 278.738149,30.6198686 C278.91299,30.9630542 279,31.3513957 279,31.7848933" id="Fill-14" fill="#001B60"></path>
                <path d="M291,29.5 C291,30.2841283 290.857374,31.0106908 290.572123,31.6800987 C290.286872,32.3495066 289.894652,32.9284539 289.395462,33.4169408 C288.896272,33.9054276 288.311183,34.2915296 287.639384,34.5748355 C286.96799,34.8581414 286.252026,35 285.491086,35 C284.730551,35 284.017423,34.8581414 283.351702,34.5748355 C282.686386,34.2915296 282.103728,33.9025493 281.604538,33.4078947 C281.105348,32.9132401 280.713128,32.3314145 280.427877,31.6620066 C280.142626,30.9925987 280,30.2717928 280,29.5 C280,28.7401316 280.145867,28.0254934 280.436791,27.3560855 C280.72812,26.6866776 281.123177,26.1015625 281.622366,25.6011513 C282.121556,25.1007401 282.704214,24.7084704 283.36953,24.4251645 C284.035251,24.1418586 284.742301,24 285.491086,24 C286.252026,24 286.96799,24.1418586 287.639384,24.4251645 C288.311183,24.7084704 288.896272,25.0945724 289.395462,25.5830592 C289.894652,26.0715461 290.286872,26.6533717 290.572123,27.3289474 C290.857374,28.004523 291,28.7282072 291,29.5 Z M288.432739,29.5 C288.432739,29.0538651 288.355754,28.6377467 288.200972,28.2516447 C288.046596,27.8655428 287.835494,27.5279605 287.568071,27.2384868 C287.300648,26.9490132 286.988655,26.7228618 286.632091,26.5600329 C286.275527,26.3972039 285.895462,26.3157895 285.491086,26.3157895 C285.087115,26.3157895 284.706645,26.3972039 284.350081,26.5600329 C283.993517,26.7228618 283.681524,26.9490132 283.4141,27.2384868 C283.146677,27.5279605 282.935981,27.8655428 282.781199,28.2516447 C282.626823,28.6377467 282.549433,29.0538651 282.549433,29.5 C282.549433,29.9461349 282.626823,30.3622533 282.781199,30.7483553 C282.935981,31.1344572 283.146677,31.4720395 283.4141,31.7615132 C283.681524,32.0509868 283.993517,32.2771382 284.350081,32.4399671 C284.706645,32.6027961 285.087115,32.6842105 285.491086,32.6842105 C285.895462,32.6842105 286.275527,32.6027961 286.632091,32.4399671 C286.988655,32.2771382 287.300648,32.0509868 287.568071,31.7615132 C287.835494,31.4720395 288.046596,31.1344572 288.200972,30.7483553 C288.355754,30.3622533 288.432739,29.9461349 288.432739,29.5 L288.432739,29.5 Z" id="Fill-15" fill="#001B60"></path>
                <path d="M301,25.391231 L299.519231,27.6543002 C299.25,27.3697302 298.951923,27.1193086 298.625,26.9030354 C298.298077,26.6867622 297.968094,26.5784148 297.634615,26.5784148 C297.45542,26.5784148 297.259615,26.6184654 297.048077,26.6989882 C296.836538,26.779511 296.638112,26.9123103 296.451923,27.0978078 C296.266171,27.2833052 296.109266,27.527403 295.980769,27.8305228 C295.85271,28.1336425 295.788462,28.5075885 295.788462,28.9527825 L295.788462,35 L293,35 L293,24.2782462 L295.788462,24.2782462 L295.788462,25.4283305 C296.121941,24.9709106 296.490385,24.6184654 296.894231,24.3709949 C297.298077,24.1235245 297.75,24 298.25,24 C298.737325,24 299.215035,24.1268971 299.682692,24.3802698 C300.150787,24.6336425 300.590035,24.9709106 301,25.391231" id="Fill-16" fill="#001B60"></path>
                <path d="M310,31.7848933 C310,32.3025452 309.879746,32.7631363 309.638826,33.1666667 C309.398317,33.570197 309.085163,33.907225 308.699774,34.1781609 C308.314796,34.4490969 307.881387,34.6539409 307.399549,34.7922824 C306.91812,34.930624 306.442438,35 305.972912,35 C305.17833,35 304.446953,34.8526273 303.778781,34.5574713 C303.110609,34.2623153 302.523702,33.7898194 302.018059,33.1395731 L303.589165,31.5500821 C303.902319,31.9474548 304.263493,32.2573892 304.672686,32.4802956 C305.08229,32.703202 305.521445,32.8144499 305.990971,32.8144499 C306.400575,32.8144499 306.740406,32.7393268 307.011287,32.58867 C307.282167,32.4380131 307.417607,32.2122332 307.417607,31.91133 C307.417607,31.5981117 307.225118,31.3362069 306.839729,31.1256158 C306.454751,30.9150246 305.91299,30.7073071 305.214447,30.5024631 C304.805253,30.3821839 304.407962,30.2286535 304.022573,30.0418719 C303.637595,29.8550903 303.29448,29.6264368 302.993228,29.3555008 C302.692387,29.0845649 302.451467,28.7746305 302.27088,28.4252874 C302.090293,28.0759442 302,27.6728243 302,27.2151067 C302,26.7093596 302.117381,26.2549261 302.352144,25.8513957 C302.586907,25.4478654 302.893905,25.1108374 303.273138,24.8399015 C303.65237,24.5689655 304.082906,24.3612479 304.564334,24.2167488 C305.046173,24.0722496 305.533757,24 306.027088,24 C307.616253,24 308.916479,24.6022167 309.927765,25.8062397 L308.374718,27.3776683 C308.073876,27.0045156 307.730761,26.7093596 307.345372,26.4926108 C306.960394,26.2758621 306.538888,26.1674877 306.081264,26.1674877 C305.924892,26.1674877 305.759491,26.1884236 305.58465,26.2307061 C305.41022,26.2729885 305.247691,26.3329228 305.097065,26.41133 C304.94685,26.4897373 304.823312,26.591954 304.726862,26.7183908 C304.630823,26.8448276 304.582393,26.9864532 304.582393,27.1428571 C304.582393,27.4199507 304.766263,27.660509 305.133183,27.865353 C305.500513,28.070197 306.027088,28.2746305 306.713318,28.4794745 C307.15904,28.612069 307.580135,28.7803777 307.977427,28.9852217 C308.374718,29.1900657 308.723989,29.4277504 309.024831,29.6986864 C309.326082,29.9696223 309.563718,30.2766831 309.738149,30.6198686 C309.91299,30.9630542 310,31.3513957 310,31.7848933" id="Fill-17" fill="#001B60"></path>
                <polyline id="Fill-18" fill="#CD9438" points="116 43 111.472222 49.49 111.472222 54 109.291667 54 109.291667 49.4625 105 43 107.5 43 110.388889 47.62 113.402778 43 116 43"></polyline>
                <path d="M124,49.5 C124,50.1413022 123.883306,50.7360197 123.649919,51.2837171 C123.416532,51.8314145 123.095624,52.3050987 122.687196,52.7047697 C122.278768,53.1044408 121.799981,53.4200851 121.250405,53.6521382 C120.700829,53.8841912 120.115216,54 119.492707,54 C118.870197,54 118.286729,53.8841912 117.742301,53.6521382 C117.197874,53.4200851 116.721232,53.1018286 116.312804,52.6973684 C115.904376,52.2929083 115.583468,51.8166118 115.350081,51.2689145 C115.116694,50.7212171 115,50.1317241 115,49.5 C115,48.8782895 115.119268,48.2935855 115.357374,47.7458882 C115.595481,47.1981908 115.918963,46.7197175 116.327391,46.3100329 C116.735818,45.9003483 117.212461,45.5799149 117.756888,45.3478618 C118.301316,45.1158088 118.880065,45 119.492707,45 C120.115216,45 120.700829,45.1158088 121.250405,45.3478618 C121.799981,45.5799149 122.278768,45.8955592 122.687196,46.2952303 C123.095624,46.6949013 123.416532,47.1711978 123.649919,47.7236842 C123.883306,48.2761707 124,48.8682759 124,49.5 Z M121.899514,49.5 C121.899514,49.1347233 121.836448,48.7942628 121.709887,48.4786184 C121.583325,48.1629741 121.410859,47.8865132 121.192058,47.6496711 C120.973258,47.4128289 120.71799,47.2277961 120.426256,47.0945724 C120.134522,46.9613487 119.823482,46.8947368 119.492707,46.8947368 C119.161932,46.8947368 118.850891,46.9613487 118.559157,47.0945724 C118.267423,47.2277961 118.012156,47.4128289 117.793355,47.6496711 C117.574554,47.8865132 117.402088,48.1629741 117.275527,48.4786184 C117.148966,48.7942628 117.0859,49.1347233 117.0859,49.5 C117.0859,49.8652767 117.148966,50.2057372 117.275527,50.5213816 C117.402088,50.8370259 117.574554,51.1134868 117.793355,51.3503289 C118.012156,51.5871711 118.267423,51.7722039 118.559157,51.9054276 C118.850891,52.0386513 119.161932,52.1052632 119.492707,52.1052632 C119.823482,52.1052632 120.134522,52.0386513 120.426256,51.9054276 C120.71799,51.7722039 120.973258,51.5871711 121.192058,51.3503289 C121.410859,51.1134868 121.583325,50.8370259 121.709887,50.5213816 C121.836448,50.2057372 121.899514,49.8652767 121.899514,49.5 L121.899514,49.5 Z" id="Fill-19" fill="#CD9438"></path>
                <path d="M132,53.8108108 L130.068966,53.8108108 L130.068966,53.2162162 C129.943937,53.3422099 129.7984,53.4527027 129.633142,53.5472973 C129.467884,53.6418919 129.293554,53.722973 129.110153,53.7905405 C128.926752,53.8581081 128.739013,53.9097774 128.546935,53.9459459 C128.354857,53.9821145 128.173822,54 128.003831,54 C127.610604,54 127.232759,53.9368045 126.87069,53.8108108 C126.508621,53.6848172 126.189148,53.4908585 125.911877,53.2297297 C125.634607,52.968601 125.413342,52.6307631 125.248084,52.2162162 C125.082826,51.8016693 125,51.3108108 125,50.7432432 L125,46 L126.931034,46 L126.931034,50.6486486 C126.931034,50.9280604 126.973631,51.1732909 127.058429,51.3851351 C127.143227,51.5969793 127.25524,51.772655 127.393678,51.9121622 C127.532116,52.0516693 127.693036,52.1554054 127.876437,52.222973 C128.059838,52.2905405 128.249549,52.3243243 128.44636,52.3243243 C129.07229,52.3243243 129.613027,52.1081081 130.068966,51.6756757 L130.068966,46 L132,46 L132,53.8108108" id="Fill-20" fill="#CD9438"></path>
                <path d="M140,47.0118044 L138.889423,48.6576728 C138.6875,48.4509473 138.463942,48.2688225 138.21875,48.1112985 C137.973558,47.9537744 137.72582,47.8752108 137.475962,47.8752108 C137.341488,47.8752108 137.194712,47.904573 137.036058,47.9629005 C136.877404,48.0212281 136.728507,48.1180438 136.588942,48.2529511 C136.449378,48.3878583 136.331872,48.5656185 136.235577,48.7858347 C136.139282,49.006051 136.091346,49.2782462 136.091346,49.6020236 L136.091346,54 L134,54 L134,46.2023609 L136.091346,46.2023609 L136.091346,47.0387858 C136.341205,46.7058824 136.617788,46.4495586 136.920673,46.2698145 C137.223558,46.0900704 137.5625,46 137.9375,46 C138.302743,46 138.661199,46.0920544 139.012019,46.2765599 C139.362839,46.4610654 139.692449,46.7058824 140,47.0118044" id="Fill-21" fill="#CD9438"></path>
                <path d="M153,50.7509025 C153,51.1841155 152.909408,51.5956679 152.728223,51.9855596 C152.547038,52.3754513 152.293708,52.7194733 151.968641,53.0180505 C151.643575,53.3166277 151.25784,53.5548949 150.811847,53.732852 C150.365854,53.9108091 149.87354,54 149.334495,54 C148.851199,54 148.417094,53.9711191 148.031359,53.9133574 C147.645624,53.8555957 147.283255,53.7642812 146.944251,53.6389892 C146.605247,53.5136972 146.27977,53.3527288 145.968641,53.1552347 C145.657512,52.9577405 145.334495,52.7194733 145,52.4404332 L146.533101,50.8375451 C146.979094,51.2227649 147.415659,51.4945848 147.843206,51.6534296 C148.270752,51.8122744 148.735192,51.8916968 149.236934,51.8916968 C149.441484,51.8916968 149.634146,51.8602676 149.815331,51.7978339 C149.996516,51.7354003 150.154335,51.6508813 150.289199,51.5451264 C150.424062,51.4393714 150.530642,51.3140794 150.609756,51.1696751 C150.688871,51.0252708 150.728223,50.866426 150.728223,50.6931408 C150.728223,50.5100871 150.695839,50.3465704 150.630662,50.2021661 C150.565485,50.0577617 150.449477,49.9180293 150.28223,49.7833935 C150.114983,49.6487577 149.882558,49.5115736 149.585366,49.3718412 C149.288174,49.2321087 148.906948,49.0758123 148.442509,48.9025271 C148.033818,48.7483542 147.641115,48.5729454 147.264808,48.3754513 C146.888502,48.1779571 146.558516,47.93969 146.275261,47.6606498 C145.992007,47.3816097 145.764091,47.0541516 145.592334,46.6787004 C145.420578,46.3032491 145.334495,45.8602676 145.334495,45.3501805 C145.334495,44.8592058 145.429596,44.4068804 145.620209,43.9927798 C145.810822,43.5786791 146.070711,43.2248885 146.400697,42.9314079 C146.730683,42.6379274 147.116007,42.409004 147.557491,42.2454874 C147.998975,42.0819707 148.474892,42 148.986063,42 C149.840746,42 150.560976,42.1155235 151.146341,42.3465704 C151.731707,42.5776173 152.251896,42.9144192 152.707317,43.3574007 L151.202091,44.9314079 C150.923345,44.6523678 150.612216,44.4378849 150.268293,44.2888087 C149.92437,44.1397324 149.520189,44.0649819 149.055749,44.0649819 C148.842181,44.0649819 148.644599,44.0985347 148.463415,44.166065 C148.28223,44.2335952 148.12646,44.3223614 147.996516,44.433213 C147.866571,44.5440646 147.762041,44.6740285 147.682927,44.8231047 C147.603812,44.9721809 147.56446,45.1289021 147.56446,45.2924188 C147.56446,45.4754725 147.601763,45.6415375 147.675958,45.7906137 C147.750154,45.93969 147.875589,46.0840943 148.052265,46.2238267 C148.22894,46.3635591 148.463415,46.5028669 148.756098,46.6425993 C149.04878,46.7823317 149.413609,46.9339563 149.850174,47.0974729 C150.407666,47.299639 150.886042,47.5209174 151.285714,47.7617329 C151.685386,48.0025483 152.010453,48.267148 152.261324,48.5559567 C152.512195,48.8447653 152.697889,49.1696751 152.818815,49.5306859 C152.939742,49.8916968 153,50.2985772 153,50.7509025" id="Fill-22" fill="#CD9438"></path>
                <path d="M163,49.4851974 C163,49.6232101 162.992707,49.7664474 162.97812,49.9144737 C162.963533,50.0625 162.946372,50.2153154 162.927066,50.3733553 L156.188006,50.3733553 C156.265659,50.6202109 156.37506,50.8544408 156.516207,51.0764803 C156.657355,51.2985197 156.829822,51.4909539 157.034036,51.6537829 C157.23825,51.8166118 157.469063,51.9450464 157.726904,52.0386513 C157.984746,52.1322562 158.269187,52.1792763 158.580227,52.1792763 C158.959481,52.1792763 159.338736,52.1126645 159.71799,51.9794408 C160.097245,51.8462171 160.413433,51.6659733 160.666126,51.4391447 L161.993517,52.7861842 C161.410049,53.2302632 160.838593,53.5437307 160.279579,53.7261513 C159.720564,53.908572 159.129803,54 158.507293,54 C157.875346,54 157.284584,53.8815789 156.735008,53.6447368 C156.185432,53.4078947 155.709219,53.0870259 155.305511,52.6825658 C154.901802,52.2781057 154.583468,51.8018092 154.350081,51.2541118 C154.116694,50.7064145 154,50.1217105 154,49.5 C154,48.8782895 154.116694,48.2935855 154.350081,47.7458882 C154.583468,47.1981908 154.904376,46.7218943 155.312804,46.3174342 C155.721232,45.9129741 156.197874,45.5921053 156.742301,45.3552632 C157.286729,45.1184211 157.870197,45 158.492707,45 C159.086043,45 159.654924,45.1110197 160.199352,45.3330592 C160.743779,45.5550987 161.225141,45.8633417 161.643436,46.2582237 C162.061731,46.6531057 162.392077,47.1241776 162.635332,47.671875 C162.878587,48.2195724 163,48.823868 163,49.4851974 Z M160.797407,48.65625 C160.632234,48.1133417 160.337925,47.6766641 159.914911,47.3462171 C159.491896,47.0157701 159.013109,46.8503289 158.47812,46.8503289 C157.952998,46.8503289 157.481504,47.0157701 157.063209,47.3462171 C156.644914,47.6766641 156.35318,48.1133417 156.188006,48.65625 L160.797407,48.65625 L160.797407,48.65625 Z" id="Fill-23" fill="#CD9438"></path>
                <path d="M172,54 L169.809886,54 L169.809886,49.3456998 C169.809886,49.0667593 169.761575,48.8219423 169.665399,48.6104553 C169.569224,48.3989684 169.439946,48.2235889 169.277567,48.084317 C169.115187,47.9450451 168.930441,47.841484 168.722433,47.7740304 C168.514426,47.7065767 168.299262,47.6728499 168.076046,47.6728499 C167.741445,47.6728499 167.411765,47.7244321 167.087452,47.8279933 C166.76314,47.9315544 166.468799,48.095427 166.205323,48.3204047 L166.205323,54 L164,54 L164,46.2023609 L166.205323,46.2023609 L166.205323,46.7824621 C166.337285,46.6654102 166.499217,46.5574844 166.692015,46.4586847 C166.884813,46.3598849 167.084769,46.2765599 167.292776,46.2091062 C167.500783,46.1416526 167.713711,46.0900704 167.931559,46.0539629 C168.149407,46.0178554 168.360098,46 168.562738,46 C169.008723,46 169.437262,46.063089 169.847909,46.1888702 C170.258555,46.3146513 170.623574,46.5082829 170.942966,46.7689713 C171.262357,47.0296598 171.518229,47.3669279 171.711027,47.7807757 C171.903825,48.1946235 172,48.6846543 172,49.2512648 L172,54" id="Fill-24" fill="#CD9438"></path>
                <path d="M173,44.1712907 L175,44.1712907 L175,42 L173,42 L173,44.1712907 Z M173.026667,54 L174.973333,54 L174.973333,45.6188179 L173.026667,45.6188179 L173.026667,54 Z" id="Fill-25" fill="#CD9438"></path>
                <path d="M186,49.5 C186,50.1413022 185.883306,50.7360197 185.649919,51.2837171 C185.416532,51.8314145 185.095624,52.3050987 184.687196,52.7047697 C184.278768,53.1044408 183.799981,53.4200851 183.250405,53.6521382 C182.700829,53.8841912 182.115216,54 181.492707,54 C180.870197,54 180.286729,53.8841912 179.742301,53.6521382 C179.197874,53.4200851 178.721232,53.1018286 178.312804,52.6973684 C177.904376,52.2929083 177.583468,51.8166118 177.350081,51.2689145 C177.116694,50.7212171 177,50.1317241 177,49.5 C177,48.8782895 177.119268,48.2935855 177.357374,47.7458882 C177.595481,47.1981908 177.918963,46.7197175 178.327391,46.3100329 C178.735818,45.9003483 179.212461,45.5799149 179.756888,45.3478618 C180.301316,45.1158088 180.880065,45 181.492707,45 C182.115216,45 182.700829,45.1158088 183.250405,45.3478618 C183.799981,45.5799149 184.278768,45.8955592 184.687196,46.2952303 C185.095624,46.6949013 185.416532,47.1711978 185.649919,47.7236842 C185.883306,48.2761707 186,48.8682759 186,49.5 Z M183.899514,49.5 C183.899514,49.1347233 183.836448,48.7942628 183.709887,48.4786184 C183.583325,48.1629741 183.410859,47.8865132 183.192058,47.6496711 C182.973258,47.4128289 182.71799,47.2277961 182.426256,47.0945724 C182.134522,46.9613487 181.823482,46.8947368 181.492707,46.8947368 C181.161932,46.8947368 180.850891,46.9613487 180.559157,47.0945724 C180.267423,47.2277961 180.012156,47.4128289 179.793355,47.6496711 C179.574554,47.8865132 179.402088,48.1629741 179.275527,48.4786184 C179.148966,48.7942628 179.0859,49.1347233 179.0859,49.5 C179.0859,49.8652767 179.148966,50.2057372 179.275527,50.5213816 C179.402088,50.8370259 179.574554,51.1134868 179.793355,51.3503289 C180.012156,51.5871711 180.267423,51.7722039 180.559157,51.9054276 C180.850891,52.0386513 181.161932,52.1052632 181.492707,52.1052632 C181.823482,52.1052632 182.134522,52.0386513 182.426256,51.9054276 C182.71799,51.7722039 182.973258,51.5871711 183.192058,51.3503289 C183.410859,51.1134868 183.583325,50.8370259 183.709887,50.5213816 C183.836448,50.2057372 183.899514,49.8652767 183.899514,49.5 L183.899514,49.5 Z" id="Fill-26" fill="#CD9438"></path>
                <path d="M193,47.0118044 L191.889423,48.6576728 C191.6875,48.4509473 191.463942,48.2688225 191.21875,48.1112985 C190.973558,47.9537744 190.72582,47.8752108 190.475962,47.8752108 C190.341488,47.8752108 190.194712,47.904573 190.036058,47.9629005 C189.877404,48.0212281 189.728507,48.1180438 189.588942,48.2529511 C189.449378,48.3878583 189.331872,48.5656185 189.235577,48.7858347 C189.139282,49.006051 189.091346,49.2782462 189.091346,49.6020236 L189.091346,54 L187,54 L187,46.2023609 L189.091346,46.2023609 L189.091346,47.0387858 C189.341205,46.7058824 189.617788,46.4495586 189.920673,46.2698145 C190.223558,46.0900704 190.5625,46 190.9375,46 C191.302743,46 191.661199,46.0920544 192.012019,46.2765599 C192.362839,46.4610654 192.692449,46.7058824 193,47.0118044" id="Fill-27" fill="#CD9438"></path>
                <polyline id="Fill-28" fill="#CD9438" points="206 54 198 54 198 43 200.336414 43 200.336414 51.9349186 206 51.9349186 206 54"></polyline>
                <path d="M207,44.1712907 L209,44.1712907 L209,42 L207,42 L207,44.1712907 Z M207.026667,54 L208.973333,54 L208.973333,45.6188179 L207.026667,45.6188179 L207.026667,54 Z" id="Fill-29" fill="#CD9438"></path>
                <polyline id="Fill-30" fill="#CD9438" points="219 46 215.991334 54 214.02253 54 211 46 213.190641 46 215.006932 51.3609672 216.823224 46 219 46"></polyline>
                <path d="M220,44.1712907 L222,44.1712907 L222,42 L220,42 L220,44.1712907 Z M220.026667,54 L221.973333,54 L221.973333,45.6188179 L220.026667,45.6188179 L220.026667,54 Z" id="Fill-31" fill="#CD9438"></path>
                <path d="M231,54 L228.809886,54 L228.809886,49.3456998 C228.809886,49.0667593 228.761575,48.8219423 228.665399,48.6104553 C228.569224,48.3989684 228.439946,48.2235889 228.277567,48.084317 C228.115187,47.9450451 227.930441,47.841484 227.722433,47.7740304 C227.514426,47.7065767 227.299262,47.6728499 227.076046,47.6728499 C226.741445,47.6728499 226.411765,47.7244321 226.087452,47.8279933 C225.76314,47.9315544 225.468799,48.095427 225.205323,48.3204047 L225.205323,54 L223,54 L223,46.2023609 L225.205323,46.2023609 L225.205323,46.7824621 C225.337285,46.6654102 225.499217,46.5574844 225.692015,46.4586847 C225.884813,46.3598849 226.084769,46.2765599 226.292776,46.2091062 C226.500783,46.1416526 226.713711,46.0900704 226.931559,46.0539629 C227.149407,46.0178554 227.360098,46 227.562738,46 C228.008723,46 228.437262,46.063089 228.847909,46.1888702 C229.258555,46.3146513 229.623574,46.5082829 229.942966,46.7689713 C230.262357,47.0296598 230.518229,47.3669279 230.711027,47.7807757 C230.903825,48.1946235 231,48.6846543 231,49.2512648 L231,54" id="Fill-32" fill="#CD9438"></path>
                <path d="M240,47.7772675 L239.122302,47.7772675 C239.342785,48.1905855 239.453237,48.6314581 239.453237,49.0998852 C239.453237,49.4580941 239.383834,49.8049571 239.244604,50.1400689 C239.105375,50.4751807 238.906475,50.7807118 238.647482,51.0562572 C238.388489,51.3318025 238.074482,51.5660161 237.705036,51.7588978 C237.33559,51.9517796 236.920863,52.0802323 236.460432,52.1446613 C236.143885,52.1904505 235.906475,52.2617681 235.748201,52.358209 C235.589928,52.4546498 235.510791,52.5510907 235.510791,52.6475316 C235.510791,52.7439724 235.589928,52.8335247 235.748201,52.9161883 C235.906475,52.9988519 236.143885,53.053961 236.460432,53.0815155 C237.534913,53.173499 238.366906,53.4304045 238.956835,53.8530425 C239.546763,54.2756804 239.841727,54.8356858 239.841727,55.5338691 C239.841727,55.8920781 239.750741,56.2227325 239.568345,56.5258324 C239.38595,56.8289323 239.124841,57.0907003 238.784173,57.3111366 C238.443504,57.5315729 238.033432,57.7013575 237.553957,57.8208955 C237.074482,57.9404336 236.537029,58 235.942446,58 C235.338129,58 234.793906,57.9404336 234.309353,57.8208955 C233.824799,57.7013575 233.410072,57.5340042 233.064748,57.3180253 C232.719424,57.1020463 232.455777,56.8427095 232.273381,56.5396096 C232.090986,56.2365098 232,55.901398 232,55.5338691 C232,54.9827784 232.165468,54.52124 232.496403,54.1492537 C232.827338,53.7772675 233.366906,53.4992909 234.115108,53.315729 C233.884892,53.2330654 233.719424,53.120416 233.618705,52.978186 C233.517986,52.835956 233.472281,52.6912947 233.482014,52.5442021 C233.491748,52.3971095 233.556496,52.2573107 233.676259,52.1239954 C233.796022,51.9906801 233.966568,51.8873506 234.18705,51.8140069 C233.937791,51.7037887 233.700381,51.5615587 233.47482,51.3869116 C233.249259,51.2122645 233.045705,51.010468 232.863309,50.7807118 C232.680914,50.5509556 232.537029,50.2940501 232.431655,50.0091848 C232.32628,49.7243196 232.273381,49.4212197 232.273381,49.0998852 C232.273381,48.6683325 232.369446,48.2639292 232.561151,47.8874856 C232.752857,47.5110421 233.011849,47.1824137 233.338129,46.902411 C233.66441,46.6224083 234.043165,46.401972 234.47482,46.2411022 C234.906475,46.0802323 235.362251,46 235.841727,46 C236.311892,46 236.748201,46.0688863 237.151079,46.206659 L240,46.206659 L240,47.7772675 Z M237.395683,49.0998852 C237.395683,48.8976835 237.355057,48.7096643 237.273381,48.5350172 C237.191705,48.3603701 237.081676,48.2067941 236.942446,48.0734788 C236.803216,47.9401634 236.640288,47.8348079 236.453237,47.7566016 C236.266187,47.6783954 236.067287,47.6394948 235.856115,47.6394948 C235.644943,47.6394948 235.448582,47.6783954 235.266187,47.7566016 C235.083792,47.8348079 234.923402,47.9401634 234.784173,48.0734788 C234.644943,48.2067941 234.534913,48.3603701 234.453237,48.5350172 C234.371562,48.7096643 234.330935,48.8976835 234.330935,49.0998852 C234.330935,49.3020869 234.371562,49.4925373 234.453237,49.6716418 C234.534913,49.8507463 234.644943,50.0067536 234.784173,50.1400689 C234.923402,50.2733842 235.083792,50.3787398 235.266187,50.456946 C235.448582,50.5351523 235.644943,50.5740528 235.856115,50.5740528 C236.067287,50.5740528 236.266187,50.5351523 236.453237,50.456946 C236.640288,50.3787398 236.803216,50.2733842 236.942446,50.1400689 C237.081676,50.0067536 237.191705,49.8507463 237.273381,49.6716418 C237.355057,49.4925373 237.395683,49.3020869 237.395683,49.0998852 Z M237.769784,55.5338691 C237.769784,55.2125346 237.599661,54.9783211 237.258993,54.8312285 C236.918324,54.6841359 236.479475,54.6107922 235.942446,54.6107922 C235.366906,54.6107922 234.913669,54.6889984 234.582734,54.8450057 C234.251799,55.001013 234.086331,55.2307692 234.086331,55.5338691 C234.086331,55.8462889 234.258993,56.0805025 234.604317,56.2365098 C234.94964,56.3925171 235.395683,56.4707233 235.942446,56.4707233 C236.498942,56.4707233 236.942446,56.3949483 237.273381,56.2433984 C237.604317,56.0918485 237.769784,55.8552036 237.769784,55.5338691 L237.769784,55.5338691 Z" id="Fill-33" fill="#CD9438"></path>
                <polyline id="Fill-34" fill="#CD9438" points="254 54 246 54 246 43 248.336414 43 248.336414 51.9349186 254 51.9349186 254 54"></polyline>
                <path d="M264,49.5 C264,50.1413022 263.883306,50.7360197 263.649919,51.2837171 C263.416532,51.8314145 263.095624,52.3050987 262.687196,52.7047697 C262.278768,53.1044408 261.799981,53.4200851 261.250405,53.6521382 C260.700829,53.8841912 260.115216,54 259.492707,54 C258.870197,54 258.286729,53.8841912 257.742301,53.6521382 C257.197874,53.4200851 256.721232,53.1018286 256.312804,52.6973684 C255.904376,52.2929083 255.583468,51.8166118 255.350081,51.2689145 C255.116694,50.7212171 255,50.1317241 255,49.5 C255,48.8782895 255.119268,48.2935855 255.357374,47.7458882 C255.595481,47.1981908 255.918963,46.7197175 256.327391,46.3100329 C256.735818,45.9003483 257.212461,45.5799149 257.756888,45.3478618 C258.301316,45.1158088 258.880065,45 259.492707,45 C260.115216,45 260.700829,45.1158088 261.250405,45.3478618 C261.799981,45.5799149 262.278768,45.8955592 262.687196,46.2952303 C263.095624,46.6949013 263.416532,47.1711978 263.649919,47.7236842 C263.883306,48.2761707 264,48.8682759 264,49.5 Z M261.899514,49.5 C261.899514,49.1347233 261.836448,48.7942628 261.709887,48.4786184 C261.583325,48.1629741 261.410859,47.8865132 261.192058,47.6496711 C260.973258,47.4128289 260.71799,47.2277961 260.426256,47.0945724 C260.134522,46.9613487 259.823482,46.8947368 259.492707,46.8947368 C259.161932,46.8947368 258.850891,46.9613487 258.559157,47.0945724 C258.267423,47.2277961 258.012156,47.4128289 257.793355,47.6496711 C257.574554,47.8865132 257.402088,48.1629741 257.275527,48.4786184 C257.148966,48.7942628 257.0859,49.1347233 257.0859,49.5 C257.0859,49.8652767 257.148966,50.2057372 257.275527,50.5213816 C257.402088,50.8370259 257.574554,51.1134868 257.793355,51.3503289 C258.012156,51.5871711 258.267423,51.7722039 258.559157,51.9054276 C258.850891,52.0386513 259.161932,52.1052632 259.492707,52.1052632 C259.823482,52.1052632 260.134522,52.0386513 260.426256,51.9054276 C260.71799,51.7722039 260.973258,51.5871711 261.192058,51.3503289 C261.410859,51.1134868 261.583325,50.8370259 261.709887,50.5213816 C261.836448,50.2057372 261.899514,49.8652767 261.899514,49.5 L261.899514,49.5 Z" id="Fill-35" fill="#CD9438"></path>
                <path d="M272,52.4901316 C271.56718,52.9834075 271.045366,53.3586978 270.435424,53.6151316 C269.825483,53.8715654 269.185587,54 268.516605,54 C267.896679,54 267.311048,53.886368 266.760148,53.6595395 C266.209247,53.4327109 265.729542,53.1192434 265.321033,52.7195724 C264.912524,52.3199013 264.590406,51.8436049 264.354244,51.2911184 C264.118081,50.738632 264,50.1413022 264,49.5 C264,48.8682759 264.118081,48.2787829 264.354244,47.7310855 C264.590406,47.1833882 264.910354,46.7070917 265.313653,46.3026316 C265.716952,45.8981714 266.194487,45.5799149 266.745387,45.3478618 C267.296288,45.1158088 267.886694,45 268.516605,45 C269.166052,45 269.783373,45.1184211 270.369004,45.3552632 C270.954634,45.5921053 271.463859,45.9521575 271.896679,46.4358553 L270.464945,47.9013158 C270.248318,47.6152767 269.98524,47.3784346 269.675277,47.1907895 C269.365314,47.0031443 268.98893,46.9095395 268.546125,46.9095395 C268.221402,46.9095395 267.914044,46.9787635 267.623616,47.1167763 C267.333189,47.2547891 267.077491,47.439822 266.856089,47.671875 C266.634686,47.903928 266.460169,48.1777767 266.332103,48.4934211 C266.204037,48.8090654 266.140221,49.1447368 266.140221,49.5 C266.140221,49.8552632 266.204037,50.1909346 266.332103,50.5065789 C266.460169,50.8222233 266.632082,51.096072 266.848708,51.328125 C267.065335,51.560178 267.321033,51.7452109 267.616236,51.8832237 C267.911439,52.0212365 268.221402,52.0904605 268.546125,52.0904605 C268.969394,52.0904605 269.353158,51.9894543 269.697417,51.7870066 C270.041676,51.5845588 270.317343,51.3255128 270.523985,51.0098684 L272,52.4901316" id="Fill-36" fill="#CD9438"></path>
                <path d="M280,53.7779605 L277.97,53.7779605 L277.97,53.3190789 C277.615471,53.5755128 277.239529,53.7531443 276.843,53.8519737 C276.446471,53.950803 276.038,54 275.618,54 C275.226,54 274.871471,53.9381772 274.554,53.8149671 C274.236529,53.691757 273.961471,53.5141254 273.728,53.2820724 C273.494529,53.0500193 273.315,52.7761707 273.189,52.4605263 C273.063,52.144882 273,51.7944079 273,51.4095395 C273,50.9258417 273.100471,50.5039667 273.301,50.1439145 C273.501529,49.7838622 273.774529,49.4825851 274.12,49.2409539 C274.465471,48.9993228 274.869,48.8190789 275.331,48.7006579 C275.793,48.5822368 276.29,48.5230263 276.822,48.5230263 L277.984,48.5230263 C277.984,48.0197368 277.83,47.6200658 277.522,47.3240132 C277.214,47.0279605 276.770529,46.8799342 276.192,46.8799342 C275.912,46.8799342 275.622529,46.9343557 275.324,47.0427632 C275.025471,47.1511707 274.726529,47.3488293 274.428,47.6348684 L273.238,46.3618421 C273.667471,45.9277767 274.164471,45.5921053 274.729,45.3552632 C275.293529,45.1184211 275.874529,45 276.472,45 C277.032,45 277.531471,45.0936049 277.97,45.28125 C278.408529,45.4688951 278.763471,45.7105263 279.034,46.0065789 C279.388529,46.3814338 279.638471,46.801132 279.783,47.2648026 C279.927529,47.7284733 280,48.3205786 280,49.0411184 L280,53.7779605 Z M277.97,51.6463816 L277.97,50.0625 L277.046,50.0625 C276.766,50.0625 276.502471,50.0820917 276.255,50.1217105 C276.007529,50.1613293 275.793,50.2279412 275.611,50.3215461 C275.429,50.4151509 275.284471,50.5361842 275.177,50.6842105 C275.069529,50.8322368 275.016,51.0098684 275.016,51.2171053 C275.016,51.5131579 275.125529,51.7547891 275.345,51.9424342 C275.564471,52.1300793 275.846529,52.2236842 276.192,52.2236842 C276.490529,52.2236842 276.787,52.1744872 277.081,52.0756579 C277.375,51.9768286 277.671471,51.8340267 277.97,51.6463816 L277.97,51.6463816 Z" id="Fill-37" fill="#CD9438"></path>
                <path d="M286,53.5963303 C285.800048,53.7307455 285.56844,53.8316629 285.305177,53.8990826 C285.041914,53.9665022 284.77825,54 284.514986,54 C284.051771,54 283.661084,53.9397888 283.343324,53.8197903 C283.025565,53.6997918 282.771117,53.5144939 282.580381,53.2647444 C282.389646,53.014995 282.251002,52.6978259 282.16485,52.3132372 C282.078699,51.9286485 282.035422,51.4770642 282.035422,50.9580603 L282.035422,47.310616 L281,47.310616 L281,46.3735256 C281.635919,46.0949426 282.151226,45.6815203 282.546322,45.1336828 C282.941417,44.5858453 283.211492,43.8747591 283.356948,43 L283.997275,43 L283.997275,45.4364351 L285.986376,45.4364351 L285.986376,47.310616 L283.997275,47.310616 L283.997275,51.102228 C283.997275,51.3138154 284.022119,51.4868167 284.072207,51.621232 C284.122295,51.7556472 284.188011,51.8616529 284.269755,51.938401 C284.351499,52.0151492 284.444462,52.068152 284.549046,52.0969856 C284.65363,52.1258191 284.764626,52.1402359 284.882834,52.1402359 C285.037105,52.1402359 285.223433,52.1114024 285.441417,52.0537353 C285.659401,51.9960682 285.845728,51.899815 286,51.7653997 L286,53.5963303" id="Fill-38" fill="#CD9438"></path>
                <path d="M296,49.5 C296,50.1413022 295.883306,50.7360197 295.649919,51.2837171 C295.416532,51.8314145 295.095624,52.3050987 294.687196,52.7047697 C294.278768,53.1044408 293.799981,53.4200851 293.250405,53.6521382 C292.700829,53.8841912 292.115216,54 291.492707,54 C290.870197,54 290.286729,53.8841912 289.742301,53.6521382 C289.197874,53.4200851 288.721232,53.1018286 288.312804,52.6973684 C287.904376,52.2929083 287.583468,51.8166118 287.350081,51.2689145 C287.116694,50.7212171 287,50.1317241 287,49.5 C287,48.8782895 287.119268,48.2935855 287.357374,47.7458882 C287.595481,47.1981908 287.918963,46.7197175 288.327391,46.3100329 C288.735818,45.9003483 289.212461,45.5799149 289.756888,45.3478618 C290.301316,45.1158088 290.880065,45 291.492707,45 C292.115216,45 292.700829,45.1158088 293.250405,45.3478618 C293.799981,45.5799149 294.278768,45.8955592 294.687196,46.2952303 C295.095624,46.6949013 295.416532,47.1711978 295.649919,47.7236842 C295.883306,48.2761707 296,48.8682759 296,49.5 Z M293.899514,49.5 C293.899514,49.1347233 293.836448,48.7942628 293.709887,48.4786184 C293.583325,48.1629741 293.410859,47.8865132 293.192058,47.6496711 C292.973258,47.4128289 292.71799,47.2277961 292.426256,47.0945724 C292.134522,46.9613487 291.823482,46.8947368 291.492707,46.8947368 C291.161932,46.8947368 290.850891,46.9613487 290.559157,47.0945724 C290.267423,47.2277961 290.012156,47.4128289 289.793355,47.6496711 C289.574554,47.8865132 289.402088,48.1629741 289.275527,48.4786184 C289.148966,48.7942628 289.0859,49.1347233 289.0859,49.5 C289.0859,49.8652767 289.148966,50.2057372 289.275527,50.5213816 C289.402088,50.8370259 289.574554,51.1134868 289.793355,51.3503289 C290.012156,51.5871711 290.267423,51.7722039 290.559157,51.9054276 C290.850891,52.0386513 291.161932,52.1052632 291.492707,52.1052632 C291.823482,52.1052632 292.134522,52.0386513 292.426256,51.9054276 C292.71799,51.7722039 292.973258,51.5871711 293.192058,51.3503289 C293.410859,51.1134868 293.583325,50.8370259 293.709887,50.5213816 C293.836448,50.2057372 293.899514,49.8652767 293.899514,49.5 L293.899514,49.5 Z" id="Fill-39" fill="#CD9438"></path>
                <path d="M303,47.0118044 L301.889423,48.6576728 C301.6875,48.4509473 301.463942,48.2688225 301.21875,48.1112985 C300.973558,47.9537744 300.72582,47.8752108 300.475962,47.8752108 C300.341488,47.8752108 300.194712,47.904573 300.036058,47.9629005 C299.877404,48.0212281 299.728507,48.1180438 299.588942,48.2529511 C299.449378,48.3878583 299.331872,48.5656185 299.235577,48.7858347 C299.139282,49.006051 299.091346,49.2782462 299.091346,49.6020236 L299.091346,54 L297,54 L297,46.2023609 L299.091346,46.2023609 L299.091346,47.0387858 C299.341205,46.7058824 299.617788,46.4495586 299.920673,46.2698145 C300.223558,46.0900704 300.5625,46 300.9375,46 C301.302743,46 301.661199,46.0920544 302.012019,46.2765599 C302.362839,46.4610654 302.692449,46.7058824 303,47.0118044" id="Fill-40" fill="#CD9438"></path>
                <path d="M310,51.3694581 C310,51.7932483 309.909574,52.1700956 309.72912,52.5 C309.548666,52.8299044 309.313637,53.1059113 309.024831,53.3275862 C308.736024,53.5492611 308.410968,53.7166039 308.049661,53.8300493 C307.688355,53.9434946 307.331828,54 306.979684,54 C306.383747,54 305.835214,53.8791655 305.334086,53.637931 C304.832957,53.3966966 304.392777,53.0098522 304.013544,52.4778325 L305.191874,51.1773399 C305.426504,51.5024631 305.697384,51.7563025 306.004515,51.9384236 C306.311645,52.1205448 306.641084,52.2118227 306.993228,52.2118227 C307.300359,52.2118227 307.555305,52.1501014 307.758465,52.0270936 C307.961625,51.9040858 308.063205,51.7193567 308.063205,51.4729064 C308.063205,51.2168937 307.918603,51.0026079 307.629797,50.8300493 C307.340991,50.6574906 306.93467,50.4875398 306.410835,50.320197 C306.103705,50.22153 305.805736,50.0959142 305.51693,49.9433498 C305.228124,49.7907853 304.970787,49.6034483 304.744921,49.3817734 C304.519055,49.1600985 304.3386,48.9062591 304.20316,48.6206897 C304.06772,48.3351203 304,48.0047812 304,47.6305419 C304,47.2167488 304.088036,46.8446827 304.264108,46.5147783 C304.440181,46.1848739 304.670429,45.908867 304.954853,45.6871921 C305.239278,45.4655172 305.561944,45.2955665 305.923251,45.1773399 C306.284557,45.0591133 306.650246,45 307.020316,45 C308.21219,45 309.187359,45.492466 309.945824,46.4778325 L308.781038,47.7635468 C308.555172,47.4579832 308.297836,47.2167488 308.009029,47.0394089 C307.720223,46.862069 307.40393,46.773399 307.060948,46.773399 C306.943434,46.773399 306.819546,46.7907853 306.688488,46.8251232 C306.557429,46.859461 306.435533,46.9090119 306.322799,46.9729064 C306.210065,47.0368009 306.117249,47.1206897 306.045147,47.2241379 C305.973045,47.3275862 305.936795,47.4432049 305.936795,47.5714286 C305.936795,47.7978847 306.074625,47.9952188 306.349887,48.1625616 C306.625149,48.3299044 307.020316,48.4976818 307.534989,48.6650246 C307.869207,48.7732541 308.185102,48.9114749 308.48307,49.0788177 C308.781038,49.2461605 309.042757,49.4408867 309.268623,49.6625616 C309.494489,49.8842365 309.672553,50.135468 309.803612,50.4162562 C309.93467,50.6970443 310,51.0147783 310,51.3694581" id="Fill-41" fill="#CD9438"></path>
                <polyline id="Fill-42" fill="#CD9438" points="312 43.3454318 311.262104 43.3454318 311.262104 45 310.737896 45 310.737896 43.3454318 310 43.3454318 310 43 312 43 312 43.3454318"></polyline>
                <polyline id="Fill-43" fill="#CD9438" points="314 45 313.619048 45 313.619048 43.665 312.987469 44.7275 312.380952 43.655 312.380952 45 312 45 312 43 312.438596 43 312.994987 43.9925 313.576441 43 314 43 314 45"></polyline>
                <path d="M97,55.0803386 C97,55.0803386 77.9862552,28.3210618 56,62 C56,62 77.2541569,43.7166342 97,55.0803386" id="Fill-44" fill="#001B60"></path>
                <path d="M76,71.7852394 C76,71.7852394 62.2730115,73 48.4886176,57.5180315 C35.710283,43.1661543 10.0777717,37.3042675 0,61.1663592 C0,61.1663592 14.1334348,46.4623915 33.1919924,53.76743 C47.8655397,59.3912365 54.4570921,77.8722126 76,71.7852394" id="Fill-45" fill="#001B60"></path>
                <path d="M68.6288608,31.4355631 C69.5196996,31.4355631 70.3786043,31.5735899 71.186912,31.8285384 C71.9707507,30.7226357 73.2439701,30 74.6855696,30 C77.068605,30 79,31.9661431 79,34.3911092 C79,35.9511919 78.198328,37.3179526 76.9939537,38.0967276 C77.1598455,38.7771533 77.2577216,39.4850154 77.2577216,40.2177815 C77.2577216,45.0681359 73.3945168,49 68.6288608,49 C63.8632048,49 60,45.0681359 60,40.2177815 C60,35.3674272 63.8632048,31.4355631 68.6288608,31.4355631" id="Fill-46" fill="#001B60"></path>
                <path d="M25,38.5 C25,43.7467753 29.2532247,48 34.5,48 C39.7467753,48 44,43.7467753 44,38.5 C44,33.2532247 39.7467753,29 34.5,29 C29.2532247,29 25,33.2532247 25,38.5" id="Fill-47" fill="#001B60"></path>
                <path d="M49,7.69855653 C70.8626999,7.69855653 89.2869623,22.2004402 95,42 C93.127667,18.4983543 73.2556636,0 49,0 C24.7443364,0 4.87233302,18.4983543 3,42 C8.71303775,22.2004402 27.1373001,7.69855653 49,7.69855653" id="Fill-48" fill="#CD9438"></path>
            </g>
        </g>
    </g>
</svg>