<?xml version="1.0" encoding="UTF-8"?>
<svg width="311px" height="64px" viewBox="0 0 311 64" version="1.1" xmlns="http://www.w3.org/2000/svg" xmlns:xlink="http://www.w3.org/1999/xlink">
    <title>logo</title>
    <g id="Page-1" stroke="none" stroke-width="1" fill="none" fill-rule="evenodd">
        <g id="Desktop-HD" transform="translate(-116.000000, -13.000000)">
            <g id="head" transform="translate(0.000000, 13.000000)">
                <g id="logo" transform="translate(116.000000, 0.000000)">
                    <g id="Golden-Age-Advisors" transform="translate(95.768000, 12.168000)" fill="#555555" fill-rule="nonzero">
                        <path d="M13.776,15.624 C13.776,16.296 13.272,16.872 12.264,17.352 C11.256,17.832 9.976,18.072 8.424,18.072 C5.848,18.072 3.8,17.344 2.28,15.888 C0.76,14.432 -1.42108547e-14,12.424 -1.42108547e-14,9.864 C-1.42108547e-14,7.304 0.76,5.3 2.28,3.852 C3.8,2.404 5.864,1.68 8.472,1.68 C9.864,1.68 11.036,1.932 11.988,2.436 C12.94,2.94 13.416,3.56 13.416,4.296 C13.416,4.84 13.188,5.292 12.732,5.652 C12.276,6.012 11.656,6.24 10.872,6.336 C10.6,5.6 10.164,5.044 9.564,4.668 C8.964,4.292 8.336,4.104 7.68,4.104 C6.624,4.104 5.728,4.6 4.992,5.592 C4.256,6.584 3.888,7.848 3.888,9.384 C3.888,11.16 4.252,12.648 4.98,13.848 C5.708,15.048 6.72,15.648 8.016,15.648 C9.088,15.648 9.84,15.344 10.272,14.736 C10.256,13.36 10.192,12.024 10.08,10.728 C10.704,10.6 11.232,10.536 11.664,10.536 C13.168,10.536 13.92,11 13.92,11.928 C13.92,11.976 13.896,12.44 13.848,13.32 C13.8,14.2 13.776,14.968 13.776,15.624 Z" id="Path"></path>
                        <path d="M25.44,16.488 C24.368,17.544 22.96,18.072 21.216,18.072 C19.472,18.072 18.068,17.544 17.004,16.488 C15.94,15.432 15.408,14.024 15.408,12.264 C15.408,10.424 15.94,8.952 17.004,7.848 C18.068,6.744 19.472,6.192 21.216,6.192 C22.96,6.192 24.368,6.744 25.44,7.848 C26.512,8.952 27.048,10.424 27.048,12.264 C27.048,14.024 26.512,15.432 25.44,16.488 Z M23.472,12.744 C23.472,11.528 23.272,10.516 22.872,9.708 C22.472,8.9 21.92,8.496 21.216,8.496 C20.528,8.496 19.988,8.824 19.596,9.48 C19.204,10.136 19.008,11 19.008,12.072 C19.008,13.128 19.204,14.004 19.596,14.7 C19.988,15.396 20.528,15.744 21.216,15.744 C21.936,15.744 22.492,15.468 22.884,14.916 C23.276,14.364 23.472,13.64 23.472,12.744 Z" id="Shape"></path>
                        <path d="M30.624,0 C31.232,0 31.704,0.104 32.04,0.312 C32.376,0.52 32.544,0.928 32.544,1.536 C32.544,1.632 32.516,2.336 32.46,3.648 C32.404,4.96 32.376,5.944 32.376,6.6 L32.376,13.176 C32.376,15.288 32.512,16.76 32.784,17.592 C32.112,17.8 31.448,17.904 30.792,17.904 C30.04,17.904 29.516,17.772 29.22,17.508 C28.924,17.244 28.776,16.856 28.776,16.344 C28.776,16.088 28.788,15.528 28.812,14.664 C28.836,13.8 28.848,13.096 28.848,12.552 L28.848,5.928 C28.848,3.64 28.792,1.768 28.68,0.312 C29.288,0.104 29.936,0 30.624,0 Z" id="Path"></path>
                        <path d="M34.416,12.144 C34.416,10.496 34.872,9.092 35.784,7.932 C36.696,6.772 37.832,6.192 39.192,6.192 C40.088,6.192 40.992,6.464 41.904,7.008 C41.936,5.984 41.952,5.176 41.952,4.584 C41.952,2.84 41.888,1.416 41.76,0.312 C42.496,0.104 43.032,0 43.368,0 C44.856,0 45.6,0.512 45.6,1.536 C45.6,2.48 45.564,4.296 45.492,6.984 C45.42,9.672 45.384,11.504 45.384,12.48 C45.384,15.008 45.536,16.752 45.84,17.712 C45.072,17.904 44.448,18 43.968,18 C43.296,18 42.816,17.876 42.528,17.628 C42.24,17.38 42.048,17.04 41.952,16.608 C41.536,17.04 41.052,17.392 40.5,17.664 C39.948,17.936 39.424,18.072 38.928,18.072 C37.696,18.072 36.636,17.512 35.748,16.392 C34.86,15.272 34.416,13.856 34.416,12.144 Z M41.808,9 C41.328,8.648 40.832,8.472 40.32,8.472 C39.6,8.472 39.032,8.788 38.616,9.42 C38.2,10.052 37.992,10.888 37.992,11.928 C37.992,13.08 38.2,14.028 38.616,14.772 C39.032,15.516 39.544,15.888 40.152,15.888 C40.856,15.888 41.424,15.648 41.856,15.168 C41.824,11.872 41.808,9.816 41.808,9 Z" id="Shape"></path>
                        <path d="M53.52,6.192 C54.704,6.192 55.728,6.488 56.592,7.08 C57.456,7.672 57.888,8.552 57.888,9.72 C57.888,12.088 56.192,13.272 52.8,13.272 C52.496,13.272 51.944,13.256 51.144,13.224 C51.144,14.136 51.372,14.8 51.828,15.216 C52.284,15.632 52.848,15.84 53.52,15.84 C54.704,15.84 55.624,15.456 56.28,14.688 C56.648,14.864 56.948,15.1 57.18,15.396 C57.412,15.692 57.528,15.992 57.528,16.296 C57.528,16.776 57.244,17.16 56.676,17.448 C56.108,17.736 55.556,17.912 55.02,17.976 C54.484,18.04 53.968,18.072 53.472,18.072 C51.712,18.072 50.272,17.588 49.152,16.62 C48.032,15.652 47.472,14.176 47.472,12.192 C47.472,10.88 47.78,9.756 48.396,8.82 C49.012,7.884 49.764,7.212 50.652,6.804 C51.54,6.396 52.496,6.192 53.52,6.192 Z M53.328,8.472 C52.752,8.472 52.248,8.732 51.816,9.252 C51.384,9.772 51.16,10.536 51.144,11.544 C51.592,11.512 51.908,11.484 52.092,11.46 C52.276,11.436 52.54,11.384 52.884,11.304 C53.228,11.224 53.476,11.116 53.628,10.98 C53.78,10.844 53.92,10.652 54.048,10.404 C54.176,10.156 54.24,9.848 54.24,9.48 C54.24,9.224 54.152,8.992 53.976,8.784 C53.8,8.576 53.584,8.472 53.328,8.472 Z" id="Shape"></path>
                        <path d="M59.52,6.672 C60.176,6.464 60.8,6.36 61.392,6.36 C62.56,6.36 63.224,6.832 63.384,7.776 C64.424,6.736 65.608,6.216 66.936,6.216 C68.024,6.216 68.92,6.528 69.624,7.152 C70.328,7.776 70.68,8.664 70.68,9.816 C70.68,9.848 70.668,10.424 70.644,11.544 C70.62,12.664 70.608,13.512 70.608,14.088 C70.608,15.464 70.744,16.632 71.016,17.592 C70.328,17.8 69.632,17.904 68.928,17.904 C67.648,17.904 67.008,17.416 67.008,16.44 C67.008,15.864 67.032,14.804 67.08,13.26 C67.128,11.716 67.152,10.784 67.152,10.464 C67.152,9.808 67.02,9.316 66.756,8.988 C66.492,8.66 66.152,8.496 65.736,8.496 C65.064,8.496 64.32,8.888 63.504,9.672 C63.536,11.72 63.552,13.2 63.552,14.112 C63.552,15.52 63.592,16.752 63.672,17.808 C63.144,17.856 62.672,17.88 62.256,17.88 C60.656,17.88 59.856,17.496 59.856,16.728 C59.856,16.664 59.876,16.104 59.916,15.048 C59.956,13.992 59.976,12.896 59.976,11.76 C59.976,9.152 59.824,7.456 59.52,6.672 Z" id="Path"></path>
                        <path d="M86.016,10.92 C85.76,10.04 85.456,8.908 85.104,7.524 C84.752,6.14 84.544,5.336 84.48,5.112 C83.488,8.568 82.928,10.504 82.8,10.92 C83.568,10.952 84.176,10.968 84.624,10.968 C85.248,10.968 85.712,10.952 86.016,10.92 Z M84.312,13.344 C83.656,13.344 82.944,13.312 82.176,13.248 C81.088,15.872 80.432,17.544 80.208,18.264 C79.648,18.184 79.24,18.12 78.984,18.072 C78.728,18.024 78.432,17.94 78.096,17.82 C77.76,17.7 77.528,17.544 77.4,17.352 C77.272,17.16 77.208,16.92 77.208,16.632 C77.208,16.296 77.484,15.48 78.036,14.184 C78.588,12.888 79.328,11.096 80.256,8.808 C81.184,6.52 81.968,4.28 82.608,2.088 C83.36,1.976 83.976,1.92 84.456,1.92 C85.8,1.92 86.664,2.504 87.048,3.672 C88.232,7.32 89.08,9.8 89.592,11.112 C90.84,14.36 91.688,16.424 92.136,17.304 C91.384,17.816 90.64,18.072 89.904,18.072 C88.96,18.072 88.352,17.768 88.08,17.16 C87.904,16.744 87.668,16.152 87.372,15.384 C87.076,14.616 86.8,13.92 86.544,13.296 C85.296,13.328 84.552,13.344 84.312,13.344 Z" id="Shape"></path>
                        <path d="M98.136,15.456 C97.864,15.456 97.52,15.44 97.104,15.408 C96.944,15.84 96.864,16.152 96.864,16.344 C96.864,16.664 97.392,16.824 98.448,16.824 L101.232,16.824 C102.224,16.824 103.064,17.068 103.752,17.556 C104.44,18.044 104.784,18.808 104.784,19.848 C104.784,21.048 104.096,22.02 102.72,22.764 C101.344,23.508 99.688,23.88 97.752,23.88 C95.976,23.88 94.64,23.608 93.744,23.064 C92.848,22.52 92.4,21.848 92.4,21.048 C92.4,20.408 92.88,19.624 93.84,18.696 C93.472,18.44 93.288,18.08 93.288,17.616 C93.288,17.36 93.468,16.952 93.828,16.392 C94.188,15.832 94.608,15.312 95.088,14.832 C94.304,14.448 93.696,13.9 93.264,13.188 C92.832,12.476 92.616,11.656 92.616,10.728 C92.616,9.432 93.14,8.352 94.188,7.488 C95.236,6.624 96.552,6.192 98.136,6.192 C99.592,6.192 100.832,6.552 101.856,7.272 C102.64,6.328 103.48,5.856 104.376,5.856 C104.808,5.856 105.16,5.984 105.432,6.24 C105.704,6.496 105.84,6.856 105.84,7.32 C105.84,7.656 105.76,8.064 105.6,8.544 C105.36,8.496 105.128,8.472 104.904,8.472 C104.36,8.472 103.808,8.6 103.248,8.856 C103.52,9.432 103.656,10.056 103.656,10.728 C103.656,12.184 103.116,13.336 102.036,14.184 C100.956,15.032 99.656,15.456 98.136,15.456 Z M100.08,10.944 C100.08,10.24 99.904,9.656 99.552,9.192 C99.2,8.728 98.72,8.496 98.112,8.496 C96.848,8.496 96.216,9.168 96.216,10.512 C96.216,11.264 96.384,11.892 96.72,12.396 C97.056,12.9 97.52,13.152 98.112,13.152 C98.816,13.152 99.32,12.972 99.624,12.612 C99.928,12.252 100.08,11.696 100.08,10.944 Z M99.432,19.32 L96.216,19.32 C96.072,19.704 96,20.064 96,20.4 C96,21.184 96.712,21.576 98.136,21.576 C99.176,21.576 99.964,21.436 100.5,21.156 C101.036,20.876 101.304,20.536 101.304,20.136 C101.304,19.592 100.68,19.32 99.432,19.32 Z" id="Shape"></path>
                        <path d="M112.896,6.192 C114.08,6.192 115.104,6.488 115.968,7.08 C116.832,7.672 117.264,8.552 117.264,9.72 C117.264,12.088 115.568,13.272 112.176,13.272 C111.872,13.272 111.32,13.256 110.52,13.224 C110.52,14.136 110.748,14.8 111.204,15.216 C111.66,15.632 112.224,15.84 112.896,15.84 C114.08,15.84 115,15.456 115.656,14.688 C116.024,14.864 116.324,15.1 116.556,15.396 C116.788,15.692 116.904,15.992 116.904,16.296 C116.904,16.776 116.62,17.16 116.052,17.448 C115.484,17.736 114.932,17.912 114.396,17.976 C113.86,18.04 113.344,18.072 112.848,18.072 C111.088,18.072 109.648,17.588 108.528,16.62 C107.408,15.652 106.848,14.176 106.848,12.192 C106.848,10.88 107.156,9.756 107.772,8.82 C108.388,7.884 109.14,7.212 110.028,6.804 C110.916,6.396 111.872,6.192 112.896,6.192 Z M112.704,8.472 C112.128,8.472 111.624,8.732 111.192,9.252 C110.76,9.772 110.536,10.536 110.52,11.544 C110.968,11.512 111.284,11.484 111.468,11.46 C111.652,11.436 111.916,11.384 112.26,11.304 C112.604,11.224 112.852,11.116 113.004,10.98 C113.156,10.844 113.296,10.652 113.424,10.404 C113.552,10.156 113.616,9.848 113.616,9.48 C113.616,9.224 113.528,8.992 113.352,8.784 C113.176,8.576 112.96,8.472 112.704,8.472 Z" id="Shape"></path>
                        <path d="M132.024,10.92 C131.768,10.04 131.464,8.908 131.112,7.524 C130.76,6.14 130.552,5.336 130.488,5.112 C129.496,8.568 128.936,10.504 128.808,10.92 C129.576,10.952 130.184,10.968 130.632,10.968 C131.256,10.968 131.72,10.952 132.024,10.92 Z M130.32,13.344 C129.664,13.344 128.952,13.312 128.184,13.248 C127.096,15.872 126.44,17.544 126.216,18.264 C125.656,18.184 125.248,18.12 124.992,18.072 C124.736,18.024 124.44,17.94 124.104,17.82 C123.768,17.7 123.536,17.544 123.408,17.352 C123.28,17.16 123.216,16.92 123.216,16.632 C123.216,16.296 123.492,15.48 124.044,14.184 C124.596,12.888 125.336,11.096 126.264,8.808 C127.192,6.52 127.976,4.28 128.616,2.088 C129.368,1.976 129.984,1.92 130.464,1.92 C131.808,1.92 132.672,2.504 133.056,3.672 C134.24,7.32 135.088,9.8 135.6,11.112 C136.848,14.36 137.696,16.424 138.144,17.304 C137.392,17.816 136.648,18.072 135.912,18.072 C134.968,18.072 134.36,17.768 134.088,17.16 C133.912,16.744 133.676,16.152 133.38,15.384 C133.084,14.616 132.808,13.92 132.552,13.296 C131.304,13.328 130.56,13.344 130.32,13.344 Z" id="Shape"></path>
                        <path d="M138.552,12.144 C138.552,10.496 139.008,9.092 139.92,7.932 C140.832,6.772 141.968,6.192 143.328,6.192 C144.224,6.192 145.128,6.464 146.04,7.008 C146.072,5.984 146.088,5.176 146.088,4.584 C146.088,2.84 146.024,1.416 145.896,0.312 C146.632,0.104 147.168,0 147.504,0 C148.992,0 149.736,0.512 149.736,1.536 C149.736,2.48 149.7,4.296 149.628,6.984 C149.556,9.672 149.52,11.504 149.52,12.48 C149.52,15.008 149.672,16.752 149.976,17.712 C149.208,17.904 148.584,18 148.104,18 C147.432,18 146.952,17.876 146.664,17.628 C146.376,17.38 146.184,17.04 146.088,16.608 C145.672,17.04 145.188,17.392 144.636,17.664 C144.084,17.936 143.56,18.072 143.064,18.072 C141.832,18.072 140.772,17.512 139.884,16.392 C138.996,15.272 138.552,13.856 138.552,12.144 Z M145.944,9 C145.464,8.648 144.968,8.472 144.456,8.472 C143.736,8.472 143.168,8.788 142.752,9.42 C142.336,10.052 142.128,10.888 142.128,11.928 C142.128,13.08 142.336,14.028 142.752,14.772 C143.168,15.516 143.68,15.888 144.288,15.888 C144.992,15.888 145.56,15.648 145.992,15.168 C145.96,11.872 145.944,9.816 145.944,9 Z" id="Shape"></path>
                        <path d="M160.344,6.192 C161,6.192 161.484,6.292 161.796,6.492 C162.108,6.692 162.264,7.032 162.264,7.512 C162.264,8.44 161.9,9.928 161.172,11.976 C160.444,14.024 159.704,15.552 158.952,16.56 C158.312,17.456 157.368,17.904 156.12,17.904 C155.624,17.904 155.096,17.832 154.536,17.688 C154.184,15.928 153.588,13.912 152.748,11.64 C151.908,9.368 151.216,7.928 150.672,7.32 C151.408,6.648 152.176,6.312 152.976,6.312 C153.84,6.312 154.48,6.792 154.896,7.752 C155.696,9.72 156.416,11.92 157.056,14.352 C158.192,11.36 158.76,9.008 158.76,7.296 C158.76,7.04 158.736,6.792 158.688,6.552 C159.2,6.312 159.752,6.192 160.344,6.192 Z" id="Path"></path>
                        <path d="M165.864,5.352 C165.256,5.352 164.74,5.14 164.316,4.716 C163.892,4.292 163.68,3.752 163.68,3.096 C163.68,2.472 163.904,1.944 164.352,1.512 C164.8,1.08 165.32,0.864 165.912,0.864 C166.504,0.864 167.012,1.08 167.436,1.512 C167.86,1.944 168.072,2.472 168.072,3.096 C168.072,3.736 167.848,4.272 167.4,4.704 C166.952,5.136 166.44,5.352 165.864,5.352 Z M165.912,6.36 C166.52,6.36 166.992,6.464 167.328,6.672 C167.664,6.88 167.832,7.288 167.832,7.896 C167.832,7.992 167.804,8.696 167.748,10.008 C167.692,11.32 167.664,12.304 167.664,12.96 C167.664,15.232 167.8,16.776 168.072,17.592 C167.4,17.8 166.736,17.904 166.08,17.904 C165.328,17.904 164.804,17.772 164.508,17.508 C164.212,17.244 164.064,16.856 164.064,16.344 C164.064,16.088 164.076,15.488 164.1,14.544 C164.124,13.6 164.136,12.848 164.136,12.288 C164.136,10 164.08,8.128 163.968,6.672 C164.576,6.464 165.224,6.36 165.912,6.36 Z" id="Shape"></path>
                        <path d="M176.352,10.056 C176.224,9.56 176,9.176 175.68,8.904 C175.36,8.632 175.008,8.496 174.624,8.496 C174.256,8.496 173.944,8.592 173.688,8.784 C173.432,8.976 173.304,9.256 173.304,9.624 C173.304,10.008 173.492,10.312 173.868,10.536 C174.244,10.76 174.7,10.94 175.236,11.076 C175.772,11.212 176.308,11.38 176.844,11.58 C177.38,11.78 177.836,12.112 178.212,12.576 C178.588,13.04 178.776,13.632 178.776,14.352 C178.776,15.568 178.292,16.492 177.324,17.124 C176.356,17.756 175.216,18.072 173.904,18.072 C173.488,18.072 173.08,18.052 172.68,18.012 C172.28,17.972 171.82,17.892 171.3,17.772 C170.78,17.652 170.364,17.444 170.052,17.148 C169.74,16.852 169.584,16.488 169.584,16.056 C169.584,15.192 170.232,14.52 171.528,14.04 C171.688,14.616 171.992,15.048 172.44,15.336 C172.888,15.624 173.36,15.768 173.856,15.768 C174.928,15.768 175.464,15.384 175.464,14.616 C175.464,14.248 175.18,13.948 174.612,13.716 C174.044,13.484 173.424,13.292 172.752,13.14 C172.08,12.988 171.46,12.644 170.892,12.108 C170.324,11.572 170.04,10.856 170.04,9.96 C170.04,8.824 170.524,7.912 171.492,7.224 C172.46,6.536 173.552,6.192 174.768,6.192 C175.328,6.192 175.892,6.252 176.46,6.372 C177.028,6.492 177.544,6.724 178.008,7.068 C178.472,7.412 178.704,7.832 178.704,8.328 C178.704,8.76 178.508,9.132 178.116,9.444 C177.724,9.756 177.136,9.96 176.352,10.056 Z" id="Path"></path>
                        <path d="M190.152,16.488 C189.08,17.544 187.672,18.072 185.928,18.072 C184.184,18.072 182.78,17.544 181.716,16.488 C180.652,15.432 180.12,14.024 180.12,12.264 C180.12,10.424 180.652,8.952 181.716,7.848 C182.78,6.744 184.184,6.192 185.928,6.192 C187.672,6.192 189.08,6.744 190.152,7.848 C191.224,8.952 191.76,10.424 191.76,12.264 C191.76,14.024 191.224,15.432 190.152,16.488 Z M188.184,12.744 C188.184,11.528 187.984,10.516 187.584,9.708 C187.184,8.9 186.632,8.496 185.928,8.496 C185.24,8.496 184.7,8.824 184.308,9.48 C183.916,10.136 183.72,11 183.72,12.072 C183.72,13.128 183.916,14.004 184.308,14.7 C184.7,15.396 185.24,15.744 185.928,15.744 C186.648,15.744 187.204,15.468 187.596,14.916 C187.988,14.364 188.184,13.64 188.184,12.744 Z" id="Shape"></path>
                        <path d="M195.336,6.36 C195.944,6.36 196.416,6.464 196.752,6.672 C197.088,6.88 197.256,7.288 197.256,7.896 L197.256,8.208 C197.688,7.696 198.204,7.232 198.804,6.816 C199.404,6.4 200,6.192 200.592,6.192 C201.056,6.192 201.416,6.3 201.672,6.516 C201.928,6.732 202.056,7.016 202.056,7.368 C202.056,8.024 201.768,8.664 201.192,9.288 C200.632,8.936 200.112,8.76 199.632,8.76 C198.928,8.76 198.104,9.248 197.16,10.224 C197.112,11.168 197.088,12.08 197.088,12.96 C197.088,15.232 197.224,16.776 197.496,17.592 C196.824,17.8 196.16,17.904 195.504,17.904 C194.752,17.904 194.228,17.772 193.932,17.508 C193.636,17.244 193.488,16.856 193.488,16.344 C193.488,16.088 193.5,15.488 193.524,14.544 C193.548,13.6 193.56,12.848 193.56,12.288 C193.56,10 193.504,8.128 193.392,6.672 C194,6.464 194.648,6.36 195.336,6.36 Z" id="Path"></path>
                        <path d="M209.568,10.056 C209.44,9.56 209.216,9.176 208.896,8.904 C208.576,8.632 208.224,8.496 207.84,8.496 C207.472,8.496 207.16,8.592 206.904,8.784 C206.648,8.976 206.52,9.256 206.52,9.624 C206.52,10.008 206.708,10.312 207.084,10.536 C207.46,10.76 207.916,10.94 208.452,11.076 C208.988,11.212 209.524,11.38 210.06,11.58 C210.596,11.78 211.052,12.112 211.428,12.576 C211.804,13.04 211.992,13.632 211.992,14.352 C211.992,15.568 211.508,16.492 210.54,17.124 C209.572,17.756 208.432,18.072 207.12,18.072 C206.704,18.072 206.296,18.052 205.896,18.012 C205.496,17.972 205.036,17.892 204.516,17.772 C203.996,17.652 203.58,17.444 203.268,17.148 C202.956,16.852 202.8,16.488 202.8,16.056 C202.8,15.192 203.448,14.52 204.744,14.04 C204.904,14.616 205.208,15.048 205.656,15.336 C206.104,15.624 206.576,15.768 207.072,15.768 C208.144,15.768 208.68,15.384 208.68,14.616 C208.68,14.248 208.396,13.948 207.828,13.716 C207.26,13.484 206.64,13.292 205.968,13.14 C205.296,12.988 204.676,12.644 204.108,12.108 C203.54,11.572 203.256,10.856 203.256,9.96 C203.256,8.824 203.74,7.912 204.708,7.224 C205.676,6.536 206.768,6.192 207.984,6.192 C208.544,6.192 209.108,6.252 209.676,6.372 C210.244,6.492 210.76,6.724 211.224,7.068 C211.688,7.412 211.92,7.832 211.92,8.328 C211.92,8.76 211.724,9.132 211.332,9.444 C210.94,9.756 210.352,9.96 209.568,10.056 Z" id="Path"></path>
                    </g>
                    <g id="Your-Senior-Living-L" transform="translate(94.829000, 41.213000)" fill="#555555" fill-rule="nonzero">
                        <path d="M9.728,1.083 C9.728,1.52633333 9.3195,2.36866667 8.5025,3.61 C7.6855,4.85133333 6.87166667,5.966 6.061,6.954 L6.061,8.93 C6.061,10.6146667 6.18133333,11.856 6.422,12.654 C6.06733333,12.7806667 5.67466667,12.844 5.244,12.844 C4.77533333,12.844 4.4555,12.7616667 4.2845,12.597 C4.1135,12.4323333 4.028,12.1536667 4.028,11.761 C4.028,11.5583333 4.03433333,11.058 4.047,10.26 C4.05966667,9.462 4.066,8.84133333 4.066,8.398 L4.066,7.03 C2.28,3.71133333 0.924666667,1.74166667 0,1.121 C0.202666667,0.855 0.462333333,0.620666667 0.779,0.418 C1.09566667,0.215333333 1.39966667,0.114 1.691,0.114 C2.13433333,0.114 2.508,0.329333333 2.812,0.76 C3.74933333,2.14066667 4.62333333,3.705 5.434,5.453 C6.01666667,4.55366667 6.56133333,3.534 7.068,2.394 C7.57466667,1.254 7.85966667,0.462333333 7.923,0.019 C9.12633333,0.0696666667 9.728,0.424333333 9.728,1.083 Z" id="Path"></path>
                        <path d="M17.271,8.512 C17.271,7.49866667 17.0588333,6.65316667 16.6345,5.9755 C16.2101667,5.29783333 15.637,4.959 14.915,4.959 C14.1803333,4.959 13.6103333,5.23766667 13.205,5.795 C12.7996667,6.35233333 12.597,7.09333333 12.597,8.018 C12.597,9.044 12.8028333,9.89266667 13.2145,10.564 C13.6261667,11.2353333 14.193,11.571 14.915,11.571 C15.6623333,11.571 16.2418333,11.2923333 16.6535,10.735 C17.0651667,10.1776667 17.271,9.43666667 17.271,8.512 Z M14.915,12.977 C13.5976667,12.977 12.5368333,12.5495 11.7325,11.6945 C10.9281667,10.8395 10.526,9.69633333 10.526,8.265 C10.526,6.83366667 10.9281667,5.69366667 11.7325,4.845 C12.5368333,3.99633333 13.5976667,3.572 14.915,3.572 C16.245,3.572 17.3153333,3.99633333 18.126,4.845 C18.9366667,5.69366667 19.342,6.83366667 19.342,8.265 C19.342,9.69633333 18.9366667,10.8395 18.126,11.6945 C17.3153333,12.5495 16.245,12.977 14.915,12.977 Z" id="Shape"></path>
                        <path d="M26.98,11.894 C26.144,12.616 25.1813333,12.977 24.092,12.977 C22.23,12.977 21.299,12.0776667 21.299,10.279 C21.299,10.1903333 21.3085,9.70583333 21.3275,8.8255 C21.3465,7.94516667 21.356,7.30866667 21.356,6.916 C21.356,5.61133333 21.2483333,4.59166667 21.033,3.857 C21.375,3.743 21.7233333,3.686 22.078,3.686 C22.5466667,3.686 22.8823333,3.762 23.085,3.914 C23.2876667,4.066 23.389,4.31933333 23.389,4.674 C23.389,5.33266667 23.37,6.232 23.332,7.372 C23.294,8.512 23.275,9.24666667 23.275,9.576 C23.275,10.222 23.4111667,10.716 23.6835,11.058 C23.9558333,11.4 24.3073333,11.571 24.738,11.571 C25.4726667,11.571 26.1756667,11.248 26.847,10.602 C26.8343333,10.0826667 26.828,9.27833333 26.828,8.189 C26.828,6.289 26.7836667,4.81333333 26.695,3.762 C27.0496667,3.71133333 27.3663333,3.686 27.645,3.686 C28.4556667,3.686 28.861,3.933 28.861,4.427 C28.861,4.655 28.8483333,5.28833333 28.823,6.327 C28.7976667,7.36566667 28.785,8.227 28.785,8.911 C28.785,10.4943333 28.9053333,11.7356667 29.146,12.635 C28.88,12.7743333 28.5633333,12.844 28.196,12.844 C27.9553333,12.844 27.7653333,12.8281667 27.626,12.7965 C27.4866667,12.7648333 27.3536667,12.6761667 27.227,12.5305 C27.1003333,12.3848333 27.018,12.1726667 26.98,11.894 Z" id="Path"></path>
                        <path d="M32.072,3.705 C32.528,3.705 32.8541667,3.78733333 33.0505,3.952 C33.2468333,4.11666667 33.345,4.37633333 33.345,4.731 L33.345,4.959 C34.0796667,4.03433333 34.7953333,3.572 35.492,3.572 C36.2266667,3.572 36.594,3.838 36.594,4.37 C36.594,4.72466667 36.366,5.187 35.91,5.757 C35.644,5.529 35.3463333,5.415 35.017,5.415 C34.371,5.415 33.7883333,5.76333333 33.269,6.46 C33.231,7.27066667 33.212,8.094 33.212,8.93 C33.212,10.5893333 33.383,11.818 33.725,12.616 C33.383,12.7806667 33.0093333,12.863 32.604,12.863 C32.0593333,12.863 31.692,12.7426667 31.502,12.502 C31.312,12.2613333 31.217,11.875 31.217,11.343 C31.217,11.191 31.2233333,10.7603333 31.236,10.051 C31.2486667,9.34166667 31.255,8.78433333 31.255,8.379 C31.255,6.26366667 31.198,4.73733333 31.084,3.8 C31.4513333,3.73666667 31.7806667,3.705 32.072,3.705 Z" id="Path"></path>
                        <path d="M48.754,3.135 C48.564,2.65366667 48.2093333,2.25466667 47.69,1.938 C47.1706667,1.62133333 46.6323333,1.463 46.075,1.463 C45.429,1.463 44.8875,1.62133333 44.4505,1.938 C44.0135,2.25466667 43.795,2.72333333 43.795,3.344 C43.795,3.724 43.9153333,4.04383333 44.156,4.3035 C44.3966667,4.56316667 44.7101667,4.76583333 45.0965,4.9115 C45.4828333,5.05716667 45.9071667,5.19333333 46.3695,5.32 C46.8318333,5.44666667 47.2941667,5.59233333 47.7565,5.757 C48.2188333,5.92166667 48.6431667,6.118 49.0295,6.346 C49.4158333,6.574 49.7293333,6.90333333 49.97,7.334 C50.2106667,7.76466667 50.331,8.27766667 50.331,8.873 C50.331,9.62033333 50.2043333,10.2695 49.951,10.8205 C49.6976667,11.3715 49.3461667,11.799 48.8965,12.103 C48.4468333,12.407 47.9623333,12.6286667 47.443,12.768 C46.9236667,12.9073333 46.36,12.977 45.752,12.977 C44.7006667,12.977 43.7665,12.787 42.9495,12.407 C42.1325,12.027 41.724,11.5773333 41.724,11.058 C41.724,10.5386667 42.0913333,10.108 42.826,9.766 C43.0793333,10.2473333 43.5163333,10.6526667 44.137,10.982 C44.7576667,11.3113333 45.3846667,11.476 46.018,11.476 C46.7526667,11.476 47.3638333,11.3081667 47.8515,10.9725 C48.3391667,10.6368333 48.583,10.127 48.583,9.443 C48.583,9.03766667 48.4215,8.69566667 48.0985,8.417 C47.7755,8.13833333 47.3733333,7.92933333 46.892,7.79 C46.4106667,7.65066667 45.885,7.4765 45.315,7.2675 C44.745,7.0585 44.2193333,6.8305 43.738,6.5835 C43.2566667,6.3365 42.8545,5.95333333 42.5315,5.434 C42.2085,4.91466667 42.047,4.28766667 42.047,3.553 C42.047,2.42566667 42.4713333,1.55166667 43.32,0.931 C44.1686667,0.310333333 45.22,7.10542736e-15 46.474,7.10542736e-15 C47.006,7.10542736e-15 47.538,0.0665 48.07,0.1995 C48.602,0.3325 49.0643333,0.547833333 49.457,0.8455 C49.8496667,1.14316667 50.046,1.48833333 50.046,1.881 C50.046,2.53966667 49.6153333,2.95766667 48.754,3.135 Z" id="Path"></path>
                        <path d="M55.29,9.044 C54.948,9.044 54.4856667,9.03133333 53.903,9.006 C54.0296667,9.90533333 54.3178333,10.564 54.7675,10.982 C55.2171667,11.4 55.7713333,11.609 56.43,11.609 C56.772,11.609 57.1266667,11.5203333 57.494,11.343 C57.8613333,11.1656667 58.1336667,10.9123333 58.311,10.583 C58.9316667,10.9123333 59.242,11.267 59.242,11.647 C59.242,12.0776667 58.9443333,12.407 58.349,12.635 C57.7536667,12.863 57.0886667,12.977 56.354,12.977 C55.1633333,12.977 54.1025,12.5843333 53.1715,11.799 C52.2405,11.0136667 51.775,9.88 51.775,8.398 C51.775,6.84 52.2215,5.64616667 53.1145,4.8165 C54.0075,3.98683333 55.062,3.572 56.278,3.572 C57.2533333,3.572 58.0418333,3.838 58.6435,4.37 C59.2451667,4.902 59.546,5.53533333 59.546,6.27 C59.546,6.86533333 59.4351667,7.35616667 59.2135,7.7425 C58.9918333,8.12883333 58.6656667,8.41066667 58.235,8.588 C57.8043333,8.76533333 57.3673333,8.88566667 56.924,8.949 C56.4806667,9.01233333 55.936,9.044 55.29,9.044 Z M56.107,4.959 C55.5116667,4.959 55.005,5.187 54.587,5.643 C54.169,6.099 53.922,6.821 53.846,7.809 C54.6566667,7.809 55.252,7.79 55.632,7.752 C56.8606667,7.6 57.475,7.11866667 57.475,6.308 C57.475,5.94066667 57.3451667,5.624 57.0855,5.358 C56.8258333,5.092 56.4996667,4.959 56.107,4.959 Z" id="Shape"></path>
                        <path d="M63.46,4.636 C64.3593333,3.92666667 65.3726667,3.572 66.5,3.572 C67.2726667,3.572 67.8996667,3.8 68.381,4.256 C68.8623333,4.712 69.103,5.44666667 69.103,6.46 C69.103,6.59933333 69.0935,7.09333333 69.0745,7.942 C69.0555,8.79066667 69.046,9.41133333 69.046,9.804 C69.046,10.8426667 69.2106667,11.78 69.54,12.616 C69.1473333,12.7806667 68.7926667,12.863 68.476,12.863 C67.9566667,12.863 67.5893333,12.7553333 67.374,12.54 C67.1586667,12.3246667 67.051,11.9193333 67.051,11.324 C67.051,10.6653333 67.0636667,9.8705 67.089,8.9395 C67.1143333,8.0085 67.127,7.36566667 67.127,7.011 C67.127,6.31433333 66.9876667,5.795 66.709,5.453 C66.4303333,5.111 66.0693333,4.94 65.626,4.94 C64.9546667,4.94 64.258,5.26933333 63.536,5.928 C63.5613333,7.62533333 63.574,8.86033333 63.574,9.633 C63.574,10.849 63.612,11.8876667 63.688,12.749 C63.346,12.7996667 63.0293333,12.825 62.738,12.825 C61.9146667,12.825 61.503,12.5716667 61.503,12.065 C61.503,11.6976667 61.5188333,11.1023333 61.5505,10.279 C61.5821667,9.45566667 61.598,8.71466667 61.598,8.056 C61.598,5.95333333 61.4776667,4.57266667 61.237,3.914 C61.541,3.77466667 61.8703333,3.705 62.225,3.705 C62.5923333,3.705 62.8773333,3.762 63.08,3.876 C63.2826667,3.99 63.4093333,4.24333333 63.46,4.636 Z" id="Path"></path>
                        <path d="M72.58,3.705 C73.492,3.705 73.948,4.04066667 73.948,4.712 C73.948,4.788 73.929,5.0445 73.891,5.4815 C73.853,5.9185 73.8181667,6.46 73.7865,7.106 C73.7548333,7.752 73.739,8.36633333 73.739,8.949 C73.739,10.6463333 73.9036667,11.8813333 74.233,12.654 C73.9163333,12.7933333 73.5553333,12.863 73.15,12.863 C72.5926667,12.863 72.2158333,12.749 72.0195,12.521 C71.8231667,12.293 71.725,11.9066667 71.725,11.362 C71.725,11.1593333 71.7313333,10.6685 71.744,9.8895 C71.7566667,9.1105 71.763,8.512 71.763,8.094 C71.763,6.25733333 71.706,4.81966667 71.592,3.781 C71.896,3.73033333 72.2253333,3.705 72.58,3.705 Z M72.675,2.907 C72.295,2.907 71.972,2.78033333 71.706,2.527 C71.44,2.27366667 71.307,1.95066667 71.307,1.558 C71.307,1.178 71.4463333,0.858166667 71.725,0.5985 C72.0036667,0.338833333 72.333,0.209 72.713,0.209 C73.0803333,0.209 73.397,0.338833333 73.663,0.5985 C73.929,0.858166667 74.062,1.178 74.062,1.558 C74.062,1.938 73.9226667,2.25783333 73.644,2.5175 C73.3653333,2.77716667 73.0423333,2.907 72.675,2.907 Z" id="Shape"></path>
                        <path d="M82.574,8.512 C82.574,7.49866667 82.3618333,6.65316667 81.9375,5.9755 C81.5131667,5.29783333 80.94,4.959 80.218,4.959 C79.4833333,4.959 78.9133333,5.23766667 78.508,5.795 C78.1026667,6.35233333 77.9,7.09333333 77.9,8.018 C77.9,9.044 78.1058333,9.89266667 78.5175,10.564 C78.9291667,11.2353333 79.496,11.571 80.218,11.571 C80.9653333,11.571 81.5448333,11.2923333 81.9565,10.735 C82.3681667,10.1776667 82.574,9.43666667 82.574,8.512 Z M80.218,12.977 C78.9006667,12.977 77.8398333,12.5495 77.0355,11.6945 C76.2311667,10.8395 75.829,9.69633333 75.829,8.265 C75.829,6.83366667 76.2311667,5.69366667 77.0355,4.845 C77.8398333,3.99633333 78.9006667,3.572 80.218,3.572 C81.548,3.572 82.6183333,3.99633333 83.429,4.845 C84.2396667,5.69366667 84.645,6.83366667 84.645,8.265 C84.645,9.69633333 84.2396667,10.8395 83.429,11.6945 C82.6183333,12.5495 81.548,12.977 80.218,12.977 Z" id="Shape"></path>
                        <path d="M87.324,3.705 C87.78,3.705 88.1061667,3.78733333 88.3025,3.952 C88.4988333,4.11666667 88.597,4.37633333 88.597,4.731 L88.597,4.959 C89.3316667,4.03433333 90.0473333,3.572 90.744,3.572 C91.4786667,3.572 91.846,3.838 91.846,4.37 C91.846,4.72466667 91.618,5.187 91.162,5.757 C90.896,5.529 90.5983333,5.415 90.269,5.415 C89.623,5.415 89.0403333,5.76333333 88.521,6.46 C88.483,7.27066667 88.464,8.094 88.464,8.93 C88.464,10.5893333 88.635,11.818 88.977,12.616 C88.635,12.7806667 88.2613333,12.863 87.856,12.863 C87.3113333,12.863 86.944,12.7426667 86.754,12.502 C86.564,12.2613333 86.469,11.875 86.469,11.343 C86.469,11.191 86.4753333,10.7603333 86.488,10.051 C86.5006667,9.34166667 86.507,8.78433333 86.507,8.379 C86.507,6.26366667 86.45,4.73733333 86.336,3.8 C86.7033333,3.73666667 87.0326667,3.705 87.324,3.705 Z" id="Path"></path>
                        <path d="M97.451,8.531 L97.451,4.598 C97.451,2.812 97.4066667,1.34266667 97.318,0.19 C97.6093333,0.152 97.9576667,0.133 98.363,0.133 C99.1863333,0.133 99.598,0.373666667 99.598,0.855 C99.598,0.931 99.5853333,1.1875 99.56,1.6245 C99.5346667,2.0615 99.5093333,2.60616667 99.484,3.2585 C99.4586667,3.91083333 99.446,4.52833333 99.446,5.111 L99.446,6.745 C99.446,9.253 99.4903333,10.773 99.579,11.305 C100.085667,11.3303333 100.491,11.343 100.795,11.343 C102.657,11.343 103.860333,11.1973333 104.405,10.906 C104.544333,11.1846667 104.614,11.495 104.614,11.837 C104.614,12.255 104.4525,12.5241667 104.1295,12.6445 C103.8065,12.7648333 103.271333,12.825 102.524,12.825 L100.871,12.825 C99.7436667,12.825 98.9013333,12.8123333 98.344,12.787 C97.9893333,12.7743333 97.7455,12.6856667 97.6125,12.521 C97.4795,12.3563333 97.413,12.084 97.413,11.704 C97.413,11.5013333 97.4193333,11.0326667 97.432,10.298 C97.4446667,9.56333333 97.451,8.97433333 97.451,8.531 Z" id="Path"></path>
                        <path d="M106.818,3.705 C107.73,3.705 108.186,4.04066667 108.186,4.712 C108.186,4.788 108.167,5.0445 108.129,5.4815 C108.091,5.9185 108.056167,6.46 108.0245,7.106 C107.992833,7.752 107.977,8.36633333 107.977,8.949 C107.977,10.6463333 108.141667,11.8813333 108.471,12.654 C108.154333,12.7933333 107.793333,12.863 107.388,12.863 C106.830667,12.863 106.453833,12.749 106.2575,12.521 C106.061167,12.293 105.963,11.9066667 105.963,11.362 C105.963,11.1593333 105.969333,10.6685 105.982,9.8895 C105.994667,9.1105 106.001,8.512 106.001,8.094 C106.001,6.25733333 105.944,4.81966667 105.83,3.781 C106.134,3.73033333 106.463333,3.705 106.818,3.705 Z M106.913,2.907 C106.533,2.907 106.21,2.78033333 105.944,2.527 C105.678,2.27366667 105.545,1.95066667 105.545,1.558 C105.545,1.178 105.684333,0.858166667 105.963,0.5985 C106.241667,0.338833333 106.571,0.209 106.951,0.209 C107.318333,0.209 107.635,0.338833333 107.901,0.5985 C108.167,0.858166667 108.3,1.178 108.3,1.558 C108.3,1.938 108.160667,2.25783333 107.882,2.5175 C107.603333,2.77716667 107.280333,2.907 106.913,2.907 Z" id="Shape"></path>
                        <path d="M116.508,3.572 C117.217333,3.572 117.572,3.82533333 117.572,4.332 C117.572,5.19333333 117.252167,6.498 116.6125,8.246 C115.972833,9.994 115.33,11.2733333 114.684,12.084 C114.278667,12.5906667 113.81,12.844 113.278,12.844 C112.898,12.844 112.600333,12.8186667 112.385,12.768 C112.093667,11.286 111.618667,9.61716667 110.96,7.7615 C110.301333,5.90583333 109.744,4.75 109.288,4.294 C109.845333,3.86333333 110.345667,3.648 110.789,3.648 C111.219667,3.648 111.542667,3.86966667 111.758,4.313 C111.973333,4.75633333 112.315333,5.6525 112.784,7.0015 C113.252667,8.3505 113.639,9.557 113.943,10.621 C114.335667,9.98766667 114.718833,9.01233333 115.0925,7.695 C115.466167,6.37766667 115.653,5.25033333 115.653,4.313 C115.653,4.085 115.634,3.876 115.596,3.686 C115.874667,3.61 116.178667,3.572 116.508,3.572 Z" id="Path"></path>
                        <path d="M120.327,3.705 C121.239,3.705 121.695,4.04066667 121.695,4.712 C121.695,4.788 121.676,5.0445 121.638,5.4815 C121.6,5.9185 121.565167,6.46 121.5335,7.106 C121.501833,7.752 121.486,8.36633333 121.486,8.949 C121.486,10.6463333 121.650667,11.8813333 121.98,12.654 C121.663333,12.7933333 121.302333,12.863 120.897,12.863 C120.339667,12.863 119.962833,12.749 119.7665,12.521 C119.570167,12.293 119.472,11.9066667 119.472,11.362 C119.472,11.1593333 119.478333,10.6685 119.491,9.8895 C119.503667,9.1105 119.51,8.512 119.51,8.094 C119.51,6.25733333 119.453,4.81966667 119.339,3.781 C119.643,3.73033333 119.972333,3.705 120.327,3.705 Z M120.422,2.907 C120.042,2.907 119.719,2.78033333 119.453,2.527 C119.187,2.27366667 119.054,1.95066667 119.054,1.558 C119.054,1.178 119.193333,0.858166667 119.472,0.5985 C119.750667,0.338833333 120.08,0.209 120.46,0.209 C120.827333,0.209 121.144,0.338833333 121.41,0.5985 C121.676,0.858166667 121.809,1.178 121.809,1.558 C121.809,1.938 121.669667,2.25783333 121.391,2.5175 C121.112333,2.77716667 120.789333,2.907 120.422,2.907 Z" id="Shape"></path>
                        <path d="M126.046,4.636 C126.945333,3.92666667 127.958667,3.572 129.086,3.572 C129.858667,3.572 130.485667,3.8 130.967,4.256 C131.448333,4.712 131.689,5.44666667 131.689,6.46 C131.689,6.59933333 131.6795,7.09333333 131.6605,7.942 C131.6415,8.79066667 131.632,9.41133333 131.632,9.804 C131.632,10.8426667 131.796667,11.78 132.126,12.616 C131.733333,12.7806667 131.378667,12.863 131.062,12.863 C130.542667,12.863 130.175333,12.7553333 129.96,12.54 C129.744667,12.3246667 129.637,11.9193333 129.637,11.324 C129.637,10.6653333 129.649667,9.8705 129.675,8.9395 C129.700333,8.0085 129.713,7.36566667 129.713,7.011 C129.713,6.31433333 129.573667,5.795 129.295,5.453 C129.016333,5.111 128.655333,4.94 128.212,4.94 C127.540667,4.94 126.844,5.26933333 126.122,5.928 C126.147333,7.62533333 126.16,8.86033333 126.16,9.633 C126.16,10.849 126.198,11.8876667 126.274,12.749 C125.932,12.7996667 125.615333,12.825 125.324,12.825 C124.500667,12.825 124.089,12.5716667 124.089,12.065 C124.089,11.6976667 124.104833,11.1023333 124.1365,10.279 C124.168167,9.45566667 124.184,8.71466667 124.184,8.056 C124.184,5.95333333 124.063667,4.57266667 123.823,3.914 C124.127,3.77466667 124.456333,3.705 124.811,3.705 C125.178333,3.705 125.463333,3.762 125.666,3.876 C125.868667,3.99 125.995333,4.24333333 126.046,4.636 Z" id="Path"></path>
                        <path d="M137.788,10.564 C137.458667,10.564 137.123,10.5323333 136.781,10.469 C136.350333,10.925 136.135,11.3113333 136.135,11.628 C136.135,11.8813333 136.515,12.008 137.275,12.008 L139.441,12.008 C141.379,12.008 142.348,12.73 142.348,14.174 C142.348,15.1746667 141.860333,15.9853333 140.885,16.606 C139.909667,17.2266667 138.731667,17.537 137.351,17.537 C136.084333,17.537 135.131167,17.3185 134.4915,16.8815 C133.851833,16.4445 133.532,15.9093333 133.532,15.276 C133.532,14.554 133.988,13.8826667 134.9,13.262 C134.444,12.996 134.216,12.6856667 134.216,12.331 C134.216,12.0903333 134.336333,11.761 134.577,11.343 C134.817667,10.925 135.140667,10.5386667 135.546,10.184 C134.950667,9.93066667 134.494667,9.53166667 134.178,8.987 C133.861333,8.44233333 133.703,7.80266667 133.703,7.068 C133.703,6.06733333 134.070333,5.23133333 134.805,4.56 C135.539667,3.88866667 136.470667,3.553 137.598,3.553 C138.586,3.553 139.409333,3.781 140.068,4.237 C140.6,3.56566667 141.189,3.23 141.835,3.23 C142.569667,3.23 142.937,3.55933333 142.937,4.218 C142.937,4.408 142.899,4.62333333 142.823,4.864 C142.544333,4.80066667 142.31,4.769 142.12,4.769 C141.727333,4.769 141.322,4.85766667 140.904,5.035 C141.284,5.65566667 141.474,6.33333333 141.474,7.068 C141.474,8.132 141.113,8.98066667 140.391,9.614 C139.669,10.2473333 138.801333,10.564 137.788,10.564 Z M139.403,7.22 C139.403,6.574 139.238333,6.0325 138.909,5.5955 C138.579667,5.1585 138.136333,4.94 137.579,4.94 C136.363,4.94 135.755,5.59866667 135.755,6.916 C135.755,7.562 135.9165,8.09716667 136.2395,8.5215 C136.5625,8.94583333 137.009,9.158 137.579,9.158 C138.237667,9.158 138.706333,8.99966667 138.985,8.683 C139.263667,8.36633333 139.403,7.87866667 139.403,7.22 Z M139.327,13.585 L137.465,13.585 C136.806333,13.585 136.325,13.5596667 136.021,13.509 C135.615667,14.0663333 135.413,14.5413333 135.413,14.934 C135.413,15.5926667 136.103333,15.922 137.484,15.922 C138.51,15.922 139.289,15.7763333 139.821,15.485 C140.353,15.1936667 140.619,14.839 140.619,14.421 C140.619,14.1043333 140.511333,13.8858333 140.296,13.7655 C140.080667,13.6451667 139.757667,13.585 139.327,13.585 Z" id="Shape"></path>
                        <path d="M148.542,8.531 L148.542,4.598 C148.542,2.812 148.497667,1.34266667 148.409,0.19 C148.700333,0.152 149.048667,0.133 149.454,0.133 C150.277333,0.133 150.689,0.373666667 150.689,0.855 C150.689,0.931 150.676333,1.1875 150.651,1.6245 C150.625667,2.0615 150.600333,2.60616667 150.575,3.2585 C150.549667,3.91083333 150.537,4.52833333 150.537,5.111 L150.537,6.745 C150.537,9.253 150.581333,10.773 150.67,11.305 C151.176667,11.3303333 151.582,11.343 151.886,11.343 C153.748,11.343 154.951333,11.1973333 155.496,10.906 C155.635333,11.1846667 155.705,11.495 155.705,11.837 C155.705,12.255 155.5435,12.5241667 155.2205,12.6445 C154.8975,12.7648333 154.362333,12.825 153.615,12.825 L151.962,12.825 C150.834667,12.825 149.992333,12.8123333 149.435,12.787 C149.080333,12.7743333 148.8365,12.6856667 148.7035,12.521 C148.5705,12.3563333 148.504,12.084 148.504,11.704 C148.504,11.5013333 148.510333,11.0326667 148.523,10.298 C148.535667,9.56333333 148.542,8.97433333 148.542,8.531 Z" id="Path"></path>
                        <path d="M163.172,8.512 C163.172,7.49866667 162.959833,6.65316667 162.5355,5.9755 C162.111167,5.29783333 161.538,4.959 160.816,4.959 C160.081333,4.959 159.511333,5.23766667 159.106,5.795 C158.700667,6.35233333 158.498,7.09333333 158.498,8.018 C158.498,9.044 158.703833,9.89266667 159.1155,10.564 C159.527167,11.2353333 160.094,11.571 160.816,11.571 C161.563333,11.571 162.142833,11.2923333 162.5545,10.735 C162.966167,10.1776667 163.172,9.43666667 163.172,8.512 Z M160.816,12.977 C159.498667,12.977 158.437833,12.5495 157.6335,11.6945 C156.829167,10.8395 156.427,9.69633333 156.427,8.265 C156.427,6.83366667 156.829167,5.69366667 157.6335,4.845 C158.437833,3.99633333 159.498667,3.572 160.816,3.572 C162.146,3.572 163.216333,3.99633333 164.027,4.845 C164.837667,5.69366667 165.243,6.83366667 165.243,8.265 C165.243,9.69633333 164.837667,10.8395 164.027,11.6945 C163.216333,12.5495 162.146,12.977 160.816,12.977 Z" id="Shape"></path>
                        <path d="M171.342,11.609 C171.684,11.609 172.038667,11.5203333 172.406,11.343 C172.773333,11.1656667 173.045667,10.9123333 173.223,10.583 C173.843667,10.9123333 174.154,11.267 174.154,11.647 C174.154,12.0776667 173.856333,12.407 173.261,12.635 C172.665667,12.863 172.000667,12.977 171.266,12.977 C170.721333,12.977 170.186167,12.8851667 169.6605,12.7015 C169.134833,12.5178333 168.644,12.2486667 168.188,11.894 C167.732,11.5393333 167.367833,11.058 167.0955,10.45 C166.823167,9.842 166.687,9.14533333 166.687,8.36 C166.687,6.78933333 167.143,5.59866667 168.055,4.788 C168.967,3.97733333 170.005667,3.572 171.171,3.572 C171.880333,3.572 172.554833,3.73983333 173.1945,4.0755 C173.834167,4.41116667 174.154,4.87666667 174.154,5.472 C174.154,5.738 174.021,5.95333333 173.755,6.118 C173.489,6.28266667 173.128,6.39033333 172.672,6.441 C172.570667,5.985 172.342667,5.63033333 171.988,5.377 C171.633333,5.12366667 171.272333,4.997 170.905,4.997 C170.297,4.997 169.790333,5.28833333 169.385,5.871 C168.979667,6.45366667 168.777,7.21366667 168.777,8.151 C168.777,9.35433333 169.0145,10.2315 169.4895,10.7825 C169.9645,11.3335 170.582,11.609 171.342,11.609 Z" id="Path"></path>
                        <path d="M180.538,10.07 C180.538,9.48733333 180.550667,9.03766667 180.576,8.721 C180.196,8.77166667 179.9205,8.80966667 179.7495,8.835 C179.5785,8.86033333 179.347333,8.89833333 179.056,8.949 C178.764667,8.99966667 178.5525,9.05666667 178.4195,9.12 C178.2865,9.18333333 178.144,9.25933333 177.992,9.348 C177.84,9.43666667 177.732333,9.5475 177.669,9.6805 C177.605667,9.8135 177.574,9.96866667 177.574,10.146 C177.574,10.6526667 177.700667,11.0263333 177.954,11.267 C178.207333,11.5076667 178.530333,11.628 178.923,11.628 C179.569,11.628 180.12,11.3873333 180.576,10.906 C180.550667,10.7413333 180.538,10.4626667 180.538,10.07 Z M180.614,7.562 C180.614,7.13133333 180.6045,6.802 180.5855,6.574 C180.5665,6.346 180.515833,6.08633333 180.4335,5.795 C180.351167,5.50366667 180.211833,5.2915 180.0155,5.1585 C179.819167,5.0255 179.556333,4.959 179.227,4.959 C178.809,4.959 178.413167,5.09516667 178.0395,5.3675 C177.665833,5.63983333 177.396667,6.01666667 177.232,6.498 C176.104667,6.48533333 175.541,6.14966667 175.541,5.491 C175.541,4.94633333 175.924167,4.49033333 176.6905,4.123 C177.456833,3.75566667 178.327667,3.572 179.303,3.572 C180.468333,3.572 181.320167,3.81266667 181.8585,4.294 C182.396833,4.77533333 182.666,5.63666667 182.666,6.878 C182.666,6.916 182.659667,7.21366667 182.647,7.771 C182.634333,8.32833333 182.628,8.873 182.628,9.405 C182.628,10.849 182.748333,11.932 182.989,12.654 C182.621667,12.7933333 182.260667,12.863 181.906,12.863 C181.196667,12.863 180.772333,12.5716667 180.633,11.989 C179.873,12.6476667 179.018,12.977 178.068,12.977 C177.333333,12.977 176.722167,12.749 176.2345,12.293 C175.746833,11.837 175.503,11.1656667 175.503,10.279 C175.503,9.56966667 175.655,9.044 175.959,8.702 C176.263,8.36 176.668333,8.10666667 177.175,7.942 C177.935,7.70133333 179.081333,7.57466667 180.614,7.562 Z" id="Shape"></path>
                        <path d="M184.794,3.781 C184.908,3.76833333 185.193,3.762 185.649,3.762 C185.623667,3.01466667 185.585667,2.375 185.535,1.843 C185.801,1.79233333 186.111333,1.767 186.466,1.767 C187.34,1.767 187.777,2.00133333 187.777,2.47 C187.777,2.774 187.758,3.211 187.72,3.781 C189.088,3.781 190.038,3.743 190.57,3.667 C190.646,3.80633333 190.684,4.00266667 190.684,4.256 C190.684,4.598 190.608,4.82916667 190.456,4.9495 C190.304,5.06983333 190.063333,5.13633333 189.734,5.149 C189.354,5.16166667 188.67,5.168 187.682,5.168 C187.656667,6.35866667 187.644,7.64433333 187.644,9.025 C187.644,9.43033333 187.656667,9.766 187.682,10.032 C187.707333,10.298 187.764333,10.564 187.853,10.83 C187.941667,11.096 188.074667,11.2955 188.252,11.4285 C188.429333,11.5615 188.657333,11.628 188.936,11.628 C189.328667,11.628 189.734,11.4063333 190.152,10.963 C190.481333,11.3303333 190.646,11.6406667 190.646,11.894 C190.646,12.2613333 190.459167,12.5336667 190.0855,12.711 C189.711833,12.8883333 189.290667,12.977 188.822,12.977 C186.706667,12.977 185.649,11.8243333 185.649,9.519 C185.649,8.92366667 185.652167,8.09716667 185.6585,7.0395 C185.664833,5.98183333 185.668,5.35166667 185.668,5.149 C184.857333,5.19966667 184.281,5.25033333 183.939,5.301 C183.888333,5.16166667 183.863,4.95266667 183.863,4.674 C183.863,4.34466667 183.935833,4.123 184.0815,4.009 C184.227167,3.895 184.464667,3.819 184.794,3.781 Z" id="Path"></path>
                        <path d="M198.398,8.512 C198.398,7.49866667 198.185833,6.65316667 197.7615,5.9755 C197.337167,5.29783333 196.764,4.959 196.042,4.959 C195.307333,4.959 194.737333,5.23766667 194.332,5.795 C193.926667,6.35233333 193.724,7.09333333 193.724,8.018 C193.724,9.044 193.929833,9.89266667 194.3415,10.564 C194.753167,11.2353333 195.32,11.571 196.042,11.571 C196.789333,11.571 197.368833,11.2923333 197.7805,10.735 C198.192167,10.1776667 198.398,9.43666667 198.398,8.512 Z M196.042,12.977 C194.724667,12.977 193.663833,12.5495 192.8595,11.6945 C192.055167,10.8395 191.653,9.69633333 191.653,8.265 C191.653,6.83366667 192.055167,5.69366667 192.8595,4.845 C193.663833,3.99633333 194.724667,3.572 196.042,3.572 C197.372,3.572 198.442333,3.99633333 199.253,4.845 C200.063667,5.69366667 200.469,6.83366667 200.469,8.265 C200.469,9.69633333 200.063667,10.8395 199.253,11.6945 C198.442333,12.5495 197.372,12.977 196.042,12.977 Z" id="Shape"></path>
                        <path d="M203.148,3.705 C203.604,3.705 203.930167,3.78733333 204.1265,3.952 C204.322833,4.11666667 204.421,4.37633333 204.421,4.731 L204.421,4.959 C205.155667,4.03433333 205.871333,3.572 206.568,3.572 C207.302667,3.572 207.67,3.838 207.67,4.37 C207.67,4.72466667 207.442,5.187 206.986,5.757 C206.72,5.529 206.422333,5.415 206.093,5.415 C205.447,5.415 204.864333,5.76333333 204.345,6.46 C204.307,7.27066667 204.288,8.094 204.288,8.93 C204.288,10.5893333 204.459,11.818 204.801,12.616 C204.459,12.7806667 204.085333,12.863 203.68,12.863 C203.135333,12.863 202.768,12.7426667 202.578,12.502 C202.388,12.2613333 202.293,11.875 202.293,11.343 C202.293,11.191 202.299333,10.7603333 202.312,10.051 C202.324667,9.34166667 202.331,8.78433333 202.331,8.379 C202.331,6.26366667 202.274,4.73733333 202.16,3.8 C202.527333,3.73666667 202.856667,3.705 203.148,3.705 Z" id="Path"></path>
                        <path d="M214.054,6.308 C213.800667,5.48466667 213.097667,5.073 211.945,5.073 C211.615667,5.073 211.330667,5.16483333 211.09,5.3485 C210.849333,5.53216667 210.729,5.78233333 210.729,6.099 C210.729,6.479 210.896833,6.77666667 211.2325,6.992 C211.568167,7.20733333 211.976667,7.36566667 212.458,7.467 C212.939333,7.56833333 213.420667,7.68866667 213.902,7.828 C214.383333,7.96733333 214.791833,8.227 215.1275,8.607 C215.463167,8.987 215.631,9.49366667 215.631,10.127 C215.631,11.0516667 215.266833,11.7578333 214.5385,12.2455 C213.810167,12.7331667 212.952,12.977 211.964,12.977 C211.09,12.977 210.317333,12.8313333 209.646,12.54 C208.974667,12.2486667 208.639,11.8876667 208.639,11.457 C208.639,10.9123333 209.031667,10.4753333 209.817,10.146 C210.197,11.0326667 211.020333,11.476 212.287,11.476 C213.249667,11.476 213.731,11.153 213.731,10.507 C213.731,10.127 213.563167,9.83883333 213.2275,9.6425 C212.891833,9.44616667 212.483333,9.3005 212.002,9.2055 C211.520667,9.1105 211.039333,8.987 210.558,8.835 C210.076667,8.683 209.668167,8.40433333 209.3325,7.999 C208.996833,7.59366667 208.829,7.049 208.829,6.365 C208.829,5.453 209.193167,4.7595 209.9215,4.2845 C210.649833,3.8095 211.508,3.572 212.496,3.572 C212.876,3.572 213.271833,3.61316667 213.6835,3.6955 C214.095167,3.77783333 214.494167,3.94883333 214.8805,4.2085 C215.266833,4.46816667 215.46,4.79433333 215.46,5.187 C215.46,5.44033333 215.333333,5.66516667 215.08,5.8615 C214.826667,6.05783333 214.484667,6.20666667 214.054,6.308 Z" id="Path"></path>
                    </g>
                    <g id="symbol" transform="translate(-0.000000, 0.000000)">
                        <path d="M85,47.8944164 C85,47.8944164 68.3050046,24.2832899 49,54 C49,54 67.6621866,37.8676184 85,47.8944164" id="Fill-44" fill="#001B60"></path>
                        <path d="M67,62.9153923 C67,62.9153923 54.8985759,64 42.7465445,50.1768139 C31.4814337,37.3626378 8.88435138,32.1288103 0,53.4342493 C0,53.4342493 12.4597386,40.3057067 29.2613617,46.8280625 C42.1972521,51.8493183 48.008226,68.3501898 67,62.9153923" id="Fill-45" fill="#001B60"></path>
                        <path d="M60.2664091,28.2088952 C61.0165892,28.2088952 61.7398773,28.3251283 62.4205575,28.5398218 C63.0806321,27.6085353 64.1528169,27 65.3667955,27 C67.3735621,27 69,28.6556995 69,30.6977762 C69,32.01153 68.3249078,33.1624864 67.3106978,33.8182969 C67.4503962,34.391287 67.5328182,34.9873814 67.5328182,35.6044476 C67.5328182,39.6889565 64.2795931,43 60.2664091,43 C56.2532251,43 53,39.6889565 53,35.6044476 C53,31.5199387 56.2532251,28.2088952 60.2664091,28.2088952" id="Fill-46" fill="#001B60"></path>
                        <path d="M22,34 C22,38.4183371 25.5816629,42 30,42 C34.4183371,42 38,38.4183371 38,34 C38,29.5816629 34.4183371,26 30,26 C25.5816629,26 22,29.5816629 22,34" id="Fill-47" fill="#001B60"></path>
                        <path d="M43,6.7820617 C62.0110433,6.7820617 78.0321411,19.5575306 83,37 C81.3718843,16.2961693 64.0918814,0 43,0 C21.9081186,0 4.62811567,16.2961693 3,37 C7.96785891,19.5575306 23.9889567,6.7820617 43,6.7820617" id="Fill-48" fill="#CD9438"></path>
                    </g>
                </g>
            </g>
        </g>
    </g>
</svg>