<svg width="409" height="89" viewBox="0 0 409 89" fill="none" xmlns="http://www.w3.org/2000/svg">
<path d="M61.9674 20.6768C66.6336 22.536 70.1533 27.6766 70.1533 32.6325L70.1533 48.1735C70.1533 52.4977 69.2774 54.693 67.4755 56.6241C65.1216 59.1466 61.8047 60.5086 58.5 61.5V61.5C62.4835 60.9766 59.0878 57.5952 54.8598 55.7988L10.7614 37.0619C6.88338 35.4141 4.00018 31.1172 4.00018 26.9854L4.00018 8.54198C4.00018 2.7039 8.82491 -0.497886 14.3218 1.69235L61.9674 20.6768Z" fill="#295BDC"/>
<g filter="url(#filter0_d)">
<path d="M61.9674 61.2483C66.6336 59.4147 70.1533 54.3451 70.1533 49.4576L70.1533 32.7386C70.1533 26.9812 65.3286 23.8236 59.8317 25.9836L12.1861 44.7059C7.51991 46.5394 4.00019 51.6091 4.00019 56.4965L4.00019 73.2155C4.00019 78.973 8.82491 82.1306 14.3218 79.9706L61.9674 61.2483Z" fill="#56C1AB"/>
</g>
<path d="M112.217 58.7042C109.445 58.7042 106.961 58.2542 104.765 57.3542C102.569 56.4542 100.805 55.1222 99.4733 53.3582C98.1773 51.5942 97.4933 49.4702 97.4213 46.9862H107.249C107.393 48.3902 107.879 49.4702 108.707 50.2262C109.535 50.9462 110.615 51.3062 111.947 51.3062C113.315 51.3062 114.395 51.0002 115.187 50.3882C115.979 49.7402 116.375 48.8582 116.375 47.7422C116.375 46.8062 116.051 46.0322 115.403 45.4202C114.791 44.8082 114.017 44.3042 113.081 43.9082C112.181 43.5122 110.885 43.0622 109.193 42.5582C106.745 41.8022 104.747 41.0462 103.199 40.2902C101.651 39.5342 100.319 38.4182 99.2033 36.9422C98.0873 35.4662 97.5293 33.5402 97.5293 31.1642C97.5293 27.6362 98.8073 24.8822 101.363 22.9022C103.919 20.8862 107.249 19.8782 111.353 19.8782C115.529 19.8782 118.895 20.8862 121.451 22.9022C124.007 24.8822 125.375 27.6542 125.555 31.2182H115.565C115.493 29.9942 115.043 29.0402 114.215 28.3562C113.387 27.6362 112.325 27.2762 111.029 27.2762C109.913 27.2762 109.013 27.5822 108.329 28.1942C107.645 28.7702 107.303 29.6162 107.303 30.7322C107.303 31.9562 107.879 32.9102 109.031 33.5942C110.183 34.2782 111.983 35.0162 114.431 35.8082C116.879 36.6362 118.859 37.4282 120.371 38.1842C121.919 38.9402 123.251 40.0382 124.367 41.4782C125.483 42.9182 126.041 44.7722 126.041 47.0402C126.041 49.2002 125.483 51.1622 124.367 52.9262C123.287 54.6902 121.703 56.0942 119.615 57.1382C117.527 58.1822 115.061 58.7042 112.217 58.7042ZM157.394 20.4182V27.8162H147.35V58.3262H138.116V27.8162H128.072V20.4182H157.394ZM179.76 58.3262L171.876 44.0162H169.662V58.3262H160.428V20.4182H175.926C178.914 20.4182 181.452 20.9402 183.54 21.9842C185.664 23.0282 187.248 24.4682 188.292 26.3042C189.336 28.1042 189.858 30.1202 189.858 32.3522C189.858 34.8722 189.138 37.1222 187.698 39.1022C186.294 41.0822 184.206 42.4862 181.434 43.3142L190.182 58.3262H179.76ZM169.662 37.4822H175.386C177.078 37.4822 178.338 37.0682 179.166 36.2402C180.03 35.4122 180.462 34.2422 180.462 32.7302C180.462 31.2902 180.03 30.1562 179.166 29.3282C178.338 28.5002 177.078 28.0862 175.386 28.0862H169.662V37.4822ZM203.289 27.8162V35.4842H215.655V42.6122H203.289V50.9282H217.275V58.3262H194.055V20.4182H217.275V27.8162H203.289ZM245.268 51.6302H231.12L228.852 58.3262H219.186L232.902 20.4182H243.594L257.31 58.3262H247.536L245.268 51.6302ZM242.892 44.5022L238.194 30.6242L233.55 44.5022H242.892ZM302.814 20.4182V58.3262H293.58V35.5922L285.102 58.3262H277.65L269.118 35.5382V58.3262H259.884V20.4182H270.792L281.43 46.6622L291.96 20.4182H302.814Z" fill="#295BDC"/>
<path d="M317.088 27.8162V35.4842H329.454V42.6122H317.088V50.9282H331.074V58.3262H307.854V20.4182H331.074V27.8162H317.088ZM354.801 58.3262L346.917 44.0162H344.703V58.3262H335.469V20.4182H350.967C353.955 20.4182 356.493 20.9402 358.581 21.9842C360.705 23.0282 362.289 24.4682 363.333 26.3042C364.377 28.1042 364.899 30.1202 364.899 32.3522C364.899 34.8722 364.179 37.1222 362.739 39.1022C361.335 41.0822 359.247 42.4862 356.475 43.3142L365.223 58.3262H354.801ZM344.703 37.4822H350.427C352.119 37.4822 353.379 37.0682 354.207 36.2402C355.071 35.4122 355.503 34.2422 355.503 32.7302C355.503 31.2902 355.071 30.1562 354.207 29.3282C353.379 28.5002 352.119 28.0862 350.427 28.0862H344.703V37.4822ZM401.604 20.4182L388.482 45.7982V58.3262H379.248V45.7982L366.126 20.4182H376.602L383.946 36.2942L391.236 20.4182H401.604Z" fill="#56C1AB"/>
<defs>
<filter id="filter0_d" x="0" y="25.3008" width="74.1531" height="63.3526" filterUnits="userSpaceOnUse" color-interpolation-filters="sRGB">
<feFlood flood-opacity="0" result="BackgroundImageFix"/>
<feColorMatrix in="SourceAlpha" type="matrix" values="0 0 0 0 0 0 0 0 0 0 0 0 0 0 0 0 0 0 127 0"/>
<feOffset dy="4"/>
<feGaussianBlur stdDeviation="2"/>
<feColorMatrix type="matrix" values="0 0 0 0 0 0 0 0 0 0 0 0 0 0 0 0 0 0 0.25 0"/>
<feBlend mode="normal" in2="BackgroundImageFix" result="effect1_dropShadow"/>
<feBlend mode="normal" in="SourceGraphic" in2="effect1_dropShadow" result="shape"/>
</filter>
</defs>
</svg>
