<?xml version="1.0" standalone="no"?>
<!DOCTYPE svg PUBLIC "-//W3C//DTD SVG 20010904//EN"
 "http://www.w3.org/TR/2001/REC-SVG-20010904/DTD/svg10.dtd">
<svg version="1.0" xmlns="http://www.w3.org/2000/svg"
 width="300.000000pt" height="300.000000pt" viewBox="0 0 300.000000 300.000000"
 preserveAspectRatio="xMidYMid meet">
<metadata>
Created by potrace 1.14, written by Peter Selinger 2001-2017
</metadata>
<g transform="translate(0.000000,300.000000) scale(0.100000,-0.100000)"
fill="#000000" stroke="none">
<path d="M2090 2863 c0 -7 5 -13 11 -13 5 0 8 -4 5 -8 -2 -4 10 -9 27 -10 18
-2 34 -7 35 -12 2 -6 14 -10 26 -10 12 0 27 -5 34 -12 7 -7 12 -9 12 -4 0 4 7
1 15 -8 8 -8 15 -22 15 -31 0 -9 5 -13 10 -10 9 6 14 -8 11 -27 0 -5 6 -8 14
-8 8 0 17 -11 21 -25 3 -14 9 -25 13 -25 4 0 6 -12 5 -27 -1 -16 -3 -38 -3
-51 -1 -16 -5 -21 -13 -16 -10 6 -10 4 0 -7 15 -16 16 -33 1 -23 -8 4 -8 0 0
-15 7 -12 8 -21 2 -21 -13 0 -7 -33 7 -38 7 -2 10 -8 7 -13 -4 -5 0 -6 8 -3 7
2 14 10 14 17 1 7 2 33 4 59 1 31 6 45 13 41 6 -4 5 0 -1 9 -7 8 -10 18 -6 22
4 3 8 16 10 27 2 14 -1 18 -9 13 -8 -5 -7 0 2 11 11 14 12 19 3 22 -7 3 -13
11 -13 19 0 8 -4 14 -10 14 -5 0 -10 5 -10 10 0 6 -13 29 -30 52 -16 22 -30
47 -30 55 0 8 -4 11 -10 8 -5 -3 -10 -2 -10 4 0 5 -9 8 -19 6 -11 -2 -22 3
-26 13 -5 14 -7 14 -15 2 -8 -12 -10 -12 -15 1 -4 11 -14 14 -32 11 -16 -3
-24 -1 -20 5 3 5 -7 10 -23 10 -18 0 -30 -6 -30 -14z"/>
<path d="M2099 2810 c0 -3 -2 -13 -4 -23 -4 -19 17 -33 59 -41 15 -3 33 -10
40 -15 7 -6 16 -8 19 -5 4 4 5 -3 2 -14 -2 -12 3 -23 12 -26 9 -4 13 -9 9 -13
-3 -3 2 -12 12 -19 19 -13 22 -39 8 -62 -4 -7 -2 -12 4 -12 7 0 8 -5 3 -12 -4
-7 -8 -28 -9 -45 -1 -36 17 -44 42 -18 9 8 11 15 6 15 -5 0 -8 10 -6 23 1 12
3 22 4 22 9 0 3 85 -7 101 -7 11 -11 24 -8 27 3 4 2 5 -1 2 -10 -6 -34 21 -34
39 0 15 -38 42 -52 38 -5 -1 -8 1 -8 6 0 4 -10 8 -23 8 -34 3 -51 8 -59 19 -4
6 -8 8 -9 5z"/>
<path d="M2099 2724 c-1 -2 -2 -14 -2 -26 -1 -19 4 -23 25 -22 15 1 26 -4 25
-10 -1 -6 4 -10 11 -8 6 1 12 -7 12 -19 0 -11 4 -18 8 -15 11 7 9 -45 -2 -63
-10 -15 8 -30 33 -26 11 1 15 10 13 30 -2 17 0 25 7 21 13 -9 -12 64 -35 99
-9 14 -22 24 -29 21 -7 -2 -18 1 -24 7 -11 11 -40 19 -42 11z"/>
<path d="M2060 2605 c-12 -22 -12 -28 1 -40 17 -17 63 -29 54 -14 -4 5 0 11 7
14 16 6 22 45 7 45 -6 0 -7 5 -4 10 4 6 -6 10 -23 10 -20 0 -32 -7 -42 -25z"/>
<path d="M1376 2579 c3 -5 2 -9 -3 -9 -4 0 -9 -15 -10 -33 -2 -21 0 -27 6 -18
7 10 9 7 8 -12 -1 -14 -5 -23 -9 -20 -5 2 -8 0 -8 -6 0 -5 5 -13 10 -16 6 -4
7 -13 1 -23 -5 -9 -10 -21 -11 -27 -1 -5 -6 -9 -11 -7 -5 1 -9 -2 -9 -8 0 -5
-5 -10 -12 -10 -6 0 -27 -12 -46 -27 -20 -15 -32 -21 -28 -15 5 8 2 10 -8 6
-9 -3 -16 -10 -16 -14 0 -5 -16 -14 -34 -21 -19 -7 -33 -16 -30 -21 3 -4 -1
-8 -10 -8 -19 0 -79 -32 -89 -48 -5 -7 -12 -10 -18 -7 -5 4 -9 1 -9 -6 0 -7
-3 -9 -6 -6 -4 4 -19 -2 -33 -11 -14 -10 -43 -27 -63 -37 -21 -11 -38 -23 -38
-28 0 -4 -4 -6 -9 -2 -5 3 -17 -2 -25 -11 -9 -8 -16 -12 -16 -8 0 3 -7 0 -16
-7 -9 -7 -24 -18 -35 -24 -84 -47 -118 -63 -123 -58 -3 4 -6 1 -6 -5 0 -14
-55 -44 -64 -35 -3 4 -6 1 -6 -6 0 -6 -11 -16 -24 -20 -22 -9 -23 -14 -22 -95
1 -51 -3 -86 -9 -86 -7 0 -7 -3 0 -8 6 -4 10 -29 10 -57 0 -27 -4 -53 -10 -57
-7 -5 -7 -8 0 -8 6 0 10 -54 9 -142 -1 -146 4 -168 40 -168 8 0 18 -5 22 -11
3 -6 22 -17 40 -25 19 -8 34 -19 34 -24 0 -6 3 -9 8 -8 13 4 52 -13 52 -23 0
-5 9 -9 20 -9 11 0 20 -4 20 -9 0 -5 14 -12 31 -16 17 -4 33 -13 36 -21 3 -8
9 -11 14 -8 5 3 16 -1 24 -8 33 -29 43 -37 48 -32 2 2 10 -2 17 -11 7 -8 21
-15 31 -15 11 0 19 -5 19 -11 0 -5 5 -7 10 -4 6 3 10 1 10 -4 0 -6 8 -11 17
-11 9 0 24 -6 32 -14 9 -8 55 -35 103 -60 48 -24 98 -52 112 -62 14 -9 26 -13
26 -9 0 3 7 -1 16 -9 8 -9 22 -16 30 -16 8 0 14 -4 14 -10 0 -5 7 -10 15 -10
8 0 15 -5 15 -11 0 -5 4 -8 9 -5 5 3 19 -2 32 -12 26 -20 69 -27 69 -11 0 5 6
9 13 9 7 0 29 11 49 25 20 14 44 25 52 25 9 0 16 4 16 8 0 5 18 16 40 26 22
10 40 22 40 27 0 5 3 9 8 8 17 -3 51 14 46 22 -3 5 2 9 11 9 9 0 15 6 12 13
-2 6 -10 11 -16 9 -6 -1 -14 5 -17 13 -4 8 -15 15 -25 15 -10 0 -19 5 -19 12
0 6 -3 8 -7 5 -3 -4 -15 0 -25 10 -10 9 -18 12 -18 7 0 -5 -4 -4 -8 1 -11 15
-68 45 -86 45 -10 0 -13 6 -10 15 5 11 2 13 -11 8 -11 -4 -23 0 -31 11 -7 10
-18 19 -26 20 -23 5 -53 20 -66 33 -8 7 -18 11 -23 8 -5 -4 -9 -2 -9 3 0 5
-18 17 -40 27 -22 10 -40 22 -40 27 0 4 -3 8 -7 7 -14 -2 -53 13 -53 20 0 4
-16 13 -35 20 -19 7 -35 17 -35 22 0 6 -5 7 -11 3 -6 -3 -14 -3 -18 2 -7 11
-35 28 -81 51 -19 9 -37 20 -40 23 -6 8 -44 23 -47 18 -1 -2 -13 8 -28 22 -15
14 -27 23 -28 21 -1 -2 -19 4 -39 13 -21 10 -35 22 -32 27 3 5 1 9 -3 9 -7 0
-9 140 -4 207 1 13 56 43 78 43 8 0 12 4 9 9 -4 5 7 12 24 16 16 4 30 10 30
13 0 8 74 42 91 42 5 0 8 3 5 8 -2 4 7 12 20 19 18 8 22 8 17 0 -3 -7 2 -5 13
4 33 27 95 59 104 54 4 -3 11 2 14 11 3 8 10 12 16 9 5 -3 10 -1 10 4 0 6 7
11 15 11 8 0 15 5 15 10 0 6 9 10 20 10 11 0 20 5 20 12 0 6 3 8 6 5 4 -4 19
2 34 13 16 11 35 20 44 20 9 0 16 5 16 11 0 5 5 7 10 4 6 -3 10 -1 10 4 0 14
36 9 52 -7 7 -7 20 -12 31 -12 10 0 15 -4 12 -10 -3 -5 1 -10 9 -10 9 0 16 -4
16 -10 0 -5 6 -7 13 -4 8 3 20 -2 27 -10 7 -9 16 -13 21 -10 5 3 9 1 9 -4 0
-6 11 -13 25 -16 14 -4 25 -11 25 -16 0 -6 9 -10 20 -10 11 0 20 -3 20 -8 0
-8 57 -35 64 -30 2 2 15 -7 28 -19 13 -13 38 -28 56 -34 18 -6 32 -15 32 -20
0 -5 9 -9 20 -9 11 0 20 -4 20 -8 0 -6 11 -12 68 -33 4 -2 16 -11 26 -21 19
-17 31 -22 49 -19 4 0 7 -3 7 -7 0 -5 16 -14 35 -22 19 -7 31 -18 28 -23 -3
-6 -1 -7 6 -3 6 4 24 -2 40 -13 16 -12 36 -21 45 -21 9 0 19 -7 22 -15 4 -8
13 -15 21 -15 8 0 27 -9 43 -20 15 -11 30 -17 34 -13 3 3 6 -2 6 -12 0 -14 3
-15 15 -5 8 7 12 16 9 21 -3 5 0 9 5 9 6 0 11 5 11 11 0 5 -4 8 -9 5 -5 -3 -9
5 -8 19 0 14 4 22 9 19 6 -4 5 3 -1 14 -14 27 -14 35 1 26 6 -4 8 -3 5 3 -11
18 -16 63 -6 63 5 0 9 5 9 11 0 5 -4 8 -9 5 -5 -3 -8 5 -8 19 0 14 4 22 9 19
6 -4 5 3 -1 14 -14 26 -14 35 -1 27 6 -4 7 2 1 17 -4 13 -6 29 -4 36 3 6 0 12
-6 12 -6 0 -20 9 -31 20 -12 12 -25 18 -30 15 -6 -4 -10 1 -10 9 0 10 -6 13
-15 10 -8 -4 -15 -1 -15 6 0 6 -5 8 -10 5 -6 -3 -13 1 -16 9 -3 9 -10 14 -14
11 -4 -3 -18 3 -31 13 -13 10 -39 24 -56 31 -18 8 -33 17 -33 22 0 5 -3 8 -7
7 -13 -3 -83 33 -83 43 0 5 -3 8 -7 7 -13 -2 -48 15 -56 28 -4 7 -14 11 -22 8
-8 -4 -15 -1 -15 5 0 6 -9 11 -20 11 -11 0 -20 5 -20 10 0 10 -48 35 -62 32
-5 -1 -8 2 -8 8 0 5 -7 10 -15 10 -8 0 -15 4 -15 8 0 4 -20 16 -45 26 -26 11
-42 23 -38 30 3 6 3 8 -2 4 -4 -4 -17 -2 -29 4 -11 7 -24 11 -28 10 -5 -1 -8
3 -8 8 0 6 -7 10 -15 10 -8 0 -15 5 -15 10 0 6 -8 10 -19 10 -16 0 -18 8 -18
58 -1 31 -1 71 -2 88 l-1 31 -130 0 c-71 0 -127 -4 -124 -8z"/>
<path d="M1465 1830 c-19 -9 -32 -19 -28 -23 3 -4 -1 -7 -11 -7 -17 0 -66 -27
-77 -43 -3 -5 -8 -8 -10 -8 -13 2 -49 -13 -49 -20 0 -5 -7 -9 -15 -9 -8 0 -15
-4 -15 -10 0 -5 -3 -9 -7 -8 -5 1 -20 -5 -35 -12 -32 -15 -37 -40 -8 -40 11 0
20 -5 20 -11 0 -5 5 -7 10 -4 6 3 13 0 16 -9 3 -8 12 -12 20 -9 8 3 14 1 14
-4 0 -5 27 -22 60 -38 33 -17 60 -33 60 -37 0 -5 7 -8 16 -8 9 0 23 -8 31 -17
8 -10 12 -12 8 -5 -4 7 15 -1 41 -17 26 -17 50 -28 54 -26 5 3 11 -2 14 -11 3
-8 10 -12 16 -9 5 3 10 1 10 -4 0 -6 7 -11 15 -11 8 0 15 -5 15 -10 0 -6 3 -9
8 -8 15 4 81 -36 75 -45 -3 -6 -1 -7 5 -3 6 4 29 -4 51 -18 21 -14 42 -22 45
-19 3 4 6 1 6 -5 0 -7 6 -12 14 -12 8 0 22 -7 30 -16 9 -8 16 -12 16 -8 0 4 9
-1 20 -11 11 -10 20 -15 20 -11 0 4 7 0 16 -8 8 -9 20 -14 25 -11 5 4 9 2 9
-2 0 -5 38 -28 85 -52 47 -25 85 -51 85 -58 0 -8 -5 -11 -12 -7 -7 5 -8 3 -2
-7 10 -16 13 -208 3 -206 -11 3 -99 -37 -99 -45 0 -5 -7 -8 -16 -8 -8 0 -12
-5 -9 -10 4 -6 3 -10 -2 -9 -12 3 -67 -13 -73 -22 -8 -11 -101 -59 -116 -59
-8 0 -14 -3 -14 -7 0 -5 -14 -16 -31 -25 -17 -10 -27 -12 -23 -5 4 6 -4 3 -17
-9 -25 -22 -58 -38 -71 -36 -5 1 -8 -3 -8 -8 0 -6 -9 -10 -21 -10 -11 0 -18
-4 -15 -9 4 -5 -7 -12 -24 -16 -16 -4 -30 -11 -30 -17 0 -6 -6 -8 -14 -5 -8 3
-17 -1 -20 -9 -6 -16 -28 -18 -54 -5 -9 5 -32 16 -49 23 -18 7 -33 16 -33 19
0 4 -15 12 -32 20 -18 7 -45 21 -60 31 -14 10 -32 18 -40 18 -8 0 -24 9 -36
20 -12 12 -22 17 -22 13 0 -4 -4 -3 -8 2 -10 14 -71 45 -88 45 -9 0 -13 4 -10
8 3 4 -18 17 -45 28 -28 10 -58 27 -66 36 -9 10 -24 18 -34 18 -9 0 -19 4 -21
9 -2 5 -10 11 -18 13 -8 2 -17 6 -20 9 -9 11 -155 84 -162 81 -5 -1 -8 3 -8 8
0 6 -7 10 -15 10 -8 0 -15 3 -15 8 0 4 -20 16 -45 27 -25 11 -45 24 -45 28 0
5 -4 6 -9 2 -5 -3 -12 -1 -16 5 -3 5 -11 10 -16 10 -6 0 -7 -4 -4 -10 3 -5 0
-10 -7 -10 -8 0 -9 -3 -3 -8 6 -4 10 -29 10 -57 0 -27 -4 -53 -10 -57 -6 -5
-6 -8 1 -8 14 0 14 -30 0 -30 -7 0 -7 -3 -1 -8 6 -4 10 -29 10 -57 0 -27 -4
-53 -10 -57 -6 -5 -5 -8 3 -8 10 0 10 -5 1 -21 -6 -12 -7 -19 -2 -16 5 3 16
-3 23 -14 8 -10 22 -19 32 -19 10 0 18 -5 18 -12 0 -6 3 -8 7 -5 3 4 17 -3 31
-15 13 -13 24 -21 25 -20 4 7 57 -21 57 -30 0 -4 3 -7 8 -6 12 3 82 -35 82
-45 0 -5 7 -6 15 -3 9 3 18 -1 21 -9 4 -8 10 -12 15 -9 5 3 9 1 9 -4 0 -8 21
-18 45 -21 3 0 15 -10 27 -21 12 -11 30 -20 40 -20 11 0 16 -4 13 -10 -3 -5 2
-10 12 -10 10 0 36 -12 57 -26 21 -14 45 -27 53 -28 8 -1 18 -7 21 -12 4 -5
27 -19 52 -32 25 -13 70 -37 101 -54 l55 -30 -1 -51 c0 -29 3 -60 8 -71 6 -13
6 -16 -2 -12 -13 8 -14 -3 -2 -22 4 -7 23 -13 42 -12 19 0 71 0 117 -1 45 0
88 4 95 10 9 7 11 27 7 66 -3 31 -2 58 2 61 5 3 6 9 3 14 -3 5 3 18 15 30 11
11 20 17 20 13 0 -3 9 2 20 12 11 10 20 15 20 11 0 -4 12 2 26 13 15 12 33 21
40 21 8 0 14 5 14 10 0 6 8 10 19 10 10 0 24 7 31 15 7 8 18 15 24 15 7 0 22
9 34 21 12 11 26 18 31 15 5 -3 12 1 15 10 3 8 10 12 16 9 5 -3 10 -2 10 3 0
4 16 14 35 22 19 8 35 18 35 22 0 5 5 6 10 3 6 -3 10 -3 10 2 0 4 27 21 60 38
33 16 60 33 60 38 0 4 5 5 10 2 6 -3 10 -3 10 2 0 4 15 14 33 22 17 8 34 17
37 20 3 3 23 15 45 26 97 49 136 78 129 98 -4 14 -3 17 6 12 8 -5 11 -4 7 2
-11 18 -16 63 -6 63 5 0 9 5 9 11 0 5 -4 8 -9 5 -5 -3 -8 5 -8 19 0 14 4 22 9
19 6 -4 5 3 -1 14 -14 27 -14 35 1 26 6 -4 8 -3 5 3 -11 18 -16 63 -6 63 5 0
9 5 9 11 0 5 -4 8 -9 5 -5 -3 -9 5 -8 19 0 14 4 22 9 19 6 -4 5 3 -1 14 -14
27 -14 35 1 26 6 -4 8 -3 5 3 -11 18 -16 63 -6 63 5 0 9 5 9 11 0 5 -4 8 -9 5
-5 -3 -8 5 -8 19 0 14 4 22 9 19 6 -4 5 3 -1 14 -14 26 -14 35 -1 27 7 -4 7 2
0 19 -6 17 -6 27 1 32 6 4 6 11 -2 20 -6 7 -15 11 -20 9 -4 -3 -12 3 -18 12
-6 10 -11 15 -11 11 0 -4 -22 5 -48 21 -27 16 -65 36 -85 46 -20 9 -34 22 -30
28 3 5 1 7 -5 3 -12 -7 -104 39 -95 48 4 3 -3 6 -15 6 -11 0 -24 5 -27 10 -4
6 -11 8 -16 5 -5 -4 -9 -1 -9 4 0 6 -7 11 -15 11 -8 0 -15 4 -15 8 0 4 -20 16
-45 26 -25 11 -45 23 -45 28 0 4 -9 8 -20 8 -10 0 -23 7 -28 16 -5 9 -12 15
-15 15 -24 -3 -37 0 -32 9 3 6 -3 10 -15 10 -12 0 -19 4 -16 8 2 4 -5 9 -16 9
-12 1 -24 6 -27 10 -3 5 -28 20 -56 33 -27 14 -51 28 -53 33 -2 4 -10 7 -18 7
-9 0 -12 4 -9 10 4 6 -1 7 -10 3 -10 -3 -21 0 -26 8 -4 8 -12 14 -16 15 -15 1
-63 27 -63 34 0 11 -28 7 -65 -10z"/>
</g>
</svg>
