<?xml version="1.0" encoding="UTF-8"?>
<svg width="28px" height="28px" viewBox="0 0 28 28" version="1.1" xmlns="http://www.w3.org/2000/svg" xmlns:xlink="http://www.w3.org/1999/xlink">
    <title>cash-app</title>
    <g id="Page-1" stroke="none" stroke-width="1" fill="none" fill-rule="evenodd">
        <g id="profile-2" transform="translate(-116, -671)" fill-rule="nonzero">
            <g id="Pay-Buttons" transform="translate(100, 473)">
                <g id="btn-cash-app" transform="translate(0, 189)">
                    <g id="cash-app" transform="translate(16, 9)">
                        <path d="M18.24375,0 C21.04375,0 22.44375,0 23.975,0.48125 C25.6203785,1.08314949 26.9168505,2.37962154 27.51875,4.025 C28,5.55625 28,6.95625 28,9.760625 L28,18.235 C28,21.04375 28,22.4525 27.51875,23.96625 C26.9168505,25.6116285 25.6203785,26.9081005 23.975,27.51 C22.44375,28 21.04375,28 18.24375,28 L9.75625,28 C6.9475,28 5.53875,28 4.025,27.51875 C2.37962154,26.9168505 1.08314949,25.6203785 0.48125,23.975 C0,22.44375 0,21.04375 0,18.239375 L0,9.75625 C0,6.9475 0,5.53875 0.48125,4.025 C1.08314949,2.37962154 2.37962154,1.08314949 4.025,0.48125 C5.55625,0 6.95625,0 9.75625,0 L18.24375,0 Z" id="Path" fill="#FFFFFF"></path>
                        <path d="M18.580625,10.4125 C18.799375,10.63125 19.1625,10.63125 19.368125,10.4125 L20.461875,9.275 C20.69375,9.05625 20.680625,8.6625 20.435625,8.42625 C19.5761532,7.67763775 18.5769305,7.10665334 17.495625,6.74625 L17.84125,5.08375 C17.915625,4.720625 17.644375,4.379375 17.28125,4.379375 L15.16375,4.379375 C14.8909844,4.38230035 14.657464,4.57568446 14.60375,4.843125 L14.2975,6.321875 C11.48,6.46625 9.09125,7.896875 9.09125,10.828125 C9.09125,13.365625 11.064375,14.455 13.15125,15.203125 C15.124375,15.955625 16.17,16.235625 16.17,17.294375 C16.17,18.38375 15.12875,19.0225 13.58875,19.0225 C12.18875,19.0225 10.71875,18.554375 9.58125,17.4125 C9.47456172,17.3056348 9.32975515,17.2455837 9.17875,17.2455837 C9.02774485,17.2455837 8.88293828,17.3056348 8.77625,17.4125 L7.595,18.59375 C7.36360775,18.8259443 7.36360775,19.2015557 7.595,19.43375 C8.51375,20.339375 9.6775,20.995625 11.004,21.35875 L10.68025,22.920625 C10.605875,23.28375 10.87275,23.620625 11.235875,23.625 L13.35775,23.6425058 C13.6338073,23.6437249 13.8721273,23.4494024 13.9265,23.17875 L14.23275,21.695625 C17.6225,21.468125 19.6875,19.6 19.6875,16.874375 C19.6875,14.363125 17.63125,13.304375 15.1375,12.4425 C13.71125,11.913125 12.4775,11.55 12.4775,10.460625 C12.4775,9.401875 13.628125,8.981875 14.783125,8.981875 C16.253125,8.981875 17.66625,9.59 18.589375,10.42125 L18.580625,10.4125 Z" id="Path" fill="#000000"></path>
                    </g>
                </g>
            </g>
        </g>
    </g>
</svg>