<?xml version="1.0" encoding="UTF-8"?>
<svg width="30px" height="30px" viewBox="0 0 30 30" version="1.1" xmlns="http://www.w3.org/2000/svg" xmlns:xlink="http://www.w3.org/1999/xlink">
    <title>coinbase</title>
    <g id="Page-1" stroke="none" stroke-width="1" fill="none" fill-rule="evenodd">
        <g id="original-btns" transform="translate(-495, -361)" fill-rule="nonzero">
            <g id="coinbase" transform="translate(480, 353)">
                <g transform="translate(15, 8)">
                    <circle id="Oval" fill="#FFFFFF" cx="15" cy="15" r="15"></circle>
                    <path d="M15.1259766,10.6004883 C16.8919922,10.6004883 18.2929688,11.6897461 18.825,13.3095703 L22.3828125,13.3095703 C21.7382812,9.84638672 18.880957,7.5 15.1543945,7.5 C10.9224609,7.5 7.6171875,10.7124023 7.6171875,15.0143555 C7.6171875,19.3163086 10.8398438,22.5 15.1543945,22.5 C18.7974609,22.5 21.7116211,20.1536133 22.3567383,16.6617187 L18.824707,16.6617187 C18.3202148,18.2818359 16.9204102,19.3995117 15.1532227,19.3995117 C12.7148438,19.3995117 11.005957,17.5277344 11.005957,15.0143555 C11.0071289,12.4722656 12.6884766,10.6004883 15.1259766,10.6004883 Z" id="Path" fill="#383838"></path>
                </g>
            </g>
        </g>
    </g>
</svg>