<?xml version="1.0" encoding="UTF-8"?>
<svg width="30px" height="30px" viewBox="0 0 30 30" version="1.1" xmlns="http://www.w3.org/2000/svg" xmlns:xlink="http://www.w3.org/1999/xlink">
    <title>crypto</title>
    <g id="Page-1" stroke="none" stroke-width="1" fill="none" fill-rule="evenodd">
        <g id="profile-2" transform="translate(-829, -711)" fill-rule="nonzero">
            <g id="Pay-Buttons" transform="translate(394, 514)">
                <g id="btn-crypto.com" transform="translate(420, 189)">
                    <g id="crypto" transform="translate(15, 8)">
                        <circle id="Oval" fill="#FFFFFF" cx="15" cy="15" r="15"></circle>
                        <path d="M26,21.2524625 L16,27 L6,21.2524625 L6,9.75246253 L16,4 L26,9.75246253 L26,21.2524625 Z M16,3 L5,9.25 L5,21.75 L16,28 L27,21.75 L27,9.25 L16,3 Z M20.9275766,8 L12.0315692,8 L11,12 L22,12 L20.9275766,8 Z M13.1677852,18.5445545 L13.1677852,15.6237624 L10.7436242,14 L8,16.1485149 L11.7395973,23 L13.233557,23 L15,21.2673267 L15,20.3960396 L13.1677852,18.5445545 Z M19,13 L13,13 L14.0106383,15.3551757 L13.7021277,18 L15.9893617,18 L18.2978723,17.9905033 L18.0106383,15.359924 L19,13 L19,13 Z M21.2510121,14 L18.8421053,15.6435644 L18.8421053,18.5643564 L17,20.4158416 L17,21.2871287 L18.7759784,23 L20.2591093,23 L24,16.1683168 L21.2510121,14 Z" id="Shape" fill="#000000"></path>
                    </g>
                </g>
            </g>
        </g>
    </g>
</svg>