<?xml version="1.0" encoding="UTF-8"?>
<svg width="28px" height="28px" viewBox="0 0 28 28" version="1.1" xmlns="http://www.w3.org/2000/svg" xmlns:xlink="http://www.w3.org/1999/xlink">
    <title>payment-square-svgrepo-com</title>
    <g id="Page-1" stroke="none" stroke-width="1" fill="none" fill-rule="evenodd">
        <g id="profile-2" transform="translate(-620, -773)" fill="#FFFFFF" fill-rule="nonzero">
            <g id="Pay-Buttons" transform="translate(394, 514)">
                <g id="btn-square" transform="translate(210, 250)">
                    <g id="payment-square-svgrepo-com" transform="translate(16, 9)">
                        <path d="M21,28 L7,28 C3.08,28 0,24.92 0,21 L0,7 C0,3.08 3.08,0 7,0 L21,0 C24.92,0 28,3.08 28,7 L28,21 C28,24.78 24.92,28 21,28 Z M7,2.8 C4.62,2.8 2.8,4.62 2.8,7 L2.8,21 C2.8,23.38 4.62,25.2 7,25.2 L21,25.2 C23.38,25.2 25.2,23.38 25.2,21 L25.2,7 C25.2,4.62 23.38,2.8 21,2.8 L7,2.8 Z" id="Shape"></path>
                        <path d="M16.8,9.8 L11.2,9.8 C10.36,9.8 9.8,10.36 9.8,11.2 L9.8,16.8 C9.8,17.64 10.36,18.2 11.2,18.2 L16.8,18.2 C17.64,18.2 18.2,17.64 18.2,16.8 L18.2,11.2 C18.2,10.36 17.64,9.8 16.8,9.8 Z" id="Path"></path>
                    </g>
                </g>
            </g>
        </g>
    </g>
</svg>