<?xml version="1.0" encoding="UTF-8"?>
<svg width="28px" height="28px" viewBox="0 0 28 28" version="1.1" xmlns="http://www.w3.org/2000/svg" xmlns:xlink="http://www.w3.org/1999/xlink">
    <title>logo-venmo-svgrepo-com</title>
    <g id="Page-1" stroke="none" stroke-width="1" fill="none" fill-rule="evenodd">
        <g id="profile-2" transform="translate(-620, -711)" fill="#FFFFFF" fill-rule="nonzero">
            <g id="Pay-Buttons" transform="translate(394, 514)">
                <g id="btn-venmo" transform="translate(210, 189)">
                    <g id="logo-venmo-svgrepo-com" transform="translate(16, 8)">
                        <path d="M25.760546,0 L2.39249266,0 C1.11562158,0 0,0.918747181 0,2.18061831 L0,25.5999215 C0,26.8692926 1.11562158,27.9999141 2.39249266,27.9999141 L25.753671,27.9999141 C27.0374171,27.9999141 27.9999573,26.8624176 27.9999573,25.6005465 L27.9999573,2.18061831 C28.0074141,0.918747181 27.0374171,0 25.760546,0 Z M15.3749528,22.1874319 L8.89497271,22.1874319 L6.29685568,6.65247959 L11.9687133,6.11373124 L13.3437091,17.1680723 C14.6268301,15.0774537 16.2112003,11.7930888 16.2112003,9.5512207 C16.2112003,8.32497446 16.0012009,7.48872703 15.6730769,6.80122914 L20.8374361,5.75623234 C21.4349342,6.74247932 21.7036834,7.75623234 21.7036834,9.04184726 C21.7030584,13.1355847 18.2086941,18.4536934 15.3749528,22.1874319 Z" id="Shape"></path>
                    </g>
                </g>
            </g>
        </g>
    </g>
</svg>