<?xml version="1.0" encoding="UTF-8"?>
<svg width="30px" height="27px" viewBox="0 0 30 27" version="1.1" xmlns="http://www.w3.org/2000/svg" xmlns:xlink="http://www.w3.org/1999/xlink">
    <title>wechat-payment-1</title>
    <g id="Page-1" stroke="none" stroke-width="1" fill="none" fill-rule="evenodd">
        <g id="original-btns" transform="translate(-495, -288)" fill="#FFFFFF" fill-rule="nonzero">
            <g id="WeChat" transform="translate(480, 278)">
                <g id="wechat-payment-1" transform="translate(15, 10)">
                    <path d="M10.9164769,16.5055143 C10.7786292,16.5751237 10.6374768,16.6083463 10.4661252,16.6083463 C10.0829219,16.6083463 9.77034757,16.4026822 9.59551547,16.094186 L9.524992,15.9583422 L6.77907687,10.0551485 C6.74546748,9.98553906 6.74546748,9.9192695 6.74546748,9.8496601 C6.74546748,9.57438655 6.95387381,9.36872241 7.23283876,9.36872241 C7.33707708,9.36872241 7.44124509,9.40190992 7.54548342,9.47151932 L10.7786292,11.7366374 C11.0206449,11.8724812 11.299645,11.9753484 11.6121139,11.9753484 C11.7869109,11.9753484 11.9584031,11.9421258 12.1332001,11.8724812 L27.2945146,5.21662704 C24.582244,2.05945393 20.0985899,0 15.0202324,0 C6.74546748,0 0,5.5250881 0,12.3501845 C0,16.0545297 2.01659844,19.4171912 5.17932624,21.6823093 C5.42120134,21.8547507 5.59599828,22.1632469 5.59599828,22.4715674 C5.59599828,22.5743994 5.56235374,22.6772315 5.52547481,22.7800636 C5.28356456,23.7053061 4.86344721,25.217588 4.86344721,25.2839982 C4.82976751,25.3866544 4.79267765,25.5227092 4.79267765,25.661928 C4.79267765,25.9372015 5.00111914,26.1428657 5.28011925,26.1428657 C5.38428726,26.1428657 5.48852558,26.1096782 5.5590842,26.0400336 L8.82587454,24.1530563 C9.06792542,24.0170016 9.34689037,23.9142047 9.62589048,23.9142047 C9.76356241,23.9142047 9.93839451,23.9473922 10.0762422,23.9838141 C11.6053991,24.4283299 13.2758841,24.6704159 14.9798379,24.6704159 C23.254638,24.6704159 30,19.1453278 30,12.3202314 C30,10.2607774 29.3749216,8.30738996 28.2960814,6.58965492 L11.0206449,16.4358697 L10.9164769,16.5054791 L10.9164769,16.5055143 Z" id="Path"></path>
                </g>
            </g>
        </g>
    </g>
</svg>