<?xml version="1.0"?>
<!--Icons from directory ""-->
<svg xmlns="http://www.w3.org/2000/svg" width="32" height="1152" viewBox="0 0 32 1152"><svg viewBox="0 0 24 24" width="32" height="32" id="arrow-backward" y="0"><g fill="none" fill-rule="evenodd"><path d="M10.5 16l-4-4 4-4m7 9l-5-5 5-5" stroke-linecap="round" stroke-linejoin="round" stroke="#323232" stroke-width="1.5"/><path d="M24 0H0v24h24z"/></g></svg><svg viewBox="0 0 24 24" width="32" height="32" id="arrow-down" y="32"><g fill="none" fill-rule="evenodd"><path d="M0 24h24V0H0z"/><path stroke="#323232" stroke-width="1.5" stroke-linecap="round" stroke-linejoin="round" d="M21 7.5l-9.011 9L3 7.5"/></g></svg><svg viewBox="0 0 24 24" width="32" height="32" id="arrow-forward" y="64"><g fill="none"><path d="M13.5 16l4-4-4-4m-7 9l5-5-5-5" stroke="#323232" stroke-linecap="round" stroke-linejoin="round" stroke-width="1.5"/><path d="M0 0h24v24H0z"/></g></svg><svg viewBox="0 0 24 24" width="32" height="32" id="arrow-left" y="96"><g fill="none" fill-rule="evenodd"><path d="M24 0H0v24h24z"/><path stroke="#323232" stroke-width="1.5" stroke-linecap="round" stroke-linejoin="round" d="M16.495 3L7.5 12.027l9 8.973"/></g></svg><svg viewBox="0 0 24 24" width="32" height="32" id="arrow-right" y="128"><g fill="none"><path d="M0 0h24v24H0z"/><path stroke="#323232" stroke-linecap="round" stroke-linejoin="round" stroke-width="1.5" d="M7.505 3l8.995 9.027L7.5 21"/></g></svg><svg viewBox="0 0 24 24" width="32" height="32" id="arrow-up" y="160"><g fill="none"><path d="M0 0h24v24H0z"/><path stroke="#323232" stroke-linecap="round" stroke-linejoin="round" stroke-width="1.5" d="M21 16.5l-9.011-9L3 16.5"/></g></svg><svg viewBox="0 0 24 24" width="32" height="32" id="back-arrows" y="192"><g fill="none" fill-rule="evenodd"><path d="M0 24h24V0H0z"/><g stroke="#323232" stroke-linecap="round" stroke-linejoin="round" stroke-width="1.5"><path d="M10.667 9.333L8 12l2.667 2.667"/><path d="M12 3h0a8.963 8.963 0 00-9 8.926V12h0a8.963 8.963 0 008.926 9H12a8.963 8.963 0 009-8.926V12h0a8.963 8.963 0 00-8.926-9H12z"/><path d="M15.111 9.333L12.444 12l2.667 2.667"/></g></g></svg><svg fill="none" viewBox="0 0 24 24" width="32" height="32" id="book" y="224"><g stroke="#323232" stroke-linecap="round" stroke-linejoin="round" stroke-width="1.5"><path d="M14.75 4.9c-.913.315-1.814.722-2.75 1.247-2.594-1.454-4.912-2.032-7.983-2.131a.996.996 0 00-1.017 1v11.837c0 .541.433.99.974.998 3.092.047 5.42.617 8.026 2.149 2.606-1.532 4.934-2.102 8.026-2.148a.996.996 0 00.974-.999V5.016a.995.995 0 00-1.017-1c-.606.02-1.177.064-1.733.124"/><path clip-rule="evenodd" d="M17.061 3.016c-.551.098-1.085.223-1.61.376a.993.993 0 00-.701.958v4.196l1.75-1.167 1.75 1.167V4.003c0-.626-.572-1.097-1.189-.987z"/><path d="M12 6.15V20"/></g></svg><svg fill="none" viewBox="0 0 24 24" width="32" height="32" id="calendar" y="256"><g stroke="#323232" stroke-linecap="round" stroke-linejoin="round" stroke-width="1.5"><path d="M7.498 2.996v3.002m9.004-3.002v3.002M2.996 9.499h18.008"/><rect height="16.507" rx="3" width="18.008" x="2.996" y="4.497"/></g></svg><svg fill="none" viewBox="0 0 24 24" width="32" height="32" id="caret-down" y="288"><path d="M21 7.5l-9 9-9-9" stroke="#323232" stroke-linecap="round" stroke-linejoin="round" stroke-width="1.5"/></svg><svg fill="none" viewBox="0 0 24 24" width="32" height="32" id="caret-left" y="320"><path d="M16.5 3l-9 9.002L16.495 21" stroke="#323232" stroke-linecap="round" stroke-linejoin="round" stroke-width="1.5"/></svg><svg fill="none" viewBox="0 0 24 24" width="32" height="32" id="caret-right" y="352"><path d="M7.505 3l8.995 9.027L7.5 21" stroke="#323232" stroke-linecap="round" stroke-linejoin="round" stroke-width="1.5"/></svg><svg fill="none" viewBox="0 0 24 24" width="32" height="32" id="caret-up" y="384"><path d="M21 16.5l-9.011-9L3 16.5" stroke="#323232" stroke-linecap="round" stroke-linejoin="round" stroke-width="1.5"/></svg><svg fill="none" viewBox="0 0 24 24" width="32" height="32" id="catalog" y="416"><g stroke="#323232" stroke-linecap="round" stroke-linejoin="round" stroke-width="1.5"><path clip-rule="evenodd" d="M10 21H5a2 2 0 01-2-2V5a2 2 0 012-2h5a2 2 0 012 2v14a2 2 0 01-2 2z"/><path d="M8.56 15.44a1.5 1.5 0 11-2.12 2.12 1.5 1.5 0 012.12-2.12M7.5 6v6"/><path clip-rule="evenodd" d="M19 21h-5a2 2 0 01-2-2V5a2 2 0 012-2h5a2 2 0 012 2v14a2 2 0 01-2 2z"/><path d="M17.56 15.44a1.5 1.5 0 11-2.12 2.12 1.5 1.5 0 012.12-2.12M16.5 6v6"/></g></svg><svg viewBox="0 0 24 24" width="32" height="32" id="cloud-download" y="448"><g fill="none"><g stroke="#323232" stroke-linecap="round" stroke-linejoin="round" stroke-width="1.5"><path d="M8 17.5l2 2-2 2m2-2H4m10 .771h0A9 9 0 103.942 15.5"/><path d="M9.128 10.267h0a2.524 2.524 0 00.342 5.025h5.565a2.024 2.024 0 000-4.048h0a3.034 3.034 0 00-5.907-.977z"/></g><path d="M0 0h24v24H0z"/></g></svg><svg fill="none" viewBox="0 0 24 24" width="32" height="32" id="dashboard" y="480"><g stroke="#323232" stroke-linecap="round" stroke-linejoin="round" stroke-width="1.5"><path clip-rule="evenodd" d="M21 12a9 9 0 01-9 9 9 9 0 01-9-9 9 9 0 019-9 9 9 0 019 9z"/><path d="M18.364 18.364l-6.071-6.071a1 1 0 01-.293-.707V3m.07 8.96l7.72-4.46"/></g></svg><svg fill="none" viewBox="0 0 24 24" width="32" height="32" id="dots-vert" y="512"><path d="M11.997 17.502a.5.5 0 10.503.5c0-.276-.225-.5-.503-.5m0-6.002c-.275 0-.5.225-.497.5 0 .275.225.5.5.5s.5-.225.5-.5-.225-.5-.503-.5m0-6.003a.5.5 0 10.503.5c0-.276-.225-.5-.503-.5" stroke="#323232" stroke-linecap="round" stroke-linejoin="round" stroke-width="1.5"/></svg><svg viewBox="0 0 24 24" width="32" height="32" id="export" y="544"><g stroke-linecap="round" stroke-width="1.5" stroke="#323232" fill="none" stroke-linejoin="round"><path d="M12 13.33l-1.78-1.77m3.56 0L12 13.33M12 8v5.33m4 .892v0c0 .982-.796 1.778-1.778 1.778 0 0 0 0 0 0H9.778h0A1.778 1.778 0 018 14.222h0"/><circle cx="12" cy="12" r="9"/></g><rect height="24" fill="none"/></svg><svg fill="none" viewBox="0 0 24 24" width="32" height="32" id="filter" y="576"><g stroke="#323232" stroke-linecap="round" stroke-linejoin="round" stroke-width="1.5"><path d="M14.5 13.5l5.207-5.207A1 1 0 0020 7.586V5a1 1 0 00-1-1H5a1 1 0 00-1 1v2.586c0 .265.105.52.293.707L9.5 13.5M9.5 13.5v6.249c0 .813.764 1.41 1.553 1.213l2.5-.625a1.25 1.25 0 00.947-1.213V13.5"/></g></svg><svg viewBox="0 0 24 24" width="32" height="32" id="forward-arrows" y="608"><g fill="none"><path d="M24 24H0V0h24z"/><g stroke="#323232" stroke-linecap="round" stroke-linejoin="round" stroke-width="1.5"><path d="M13.333 9.333L16 12l-2.667 2.667"/><path d="M12 3h0a8.963 8.963 0 019 9h0a8.963 8.963 0 01-9 9h0a8.963 8.963 0 01-9-9h0a8.963 8.963 0 019-9z"/><path d="M8.889 9.333L11.556 12l-2.667 2.667"/></g></g></svg><svg fill="none" viewBox="0 0 24 24" width="32" height="32" id="heart" y="640"><path d="M15.7 4C18.87 4 21 6.98 21 9.76 21 15.39 12.16 20 12 20S3 15.39 3 9.76C3 6.98 5.13 4 8.3 4c1.82 0 3.01.91 3.7 1.71.69-.8 1.88-1.71 3.7-1.71z" clip-rule="evenodd" stroke="#323232" stroke-width="1.5" stroke-linecap="round" stroke-linejoin="round"/></svg><svg fill="none" viewBox="0 0 24 24" width="32" height="32" id="home" y="672"><path d="M9.5 20.5V16a2.5 2.5 0 115 0v4.5H20v-8.586a2 2 0 00-.586-1.414l-6.707-6.707a.999.999 0 00-1.414 0L4.586 10.5A2 2 0 004 11.914V20.5z" clip-rule="evenodd" stroke="#323232" stroke-width="1.5" stroke-linecap="round" stroke-linejoin="round"/></svg><svg fill="none" viewBox="0 0 24 24" width="32" height="32" id="info" y="704"><g stroke="#323232" stroke-linecap="round" stroke-linejoin="round" stroke-width="1.5"><path d="M11.999 8a.25.25 0 10.002.5A.25.25 0 0012 8"/><path clip-rule="evenodd" d="M12 21a9 9 0 01-9-9 9 9 0 019-9 9 9 0 019 9 9 9 0 01-9 9z"/><path d="M12 12v5"/></g></svg><svg fill="none" viewBox="0 0 24 24" width="32" height="32" id="line-chart" y="736"><g fill-rule="evenodd" clip-rule="evenodd" stroke="#323232" stroke-width="1.5" stroke-linecap="round" stroke-linejoin="round"><path d="M20 21a2 2 0 002-2V5a2 2 0 10-4 0v14a2 2 0 002 2zM12 21a2 2 0 002-2v-8.316a2 2 0 10-4 0V19a2 2 0 002 2zM4 21a2 2 0 002-2v-2.632a2 2 0 10-4 0V19a2 2 0 002 2z"/></g></svg><svg fill="none" viewBox="0 0 24 24" width="32" height="32" id="logout" y="768"><g stroke="#323232" stroke-linecap="round" stroke-linejoin="round" stroke-width="1.5"><path d="M21.009 12.005l-5.002-5.002M16.007 17.007l5.002-5.002M21.009 12.005H10.004M10.004 21.009H7.67A4.669 4.669 0 013 16.34V8.003A4.669 4.669 0 017.67 3.335h2.334"/></g></svg><svg fill="none" viewBox="0 0 24 24" width="32" height="32" id="menu" y="800"><g stroke="#323232" stroke-linecap="round" stroke-linejoin="round" stroke-width="1.5"><path d="M5.498 12h13.005M5.498 16.002h13.005M5.497 7.998h13.005"/></g></svg><svg fill="none" viewBox="0 0 24 24" width="32" height="32" id="play" y="832"><g fill-rule="evenodd" clip-rule="evenodd" stroke="#323232" stroke-width="1.5" stroke-linecap="round" stroke-linejoin="round"><path d="M10.941 9.058l3.882 2.296a.75.75 0 010 1.291l-3.882 2.296a.75.75 0 01-1.132-.646V9.704a.75.75 0 011.132-.646z"/><path d="M18 21H6a3 3 0 01-3-3V6a3 3 0 013-3h12a3 3 0 013 3v12a3 3 0 01-3 3z"/></g></svg><svg fill="none" viewBox="0 0 24 24" width="32" height="32" id="plus-circle" y="864"><g stroke="#323232" stroke-linecap="round" stroke-linejoin="round" stroke-width="1.5"><path d="M12 8v8M16 12H8"/><path clip-rule="evenodd" d="M12 21a9 9 0 01-9-9 9 9 0 019-9 9 9 0 019 9 9 9 0 01-9 9z"/></g></svg><svg fill="none" viewBox="0 0 24 24" width="32" height="32" id="question-circle" y="896"><g stroke="#323232" stroke-linecap="round" stroke-linejoin="round" stroke-width="1.5"><path d="M12 13.5V12a2 2 0 10-2-2"/><circle cx="12" cy="12" r="9.004"/><path d="M12 15.952a.05.05 0 100 .1.05.05 0 000-.1"/></g></svg><svg fill="none" viewBox="0 0 24 24" width="32" height="32" id="search" y="928"><g stroke="#323232" stroke-linecap="round" stroke-linejoin="round" stroke-width="1.5"><path d="M15.714 6.838a6.276 6.276 0 11-8.876 8.876 6.276 6.276 0 018.876-8.876M19 19l-3.29-3.29"/></g></svg><svg fill="none" viewBox="0 0 24 24" width="32" height="32" id="settings" y="960"><g clip-rule="evenodd" fill="#323232" fill-rule="evenodd"><path d="M7 3a4.002 4.002 0 013.874 3H19v2h-8.126A4.002 4.002 0 013 7a4 4 0 014-4zm0 6a2 2 0 100-4 2 2 0 000 4zM17 20a4.002 4.002 0 01-3.874-3H5v-2h8.126A4.002 4.002 0 0121 16a4 4 0 01-4 4zm0-2a2 2 0 100-4 2 2 0 000 4z"/></g></svg><svg fill="none" viewBox="0 0 24 24" width="32" height="32" id="sort-a-z" y="992"><g stroke="#323232" stroke-linecap="round" stroke-linejoin="round" stroke-width="1.5"><path d="M16.395 14.5h4.211l-4.211 5h4.211M21 9.5l-2.5-5-2.5 5M16.419 8.662h4.162M12 19.5H3M12 14.5H3M12 9.5H3M12 4.5H3"/></g></svg><svg fill="none" viewBox="0 0 24 24" width="32" height="32" id="sort" y="1024"><path d="M16.29 14.29L12 18.59l-4.29-4.3a1.004 1.004 0 10-1.42 1.42l5 5a1.002 1.002 0 001.42 0l5-5a1.004 1.004 0 00-1.42-1.42zM7.71 9.71L12 5.41l4.29 4.3a1 1 0 001.639-.325 1 1 0 00-.219-1.095l-5-5a1 1 0 00-1.42 0l-5 5a1.004 1.004 0 001.42 1.42z" fill="#5f6871"/></svg><svg fill="none" viewBox="0 0 24 24" width="32" height="32" id="square" y="1056"><path d="M17 2H7a5 5 0 00-5 5v10a5 5 0 005 5h10a5 5 0 005-5V7a5 5 0 00-5-5zm3 15a3 3 0 01-3 3H7a3 3 0 01-3-3V7a3 3 0 013-3h10a3 3 0 013 3z" fill="#5f6871"/></svg><svg viewBox="0 0 24 24" width="32" height="32" id="stop" y="1088"><g fill="none"><path d="M0 0h24v24H0z"/><path stroke="#323232" stroke-linecap="round" stroke-linejoin="round" stroke-width="1.5" d="M18.364 5.636L5.636 18.364 18.364 5.636zM12 3v0a9 9 0 00-9 9v0a9 9 0 009 9v0a9 9 0 009-9v0a9 9 0 00-9-9z"/></g></svg><svg fill="none" viewBox="0 0 24 24" width="32" height="32" id="times" y="1120"><g stroke="#323232" stroke-linecap="round" stroke-linejoin="round" stroke-width="1.5"><path d="M8 8l8 8M16 8l-8 8"/></g></svg></svg>
