<?xml version="1.0" encoding="UTF-8" standalone="no"?>
<!-- Created with Inkscape (http://www.inkscape.org/) -->

<svg
   version="1.1"
   id="svg2"
   width="270.76001"
   height="100.58667"
   viewBox="0 0 270.76001 100.58667"
   sodipodi:docname="kofc_r_hz_rgb_pos_NC.eps"
   xmlns:inkscape="http://www.inkscape.org/namespaces/inkscape"
   xmlns:sodipodi="http://sodipodi.sourceforge.net/DTD/sodipodi-0.dtd"
   xmlns="http://www.w3.org/2000/svg"
   xmlns:svg="http://www.w3.org/2000/svg">
  <defs
     id="defs6" />
  <sodipodi:namedview
     id="namedview4"
     pagecolor="#ffffff"
     bordercolor="#000000"
     borderopacity="0.25"
     inkscape:showpageshadow="2"
     inkscape:pageopacity="0.0"
     inkscape:pagecheckerboard="0"
     inkscape:deskcolor="#d1d1d1" />
  <g
     id="g8"
     inkscape:groupmode="layer"
     inkscape:label="ink_ext_XXXXXX"
     transform="matrix(1.3333333,0,0,-1.3333333,0,100.58667)">
    <g
       id="g10"
       transform="scale(0.1)">
      <path
         d="m 1041.6,383.367 -17.2,18.696 v 76.769 c 8.23,2.242 15.46,3.488 21.94,3.488 15.95,0 25.92,-7.476 25.92,-27.418 v -52.839 l -16.95,-18.696 h 69.29 l -18.69,18.696 v 69.042 c 0,24.176 -11.96,35.391 -30.41,35.391 -18.2,0 -37.14,-9.469 -51.1,-20.937 v 22.683 l -50.841,-21.433 17.445,-9.973 v -74.773 l -10.082,-10.083 -14.547,12.079 -63.559,82.25 28.411,28.664 52.839,43.371 h -70.785 v -38.887 l -45.113,-44.613 v 63.058 l 18.695,20.442 h -75.277 l 18.945,-20.442 V 403.809 l -18.945,-20.442 h 75.277 l -18.695,20.442 v 68.793 l 51.594,-67.301 -19.192,-21.934 z m 92.64,0 h 70.79 l -18.69,18.696 v 106.179 l -51.84,-20.687 18.44,-12.211 v -73.281 z m 32.66,133.348 c 12.46,0 22.68,9.973 22.68,22.683 0,12.711 -10.22,22.68 -22.68,22.68 -12.47,0 -22.68,-9.969 -22.68,-22.68 0,-12.71 10.21,-22.683 22.68,-22.683 z m 137.81,-158.274 c 0,10.719 -7.73,18.7 -21.94,21.188 l -24.92,4.238 c -11.97,-6.726 -17.7,-15.949 -17.7,-24.676 0,-12.461 10.47,-21.929 31.9,-21.929 22.44,0 32.66,10.711 32.66,21.179 z m -54.09,102.942 c 0,-22.18 7.23,-33.895 18.69,-33.895 11.22,0 18.69,12.461 18.69,33.895 0,21.933 -6.72,34.644 -18.69,34.644 -11.22,0 -18.69,-12.211 -18.69,-34.644 z m 82.25,-93.219 c -0.75,-22.184 -22.44,-42.871 -65.3,-42.871 -32.91,0 -58.33,9.473 -58.33,30.656 0,11.719 11.72,25.176 38.14,29.91 l -33.65,5.735 31.41,31.906 c -19.2,5.98 -30.67,19.688 -30.67,37.387 0,22.429 18.2,42.621 54.84,42.621 h 71.79 l -28.67,-20.438 c 6.98,-6.48 10.22,-12.465 10.22,-22.183 0,-25.676 -24.18,-40.879 -53.34,-40.879 -6.73,0 -12.96,0.75 -18.69,1.996 v -11.969 l 43.12,-7.472 c 25.17,-4.239 39.63,-16.95 39.13,-34.399 z m 9.37,15.203 h 69.54 l -17.45,18.696 v 74.527 c 7.98,3.238 15.21,4.984 23.68,4.984 15.7,0 21.93,-6.23 21.93,-27.422 v -52.089 l -18.44,-18.696 h 68.29 l -16.2,18.696 v 68.292 c 0,24.676 -10.72,36.141 -29.91,36.141 -18.44,0 -34.39,-7.976 -49.35,-21.183 v 76.019 l -50.6,-21.684 17.2,-10.718 V 402.063 Z m 170.8,32.153 c 0,-25.422 12.47,-35.141 29.91,-35.141 17.2,0 34.4,8.473 40.13,22.68 -7.47,-4.985 -15.2,-6.731 -21.69,-6.731 -8.72,0 -14.45,5.485 -14.45,15.207 v 77.266 h 36.39 v 14.707 h -36.39 v 37.387 l -59.07,-52.094 h 25.17 z m 135.21,-22.926 c -17.94,0 -33.39,20.183 -44.36,38.629 l -10.22,-37.883 c 15.7,-8.723 33.15,-14.703 49.85,-14.703 26.67,0 44.62,15.449 44.62,38.133 0,18.445 -11.22,28.66 -40.88,43.367 -17.2,8.472 -24.93,13.211 -24.93,21.433 0,7.481 5.74,12.715 15.21,12.715 11.46,0 21.68,-7.726 38.38,-34.894 l 6.73,36.136 c -8.47,4.989 -25.17,10.969 -42.37,10.969 -26.17,0 -44.37,-13.957 -44.37,-36.887 0,-17.699 10.47,-29.41 37.89,-42.375 22.93,-10.714 27.92,-16.949 27.92,-23.675 0,-7.481 -5.99,-10.965 -13.47,-10.965 z m 189.68,60.562 c 0,23.68 -5.23,40.875 -24.18,40.875 -18.69,0 -23.92,-17.195 -23.92,-40.875 v -19.437 c 0,-23.93 5.23,-40.875 23.92,-40.875 18.95,0 24.18,16.945 24.18,40.625 z m 38.38,-9.968 c 0,-36.387 -27.41,-62.809 -62.56,-62.809 -34.9,0 -62.31,26.422 -62.31,62.809 0,36.64 27.41,63.308 62.31,63.308 35.15,0 62.56,-26.668 62.56,-63.308 z m 26.23,-41.125 -18.2,-18.696 h 70.54 l -18.45,18.696 v 86.738 h 29.16 v 14.707 h -29.16 l -14.96,28.664 c -3.98,7.476 -1.24,12.961 4.24,12.961 9.97,0 8.73,-26.422 27.17,-26.422 8.73,0 14.21,6.48 14.21,15.203 0,16.699 -14.7,27.418 -32.65,27.418 -24.93,0 -38.88,-16.699 -34.9,-40.129 l 3,-17.695 h -18.7 v -14.707 h 18.7 z M 891.07,313.211 c 8.586,0 15.61,-1.039 22.633,-3.898 l 23.942,-52.821 25.496,49.438 c -18.211,13.789 -36.684,23.933 -68.43,23.933 -58.801,0 -91.324,-47.613 -91.324,-97.828 0,-52.558 34.605,-91.062 85.859,-91.062 45.793,0 73.895,29.66 73.895,71.027 -5.989,-9.625 -21.075,-36.684 -60.887,-36.684 -39.547,0 -64.262,30.442 -64.262,75.196 0,40.324 20.555,62.699 53.078,62.699 z m 176.5,-96.266 c 0,24.715 -5.47,42.668 -25.24,42.668 -19.52,0 -24.98,-17.953 -24.98,-42.668 v -20.297 c 0,-24.976 5.46,-42.668 24.98,-42.668 19.77,0 25.24,17.692 25.24,42.411 z m 40.07,-10.406 c 0,-37.988 -28.62,-65.566 -65.31,-65.566 -36.43,0 -65.045,27.578 -65.045,65.566 0,38.246 28.615,66.086 65.045,66.086 36.69,0 65.31,-27.84 65.31,-66.086 z m 58.01,123.324 -53.08,-22.636 18.74,-10.668 V 163.605 l -19,-19.511 h 72.33 l -18.99,19.511 z m 148.98,-55.418 -50.74,-22.375 16.13,-9.109 v -67.387 c -8.84,-7.023 -17.69,-9.886 -26.8,-9.886 -12.74,0 -18.73,5.464 -18.73,18.734 v 90.023 l -50.74,-22.375 16.14,-9.109 v -63.223 c 0,-26.015 14.82,-38.769 37.72,-38.769 16.91,0 29.92,7.027 42.41,23.418 v -25.758 l 52.82,23.937 -18.21,11.969 z M 1543.5,239.32 c 0,22.375 -11.19,33.301 -29.14,33.301 -17.95,0 -34.34,-7.023 -49.43,-20.035 -3.91,14.055 -14.31,20.035 -27.32,20.035 -16.66,0 -34.61,-8.844 -48.13,-20.289 v 22.113 l -52.04,-22.379 17.69,-9.886 v -78.575 l -18.99,-19.511 h 71.02 l -17.68,19.511 v 80.661 c 6.24,1.816 13.26,2.859 20.55,2.859 15.61,0 21.85,-7.027 21.85,-22.637 v -60.883 l -17.17,-19.511 h 69.47 l -17.69,19.511 v 75.196 c 0,2.082 0,3.902 -0.26,5.722 5.72,1.559 12.23,2.602 20.55,2.602 15.87,0 22.12,-7.027 22.12,-22.637 v -60.883 l -17.17,-19.511 h 70.77 l -19,19.511 z m 119.34,-35.644 c 0,31.48 -13.53,45.531 -34.35,45.531 -6.24,0 -10.41,-1.043 -15.09,-2.602 v -70.769 c 0,-16.391 9.11,-22.637 18.99,-22.637 19.26,0 30.45,19.254 30.45,50.477 z m 37.72,13.008 c 0,-45.274 -27.84,-75.711 -64,-75.711 -15.35,0 -26.02,3.902 -37.99,13.789 L 1578.8,139.148 V 299.16 l -15.09,8.07 49.69,22.633 v -75.195 c 12.49,11.449 26.02,16.914 40.85,16.914 26.8,0 46.31,-21.336 46.31,-54.898 z m 139.16,57.761 -50.73,-22.375 16.13,-9.109 v -67.387 c -8.84,-7.023 -17.69,-9.886 -26.8,-9.886 -12.74,0 -18.73,5.464 -18.73,18.734 v 90.023 l -50.74,-22.375 16.14,-9.109 v -63.223 c 0,-26.015 14.83,-38.769 37.72,-38.769 16.91,0 29.92,7.027 42.41,23.418 v -25.758 l 52.82,23.937 -18.22,11.969 z m 128.52,-95.488 c 0,-23.676 -18.73,-39.805 -46.56,-39.805 -17.44,0 -35.65,6.243 -52.05,15.348 l 10.67,39.547 c 11.45,-19.25 27.58,-40.324 46.32,-40.324 7.8,0 14.05,3.636 14.05,11.445 0,7.027 -5.21,13.531 -29.15,24.719 -28.61,13.527 -39.54,25.758 -39.54,44.23 0,23.938 18.99,38.508 46.31,38.508 17.95,0 35.39,-6.242 44.23,-11.449 l -7.02,-37.731 c -17.43,28.364 -28.1,36.434 -40.07,36.434 -9.89,0 -15.87,-5.469 -15.87,-13.274 0,-8.585 8.06,-13.527 26.01,-22.375 30.97,-15.351 42.67,-26.019 42.67,-45.273 z m 42.71,105.641 c 0,3.25 -2.54,5.793 -7.35,5.793 h -1.4 v -10.875 c 0.7,-0.137 1.69,-0.282 2.54,-0.282 4.37,0 6.21,2.114 6.21,5.364 z m -8.05,-7.625 h -0.7 v -9.602 l 3.24,-2.969 h -13.7 l 3.25,2.825 v 23.449 l -3.25,2.824 h 12.29 c 10.45,0 14.12,-3.531 14.12,-8.051 0,-3.531 -2.82,-6.5 -7.62,-7.769 1.27,-3.532 3.1,-7.203 8.61,-13.84 -6.78,0 -11.86,5.508 -16.24,13.133 z m 23.87,1.695 c 0,12.711 -9.18,21.187 -21.04,21.187 -11.87,0 -21.05,-8.476 -21.05,-21.187 0,-12.715 9.18,-21.188 21.05,-21.188 11.86,0 21.04,8.051 21.04,21.188 z m -46.05,0 c 0,14.832 11.02,24.578 25.01,24.578 13.98,0 24.99,-9.746 24.99,-24.578 0,-14.828 -11.01,-24.574 -24.99,-24.574 -13.99,0 -25.01,9.746 -25.01,24.574"
         style="fill:#232e61;fill-opacity:1;fill-rule:nonzero;stroke:none"
         id="path12" />
      <path
         d="M 536.027,382.965 H 720 l -131.906,131.906 45.058,46.234 H 541.859 L 382.965,720 V 616.73 L 360,642.109 337.031,616.727 V 720 L 178.141,561.105 H 86.8477 L 131.906,514.871 0,382.965 H 183.973 V 337.031 L 0,337.031 337.031,0 V 101.313 L 360,78.1602 382.965,101.309 V 0 L 720,337.031 H 536.027 v 45.934"
         style="fill:#232e61;fill-opacity:1;fill-rule:nonzero;stroke:none"
         id="path14" />
      <path
         d="m 536.027,426.711 v 34.73 l 21.536,22.102 56.828,-56.832 z m -56.031,134.394 h -46.699 l -6.586,7.282 v 46.008 z M 183.973,293.289 v -37.687 l 109.316,-110.2 v -39.797 l -187.68,187.684 h 78.364"
         style="fill:#ee2a36;fill-opacity:1;fill-rule:nonzero;stroke:none"
         id="path16" />
      <path
         d="m 426.711,145.406 109.312,110.196 0.004,37.687 h 78.368 L 426.711,105.602 Z m -133.422,422.977 -6.586,-7.278 h -46.699 l 53.285,53.29 z M 183.973,426.711 h -78.364 l 56.829,56.832 21.535,-22.102 v -34.73"
         style="fill:#ffffff;fill-opacity:1;fill-rule:nonzero;stroke:none"
         id="path18" />
      <path
         d="M 513.293,436.918 H 206.707 L 206.703,264.965 359.996,110.438 513.293,264.965 Z m 22.734,-17.922 h 96.985 l -70.067,70.07 19.766,20.282 L 701.379,390.68 H 536.027 Z m -45.121,142.109 -71.91,71.911 V 576.91 l -28.316,31.297 v 93.172 L 530.953,561.105 Z m -161.59,47.094 -28.312,-31.293 v 56.11 l -71.91,-71.911 H 189.047 L 329.316,701.379 Z M 157.055,489.066 86.9883,418.996 H 183.973 V 390.68 H 18.6211 L 137.289,509.348 Z M 18.6211,329.316 H 183.973 V 301 H 86.9883 L 301.004,86.9805 v 50.6485 l 28.312,-28.543 V 18.6211 Z M 390.68,18.6211 v 90.4649 l 28.316,28.547 V 86.9805 L 633.016,301 h -96.989 v 28.316 h 165.352 z m -198.996,240.1559 0.004,205.801 -86.555,88.817 H 290.129 L 360,630.613 429.875,553.395 H 614.867 L 528.316,464.578 528.313,258.777 360,89.1094 191.684,258.777"
         style="fill:#f4b10c;fill-opacity:1;fill-rule:nonzero;stroke:none"
         id="path20" />
      <path
         d="m 340.461,192.809 h 8.426 c 0.484,0 0.875,0.39 0.875,0.875 V 313.16 c 0,0.485 -0.391,0.879 -0.875,0.879 h -8.426 c -0.484,0 -0.875,-0.394 -0.875,-0.879 V 193.684 c 0,-0.485 0.391,-0.875 0.875,-0.875 z m 23.797,121.23 h -8.516 c -0.48,0 -0.875,-0.394 -0.875,-0.879 V 193.684 c 0,-0.481 0.395,-0.875 0.875,-0.875 h 8.516 c 0.484,0 0.879,0.39 0.879,0.875 V 313.16 c 0,0.485 -0.395,0.879 -0.879,0.879 z m -23.797,21.301 h 8.422 c 0.484,0 0.879,0.394 0.879,0.879 v 6.179 c 0,0.481 -0.395,0.875 -0.879,0.875 h -8.422 c -0.484,0 -0.879,-0.39 -0.879,-0.875 v -6.179 c 0,-0.485 0.395,-0.879 0.879,-0.879 z m 14.406,13.496 h 10.266 v 17.414 c 10.801,-0.953 22.668,-3.645 35.082,-6.312 -5.309,9.597 -23.195,20.128 -35.082,24.113 v 17.441 c 0.027,2.262 0.273,2.922 0.66,3.36 l 4.203,4.207 -10.117,12.086 -10.109,-12.086 4.023,-4.032 c 0.195,-0.207 0.922,-0.961 1.074,-2.543 v -16.257 c -18.777,3.949 -32.058,19.593 -32.058,19.593 -1.504,-1.007 -9.063,-11.343 -9.063,-28.734 0,-20.203 8.617,-26.27 10.602,-26.277 0.113,0 0.195,0.023 0.238,0.066 7.437,11.109 17.894,15.172 30.281,15.664 z m 29.871,-29.047 c 0.485,0 0.875,0.391 0.875,0.875 v 8.43 c 0,0.484 -0.39,0.875 -0.875,0.875 h -49.472 c -0.485,0 -0.875,-0.391 -0.875,-0.875 v -8.43 c 0,-0.484 0.39,-0.875 0.875,-0.875 z m -20.48,23.484 h -8.516 c -0.484,0 -0.875,-0.39 -0.875,-0.875 v -6.179 c 0,-0.485 0.391,-0.879 0.875,-0.879 h 8.516 c 0.484,0 0.879,0.394 0.879,0.879 v 6.179 c 0,0.485 -0.395,0.875 -0.879,0.875 z M 335.266,187.277 c -0.485,0 -0.875,-0.394 -0.875,-0.879 v -8.425 c 0,-0.485 0.39,-0.879 0.875,-0.879 h 49.472 c 0.485,0 0.875,0.394 0.875,0.879 v 8.425 c 0,0.485 -0.39,0.879 -0.875,0.879 z m 21.578,-41.089 h 6.32 l 1.969,25.699 h -10.266 z m 23.57,166.972 c 0,0.485 -0.391,0.879 -0.875,0.879 h -8.422 c -0.484,0 -0.875,-0.394 -0.875,-0.879 V 193.684 c 0,-0.485 0.391,-0.875 0.875,-0.875 h 8.422 c 0.484,0 0.875,0.39 0.875,0.875 z m -9.297,22.18 h 8.426 c 0.48,0 0.875,0.394 0.875,0.879 v 6.179 c 0,0.481 -0.395,0.875 -0.875,0.875 h -8.426 c -0.48,0 -0.875,-0.39 -0.875,-0.875 v -6.179 c 0,-0.485 0.395,-0.879 0.875,-0.879 z m -62.863,18.832 c -2.391,1.949 -6.371,0.988 -9.113,-1.738 -3.731,0.742 -5.207,-0.414 -5.407,-0.661 -0.925,-1.128 -0.324,-4.062 0.774,-6.234 l -3.965,-6 c -0.055,-0.043 -2.867,-2.285 -6.574,-1.309 0,0 -5.344,3.747 -7.192,5.27 -1.711,1.402 -2.531,2.563 -3.922,3.707 l -10.656,8.84 0.328,0.402 c 0.43,0.528 0.844,1.856 -0.281,2.778 l -7.258,5.929 c -1.789,1.461 -4.703,1.297 -6.285,-0.633 l -4.676,-5.691 c -1.57,-1.898 -1.304,-4.719 0.594,-6.289 l 7.223,-5.973 c 0.969,-0.8 2.285,-0.332 2.777,0.262 l 0.332,0.398 10.735,-8.742 c 1.39,-1.144 2.687,-1.726 4.398,-3.133 1.848,-1.519 6.559,-6.035 6.559,-6.035 1.015,-2.097 1.027,-4.57 -0.012,-6.703 l -5.121,-5.051 c -1.664,0.465 -5.203,0.84 -6.266,-0.449 -0.691,-0.828 -0.586,-3.047 0.399,-5.429 -2.239,-3.36 -2.293,-7.333 0.054,-9.278 2.422,-2 6.395,-0.969 9.071,1.633 1.957,-0.434 4.73,-0.418 5.57,0.594 0.812,0.988 0.539,3.73 -0.805,6.347 l 3.328,5.141 c 5.625,-2.539 7.266,-0.629 9.899,-2.789 l 1.293,-1.074 7.394,4.133 2.621,8.054 -1.3,1.059 c -2.629,2.164 -1.075,4.144 -4.653,9.172 l 4.399,4.258 c 2.437,-0.696 5.5,-0.637 6.386,0.441 0.696,0.851 0.567,3.148 -0.496,5.582 2.18,3.352 2.192,7.297 -0.152,9.211 z m 26.133,-57.188 -26.707,22.692 -1.563,-4.801 -0.594,-1.828 -1.679,-0.938 -4.336,-2.421 34.879,-27.739 z m 51.226,-54.394 45.496,-36.117 c 2.332,-1.996 6.481,-3.348 7.813,-1.801 1.332,1.543 -0.621,5.445 -2.938,7.457 l -50.371,46.906 z m 76.836,99.703 c 3.278,2.863 3.61,7.855 0.746,11.129 -2.75,3.144 -7.718,3.73 -11.132,0.746 -3.274,-2.863 -3.606,-7.859 -0.743,-11.133 2.746,-3.137 7.715,-3.734 11.129,-0.742 z m -76.836,-49.73 39.828,34.839 -4.609,5.274 c -1.699,1.941 -4.566,5.937 -2.711,8.969 -2.074,-1 -4.641,-0.567 -6.23,1.253 -1.914,2.188 -1.692,5.512 0.496,7.422 2.183,1.914 5.508,1.692 7.418,-0.496 1.593,-1.82 1.683,-4.418 0.414,-6.344 3.254,1.438 6.828,-1.937 8.531,-3.882 l 4.617,-5.278 8.594,7.516 c -2.684,6.426 -1.195,14.094 4.336,18.93 8.469,7.41 19.129,3.422 23.496,-1.575 6.055,-6.921 5.352,-17.441 -1.57,-23.496 -7.637,-6.679 -16.77,-3.492 -19.34,-1.773 l -8.594,-7.52 4.617,-5.277 c 1.699,-1.945 4.571,-5.937 2.711,-8.973 2.078,1.004 4.641,0.567 6.235,-1.254 1.91,-2.183 1.687,-5.507 -0.497,-7.418 -2.187,-1.914 -5.511,-1.691 -7.421,0.497 -1.594,1.82 -1.684,4.418 -0.414,6.343 -3.254,-1.437 -6.829,1.938 -8.532,3.879 l -4.609,5.274 -46.766,-40.895 z M 334.387,191.012 c -9.934,-4.465 -20.559,0.57 -30.074,10.676 -3.418,3.636 -6.907,7.019 -10.149,7.234 -3.137,0.211 -11.836,-1.535 -11.836,-1.535 0,0 3.106,8.312 3.399,11.441 0.3,3.238 -2.485,7.219 -5.528,11.168 -9.418,12.238 -9.828,24.422 -1.371,34.055 l -6.883,3.172 c -0.41,0.187 -0.359,0.789 0.075,0.906 0,0 12.277,9.449 24.593,10.226 -2.004,-8.191 -4.715,-24.843 -4.715,-24.843 0.028,-0.453 -0.531,-0.696 -0.835,-0.352 l -4.383,4.91 c -5.782,-6.179 -5.344,-13.425 1.312,-22.074 1.903,-2.473 7.336,-10.863 15.465,-3.707 l 30.93,26.352 v -13.817 l -24.114,-20.539 c -8.355,-6.887 -0.937,-13.586 1.2,-15.855 7.953,-8.45 15.457,-11.852 22.914,-5.981 v -11.437"
         style="fill:#ffffff;fill-opacity:1;fill-rule:nonzero;stroke:none"
         id="path22" />
      <path
         d="m 385.082,476.715 v 14.98 h 6.641 l 8.957,-7.945 v 22.785 l -8.953,-7.855 h -6.645 v 16.703 h 11.563 l 13.121,-14.86 v 21.344 h -44.844 l 7.09,-7.547 v -37.55 l -7.09,-7.547 h 26.094 z m -51.019,40.098 c 7.222,0 11.531,-6.45 11.531,-17.258 v -8.016 c 0,-10.809 -4.309,-17.262 -11.531,-17.262 -7.18,0 -11.465,6.453 -11.465,17.262 v 8.016 c 0,10.808 4.285,17.258 11.465,17.258 m 0,-48.446 c 17.746,0 27.035,13.676 27.035,27.18 0,13.09 -8.461,27.18 -27.035,27.18 -13.024,0 -27.04,-8.508 -27.04,-27.18 0,-13.504 9.29,-27.18 27.04,-27.18 m 141.484,-21.129 c 22.07,0 36.902,14.262 36.902,35.489 v 2.109 l -1.465,-2.363 c -3.168,-5.133 -10.566,-17.16 -29.043,-17.16 -18.816,0 -30.968,14.261 -30.968,36.332 0,18.914 9.519,30.203 25.468,30.203 4.313,0 7.528,-0.539 10.672,-1.785 l 12.172,-26.856 13.328,25.836 -0.406,0.309 c -9.687,7.332 -18.75,11.875 -33.977,11.875 -29.847,0 -45.464,-24.477 -45.464,-48.657 0,-26.691 17.593,-45.332 42.781,-45.332 m -223.981,2.887 9.676,11.059 -26.012,33.929 V 460.43 l 9.422,-10.305 h -37.949 l 9.555,10.305 v 67.601 l -9.555,10.309 h 37.949 l -9.422,-10.309 v -31.789 l 22.743,22.492 v 19.606 h 35.691 l -26.644,-21.867 -14.325,-14.45 32.047,-41.468 12.567,-10.43 h -45.743"
         style="fill:#232e61;fill-opacity:1;fill-rule:nonzero;stroke:none"
         id="path24" />
      <g
         id="g26"
         transform="scale(10)">
        <text
           xml:space="preserve"
           transform="matrix(1,0,0,-1,81.1586,61.4395)"
           style="font-variant:normal;font-weight:bold;font-size:16px;font-family:AriataText;-inkscape-font-specification:AriataText-Bold;writing-mode:lr-tb;fill:#232e61;fill-opacity:1;fill-rule:nonzero;stroke:none"
           id="text30"><tspan
             x="0 12.32 22.336 29.872131 36.784245 47.264244 51.264244 62.736244 72.144241 79.312714 89.168175 94.224174 99.648178 110.36818"
             y="0"
             sodipodi:role="line"
             id="tspan28">North Carolina</tspan></text>
      </g>
    </g>
  </g>
</svg>
