<svg xmlns="http://www.w3.org/2000/svg" xmlns:xlink="http://www.w3.org/1999/xlink" width="500" zoomAndPan="magnify" viewBox="0 0 375 374.999991" height="500" preserveAspectRatio="xMidYMid meet" version="1.0"><defs><g><g id="id1"/><g id="id2"/><g id="id3"/><g id="id4"/><g id="id5"/><g id="id6"/><g id="id7"/><g id="id8"/><g id="id9"/><g id="id10"/><g id="id11"/><g id="id12"/><g id="id13"/><g id="id14"/><g id="id15"/><g id="id16"/><g id="id17"/><g id="id18"/><g id="id19"/><g id="id20"/><g id="id21"/><g id="id22"/><g id="id23"/><g id="id24"/></g><clipPath id="id25"><path d="M 84.8125 90.519531 L 292.15625 90.519531 L 292.15625 297.863281 L 84.8125 297.863281 Z M 84.8125 90.519531 " clip-rule="nonzero"/></clipPath></defs><path fill="rgb(100%, 100%, 100%)" d="M 188.226562 11.984375 C 90.890625 11.984375 11.984375 90.890625 11.984375 188.226562 C 11.984375 285.5625 90.890625 364.46875 188.226562 364.46875 C 285.5625 364.46875 364.46875 285.5625 364.46875 188.226562 C 364.46875 90.890625 285.5625 11.984375 188.226562 11.984375 " fill-opacity="1" fill-rule="nonzero"/><path fill="rgb(0%, 3.138733%, 7.839966%)" d="M 188.089844 349.835938 C 144.90625 349.835938 104.242188 333.027344 73.730469 302.449219 C 43.152344 271.9375 26.34375 231.273438 26.34375 188.089844 C 26.34375 144.90625 43.152344 104.242188 73.730469 73.730469 C 104.242188 43.152344 144.90625 26.34375 188.089844 26.34375 C 231.273438 26.34375 271.9375 43.152344 302.449219 73.730469 C 333.027344 104.308594 349.835938 144.90625 349.835938 188.089844 C 349.835938 231.273438 333.027344 271.9375 302.449219 302.449219 C 271.9375 333.027344 231.273438 349.835938 188.089844 349.835938 Z M 188.089844 36.042969 C 147.492188 36.042969 109.285156 51.878906 80.582031 80.582031 C 51.878906 109.285156 36.042969 147.492188 36.042969 188.089844 C 36.042969 228.6875 51.878906 266.894531 80.582031 295.597656 C 109.285156 324.300781 147.492188 340.136719 188.089844 340.136719 C 228.6875 340.136719 266.894531 324.300781 295.597656 295.597656 C 324.300781 266.894531 340.136719 228.6875 340.136719 188.089844 C 340.136719 147.492188 324.300781 109.285156 295.597656 80.582031 C 266.894531 51.878906 228.6875 36.042969 188.089844 36.042969 Z M 188.089844 36.042969 " fill-opacity="1" fill-rule="nonzero"/><path fill="rgb(0%, 3.138733%, 7.839966%)" d="M 67.597656 182.511719 C 64.542969 182.511719 62.070312 184.984375 62.070312 188.039062 C 62.070312 191.09375 64.542969 193.570312 67.597656 193.570312 C 70.652344 193.570312 73.128906 191.09375 73.128906 188.039062 C 73.128906 184.984375 70.652344 182.511719 67.597656 182.511719 " fill-opacity="1" fill-rule="nonzero"/><path fill="rgb(0%, 3.138733%, 7.839966%)" d="M 308.480469 182.511719 C 305.425781 182.511719 302.953125 184.984375 302.953125 188.039062 C 302.953125 191.09375 305.425781 193.570312 308.480469 193.570312 C 311.535156 193.570312 314.011719 191.09375 314.011719 188.039062 C 314.011719 184.984375 311.535156 182.511719 308.480469 182.511719 " fill-opacity="1" fill-rule="nonzero"/><g clip-path="url(#id25)"><path fill="rgb(100%, 100%, 100%)" d="M 84.8125 90.519531 L 292.15625 90.519531 L 292.15625 297.863281 L 84.8125 297.863281 Z M 84.8125 90.519531 " fill-opacity="1" fill-rule="evenodd"/></g><path fill="rgb(20.388794%, 20.388794%, 20.388794%)" d="M 144.816406 132.746094 L 178.398438 132.746094 C 186.71875 132.746094 194.121094 138.070312 196.761719 145.96875 L 202.664062 163.683594 L 199.011719 163.683594 C 187.347656 163.683594 176.992188 171.128906 173.292969 182.199219 L 167.800781 198.707031 C 166.273438 199.769531 164.871094 200.976562 163.660156 202.355469 L 130.636719 202.355469 L 130.636719 210.089844 C 130.636719 214.371094 127.167969 217.824219 122.894531 217.824219 L 119.023438 217.824219 C 114.746094 217.824219 111.28125 214.371094 111.28125 210.089844 L 111.28125 179.152344 C 111.28125 173.015625 114.851562 167.722656 120.027344 165.230469 L 126.449219 145.96875 C 129.085938 138.070312 136.492188 132.746094 144.816406 132.746094 Z M 144.816406 148.214844 C 144.40625 148.214844 144.011719 148.277344 143.625 148.402344 C 143.238281 148.527344 142.878906 148.707031 142.550781 148.945312 C 142.21875 149.183594 141.933594 149.464844 141.691406 149.789062 C 141.453125 150.117188 141.265625 150.472656 141.136719 150.859375 L 136.855469 163.683594 L 186.355469 163.683594 L 182.074219 150.859375 C 181.945312 150.472656 181.757812 150.117188 181.519531 149.789062 C 181.277344 149.464844 180.992188 149.179688 180.660156 148.945312 C 180.332031 148.707031 179.972656 148.527344 179.585938 148.402344 C 179.199219 148.277344 178.804688 148.214844 178.398438 148.214844 Z M 130.636719 188.820312 C 133.84375 188.820312 136.441406 186.234375 136.441406 183.019531 C 136.441406 179.804688 133.84375 177.21875 130.636719 177.21875 C 127.429688 177.21875 124.832031 179.804688 124.832031 183.019531 C 124.832031 186.234375 127.429688 188.820312 130.636719 188.820312 Z M 130.636719 188.820312 " fill-opacity="1" fill-rule="nonzero"/><path fill="rgb(100%, 59.21936%, 18.03894%)" d="M 174.175781 203.675781 L 180.582031 184.410156 C 183.207031 176.507812 190.578125 171.191406 198.867188 171.191406 L 232.300781 171.191406 C 240.585938 171.191406 247.957031 176.507812 250.582031 184.410156 L 256.988281 203.675781 C 258.296875 204.308594 259.488281 205.113281 260.566406 206.082031 C 261.644531 207.054688 262.570312 208.15625 263.335938 209.386719 C 264.105469 210.617188 264.691406 211.929688 265.089844 213.328125 C 265.488281 214.722656 265.6875 216.144531 265.6875 217.597656 L 265.6875 248.535156 C 265.6875 252.8125 262.242188 256.269531 257.976562 256.269531 L 254.125 256.269531 C 249.859375 256.269531 246.417969 252.8125 246.417969 248.535156 L 246.417969 240.800781 L 184.75 240.800781 L 184.75 248.535156 C 184.75 252.8125 181.304688 256.269531 177.042969 256.269531 L 173.1875 256.269531 C 168.925781 256.269531 165.480469 252.8125 165.480469 248.535156 L 165.480469 217.597656 C 165.480469 211.457031 169.046875 206.164062 174.175781 203.675781 Z M 190.941406 202.128906 L 240.226562 202.128906 L 235.960938 189.292969 C 235.832031 188.910156 235.648438 188.554688 235.40625 188.230469 C 235.167969 187.902344 234.882812 187.621094 234.554688 187.386719 C 234.226562 187.148438 233.871094 186.96875 233.484375 186.847656 C 233.097656 186.722656 232.703125 186.660156 232.300781 186.660156 L 198.867188 186.660156 C 198.460938 186.660156 198.066406 186.722656 197.683594 186.847656 C 197.296875 186.96875 196.941406 187.148438 196.613281 187.386719 C 196.28125 187.621094 196 187.902344 195.757812 188.230469 C 195.519531 188.554688 195.332031 188.910156 195.203125 189.292969 Z M 184.75 215.664062 C 181.546875 215.664062 178.96875 218.25 178.96875 221.464844 C 178.96875 224.679688 181.546875 227.265625 184.75 227.265625 C 187.953125 227.265625 190.53125 224.679688 190.53125 221.464844 C 190.53125 218.25 187.953125 215.664062 184.75 215.664062 Z M 246.414062 227.265625 C 249.617188 227.265625 252.195312 224.679688 252.195312 221.464844 C 252.195312 218.25 249.617188 215.664062 246.414062 215.664062 C 243.210938 215.664062 240.632812 218.25 240.632812 221.464844 C 240.632812 224.679688 243.210938 227.265625 246.414062 227.265625 Z M 246.414062 227.265625 " fill-opacity="1" fill-rule="nonzero"/><g fill="rgb(0%, 3.138733%, 7.839966%)" fill-opacity="1"><g transform="translate(122.850244, 301.807406)"><g><path d="M 1.3125 0.65625 L 8.5625 -13.984375 L 19.828125 -8.421875 L 18.53125 -5.796875 L 10.3125 -9.859375 L 8.65625 -6.515625 L 14.078125 -3.828125 L 12.8125 -1.28125 L 7.390625 -3.96875 L 5.65625 -0.46875 L 13.953125 3.640625 L 12.65625 6.265625 Z M 1.3125 0.65625 "/></g></g></g><g fill="rgb(0%, 3.138733%, 7.839966%)" fill-opacity="1"><g transform="translate(139.561049, 309.804604)"><g><path d="M 0.890625 -2.4375 L 3.5 -4.109375 C 4.144531 -3.035156 4.820312 -2.175781 5.53125 -1.53125 C 6.238281 -0.894531 7.054688 -0.421875 7.984375 -0.109375 C 8.941406 0.210938 9.769531 0.289062 10.46875 0.125 C 11.164062 -0.0390625 11.613281 -0.414062 11.8125 -1 C 11.988281 -1.53125 11.925781 -2.007812 11.625 -2.4375 C 11.332031 -2.875 10.757812 -3.316406 9.90625 -3.765625 L 7 -5.328125 C 5.738281 -5.984375 4.882812 -6.78125 4.4375 -7.71875 C 3.988281 -8.664062 3.953125 -9.703125 4.328125 -10.828125 C 4.804688 -12.265625 5.734375 -13.21875 7.109375 -13.6875 C 8.492188 -14.164062 10.128906 -14.09375 12.015625 -13.46875 C 13.140625 -13.09375 14.207031 -12.519531 15.21875 -11.75 C 16.226562 -10.988281 17.050781 -10.128906 17.6875 -9.171875 L 15.140625 -7.34375 C 14.546875 -8.257812 13.894531 -9.003906 13.1875 -9.578125 C 12.488281 -10.148438 11.71875 -10.570312 10.875 -10.84375 C 10.019531 -11.132812 9.28125 -11.207031 8.65625 -11.0625 C 8.039062 -10.914062 7.644531 -10.578125 7.46875 -10.046875 C 7.3125 -9.566406 7.359375 -9.132812 7.609375 -8.75 C 7.859375 -8.375 8.359375 -8 9.109375 -7.625 L 11.875 -6.140625 C 13.320312 -5.390625 14.3125 -4.515625 14.84375 -3.515625 C 15.382812 -2.523438 15.453125 -1.4375 15.046875 -0.25 C 14.546875 1.269531 13.550781 2.273438 12.0625 2.765625 C 10.570312 3.265625 8.835938 3.1875 6.859375 2.53125 C 5.609375 2.113281 4.460938 1.46875 3.421875 0.59375 C 2.390625 -0.28125 1.546875 -1.289062 0.890625 -2.4375 Z M 0.890625 -2.4375 "/></g></g></g><g fill="rgb(0%, 3.138733%, 7.839966%)" fill-opacity="1"><g transform="translate(156.922648, 315.363111)"><g><path d="M 2.859375 -13.0625 L 3.40625 -15.984375 L 17.546875 -13.359375 L 17 -10.4375 L 11.609375 -11.4375 L 9.171875 1.703125 L 5.84375 1.078125 L 8.28125 -12.0625 Z M 2.859375 -13.0625 "/></g></g></g><g fill="rgb(0%, 3.138733%, 7.839966%)" fill-opacity="1"><g transform="translate(175.064508, 318.319921)"><g><path d="M 3.078125 -3.328125 C 3.609375 -3.285156 4.046875 -3.0625 4.390625 -2.65625 C 4.734375 -2.25 4.882812 -1.785156 4.84375 -1.265625 C 4.800781 -0.753906 4.578125 -0.328125 4.171875 0.015625 C 3.765625 0.359375 3.296875 0.507812 2.765625 0.46875 C 2.265625 0.425781 1.84375 0.203125 1.5 -0.203125 C 1.15625 -0.609375 1.003906 -1.066406 1.046875 -1.578125 C 1.085938 -2.097656 1.3125 -2.53125 1.71875 -2.875 C 2.125 -3.21875 2.578125 -3.367188 3.078125 -3.328125 Z M 3.078125 -3.328125 "/></g></g></g><g fill="rgb(0%, 3.138733%, 7.839966%)" fill-opacity="1"><g transform="translate(191.266894, 319.138996)"><g><path d="M 0.890625 -0.0625 L 0.734375 -2.3125 L 6.765625 -8.5 C 7.453125 -9.21875 7.929688 -9.835938 8.203125 -10.359375 C 8.484375 -10.878906 8.601562 -11.414062 8.5625 -11.96875 C 8.507812 -12.675781 8.1875 -13.242188 7.59375 -13.671875 C 7.007812 -14.109375 6.296875 -14.296875 5.453125 -14.234375 C 4.671875 -14.179688 3.953125 -13.972656 3.296875 -13.609375 C 2.648438 -13.253906 1.957031 -12.691406 1.21875 -11.921875 L -0.734375 -13.953125 C 0.160156 -14.867188 1.117188 -15.578125 2.140625 -16.078125 C 3.160156 -16.585938 4.234375 -16.882812 5.359375 -16.96875 C 6.234375 -17.03125 7.046875 -16.96875 7.796875 -16.78125 C 8.546875 -16.59375 9.195312 -16.296875 9.75 -15.890625 C 10.300781 -15.492188 10.738281 -14.992188 11.0625 -14.390625 C 11.394531 -13.785156 11.585938 -13.117188 11.640625 -12.390625 C 11.703125 -11.453125 11.53125 -10.570312 11.125 -9.75 C 10.71875 -8.9375 9.972656 -7.972656 8.890625 -6.859375 L 5.140625 -3.0625 L 12.46875 -3.5625 L 12.65625 -0.875 Z M 0.890625 -0.0625 "/></g></g></g><g fill="rgb(0%, 3.138733%, 7.839966%)" fill-opacity="1"><g transform="translate(208.051706, 317.832676)"><g><path d="M 7.859375 -1.390625 C 6.804688 -1.171875 5.804688 -1.171875 4.859375 -1.390625 C 3.910156 -1.609375 3.054688 -2.007812 2.296875 -2.59375 C 1.546875 -3.1875 0.890625 -3.957031 0.328125 -4.90625 C -0.222656 -5.863281 -0.628906 -6.957031 -0.890625 -8.1875 C -1.140625 -9.40625 -1.195312 -10.5625 -1.0625 -11.65625 C -0.9375 -12.75 -0.640625 -13.71875 -0.171875 -14.5625 C 0.296875 -15.40625 0.921875 -16.113281 1.703125 -16.6875 C 2.492188 -17.269531 3.40625 -17.671875 4.4375 -17.890625 C 5.488281 -18.109375 6.492188 -18.109375 7.453125 -17.890625 C 8.410156 -17.671875 9.265625 -17.265625 10.015625 -16.671875 C 10.765625 -16.085938 11.421875 -15.320312 11.984375 -14.375 C 12.546875 -13.425781 12.953125 -12.34375 13.203125 -11.125 C 13.460938 -9.894531 13.53125 -8.726562 13.40625 -7.625 C 13.28125 -6.53125 12.984375 -5.5625 12.515625 -4.71875 C 12.046875 -3.882812 11.414062 -3.175781 10.625 -2.59375 C 9.832031 -2.007812 8.910156 -1.609375 7.859375 -1.390625 Z M 7.296875 -4.125 C 8.535156 -4.382812 9.410156 -5.082031 9.921875 -6.21875 C 10.429688 -7.351562 10.507812 -8.773438 10.15625 -10.484375 C 9.8125 -12.160156 9.171875 -13.421875 8.234375 -14.265625 C 7.304688 -15.109375 6.226562 -15.40625 5 -15.15625 C 3.789062 -14.90625 2.929688 -14.207031 2.421875 -13.0625 C 1.910156 -11.914062 1.828125 -10.503906 2.171875 -8.828125 C 2.523438 -7.117188 3.164062 -5.84375 4.09375 -5 C 5.019531 -4.164062 6.085938 -3.875 7.296875 -4.125 Z M 7.296875 -4.125 "/></g></g></g><g fill="rgb(0%, 3.138733%, 7.839966%)" fill-opacity="1"><g transform="translate(227.016909, 313.560186)"><g><path d="M 0.84375 -0.296875 L 0.09375 -2.421875 L 4.21875 -10 C 4.695312 -10.882812 5 -11.613281 5.125 -12.1875 C 5.25 -12.757812 5.21875 -13.304688 5.03125 -13.828125 C 4.789062 -14.492188 4.328125 -14.957031 3.640625 -15.21875 C 2.960938 -15.476562 2.222656 -15.460938 1.421875 -15.171875 C 0.691406 -14.910156 0.0625 -14.519531 -0.46875 -14 C -1.007812 -13.488281 -1.53125 -12.753906 -2.03125 -11.796875 L -4.453125 -13.25 C -3.835938 -14.363281 -3.101562 -15.300781 -2.25 -16.0625 C -1.40625 -16.832031 -0.453125 -17.40625 0.609375 -17.78125 C 1.429688 -18.082031 2.226562 -18.242188 3 -18.265625 C 3.78125 -18.285156 4.488281 -18.171875 5.125 -17.921875 C 5.757812 -17.679688 6.316406 -17.316406 6.796875 -16.828125 C 7.273438 -16.335938 7.640625 -15.75 7.890625 -15.0625 C 8.203125 -14.1875 8.269531 -13.296875 8.09375 -12.390625 C 7.914062 -11.484375 7.460938 -10.351562 6.734375 -9 L 4.125 -4.3125 L 11.046875 -6.78125 L 11.953125 -4.25 Z M 0.84375 -0.296875 "/></g></g></g><g fill="rgb(0%, 3.138733%, 7.839966%)" fill-opacity="1"><g transform="translate(242.72386, 307.763719)"><g><path d="M 0.796875 -0.40625 L -0.21875 -2.421875 L 2.9375 -10.453125 C 3.300781 -11.378906 3.503906 -12.132812 3.546875 -12.71875 C 3.597656 -13.3125 3.5 -13.851562 3.25 -14.34375 C 2.925781 -14.976562 2.410156 -15.378906 1.703125 -15.546875 C 0.992188 -15.710938 0.265625 -15.609375 -0.484375 -15.234375 C -1.179688 -14.878906 -1.757812 -14.410156 -2.21875 -13.828125 C -2.6875 -13.253906 -3.113281 -12.460938 -3.5 -11.453125 L -6.078125 -12.578125 C -5.609375 -13.773438 -5 -14.804688 -4.25 -15.671875 C -3.507812 -16.535156 -2.640625 -17.222656 -1.640625 -17.734375 C -0.859375 -18.117188 -0.0820312 -18.367188 0.6875 -18.484375 C 1.457031 -18.609375 2.175781 -18.59375 2.84375 -18.4375 C 3.507812 -18.28125 4.109375 -17.984375 4.640625 -17.546875 C 5.179688 -17.117188 5.613281 -16.582031 5.9375 -15.9375 C 6.363281 -15.101562 6.546875 -14.226562 6.484375 -13.3125 C 6.421875 -12.394531 6.109375 -11.210938 5.546875 -9.765625 L 3.5625 -4.8125 L 10.125 -8.109375 L 11.328125 -5.703125 Z M 0.796875 -0.40625 "/></g></g></g><g fill="rgb(0%, 3.138733%, 7.839966%)" fill-opacity="1"><g transform="translate(81.368373, 176.041288)"><g><path d="M 0.234375 -1.6875 L -18.515625 -4.3125 L -17.234375 -13.46875 C -17.097656 -14.414062 -16.832031 -15.265625 -16.4375 -16.015625 C -16.039062 -16.773438 -15.550781 -17.40625 -14.96875 -17.90625 C -14.382812 -18.40625 -13.707031 -18.765625 -12.9375 -18.984375 C -12.175781 -19.203125 -11.367188 -19.253906 -10.515625 -19.140625 C -9.335938 -18.972656 -8.332031 -18.488281 -7.5 -17.6875 C -6.664062 -16.882812 -6.101562 -15.90625 -5.8125 -14.75 L 2.484375 -17.8125 L 1.875 -13.484375 L -5.8125 -10.8125 L -6.40625 -6.578125 L 0.78125 -5.578125 Z M -13.921875 -12.65625 L -14.609375 -7.734375 L -9.59375 -7.03125 L -8.90625 -11.953125 C -8.789062 -12.828125 -8.925781 -13.5625 -9.3125 -14.15625 C -9.695312 -14.75 -10.265625 -15.097656 -11.015625 -15.203125 C -11.753906 -15.304688 -12.394531 -15.125 -12.9375 -14.65625 C -13.476562 -14.195312 -13.804688 -13.53125 -13.921875 -12.65625 Z M -13.921875 -12.65625 "/></g></g></g><g fill="rgb(0%, 3.138733%, 7.839966%)" fill-opacity="1"><g transform="translate(84.584347, 156.406979)"><g><path d="M 0.453125 -1.640625 L -17.78125 -6.765625 L -16.71875 -10.546875 L 1.515625 -5.421875 Z M 0.453125 -1.640625 "/></g></g></g><g fill="rgb(0%, 3.138733%, 7.839966%)" fill-opacity="1"><g transform="translate(86.655434, 147.761006)"><g><path d="M 0.6875 -1.5625 L -16.640625 -9.21875 L -13.703125 -15.875 C -13.128906 -17.15625 -12.367188 -18.253906 -11.421875 -19.171875 C -10.484375 -20.097656 -9.445312 -20.796875 -8.3125 -21.265625 C -7.1875 -21.742188 -5.976562 -21.976562 -4.6875 -21.96875 C -3.40625 -21.96875 -2.15625 -21.695312 -0.9375 -21.15625 C 0.269531 -20.625 1.296875 -19.890625 2.140625 -18.953125 C 2.992188 -18.023438 3.625 -16.984375 4.03125 -15.828125 C 4.4375 -14.671875 4.613281 -13.429688 4.5625 -12.109375 C 4.507812 -10.796875 4.195312 -9.5 3.625 -8.21875 Z M -10.515625 -14.421875 L -11.859375 -11.375 L -0.921875 -6.546875 L 0.421875 -9.59375 C 0.765625 -10.351562 0.941406 -11.128906 0.953125 -11.921875 C 0.960938 -12.710938 0.832031 -13.460938 0.5625 -14.171875 C 0.300781 -14.890625 -0.09375 -15.535156 -0.625 -16.109375 C -1.164062 -16.679688 -1.816406 -17.132812 -2.578125 -17.46875 C -3.359375 -17.8125 -4.148438 -17.992188 -4.953125 -18.015625 C -5.753906 -18.035156 -6.507812 -17.90625 -7.21875 -17.625 C -7.9375 -17.34375 -8.578125 -16.925781 -9.140625 -16.375 C -9.710938 -15.832031 -10.171875 -15.179688 -10.515625 -14.421875 Z M -10.515625 -14.421875 "/></g></g></g><g fill="rgb(0%, 3.138733%, 7.839966%)" fill-opacity="1"><g transform="translate(95.381687, 128.563585)"><g><path d="M 0.96875 -1.40625 L -14.640625 -12.125 L -6.40625 -24.109375 L -3.59375 -22.1875 L -9.609375 -13.4375 L -6.046875 -10.984375 L -2.09375 -16.75 L 0.640625 -14.875 L -3.3125 -9.109375 L 0.375 -6.5625 L 6.453125 -15.40625 L 9.265625 -13.484375 Z M 0.96875 -1.40625 "/></g></g></g><g fill="rgb(0%, 3.138733%, 7.839966%)" fill-opacity="1"><g transform="translate(105.779919, 113.213425)"><g><path d="M 8.390625 -21.46875 C 9.335938 -20.5 10.046875 -19.40625 10.515625 -18.1875 C 10.984375 -16.96875 11.203125 -15.726562 11.171875 -14.46875 C 11.140625 -13.21875 10.863281 -11.984375 10.34375 -10.765625 C 9.820312 -9.546875 9.0625 -8.445312 8.0625 -7.46875 C 7.0625 -6.488281 5.945312 -5.753906 4.71875 -5.265625 C 3.488281 -4.773438 2.25 -4.53125 1 -4.53125 C -0.238281 -4.53125 -1.46875 -4.769531 -2.6875 -5.25 C -3.90625 -5.738281 -4.988281 -6.46875 -5.9375 -7.4375 C -6.882812 -8.40625 -7.582031 -9.503906 -8.03125 -10.734375 C -8.488281 -11.960938 -8.707031 -13.203125 -8.6875 -14.453125 C -8.664062 -15.703125 -8.394531 -16.929688 -7.875 -18.140625 C -7.351562 -19.359375 -6.59375 -20.457031 -5.59375 -21.4375 C -4.59375 -22.414062 -3.476562 -23.148438 -2.25 -23.640625 C -1.019531 -24.140625 0.21875 -24.390625 1.46875 -24.390625 C 2.726562 -24.398438 3.957031 -24.15625 5.15625 -23.65625 C 6.363281 -23.164062 7.441406 -22.4375 8.390625 -21.46875 Z M 5.515625 -18.640625 C 4.898438 -19.273438 4.222656 -19.75 3.484375 -20.0625 C 2.742188 -20.382812 1.988281 -20.554688 1.21875 -20.578125 C 0.457031 -20.609375 -0.296875 -20.476562 -1.046875 -20.1875 C -1.804688 -19.894531 -2.484375 -19.457031 -3.078125 -18.875 C -3.691406 -18.269531 -4.144531 -17.597656 -4.4375 -16.859375 C -4.738281 -16.117188 -4.882812 -15.363281 -4.875 -14.59375 C -4.875 -13.832031 -4.722656 -13.078125 -4.421875 -12.328125 C -4.117188 -11.585938 -3.660156 -10.898438 -3.046875 -10.265625 C -2.441406 -9.648438 -1.765625 -9.175781 -1.015625 -8.84375 C -0.265625 -8.507812 0.488281 -8.332031 1.25 -8.3125 C 2.019531 -8.289062 2.773438 -8.421875 3.515625 -8.703125 C 4.253906 -8.992188 4.929688 -9.441406 5.546875 -10.046875 C 6.140625 -10.628906 6.59375 -11.289062 6.90625 -12.03125 C 7.21875 -12.78125 7.367188 -13.535156 7.359375 -14.296875 C 7.359375 -15.054688 7.203125 -15.816406 6.890625 -16.578125 C 6.578125 -17.335938 6.117188 -18.023438 5.515625 -18.640625 Z M 5.515625 -18.640625 "/></g></g></g><g fill="rgb(0%, 3.138733%, 7.839966%)" fill-opacity="1"><g transform="translate(122.500915, 97.343559)"><g><path d="M 1.421875 -0.9375 L -8.984375 -16.765625 L -5.703125 -18.921875 L 2.796875 -5.984375 L 11.453125 -11.671875 L 13.359375 -8.78125 Z M 1.421875 -0.9375 "/></g></g></g><g fill="rgb(0%, 3.138733%, 7.839966%)" fill-opacity="1"><g transform="translate(137.545416, 87.284539)"><g><path d="M 15.84375 -16.734375 C 16.351562 -15.472656 16.597656 -14.191406 16.578125 -12.890625 C 16.554688 -11.585938 16.296875 -10.359375 15.796875 -9.203125 C 15.296875 -8.054688 14.570312 -7.015625 13.625 -6.078125 C 12.6875 -5.148438 11.566406 -4.421875 10.265625 -3.890625 C 8.972656 -3.359375 7.664062 -3.09375 6.34375 -3.09375 C 5.019531 -3.101562 3.78125 -3.34375 2.625 -3.8125 C 1.476562 -4.289062 0.429688 -4.984375 -0.515625 -5.890625 C -1.460938 -6.796875 -2.191406 -7.878906 -2.703125 -9.140625 C -3.210938 -10.390625 -3.445312 -11.664062 -3.40625 -12.96875 C -3.375 -14.28125 -3.113281 -15.507812 -2.625 -16.65625 C -2.132812 -17.800781 -1.421875 -18.835938 -0.484375 -19.765625 C 0.453125 -20.703125 1.566406 -21.4375 2.859375 -21.96875 C 4.160156 -22.5 5.472656 -22.757812 6.796875 -22.75 C 8.128906 -22.75 9.375 -22.515625 10.53125 -22.046875 C 11.695312 -21.578125 12.742188 -20.882812 13.671875 -19.96875 C 14.609375 -19.0625 15.332031 -17.984375 15.84375 -16.734375 Z M 12.125 -15.203125 C 11.789062 -16.015625 11.335938 -16.707031 10.765625 -17.28125 C 10.203125 -17.863281 9.566406 -18.304688 8.859375 -18.609375 C 8.160156 -18.921875 7.40625 -19.082031 6.59375 -19.09375 C 5.789062 -19.101562 5 -18.953125 4.21875 -18.640625 C 3.4375 -18.316406 2.765625 -17.867188 2.203125 -17.296875 C 1.648438 -16.722656 1.234375 -16.082031 0.953125 -15.375 C 0.679688 -14.664062 0.539062 -13.90625 0.53125 -13.09375 C 0.53125 -12.28125 0.695312 -11.46875 1.03125 -10.65625 C 1.363281 -9.851562 1.816406 -9.160156 2.390625 -8.578125 C 2.960938 -7.992188 3.597656 -7.546875 4.296875 -7.234375 C 4.992188 -6.929688 5.738281 -6.769531 6.53125 -6.75 C 7.332031 -6.738281 8.125 -6.894531 8.90625 -7.21875 C 9.6875 -7.53125 10.359375 -7.972656 10.921875 -8.546875 C 11.492188 -9.128906 11.921875 -9.773438 12.203125 -10.484375 C 12.484375 -11.191406 12.625 -11.953125 12.625 -12.765625 C 12.625 -13.585938 12.457031 -14.398438 12.125 -15.203125 Z M 12.125 -15.203125 "/></g></g></g><g fill="rgb(0%, 3.138733%, 7.839966%)" fill-opacity="1"><g transform="translate(158.805071, 78.707723)"><g><path d="M 18.53125 -12.90625 C 18.769531 -11.539062 18.757812 -10.222656 18.5 -8.953125 C 18.238281 -7.691406 17.769531 -6.5625 17.09375 -5.5625 C 16.414062 -4.570312 15.539062 -3.726562 14.46875 -3.03125 C 13.40625 -2.34375 12.210938 -1.878906 10.890625 -1.640625 C 9.492188 -1.390625 8.148438 -1.40625 6.859375 -1.6875 C 5.566406 -1.976562 4.40625 -2.472656 3.375 -3.171875 C 2.34375 -3.878906 1.460938 -4.769531 0.734375 -5.84375 C 0.015625 -6.925781 -0.46875 -8.144531 -0.71875 -9.5 C -0.957031 -10.832031 -0.925781 -12.128906 -0.625 -13.390625 C -0.332031 -14.660156 0.171875 -15.800781 0.890625 -16.8125 C 1.617188 -17.832031 2.539062 -18.703125 3.65625 -19.421875 C 4.78125 -20.140625 6.023438 -20.617188 7.390625 -20.859375 C 8.941406 -21.140625 10.457031 -21.09375 11.9375 -20.71875 C 13.414062 -20.34375 14.691406 -19.6875 15.765625 -18.75 L 13.53125 -15.796875 C 12.726562 -16.460938 11.859375 -16.925781 10.921875 -17.1875 C 9.992188 -17.445312 9.03125 -17.488281 8.03125 -17.3125 C 7.195312 -17.164062 6.445312 -16.867188 5.78125 -16.421875 C 5.125 -15.984375 4.578125 -15.445312 4.140625 -14.8125 C 3.710938 -14.175781 3.414062 -13.460938 3.25 -12.671875 C 3.09375 -11.890625 3.09375 -11.066406 3.25 -10.203125 C 3.40625 -9.328125 3.703125 -8.546875 4.140625 -7.859375 C 4.578125 -7.171875 5.109375 -6.601562 5.734375 -6.15625 C 6.359375 -5.707031 7.066406 -5.390625 7.859375 -5.203125 C 8.660156 -5.023438 9.476562 -5.015625 10.3125 -5.171875 C 11.625 -5.398438 12.6875 -5.960938 13.5 -6.859375 C 14.320312 -7.765625 14.753906 -8.804688 14.796875 -9.984375 L 9.265625 -9 L 8.65625 -12.34375 L 18.3125 -14.0625 Z M 18.53125 -12.90625 "/></g></g></g><g fill="rgb(0%, 3.138733%, 7.839966%)" fill-opacity="1"><g transform="translate(180.989474, 74.964836)"><g><path d="M 7.578125 0.171875 L 7.75 -7.078125 L 0.265625 -18.9375 L 4.78125 -18.84375 L 9.90625 -10.484375 L 15.40625 -18.59375 L 19.671875 -18.5 L 11.65625 -6.953125 L 11.5 0.265625 Z M 7.578125 0.171875 "/></g></g></g><g fill="rgb(0%, 3.138733%, 7.839966%)" fill-opacity="1"><g transform="translate(208.699997, 76.801528)"><g><path d="M 1.640625 0.46875 L 6.78125 -17.765625 L 20.875 -13.796875 L 19.953125 -10.515625 L 9.625 -13.421875 L 8.40625 -9.109375 L 15.25 -7.1875 L 14.359375 -4.015625 L 7.515625 -5.9375 L 5.40625 1.53125 Z M 1.640625 0.46875 "/></g></g></g><g fill="rgb(0%, 3.138733%, 7.839966%)" fill-opacity="1"><g transform="translate(226.425671, 81.67368)"><g><path d="M 23.03125 1.046875 C 22.414062 2.253906 21.601562 3.273438 20.59375 4.109375 C 19.59375 4.941406 18.492188 5.546875 17.296875 5.921875 C 16.097656 6.296875 14.835938 6.429688 13.515625 6.328125 C 12.203125 6.234375 10.914062 5.867188 9.65625 5.234375 C 8.414062 4.597656 7.363281 3.773438 6.5 2.765625 C 5.632812 1.765625 5 0.675781 4.59375 -0.5 C 4.195312 -1.675781 4.035156 -2.921875 4.109375 -4.234375 C 4.179688 -5.546875 4.523438 -6.804688 5.140625 -8.015625 C 5.742188 -9.222656 6.550781 -10.238281 7.5625 -11.0625 C 8.570312 -11.894531 9.671875 -12.5 10.859375 -12.875 C 12.054688 -13.257812 13.316406 -13.398438 14.640625 -13.296875 C 15.960938 -13.191406 17.242188 -12.820312 18.484375 -12.1875 C 19.742188 -11.550781 20.800781 -10.734375 21.65625 -9.734375 C 22.519531 -8.734375 23.15625 -7.640625 23.5625 -6.453125 C 23.96875 -5.273438 24.128906 -4.03125 24.046875 -2.71875 C 23.972656 -1.414062 23.632812 -0.160156 23.03125 1.046875 Z M 19.4375 -0.78125 C 19.832031 -1.5625 20.0625 -2.351562 20.125 -3.15625 C 20.1875 -3.96875 20.101562 -4.738281 19.875 -5.46875 C 19.65625 -6.207031 19.285156 -6.882812 18.765625 -7.5 C 18.242188 -8.113281 17.609375 -8.609375 16.859375 -8.984375 C 16.097656 -9.367188 15.320312 -9.585938 14.53125 -9.640625 C 13.738281 -9.691406 12.976562 -9.585938 12.25 -9.328125 C 11.53125 -9.078125 10.863281 -8.6875 10.25 -8.15625 C 9.632812 -7.625 9.128906 -6.96875 8.734375 -6.1875 C 8.335938 -5.414062 8.101562 -4.617188 8.03125 -3.796875 C 7.96875 -2.984375 8.050781 -2.210938 8.28125 -1.484375 C 8.507812 -0.765625 8.875 -0.0976562 9.375 0.515625 C 9.882812 1.140625 10.519531 1.644531 11.28125 2.03125 C 12.03125 2.40625 12.804688 2.613281 13.609375 2.65625 C 14.421875 2.707031 15.1875 2.609375 15.90625 2.359375 C 16.625 2.117188 17.289062 1.726562 17.90625 1.1875 C 18.53125 0.644531 19.039062 -0.0078125 19.4375 -0.78125 Z M 19.4375 -0.78125 "/></g></g></g><g fill="rgb(0%, 3.138733%, 7.839966%)" fill-opacity="1"><g transform="translate(246.823831, 92.250005)"><g><path d="M 19.328125 4.921875 C 18.523438 5.921875 17.640625 6.707031 16.671875 7.28125 C 15.703125 7.851562 14.707031 8.195312 13.6875 8.3125 C 12.664062 8.4375 11.625 8.328125 10.5625 7.984375 C 9.5 7.648438 8.472656 7.09375 7.484375 6.3125 C 6.484375 5.507812 5.703125 4.628906 5.140625 3.671875 C 4.585938 2.722656 4.253906 1.734375 4.140625 0.703125 C 4.023438 -0.316406 4.132812 -1.359375 4.46875 -2.421875 C 4.8125 -3.484375 5.390625 -4.519531 6.203125 -5.53125 L 12.890625 -13.9375 L 15.96875 -11.5 L 9.28125 -3.09375 C 8.363281 -1.945312 7.953125 -0.773438 8.046875 0.421875 C 8.140625 1.628906 8.710938 2.648438 9.765625 3.484375 C 10.828125 4.328125 11.941406 4.65625 13.109375 4.46875 C 14.285156 4.28125 15.332031 3.613281 16.25 2.46875 L 22.9375 -5.9375 L 26.015625 -3.484375 Z M 19.328125 4.921875 "/></g></g></g><g fill="rgb(0%, 3.138733%, 7.839966%)" fill-opacity="1"><g transform="translate(262.944497, 105.186289)"><g><path d="M 15.5625 -10.921875 L 17.984375 -8.0625 L 14.6875 7.03125 L 24.046875 -0.875 L 26.421875 1.9375 L 11.953125 14.15625 L 9.71875 11.5 L 13.15625 -4.046875 L 3.484375 4.125 L 1.09375 1.296875 Z M 15.5625 -10.921875 "/></g></g></g><g fill="rgb(0%, 3.138733%, 7.839966%)" fill-opacity="1"><g transform="translate(276.600967, 121.536279)"><g><path d="M 0.828125 1.484375 L 17.421875 -7.65625 L 20.921875 -1.265625 C 21.609375 -0.0351562 22.03125 1.234375 22.1875 2.546875 C 22.34375 3.859375 22.265625 5.109375 21.953125 6.296875 C 21.640625 7.484375 21.09375 8.582031 20.3125 9.59375 C 19.53125 10.613281 18.554688 11.445312 17.390625 12.09375 C 16.242188 12.71875 15.035156 13.082031 13.765625 13.1875 C 12.503906 13.300781 11.289062 13.171875 10.125 12.796875 C 8.96875 12.421875 7.882812 11.8125 6.875 10.96875 C 5.863281 10.132812 5.015625 9.101562 4.328125 7.875 Z M 17.828125 0.390625 L 16.234375 -2.53125 L 5.765625 3.234375 L 7.359375 6.15625 C 7.765625 6.882812 8.28125 7.492188 8.90625 7.984375 C 9.53125 8.484375 10.203125 8.84375 10.921875 9.0625 C 11.648438 9.28125 12.40625 9.347656 13.1875 9.265625 C 13.96875 9.179688 14.71875 8.941406 15.4375 8.546875 C 16.1875 8.128906 16.8125 7.609375 17.3125 6.984375 C 17.8125 6.359375 18.171875 5.675781 18.390625 4.9375 C 18.609375 4.207031 18.671875 3.445312 18.578125 2.65625 C 18.484375 1.875 18.234375 1.117188 17.828125 0.390625 Z M 17.828125 0.390625 "/></g></g></g><g fill="rgb(0%, 3.138733%, 7.839966%)" fill-opacity="1"><g transform="translate(286.58423, 140.111379)"><g><path d="M 0.53125 1.625 L 18.515625 -4.296875 L 23.0625 9.515625 L 19.828125 10.59375 L 16.5 0.5 L 12.390625 1.84375 L 14.578125 8.5 L 11.4375 9.53125 L 9.25 2.875 L 4.984375 4.28125 L 8.34375 14.484375 L 5.109375 15.546875 Z M 0.53125 1.625 "/></g></g></g><g fill="rgb(0%, 3.138733%, 7.839966%)" fill-opacity="1"><g transform="translate(292.348495, 157.837676)"><g><path d="M 0.234375 1.6875 L 18.984375 -0.9375 L 20.265625 8.21875 C 20.398438 9.164062 20.378906 10.054688 20.203125 10.890625 C 20.023438 11.734375 19.722656 12.476562 19.296875 13.125 C 18.867188 13.769531 18.316406 14.300781 17.640625 14.71875 C 16.972656 15.132812 16.210938 15.398438 15.359375 15.515625 C 14.179688 15.679688 13.082031 15.492188 12.0625 14.953125 C 11.039062 14.410156 10.226562 13.625 9.625 12.59375 L 2.484375 17.8125 L 1.875 13.484375 L 8.5625 8.8125 L 7.96875 4.578125 L 0.78125 5.578125 Z M 16.859375 8.34375 L 16.171875 3.421875 L 11.15625 4.125 L 11.84375 9.046875 C 11.957031 9.921875 12.285156 10.59375 12.828125 11.0625 C 13.367188 11.53125 14.015625 11.710938 14.765625 11.609375 C 15.503906 11.503906 16.066406 11.148438 16.453125 10.546875 C 16.835938 9.953125 16.972656 9.21875 16.859375 8.34375 Z M 16.859375 8.34375 "/></g></g></g></svg>