<svg width="500" height="500" viewBox="0 0 500 500" fill="none" xmlns="http://www.w3.org/2000/svg">
<g clip-path="url(#clip0_1_34)">
<g clip-path="url(#clip1_1_34)">
<path d="M325.781 0C375.781 0 400.781 0 428.125 8.59375C442.641 13.9039 455.824 22.3172 466.753 33.2468C477.683 44.1764 486.096 57.359 491.406 71.875C500 99.2187 500 124.219 500 174.297V325.625C500 375.781 500 400.937 491.406 427.969C486.096 442.485 477.683 455.667 466.753 466.597C455.824 477.527 442.641 485.94 428.125 491.25C400.781 500 375.781 500 325.781 500H174.219C124.062 500 98.9062 500 71.875 491.406C57.359 486.096 44.1764 477.683 33.2468 466.753C22.3172 455.824 13.9039 442.641 8.59375 428.125C0 400.781 0 375.781 0 325.703V174.219C0 124.062 0 98.9062 8.59375 71.875C13.9039 57.359 22.3172 44.1764 33.2468 33.2468C44.1764 22.3172 57.359 13.9039 71.875 8.59375C99.2187 0 124.219 0 174.219 0H325.781Z" fill="#1677FF"/>
</g>
<path d="M157.96 384.448C85.0489 384.448 63.4927 326.595 99.5265 294.944C111.551 284.246 133.522 279.025 145.24 277.857C188.55 273.543 228.646 290.187 275.959 313.451C242.704 357.151 200.342 384.448 157.96 384.448ZM417.201 317.839C398.444 311.509 373.28 301.836 345.252 291.621C362.084 262.145 375.53 228.577 384.366 192.1H291.981V158.581H405.157V139.872H291.981V84H245.799C237.694 84 237.694 92.0556 237.694 92.0556V139.872H123.235V158.581H237.694V192.1H143.192V210.804H326.475C320.006 233.338 311.157 255.121 300.077 275.786C240.601 256.022 177.142 240 137.273 249.859C111.778 256.19 95.3555 267.484 85.7054 279.316C41.4283 333.581 73.1873 416 166.697 416C221.987 416 275.248 384.951 316.529 333.783C378.097 363.594 500 414.782 500 414.782V341.828C500 341.828 484.688 340.606 417.201 317.839Z" fill="white"/>
</g>
<defs>
<clipPath id="clip0_1_34">
<rect width="500" height="500" fill="white"/>
</clipPath>
<clipPath id="clip1_1_34">
<rect width="500" height="500" fill="white"/>
</clipPath>
</defs>
</svg>
