<svg width="500" height="500" viewBox="0 0 500 500" fill="none" xmlns="http://www.w3.org/2000/svg">
<g clip-path="url(#clip0_1_145)">
<path d="M325.781 0C375.781 0 400.781 0 428.125 8.59375C442.641 13.9039 455.824 22.3172 466.753 33.2468C477.683 44.1764 486.096 57.359 491.406 71.875C500 99.2187 500 124.219 500 174.297V325.625C500 375.781 500 400.937 491.406 427.969C486.096 442.485 477.683 455.667 466.753 466.597C455.824 477.527 442.641 485.94 428.125 491.25C400.781 500 375.781 500 325.781 500H174.219C124.062 500 98.9062 500 71.875 491.406C57.359 486.096 44.1764 477.683 33.2468 466.753C22.3172 455.824 13.9039 442.641 8.59375 428.125C0 400.781 0 375.781 0 325.703V174.219C0 124.062 0 98.9062 8.59375 71.875C13.9039 57.359 22.3172 44.1764 33.2468 33.2468C44.1764 22.3172 57.359 13.9039 71.875 8.59375C99.2187 0 124.219 0 174.219 0H325.781Z" fill="black"/>
<path fill-rule="evenodd" clip-rule="evenodd" d="M120.341 201.1C119.46 209.736 114.764 216.703 107.573 220.088C105.958 220.824 103.463 221.609 102.094 221.806L99.5008 222.149V219.598C99.5008 213.072 104.099 205.369 110.41 201.296C112.856 199.726 117.503 198.009 119.509 198.009C120.634 197.96 120.683 198.009 120.341 201.1ZM208.984 204.633C223.709 207.675 234.618 217.537 238.433 231.422C238.548 231.844 238.658 232.232 238.758 232.589C239.284 234.453 239.574 235.482 239.187 236.048C238.709 236.746 237.203 236.74 233.84 236.726C233.328 236.724 232.773 236.721 232.172 236.721H224.883L224.296 234.612C222.583 228.822 217.691 222.64 212.653 219.892C205.119 215.82 195.139 215.623 187.165 219.401C182.86 221.413 177.773 226.81 175.327 231.864C171.902 239.077 171.217 242.511 171.217 252.913C171.217 263.413 171.902 266.897 175.425 274.011C180.952 285.345 192.253 290.89 205.07 288.535C214.218 286.915 220.822 281.715 223.953 273.668L224.98 271.018L232.221 270.92C232.799 270.913 233.334 270.905 233.828 270.897C237.233 270.844 238.737 270.821 239.187 271.498C239.543 272.034 239.241 273.007 238.7 274.749C238.602 275.066 238.496 275.408 238.384 275.778C234.52 288.387 225.421 296.925 212.017 300.556C208.494 301.537 206.635 301.684 199.542 301.684C192.351 301.733 190.639 301.586 187.067 300.605C168.135 295.453 157.031 279.703 155.905 256.348C155.318 242.757 158.009 231.03 163.782 222.002C169.799 212.679 178.017 207.086 189.514 204.535C193.525 203.651 204.483 203.7 208.984 204.633ZM395.564 224.063L395.711 242.855L397.081 240.5C400.897 233.974 407.207 230.49 416.013 230C428.781 229.313 438.027 235.691 440.962 247.271C441.892 250.852 441.94 252.717 441.94 275.827V300.507H434.847H427.754V278.035C427.754 253.698 427.607 252.03 425.063 248.007C420.562 240.843 407.207 240.205 400.603 246.78C398.206 249.184 396.592 252.815 395.956 257.084C395.711 258.997 395.467 269.497 395.467 280.488V300.507H388.373H381.28V252.913V205.32H388.373H395.467L395.564 224.063ZM125.184 223.719C129.684 224.897 133.207 226.859 136.337 230L139.175 232.845L135.555 236.231C129.44 241.922 127.092 248.448 128.266 256.2C129.097 261.401 131.25 265.523 134.919 269.007C136.582 270.528 138.784 272.245 139.762 272.785C142.012 273.962 141.963 274.207 138.93 280.684C134.772 289.516 128.266 297.71 123.716 299.82C120.341 301.439 116.672 301.39 112.367 299.721C104.148 296.532 100.822 296.336 94.6089 298.593C88.6406 300.752 84.9716 301.537 82.7702 301.046C78.3674 300.016 74.0135 296.091 68.9748 288.486C61.4411 277.2 57.4297 263.658 58.0656 251.981C58.6037 242.904 61.0008 236.721 66.0885 231.275C72.7905 224.112 82.0853 221.658 90.7931 224.75C92.7498 225.436 95.7829 226.467 97.4951 227.007L100.577 228.037L104.344 226.663C115.155 222.787 119.313 222.198 125.184 223.719ZM285.739 230.588C296.306 232.6 303.595 239.665 304.965 249.233C305.209 251.098 305.454 263.413 305.454 276.563V300.507H298.605H291.756L291.707 294.717V288.976L290.631 290.448C286.913 295.649 280.847 299.721 275.026 300.997C271.112 301.88 263.383 301.39 259.909 300.065C253.794 297.71 249.049 292.901 247.386 287.259C246.407 284.021 246.31 277.495 247.19 274.747C248.315 271.411 250.761 268.074 253.696 265.866C259.176 261.843 264.752 260.518 280.505 259.635L291.022 259.046L290.973 255.121C290.973 250.509 290.24 248.056 288.185 245.75C285.446 242.56 283.44 241.873 277.08 241.873C271.748 241.873 271.308 241.971 268.813 243.345C266.024 244.915 263.48 247.859 263.04 250.067L262.796 251.441H255.996C255.612 251.441 255.249 251.442 254.904 251.442C251.349 251.448 249.817 251.451 249.363 250.753C249.02 250.224 249.295 249.294 249.778 247.659C249.842 247.444 249.909 247.216 249.979 246.976C252.473 238.292 259.616 232.502 270.28 230.392C273.754 229.705 281.581 229.803 285.739 230.588ZM354.129 231.521C362.984 234.514 368.561 240.794 369.784 249.135L370.126 251.49L363.424 251.343L356.673 251.196L356.086 249.086C355.205 246.093 353.249 243.787 350.313 242.266C348.063 241.088 347.182 240.941 343.122 240.892C338.181 240.892 336.224 241.383 333.436 243.443C331.332 245.014 330.403 246.976 330.403 249.871C330.403 255.219 333.681 257.28 346.791 260.322C351.634 261.45 357.015 262.873 358.777 263.511C368.022 266.995 371.887 272.539 371.398 281.567C371.007 288.878 366.799 294.815 359.657 298.25C354.374 300.801 350.313 301.635 343.122 301.586C336.029 301.586 331.186 300.507 326.343 297.955C320.374 294.815 315.629 288.338 314.895 282.45L314.602 279.85L321.597 279.997L328.593 280.144L329.278 282.5C330.256 285.836 333.24 288.731 336.909 289.908C339.111 290.595 340.872 290.742 344.541 290.595C348.699 290.448 349.775 290.203 352.221 288.927C359.217 285.345 358.972 277.299 351.781 274.257C350.754 273.815 346.155 272.588 341.557 271.509C328.446 268.418 324.19 266.504 320.13 261.843C314.749 255.759 315.14 244.719 320.912 238.292C326.245 232.257 333.387 229.754 344.101 230.049C349.139 230.196 350.9 230.441 354.129 231.521ZM264.703 272.883C267.296 271.116 271.308 270.184 279.037 269.693C282.657 269.448 286.962 269.203 288.528 269.154L291.414 269.105L291.12 273.57C290.484 282.107 286.815 286.965 279.086 289.467C275.417 290.644 269.351 290.301 266.122 288.731C259.86 285.689 259.029 276.808 264.703 272.883Z" fill="white"/>
</g>
<defs>
<clipPath id="clip0_1_145">
<rect width="500" height="500" fill="white"/>
</clipPath>
</defs>
</svg>
