<svg width="500" height="500" viewBox="0 0 500 500" fill="none" xmlns="http://www.w3.org/2000/svg">
<g clip-path="url(#clip0_1_179)">
<g clip-path="url(#clip1_1_179)">
<path d="M325.781 0C375.781 0 400.781 0 428.125 8.59375C442.641 13.9039 455.824 22.3172 466.753 33.2468C477.683 44.1764 486.096 57.359 491.406 71.875C500 99.2187 500 124.219 500 174.297V325.625C500 375.781 500 400.937 491.406 427.969C486.096 442.485 477.683 455.667 466.753 466.597C455.824 477.527 442.641 485.94 428.125 491.25C400.781 500 375.781 500 325.781 500H174.219C124.062 500 98.9062 500 71.875 491.406C57.359 486.096 44.1764 477.683 33.2468 466.753C22.3172 455.824 13.9039 442.641 8.59375 428.125C0 400.781 0 375.781 0 325.703V174.219C0 124.062 0 98.9062 8.59375 71.875C13.9039 57.359 22.3172 44.1764 33.2468 33.2468C44.1764 22.3172 57.359 13.9039 71.875 8.59375C99.2187 0 124.219 0 174.219 0H325.781Z" fill="#004580"/>
<path d="M137.839 252.656C138.992 253.043 140.333 253.618 141.863 254.381C144.545 255.917 146.84 258.018 148.767 260.694C151.072 264.519 152.214 269.108 152.214 274.459C152.214 292.823 141.088 302 118.854 302H75.7286C74.5762 302 74 301.425 74 300.276V211.915C74 210.765 74.5762 210.191 75.7286 210.191H121.169C129.226 210.191 135.733 212.401 140.72 216.791C145.697 221.191 148.201 227.028 148.201 234.293C148.201 238.504 147.237 242.231 145.33 245.481C143.403 248.742 140.909 251.13 137.839 252.656ZM118.288 288.799C124.805 288.799 129.594 287.749 132.663 285.648C135.723 283.547 137.263 279.91 137.263 274.747C137.263 269.583 135.723 265.956 132.663 263.845C129.594 261.744 124.795 260.694 118.288 260.694H91.2563C89.7164 260.694 88.9515 261.269 88.9515 262.418V287.095C88.9515 288.244 89.7164 288.819 91.2563 288.819H118.288V288.799ZM91.2563 223.391C90.1039 223.391 89.5277 223.966 89.5277 225.116V245.769C89.5277 246.918 90.1039 247.493 91.2563 247.493H117.712C127.676 247.493 132.663 243.479 132.663 235.442C132.663 227.405 127.676 223.391 117.712 223.391H91.2563ZM231.025 252.656C232.177 253.043 233.33 253.618 234.472 254.381C237.532 255.917 239.837 258.018 241.377 260.694C244.059 264.519 245.4 269.108 245.4 274.459C245.4 292.823 234.274 302 212.04 302H168.904C167.752 302 167.176 301.425 167.176 300.276V211.915C167.176 210.765 167.752 210.191 168.904 210.191H214.345C222.014 210.191 228.432 212.401 233.618 216.791C238.794 221.191 241.387 227.028 241.387 234.293C241.387 238.504 240.423 242.231 238.516 245.481C236.578 248.742 234.085 251.13 231.025 252.656ZM183.856 223.391C182.704 223.391 182.127 223.966 182.127 225.116V245.769C182.127 246.918 182.704 247.493 183.856 247.493H210.888C220.852 247.493 225.839 243.479 225.839 235.442C225.839 227.405 220.852 223.391 210.888 223.391H183.856ZM211.464 288.799C217.981 288.799 222.769 287.749 225.839 285.648C228.899 283.547 230.439 279.91 230.439 274.747C230.439 269.583 228.899 265.956 225.839 263.845C222.769 261.744 217.971 260.694 211.464 260.694H183.856C182.704 260.694 182.127 261.269 182.127 262.418V287.095C182.127 288.244 182.704 288.819 183.856 288.819H211.464V288.799ZM327.648 211.34C328.026 210.577 328.413 210.191 328.801 210.191H343.752C344.13 210.191 344.517 210.389 344.904 210.765C345.282 211.152 345.282 211.538 344.904 211.915L297.169 301.425C296.782 301.812 296.305 302 295.729 302C295.152 302 294.666 301.812 294.288 301.425L246.553 211.915C246.165 211.538 246.066 211.152 246.265 210.765C246.453 210.389 246.93 210.191 247.705 210.191H262.08C262.845 210.191 263.422 210.577 263.809 211.34L294.288 268.721C294.288 269.108 294.666 269.296 295.441 269.296C296.205 269.296 296.782 269.108 297.169 268.721L327.648 211.34ZM344.904 287.66C344.517 288.433 343.941 288.809 343.176 288.809H328.224C327.837 288.809 327.549 288.621 327.36 288.235C327.161 287.858 327.072 287.471 327.072 287.085L374.817 197.575C375.195 197.198 375.771 197 376.546 197C377.311 197 377.887 197.198 378.275 197.575L426 287.085C426 287.471 425.901 287.858 425.712 288.235C425.513 288.621 425.225 288.809 424.848 288.809H409.896C409.121 288.809 408.545 288.433 408.168 287.66L378.255 230.279C377.867 229.516 377.291 229.129 376.526 229.129C375.751 229.129 375.175 229.516 374.797 230.279L344.904 287.66Z" fill="white"/>
</g>
</g>
<defs>
<clipPath id="clip0_1_179">
<rect width="500" height="500" fill="white"/>
</clipPath>
<clipPath id="clip1_1_179">
<rect width="500" height="500" fill="white"/>
</clipPath>
</defs>
</svg>
