<svg width="500" height="500" viewBox="0 0 500 500" fill="none" xmlns="http://www.w3.org/2000/svg">
<g clip-path="url(#clip0_1_22)">
<g clip-path="url(#clip1_1_22)">
<path d="M325.781 0C375.781 0 400.781 0 428.125 8.59375C442.641 13.9039 455.824 22.3172 466.753 33.2468C477.683 44.1764 486.096 57.359 491.406 71.875C500 99.2187 500 124.219 500 174.297V325.625C500 375.781 500 400.937 491.406 427.969C486.096 442.485 477.683 455.667 466.753 466.597C455.824 477.527 442.641 485.94 428.125 491.25C400.781 500 375.781 500 325.781 500H174.219C124.062 500 98.9062 500 71.875 491.406C57.359 486.096 44.1764 477.683 33.2468 466.753C22.3172 455.824 13.9039 442.641 8.59375 428.125C0 400.781 0 375.781 0 325.703V174.219C0 124.062 0 98.9062 8.59375 71.875C13.9039 57.359 22.3172 44.1764 33.2468 33.2468C44.1764 22.3172 57.359 13.9039 71.875 8.59375C99.2187 0 124.219 0 174.219 0H325.781Z" fill="#002958"/>
</g>
<path d="M462.871 211.031H440.773L427.984 264.986L426.19 272.39C424.957 272.727 423.723 273.062 422.489 273.288C420.245 273.736 417.89 273.96 415.423 273.96C412.618 273.96 410.376 273.513 408.693 272.727C407.121 271.942 405.888 270.821 405.215 269.249C404.541 267.791 404.317 265.996 404.429 263.978C404.541 261.959 404.989 259.714 405.55 257.473L412.281 229.428L416.654 210.808H394.108L383.901 253.881C382.666 259.04 381.993 263.977 381.769 268.689C381.544 273.399 382.33 277.438 383.901 281.139C385.472 284.729 388.274 287.533 392.089 289.664C395.903 291.795 401.4 292.803 408.356 292.803C413.18 292.803 417.441 292.357 421.032 291.57C421.144 291.57 421.368 291.459 421.48 291.459C420.471 295.945 418.451 299.533 415.31 302.34C412.056 305.144 407.345 306.602 401.063 306.602C398.37 306.602 395.903 306.49 393.659 306.155L389.285 324.439C392.202 324.776 395.455 325 399.044 325C405.775 325 411.607 324.215 416.654 322.755C421.703 321.184 425.967 318.942 429.667 315.801C433.256 312.66 436.285 308.734 438.753 304.136C441.22 299.425 443.126 293.926 444.585 287.421L459.84 223.258L462.871 211.031ZM370.328 257.133C368.982 262.742 368.533 268.463 369.094 274.072C369.655 279.792 371.898 288.429 374.03 292.804H352.717C350.138 288.431 350.251 286.299 349.69 284.953C346.885 287.197 343.857 289.104 340.492 290.562C337.127 292.021 333.424 292.806 329.162 292.806C324.226 292.806 319.964 291.908 316.487 290.226C313.009 288.545 310.093 286.189 307.849 283.271C305.604 280.354 304.036 276.988 303.024 273.062C302.015 269.136 301.566 264.986 301.566 260.5C301.566 253.656 302.801 247.263 305.157 241.207C307.624 235.149 310.989 229.876 315.253 225.39C319.516 220.903 329.948 210.92 346.998 210.92H381.211L370.328 257.133ZM354.737 229.651C344.417 229.651 342.509 229.651 338.248 231.784C335.22 233.354 332.751 235.71 330.62 238.401C328.489 241.093 326.694 244.234 325.46 247.824C324.227 251.414 323.553 255.115 323.553 258.929C323.553 263.64 324.34 267.453 325.909 270.258C327.478 273.062 330.396 274.408 334.658 274.408C336.903 274.408 339.032 273.96 340.829 273.062C342.622 272.164 344.641 270.708 346.661 268.576C346.886 266.109 347.222 263.528 347.67 260.838C348.118 258.144 348.68 255.565 349.129 253.321L354.737 229.651ZM295.509 243.449C295.509 250.74 294.275 257.357 291.919 263.415C289.564 269.472 286.199 274.632 281.935 279.008C277.672 283.383 272.625 286.748 266.68 289.217C260.735 291.682 254.341 292.917 247.386 292.917C244.021 292.917 240.656 292.58 237.178 292.019L230.449 319.053H208.349L234.037 211.142H263.538C269.149 211.142 273.97 212.04 277.896 213.72C281.934 215.403 285.188 217.759 287.88 220.677C290.46 223.594 292.366 227.07 293.599 230.996C294.949 234.811 295.509 238.962 295.509 243.449ZM241.329 274.072C243.01 274.519 245.143 274.632 247.611 274.632C251.537 274.632 255.015 273.959 258.266 272.5C261.406 271.042 264.212 269.022 266.455 266.444C268.699 263.864 270.381 260.723 271.727 257.133C272.961 253.542 273.635 249.505 273.635 245.131C273.635 240.867 272.737 237.166 270.83 234.248C268.923 231.221 265.671 229.65 260.96 229.65H252.209L241.329 274.072ZM194.89 274.072C192.084 274.072 189.843 273.623 188.159 272.838C186.588 272.053 185.354 270.932 184.682 269.36C184.008 267.902 183.784 266.108 183.897 264.088C184.008 262.069 184.457 259.825 185.017 257.582L191.747 229.539H216.874L221.474 210.918H196.234L202.066 187.362L178.509 191.062L163.59 254.104C162.356 259.262 161.683 264.2 161.459 268.909C161.234 273.621 162.019 277.661 163.59 281.361C165.16 284.951 167.965 287.754 171.779 289.886C175.593 292.018 181.09 293.026 188.044 293.026C192.868 293.026 197.13 292.578 200.72 291.793C201.057 291.679 201.618 291.567 201.953 291.456L206.553 272.274C204.982 272.835 203.412 273.173 201.953 273.395C199.713 273.847 197.356 274.072 194.89 274.072ZM138.691 211.031L119.172 292.916H141.271L160.676 211.031H138.691ZM163.032 201.608L166.397 187.362H144.299L140.934 201.608H163.032ZM89.7832 211.142C94.4942 211.142 98.6445 212.04 102.122 213.72C105.599 215.403 108.404 217.646 110.759 220.564C113.003 223.481 114.685 226.847 115.806 230.661C116.928 234.473 117.489 238.625 117.489 243.111C117.489 249.954 116.255 256.348 113.675 262.517C111.095 268.575 107.729 273.959 103.356 278.445C98.9809 282.931 93.8205 286.523 87.8758 289.102C81.9303 291.681 75.5362 293.027 68.5823 293.027C67.6842 293.027 66.1142 293.027 63.8712 292.916C61.6275 292.916 59.0481 292.691 56.2436 292.242C53.3269 291.794 50.2981 291.233 47.1571 290.449C44.0227 289.686 40.9773 288.596 38.0715 287.195L63.7582 179.285L86.7543 175.694L77.6679 213.944C79.6865 213.048 81.4817 212.374 83.5012 211.926C85.4077 211.367 87.5394 211.142 89.7832 211.142ZM70.4888 274.632C73.9662 274.632 77.2193 273.847 80.2481 272.053C83.3173 270.352 86.0231 268.065 88.2123 265.322C90.456 262.517 92.2504 259.264 93.4849 255.786C94.7185 252.196 95.3914 248.496 95.3914 244.682C95.3914 239.97 94.6063 236.27 93.0354 233.577C91.4654 230.885 88.2123 229.651 83.9498 229.651C82.6032 229.651 81.1453 229.764 78.9015 230.325C76.6577 230.773 74.7512 231.896 72.9569 233.465L63.3097 274.184C66.2263 274.632 67.1235 274.744 67.9094 274.744C68.4701 274.632 69.3673 274.632 70.4888 274.632Z" fill="white"/>
</g>
<defs>
<clipPath id="clip0_1_22">
<rect width="500" height="500" fill="white"/>
</clipPath>
<clipPath id="clip1_1_22">
<rect width="500" height="500" fill="white"/>
</clipPath>
</defs>
</svg>
