<svg width="500" height="500" viewBox="0 0 500 500" fill="none" xmlns="http://www.w3.org/2000/svg">
<g clip-path="url(#clip0_1_2)">
<g clip-path="url(#clip1_1_2)">
<path d="M325.781 0C375.781 0 400.781 0 428.125 8.59375C442.641 13.9039 455.824 22.3172 466.753 33.2468C477.683 44.1764 486.096 57.359 491.406 71.875C500 99.2187 500 124.219 500 174.297V325.625C500 375.781 500 400.937 491.406 427.969C486.096 442.485 477.683 455.667 466.753 466.597C455.824 477.527 442.641 485.94 428.125 491.25C400.781 500 375.781 500 325.781 500H174.219C124.062 500 98.9062 500 71.875 491.406C57.359 486.096 44.1764 477.683 33.2468 466.753C22.3172 455.824 13.9039 442.641 8.59375 428.125C0 400.781 0 375.781 0 325.703V174.219C0 124.062 0 98.9062 8.59375 71.875C13.9039 57.359 22.3172 44.1764 33.2468 33.2468C44.1764 22.3172 57.359 13.9039 71.875 8.59375C99.2187 0 124.219 0 174.219 0H325.781Z" fill="#00D632"/>
<path d="M331.797 185.937C335.703 189.844 342.188 189.844 345.859 185.937L365.391 165.625C369.531 161.719 369.297 154.687 364.922 150.469C349.574 137.101 331.731 126.905 312.422 120.469L318.594 90.7812C319.922 84.2969 315.078 78.2031 308.594 78.2031H270.781C268.418 78.2285 266.135 79.0649 264.314 80.5724C262.494 82.08 261.247 84.1671 260.781 86.4844L255.313 112.891C205 115.469 162.344 141.016 162.344 193.359C162.344 238.672 197.578 258.125 234.844 271.484C270.078 284.922 288.75 289.922 288.75 308.828C288.75 328.281 270.156 339.687 242.656 339.687C217.656 339.687 191.406 331.328 171.094 310.937C170.15 309.993 169.03 309.243 167.797 308.732C166.563 308.22 165.241 307.957 163.906 307.957C162.571 307.957 161.249 308.22 160.016 308.732C158.782 309.243 157.662 309.993 156.719 310.937L135.625 332.031C133.64 334.023 132.526 336.72 132.526 339.531C132.526 342.343 133.64 345.04 135.625 347.031C152.031 363.203 172.813 374.922 196.5 381.406L190.719 409.297C189.391 415.781 194.156 421.797 200.641 421.875L238.531 422.187C240.922 422.198 243.241 421.378 245.094 419.867C246.946 418.357 248.217 416.25 248.688 413.906L254.156 387.422C314.688 383.359 351.563 350 351.563 301.328C351.563 256.484 314.844 237.578 270.312 222.187C244.844 212.734 222.813 206.25 222.813 186.797C222.813 167.891 243.359 160.391 263.984 160.391C290.234 160.391 315.469 171.25 331.953 186.094L331.797 185.937Z" fill="white"/>
</g>
</g>
<defs>
<clipPath id="clip0_1_2">
<rect width="500" height="500" fill="white"/>
</clipPath>
<clipPath id="clip1_1_2">
<rect width="500" height="500" fill="white"/>
</clipPath>
</defs>
</svg>
