<svg width="500" height="500" viewBox="0 0 500 500" fill="none" xmlns="http://www.w3.org/2000/svg">
<g clip-path="url(#clip0_1_153)">
<g clip-path="url(#clip1_1_153)">
<path d="M325.781 0C375.781 0 400.781 0 428.125 8.59375C442.641 13.9039 455.824 22.3172 466.753 33.2468C477.683 44.1764 486.096 57.359 491.406 71.875C500 99.2187 500 124.219 500 174.297V325.625C500 375.781 500 400.937 491.406 427.969C486.096 442.485 477.683 455.667 466.753 466.597C455.824 477.527 442.641 485.94 428.125 491.25C400.781 500 375.781 500 325.781 500H174.219C124.062 500 98.9062 500 71.875 491.406C57.359 486.096 44.1764 477.683 33.2468 466.753C22.3172 455.824 13.9039 442.641 8.59375 428.125C0 400.781 0 375.781 0 325.703V174.219C0 124.062 0 98.9062 8.59375 71.875C13.9039 57.359 22.3172 44.1764 33.2468 33.2468C44.1764 22.3172 57.359 13.9039 71.875 8.59375C99.2187 0 124.219 0 174.219 0H325.781Z" fill="#0052FF"/>
<path d="M252.218 172.569C283.315 172.569 307.984 191.74 317.352 220.248H380C368.651 159.296 318.338 118 252.719 118C178.201 118 120 174.538 120 250.253C120 325.967 176.746 382 252.719 382C316.867 382 368.181 340.704 379.541 279.246H317.347C308.464 307.76 283.815 327.431 252.698 327.431C209.762 327.431 179.671 294.488 179.671 250.253C179.692 205.512 209.298 172.569 252.218 172.569Z" fill="white"/>
</g>
</g>
<defs>
<clipPath id="clip0_1_153">
<rect width="500" height="500" fill="white"/>
</clipPath>
<clipPath id="clip1_1_153">
<rect width="500" height="500" fill="white"/>
</clipPath>
</defs>
</svg>
