<svg width="500" height="500" viewBox="0 0 500 500" fill="none" xmlns="http://www.w3.org/2000/svg">
<g clip-path="url(#clip0_1_82)">
<path d="M325.781 0C375.781 0 400.781 0 428.125 8.59375C442.641 13.9039 455.824 22.3172 466.753 33.2468C477.683 44.1764 486.096 57.359 491.406 71.875C500 99.2187 500 124.219 500 174.297V325.625C500 375.781 500 400.937 491.406 427.969C486.096 442.485 477.683 455.667 466.753 466.597C455.824 477.527 442.641 485.94 428.125 491.25C400.781 500 375.781 500 325.781 500H174.219C124.062 500 98.9062 500 71.875 491.406C57.359 486.096 44.1764 477.683 33.2468 466.753C22.3172 455.824 13.9039 442.641 8.59375 428.125C0 400.781 0 375.781 0 325.703V174.219C0 124.062 0 98.9062 8.59375 71.875C13.9039 57.359 22.3172 44.1764 33.2468 33.2468C44.1764 22.3172 57.359 13.9039 71.875 8.59375C99.2187 0 124.219 0 174.219 0H325.781Z" fill="#03316C"/>
<path fill-rule="evenodd" clip-rule="evenodd" d="M299.374 382.307H327.345L397.47 261.069L345.861 222.475L300.556 251.713V303.56L265.887 336.306V351.9L299.374 382.307ZM216.642 251.713L211.521 300.442H249.341H287.949L283.222 251.713L299.768 208.051H199.702L216.642 251.713ZM200.884 382.696L234.371 351.9V336.306L199.702 303.56V251.713L154.003 222.865L102 261.069L172.519 382.696H200.884ZM326.951 118H172.125L154.003 195.967H345.467L326.951 118Z" fill="white"/>
</g>
<defs>
<clipPath id="clip0_1_82">
<rect width="500" height="500" fill="white"/>
</clipPath>
</defs>
</svg>
