<svg width="500" height="500" viewBox="0 0 500 500" fill="none" xmlns="http://www.w3.org/2000/svg">
<g clip-path="url(#clip0_2_2)">
<g clip-path="url(#clip1_2_2)">
<path d="M325.781 0C375.781 0 400.781 0 428.125 8.59375C442.641 13.9039 455.824 22.3172 466.753 33.2468C477.683 44.1764 486.096 57.359 491.406 71.875C500 99.2187 500 124.219 500 174.297V325.625C500 375.781 500 400.937 491.406 427.969C486.096 442.485 477.683 455.667 466.753 466.597C455.824 477.527 442.641 485.94 428.125 491.25C400.781 500 375.781 500 325.781 500H174.219C124.062 500 98.9062 500 71.875 491.406C57.359 486.096 44.1764 477.683 33.2468 466.753C22.3172 455.824 13.9039 442.641 8.59375 428.125C0 400.781 0 375.781 0 325.703V174.219C0 124.062 0 98.9062 8.59375 71.875C13.9039 57.359 22.3172 44.1764 33.2468 33.2468C44.1764 22.3172 57.359 13.9039 71.875 8.59375C99.2187 0 124.219 0 174.219 0H325.781Z" fill="white"/>
</g>
<path d="M374.953 159.959C352.884 155.496 317.3 149.461 307.358 170.221C276.975 222.81 259.532 277.85 246.402 301.465C247.781 302.261 308.298 337.347 312.579 339.423C326.184 346.021 348.898 343.052 358.575 325.612C385.418 277.233 378.595 289.828 407.116 240.464C425.547 208.563 402.503 165.528 374.953 159.959Z" fill="#EA4335"/>
<path d="M184.012 373.454C169.193 356.513 158.323 322.619 171.344 303.638C209.383 237.796 239.834 197.939 263.783 157.987C276.482 165.314 327.365 194.156 330.753 197.128C342.121 207.093 351.539 226.135 341.263 243.228C312.757 290.649 301.061 312.109 272.087 362.259C253.652 394.168 202.525 394.618 184.012 373.454Z" fill="#FDBD00"/>
<path d="M320.453 126.393C290.808 109.083 275.571 111.351 259.629 113.906C245.135 117.527 225.538 128.052 217.277 141.574C196.437 175.684 176.698 209.437 151.126 255.176C143.25 269.264 149.097 286.572 156.365 293.44C161.291 298.097 197.534 318.079 204.221 320.952C213.68 325.016 227.85 322.189 236.397 313.397C238.758 310.969 292.826 218.166 308.052 190.794C314.479 179.243 320.268 172.851 329.879 166.69C348.446 156.953 362.943 155.698 385.147 163.811C385.147 163.811 336.821 135.82 320.453 126.393Z" fill="#2DA94F"/>
<path d="M129.712 344.187C99.8865 327.187 94.2336 312.867 88.4765 297.791C84.3682 283.44 83.6912 261.217 91.2793 247.305C110.422 212.217 110.284 212.039 137.139 167.038C145.41 153.179 163.333 149.585 172.92 152.44C179.418 154.374 214.856 175.748 220.69 180.099C228.943 186.254 233.577 199.93 230.232 211.724C229.307 214.98 195.43 274.392 179.324 301.256C172.525 312.593 169.881 320.798 169.347 332.196C170.193 353.132 176.351 366.306 194.486 381.466C194.486 381.466 146.064 353.638 129.712 344.187Z" fill="#297AEC"/>
</g>
<defs>
<clipPath id="clip0_2_2">
<rect width="500" height="500" fill="white"/>
</clipPath>
<clipPath id="clip1_2_2">
<rect width="500" height="500" fill="white"/>
</clipPath>
</defs>
</svg>
