<svg width="500" height="500" viewBox="0 0 500 500" fill="none" xmlns="http://www.w3.org/2000/svg">
<g clip-path="url(#clip0_1_194)">
<g clip-path="url(#clip1_1_194)">
<path d="M325.781 0C375.781 0 400.781 0 428.125 8.59375C442.641 13.9039 455.824 22.3172 466.753 33.2468C477.683 44.1764 486.096 57.359 491.406 71.875C500 99.2187 500 124.219 500 174.297V325.625C500 375.781 500 400.937 491.406 427.969C486.096 442.485 477.683 455.667 466.753 466.597C455.824 477.527 442.641 485.94 428.125 491.25C400.781 500 375.781 500 325.781 500H174.219C124.062 500 98.9062 500 71.875 491.406C57.359 486.096 44.1764 477.683 33.2468 466.753C22.3172 455.824 13.9039 442.641 8.59375 428.125C0 400.781 0 375.781 0 325.703V174.219C0 124.062 0 98.9062 8.59375 71.875C13.9039 57.359 22.3172 44.1764 33.2468 33.2468C44.1764 22.3172 57.359 13.9039 71.875 8.59375C99.2187 0 124.219 0 174.219 0H325.781Z" fill="white"/>
<path d="M452.398 242.243C452.398 169.392 361.877 110 250.205 110C138.544 110 48.0228 169.392 48.0228 242.243C48.0228 244.132 48 249.331 48 249.991C48 327.28 127.121 389.88 250.182 389.88C374.005 389.88 452.398 327.303 452.398 250.003C452.398 247.306 452.398 245.747 452.398 242.243Z" fill="#253E8B"/>
<path d="M444.661 242.186C444.661 310.873 357.622 366.556 250.25 366.556C142.879 366.556 55.8394 310.873 55.8394 242.186C55.8394 173.487 142.879 117.805 250.25 117.805C357.622 117.805 444.661 173.487 444.661 242.186Z" fill="#00AEEF"/>
<path d="M185.693 202.944C185.59 203.138 183.656 205.151 184.908 206.756C187.98 210.681 197.457 212.922 207.037 210.772C212.738 209.498 220.054 203.684 227.142 198.052C234.81 191.953 242.434 185.855 250.091 183.42C258.192 180.837 263.391 181.952 266.827 182.988C270.593 184.103 275.019 186.583 282.085 191.885C295.385 201.886 348.872 248.58 358.111 256.647C365.563 253.279 398.638 239.046 443.591 229.136C439.689 205.174 425.103 183.238 402.996 165.284C372.185 178.232 334.525 184.99 297.706 167.002C297.513 166.922 277.579 157.49 257.93 157.957C228.701 158.628 216.049 171.28 202.657 184.66L185.693 202.944Z" fill="white"/>
<path d="M355.938 261.722C355.312 261.164 293.042 206.676 278.945 196.084C270.776 189.962 266.236 188.392 261.469 187.789C258.988 187.459 255.552 187.926 253.163 188.586C246.598 190.372 238.019 196.106 230.396 202.148C222.512 208.428 215.071 214.345 208.176 215.892C199.358 217.872 188.595 215.528 183.679 212.217C181.688 210.875 180.289 209.327 179.618 207.757C177.797 203.547 181.142 200.18 181.7 199.622L198.88 181.031C200.883 179.04 202.885 177.049 204.944 175.08C199.403 175.808 194.272 177.219 189.289 178.607C183.065 180.36 177.08 182.021 171.016 182.021C168.49 182.021 154.939 179.802 152.368 179.097C136.815 174.841 123.161 170.7 102.784 161.177C78.356 179.37 62.0176 202.102 57.2959 227.145C60.8116 228.078 66.4663 229.762 68.8443 230.285C124.117 242.573 141.332 255.236 144.461 257.887C147.84 254.121 152.721 251.743 158.171 251.743C164.28 251.755 169.799 254.815 173.144 259.571C176.307 257.068 180.676 254.94 186.319 254.94C188.879 254.94 191.541 255.418 194.227 256.329C200.462 258.468 203.681 262.62 205.354 266.375C207.447 265.431 210.019 264.737 213.045 264.748C216.026 264.748 219.121 265.419 222.239 266.773C232.433 271.142 234.014 281.155 233.093 288.698C233.821 288.618 234.549 288.584 235.289 288.584C247.372 288.596 257.202 298.415 257.202 310.509C257.202 314.252 256.246 317.768 254.574 320.851C257.862 322.706 266.247 326.882 273.609 325.949C279.491 325.209 281.721 323.195 282.518 322.069C283.064 321.295 283.644 320.385 283.109 319.736L267.51 302.408C267.51 302.408 264.939 299.973 265.792 299.04C266.668 298.073 268.261 299.461 269.376 300.394C277.318 307.028 287.012 317.029 287.012 317.029C287.171 317.142 287.82 318.405 291.404 319.054C294.487 319.6 299.948 319.281 303.726 316.175C304.681 315.39 305.637 314.412 306.434 313.399C306.377 313.445 306.32 313.524 306.263 313.547C310.245 308.438 305.819 303.273 305.819 303.273L287.603 282.827C287.603 282.827 285.009 280.415 285.885 279.448C286.682 278.606 288.354 279.88 289.504 280.825C295.261 285.649 303.407 293.818 311.224 301.464C312.737 302.59 319.609 306.834 328.688 300.861C334.207 297.243 335.31 292.805 335.151 289.449C334.775 285.012 331.305 281.849 331.305 281.849L306.434 256.841C306.434 256.841 303.805 254.599 304.738 253.461C305.501 252.506 307.207 253.882 308.322 254.815C316.241 261.448 337.699 281.121 337.699 281.121C338.007 281.337 345.414 286.616 354.573 280.779C357.849 278.686 359.943 275.534 360.125 271.859C360.432 265.499 355.938 261.722 355.938 261.722Z" fill="white"/>
<path d="M235.289 293.431C231.431 293.385 227.21 295.672 226.664 295.342C226.357 295.138 226.892 293.59 227.256 292.691C227.631 291.804 232.706 276.524 220.327 271.21C210.849 267.148 205.058 271.722 203.067 273.793C202.543 274.339 202.316 274.294 202.248 273.6C202.066 270.846 200.825 263.405 192.656 260.902C180.971 257.33 173.451 265.487 171.539 268.434C170.686 261.767 165.065 256.601 158.159 256.59C150.661 256.59 144.585 262.654 144.585 270.152C144.574 277.639 150.65 283.714 158.148 283.714C161.789 283.726 165.088 282.269 167.523 279.937C167.603 280.005 167.637 280.13 167.591 280.392C167.022 283.737 165.976 295.934 178.741 300.906C183.861 302.886 188.219 301.407 191.826 298.881C192.895 298.119 193.077 298.437 192.918 299.45C192.463 302.59 193.043 309.303 202.464 313.114C209.62 316.027 213.864 313.046 216.64 310.486C217.847 309.383 218.176 309.553 218.233 311.26C218.575 320.339 226.118 327.541 235.266 327.553C244.698 327.553 252.344 319.93 252.344 310.509C252.355 301.077 244.721 293.533 235.289 293.431Z" fill="white"/>
<path d="M235.289 326.336C226.744 326.324 219.792 319.68 219.474 311.226C219.462 310.498 219.383 308.564 217.756 308.564C217.073 308.564 216.493 308.973 215.822 309.576C213.944 311.317 211.555 313.092 208.062 313.092C206.469 313.092 204.751 312.717 202.942 311.977C193.908 308.325 193.783 302.124 194.147 299.632C194.249 298.961 194.284 298.267 193.828 297.732L193.271 297.243H192.713C192.258 297.243 191.781 297.425 191.143 297.88C188.526 299.712 186.023 300.599 183.475 300.599C182.075 300.599 180.642 300.315 179.197 299.757C167.318 295.138 168.263 283.92 168.843 280.552C168.923 279.858 168.752 279.334 168.32 278.982L167.478 278.288L166.693 279.039C164.383 281.269 161.345 282.497 158.171 282.497C151.356 282.486 145.815 276.956 145.826 270.153C145.826 263.337 151.378 257.819 158.182 257.819C164.337 257.819 169.571 262.45 170.356 268.594L170.777 271.905L172.598 269.106C172.802 268.776 177.786 261.232 186.956 261.244C188.697 261.244 190.495 261.517 192.315 262.086C199.62 264.316 200.86 270.938 201.053 273.702C201.178 275.307 202.328 275.386 202.555 275.386C203.181 275.386 203.647 274.988 203.977 274.635C205.354 273.202 208.358 270.813 213.057 270.813C215.207 270.813 217.506 271.324 219.861 272.337C231.477 277.321 226.209 292.077 226.153 292.237C225.151 294.683 225.106 295.764 226.05 296.39L226.505 296.606H226.847C227.37 296.606 228.019 296.378 229.088 296.014C230.67 295.468 233.059 294.649 235.289 294.649H235.3C244.038 294.751 251.149 301.862 251.149 310.509C251.138 319.236 244.027 326.336 235.289 326.336ZM358.35 255.202C339.167 238.466 294.84 199.929 282.836 190.907C275.976 185.753 271.299 183.022 267.192 181.805C265.349 181.247 262.789 180.61 259.501 180.61C256.451 180.61 253.175 181.156 249.75 182.248C241.99 184.706 234.265 190.85 226.778 196.789L226.391 197.096C219.428 202.637 212.238 208.36 206.788 209.578C204.41 210.112 201.964 210.386 199.529 210.386C193.419 210.386 187.946 208.622 185.887 206.005C185.546 205.561 185.762 204.867 186.558 203.855L186.672 203.718L203.545 185.537C216.755 172.316 229.236 159.846 257.976 159.186C258.442 159.174 258.932 159.163 259.41 159.163C277.295 159.174 295.17 167.184 297.172 168.106C313.943 176.287 331.26 180.439 348.656 180.451C366.792 180.462 385.509 175.968 405.181 166.911C402.985 165.068 400.698 163.27 398.343 161.507C381.06 168.993 364.596 172.782 348.713 172.782C332.477 172.759 316.275 168.868 300.529 161.188C299.698 160.79 279.958 151.483 259.41 151.472C258.875 151.472 258.329 151.483 257.794 151.494C233.662 152.052 220.065 160.631 210.918 168.14C202.032 168.356 194.352 170.495 187.537 172.407C181.438 174.091 176.182 175.558 171.05 175.558C168.934 175.558 165.134 175.365 164.793 175.354C158.899 175.172 129.169 167.89 105.526 158.936C103.114 160.642 100.793 162.406 98.5288 164.203C123.23 174.33 153.29 182.157 162.779 182.772C165.418 182.954 168.229 183.25 171.039 183.25C177.319 183.25 183.577 181.498 189.642 179.802C193.214 178.79 197.162 177.697 201.326 176.901C200.211 177.993 199.108 179.097 197.993 180.2L180.858 198.746C179.504 200.111 176.569 203.752 178.503 208.224C179.276 210.033 180.835 211.762 183.02 213.23C187.093 215.983 194.409 217.838 201.213 217.849C203.784 217.849 206.23 217.588 208.472 217.087C215.651 215.471 223.194 209.464 231.182 203.115C237.542 198.063 246.576 191.646 253.505 189.758C255.439 189.234 257.817 188.904 259.717 188.904C260.286 188.916 260.832 188.927 261.332 189.007C265.906 189.576 270.321 191.134 278.217 197.062C292.291 207.632 354.561 262.109 355.176 262.655C355.21 262.689 359.181 266.102 358.908 271.802C358.76 274.977 356.996 277.798 353.936 279.755C351.273 281.439 348.531 282.293 345.766 282.293C341.602 282.293 338.735 280.336 338.542 280.21C338.314 280.017 316.981 260.459 309.13 253.882C307.879 252.847 306.661 251.914 305.432 251.914C304.784 251.914 304.204 252.187 303.805 252.688C302.577 254.212 303.953 256.317 305.592 257.705L330.509 282.748C330.543 282.782 333.615 285.66 333.945 289.506C334.15 293.659 332.159 297.129 328.029 299.837C325.093 301.771 322.112 302.761 319.199 302.761C315.377 302.761 312.68 301.009 312.088 300.599L308.516 297.072C301.985 290.644 295.238 283.999 290.3 279.881C289.094 278.879 287.808 277.958 286.58 277.958C285.977 277.958 285.43 278.174 285.009 278.618C284.452 279.243 284.054 280.37 285.465 282.236C286.033 282.998 286.716 283.635 286.716 283.635L304.909 304.07C305.057 304.252 308.652 308.53 305.319 312.785L304.67 313.593C304.135 314.196 303.544 314.753 302.986 315.231C299.88 317.78 295.739 318.053 294.1 318.053C293.224 318.053 292.371 317.973 291.643 317.837C289.845 317.518 288.639 317.017 288.047 316.323L287.831 316.096C286.841 315.072 277.671 305.708 270.082 299.382C269.092 298.54 267.84 297.482 266.555 297.482C265.918 297.482 265.349 297.732 264.905 298.221C263.403 299.86 265.656 302.317 266.612 303.228L282.131 320.328C282.108 320.476 281.915 320.829 281.539 321.375C280.982 322.137 279.104 324.026 273.472 324.731C272.801 324.822 272.107 324.857 271.413 324.857C265.61 324.857 259.421 322.035 256.235 320.351C257.692 317.279 258.442 313.9 258.442 310.521C258.442 297.744 248.077 287.356 235.312 287.356C235.039 287.356 234.754 287.356 234.481 287.367C234.891 281.542 234.071 270.505 222.739 265.647C219.474 264.236 216.22 263.519 213.068 263.519C210.588 263.519 208.21 263.94 205.98 264.794C203.625 260.231 199.734 256.909 194.648 255.18C191.837 254.212 189.038 253.712 186.342 253.712C181.62 253.712 177.285 255.1 173.406 257.853C169.696 253.245 164.087 250.503 158.182 250.503C153.017 250.503 148.045 252.574 144.37 256.226C139.534 252.54 120.385 240.366 69.1175 228.726C66.6371 228.169 60.9483 226.53 57.4553 225.518C56.8751 228.283 56.4313 231.093 56.1355 233.926C56.1355 233.926 65.5904 236.19 67.4563 236.611C119.828 248.239 137.122 260.334 140.057 262.621C139.056 264.998 138.544 267.558 138.544 270.153C138.533 280.961 147.339 289.779 158.159 289.791C159.377 289.791 160.583 289.677 161.755 289.461C163.393 297.425 168.604 303.467 176.557 306.561C178.89 307.449 181.245 307.915 183.554 307.915C185.045 307.915 186.558 307.733 188.026 307.358C189.494 311.09 192.805 315.743 200.2 318.747C202.794 319.794 205.388 320.34 207.903 320.34C209.962 320.34 211.976 319.976 213.899 319.27C217.437 327.906 225.879 333.617 235.277 333.617C241.512 333.629 247.497 331.092 251.866 326.597C255.598 328.68 263.483 332.434 271.447 332.446C272.483 332.446 273.45 332.366 274.417 332.252C282.336 331.262 286.011 328.156 287.706 325.755C288.013 325.334 288.286 324.891 288.525 324.424C290.391 324.97 292.439 325.403 294.794 325.414C299.118 325.414 303.271 323.935 307.458 320.874C311.576 317.916 314.5 313.65 314.921 310.02C314.933 309.963 314.944 309.918 314.956 309.861C316.332 310.145 317.766 310.293 319.188 310.293C323.637 310.293 328.006 308.905 332.193 306.163C340.26 300.884 341.659 293.978 341.534 289.449C342.933 289.745 344.378 289.893 345.812 289.893C349.988 289.893 354.095 288.641 357.997 286.15C363.004 282.953 366.007 278.06 366.462 272.36C366.781 268.491 365.825 264.589 363.777 261.232C377.294 255.407 408.184 244.143 444.559 235.94C444.343 233.118 443.933 230.331 443.433 227.554C399.424 237.328 366.576 251.539 358.35 255.202Z" fill="#253E8B"/>
</g>
</g>
<defs>
<clipPath id="clip0_1_194">
<rect width="500" height="500" fill="white"/>
</clipPath>
<clipPath id="clip1_1_194">
<rect width="500" height="500" fill="white"/>
</clipPath>
</defs>
</svg>
