<svg width="500" height="500" viewBox="0 0 500 500" fill="none" xmlns="http://www.w3.org/2000/svg">
<g clip-path="url(#clip0_1_127)">
<g clip-path="url(#clip1_1_127)">
<path d="M325.781 0C375.781 0 400.781 0 428.125 8.59375C442.641 13.9039 455.824 22.3172 466.753 33.2468C477.683 44.1764 486.096 57.359 491.406 71.875C500 99.2187 500 124.219 500 174.297V325.625C500 375.781 500 400.937 491.406 427.969C486.096 442.485 477.683 455.667 466.753 466.597C455.824 477.527 442.641 485.94 428.125 491.25C400.781 500 375.781 500 325.781 500H174.219C124.062 500 98.9062 500 71.875 491.406C57.359 486.096 44.1764 477.683 33.2468 466.753C22.3172 455.824 13.9039 442.641 8.59375 428.125C0 400.781 0 375.781 0 325.703V174.219C0 124.062 0 98.9062 8.59375 71.875C13.9039 57.359 22.3172 44.1764 33.2468 33.2468C44.1764 22.3172 57.359 13.9039 71.875 8.59375C99.2187 0 124.219 0 174.219 0H325.781Z" fill="#113984"/>
<path fill-rule="evenodd" clip-rule="evenodd" d="M232.076 189.962H313.25C356.832 189.962 373.26 211.994 370.651 244.464C366.496 298 334.123 327.57 291.217 327.57H269.571C263.676 327.57 259.714 331.436 258.168 342.065L248.987 403.429C248.408 407.391 246.282 409.71 243.189 410H192.166C187.334 410 185.691 406.328 186.947 398.404L217.967 201.558C219.224 193.73 223.476 189.962 232.076 189.962Z" fill="#4DA2CF"/>
<path fill-rule="evenodd" clip-rule="evenodd" d="M181.342 122.22H262.613C285.515 122.22 312.67 122.993 330.741 138.938C342.82 149.665 349.198 166.672 347.748 185.033C342.723 247.073 305.712 281.765 255.945 281.765H215.841C208.98 281.765 204.535 286.307 202.602 298.483L191.393 369.703C190.619 374.342 188.687 377.047 185.111 377.337H135.054C129.546 377.337 127.517 373.182 128.966 363.905L165.011 135.749C166.461 126.569 171.486 122.22 181.342 122.22Z" fill="#FEFFFF"/>
<path fill-rule="evenodd" clip-rule="evenodd" d="M203.762 291.332L217.967 201.558C219.223 193.73 223.475 189.865 232.076 189.865H313.25C326.682 189.865 337.505 191.991 346.009 195.856C337.892 251.035 302.137 281.765 255.365 281.765H215.455C210.043 281.765 206.178 284.471 203.762 291.332Z" fill="#87B6DC"/>
</g>
</g>
<defs>
<clipPath id="clip0_1_127">
<rect width="500" height="500" fill="white"/>
</clipPath>
<clipPath id="clip1_1_127">
<rect width="500" height="500" fill="white"/>
</clipPath>
</defs>
</svg>
