<svg width="500" height="500" viewBox="0 0 500 500" fill="none" xmlns="http://www.w3.org/2000/svg">
<g clip-path="url(#clip0_1_58)">
<g clip-path="url(#clip1_1_58)">
<path d="M325.781 0C375.781 0 400.781 0 428.125 8.59375C442.641 13.9039 455.824 22.3172 466.753 33.2468C477.683 44.1764 486.096 57.359 491.406 71.875C500 99.2187 500 124.219 500 174.297V325.625C500 375.781 500 400.937 491.406 427.969C486.096 442.485 477.683 455.667 466.753 466.597C455.824 477.527 442.641 485.94 428.125 491.25C400.781 500 375.781 500 325.781 500H174.219C124.062 500 98.9062 500 71.875 491.406C57.359 486.096 44.1764 477.683 33.2468 466.753C22.3172 455.824 13.9039 442.641 8.59375 428.125C0 400.781 0 375.781 0 325.703V174.219C0 124.062 0 98.9062 8.59375 71.875C13.9039 57.359 22.3172 44.1764 33.2468 33.2468C44.1764 22.3172 57.359 13.9039 71.875 8.59375C99.2187 0 124.219 0 174.219 0H325.781Z" fill="white"/>
</g>
<path d="M448.176 223.87C444.556 213.519 434.689 206.086 423.1 206.086H422.858C415.324 206.086 408.534 209.222 403.702 214.255C398.86 209.222 392.071 206.086 384.545 206.086H384.303C377.681 206.086 371.627 208.511 366.978 212.524V210.484C366.819 208.452 365.147 206.856 363.081 206.856H345.305C343.131 206.856 341.375 208.611 341.375 210.793V307.317C341.375 309.499 343.131 311.255 345.305 311.255H363.081C365.063 311.255 366.694 309.775 366.953 307.861L366.944 238.568C366.944 238.325 366.953 238.099 366.978 237.874C367.262 234.78 369.528 232.239 373.107 231.921H373.767H375.632H376.385C377.881 232.055 379.144 232.581 380.139 233.376C381.686 234.605 382.547 236.494 382.547 238.568L382.614 307.518C382.614 309.7 384.378 311.464 386.544 311.464H404.32C406.419 311.464 408.125 309.792 408.225 307.71L408.217 238.476C408.208 236.201 409.262 234.145 411.11 232.924C412.021 232.339 413.117 231.946 414.379 231.829H415.04H416.904H417.657C421.503 232.163 423.828 235.081 423.819 238.476L423.886 307.334C423.886 309.516 425.65 311.272 427.816 311.272H445.593C447.758 311.272 449.523 309.516 449.523 307.334V233.275C449.523 228.225 448.954 226.077 448.176 223.87Z" fill="#54C1F0"/>
<path d="M327.833 207.107H317.666V190.637C317.666 190.62 317.666 190.603 317.666 190.587C317.666 188.605 316.06 187 314.079 187C313.844 187 313.619 187.033 313.401 187.075C302.13 190.169 304.388 205.778 283.81 207.107H283.35H281.812C281.511 207.107 281.226 207.149 280.95 207.208C279.194 207.601 277.873 209.164 277.873 211.037V228.812C277.873 230.977 279.638 232.741 281.812 232.741H292.539L292.523 308.112C292.523 310.261 294.262 312 296.411 312H313.987C316.127 312 317.866 310.261 317.866 308.112L317.875 232.741H327.833C329.999 232.741 331.763 230.977 331.763 228.812V211.037C331.763 208.871 329.999 207.107 327.833 207.107Z" fill="#54C1F0"/>
<path d="M263.875 207.107H246.098C243.933 207.107 242.177 208.871 242.177 211.037V247.79C242.135 250.064 240.296 251.887 238.013 251.887H230.571C228.263 251.887 226.399 250.031 226.399 247.723L226.332 211.037C226.332 208.871 224.568 207.107 222.402 207.107H204.625C202.451 207.107 200.696 208.871 200.696 211.037V251.318C200.696 266.618 211.607 277.529 226.917 277.529C226.917 277.529 238.406 277.529 238.757 277.596C240.831 277.83 242.444 279.569 242.444 281.709C242.444 283.825 240.864 285.555 238.816 285.814C238.715 285.831 238.623 285.856 238.515 285.873L212.519 285.965C210.345 285.965 208.589 287.729 208.589 289.894V307.661C208.589 309.835 210.345 311.59 212.519 311.59H241.583C256.902 311.59 267.805 300.688 267.805 285.38V211.037C267.805 208.871 266.049 207.107 263.875 207.107Z" fill="#233266"/>
<path d="M91.8107 239.676V247.97V250.645C91.8107 252.944 89.9461 254.817 87.6467 254.817L76.367 254.826V232.845H87.6467C89.9461 232.845 91.8107 234.702 91.8107 237.009V239.676ZM93.3743 207.103H54.5185C52.3863 207.103 50.6638 208.834 50.6638 210.957V228.373C50.6638 228.406 50.6722 228.439 50.6722 228.473C50.6722 228.556 50.6638 228.64 50.6638 228.715V284.573V307.539C50.6638 309.68 52.2692 311.427 54.2593 311.477H54.5937H72.3702C74.5359 311.477 76.3002 309.722 76.3002 307.548L76.367 280.535H93.3743C107.606 280.535 117.522 270.661 117.522 256.372V231.299C117.522 217.01 107.606 207.103 93.3743 207.103Z" fill="#233266"/>
<path d="M165.568 281.406V284.181C165.568 284.407 165.535 284.624 165.501 284.834C165.46 285.034 165.401 285.226 165.334 285.41C164.782 286.965 163.227 288.094 161.379 288.094H153.979C151.672 288.094 149.79 286.338 149.79 284.181V280.829C149.79 280.787 149.782 280.745 149.782 280.703L149.79 271.783V271.766V270.779V268.99L149.799 268.965C149.807 266.816 151.672 265.077 153.979 265.077H161.379C163.695 265.077 165.568 266.825 165.568 268.99V281.406ZM162.742 207.205H138.076C135.893 207.205 134.129 208.86 134.129 210.892V217.806C134.129 217.848 134.137 217.898 134.137 217.94C134.137 217.99 134.129 218.04 134.129 218.09V227.563C134.129 229.712 136.002 231.468 138.31 231.468H161.797C163.654 231.76 165.125 233.115 165.334 235.23V237.521C165.125 239.536 163.67 241.007 161.898 241.174H150.267C134.798 241.174 123.778 251.449 123.778 265.88V286.021V286.547C123.778 300.894 133.251 311.103 148.611 311.103H180.845C186.631 311.103 191.322 306.722 191.322 301.329V233.884C191.322 217.53 182.893 207.205 162.742 207.205Z" fill="#233266"/>
</g>
<defs>
<clipPath id="clip0_1_58">
<rect width="500" height="500" fill="white"/>
</clipPath>
<clipPath id="clip1_1_58">
<rect width="500" height="500" fill="white"/>
</clipPath>
</defs>
</svg>
