<svg width="500" height="500" viewBox="0 0 500 500" fill="none" xmlns="http://www.w3.org/2000/svg">
<g clip-path="url(#clip0_1_63)">
<g clip-path="url(#clip1_1_63)">
<path d="M325.781 0C375.781 0 400.781 0 428.125 8.59375C442.641 13.9039 455.824 22.3172 466.753 33.2468C477.683 44.1764 486.096 57.359 491.406 71.875C500 99.2187 500 124.219 500 174.297V325.625C500 375.781 500 400.937 491.406 427.969C486.096 442.485 477.683 455.667 466.753 466.597C455.824 477.527 442.641 485.94 428.125 491.25C400.781 500 375.781 500 325.781 500H174.219C124.062 500 98.9062 500 71.875 491.406C57.359 486.096 44.1764 477.683 33.2468 466.753C22.3172 455.824 13.9039 442.641 8.59375 428.125C0 400.781 0 375.781 0 325.703V174.219C0 124.062 0 98.9062 8.59375 71.875C13.9039 57.359 22.3172 44.1764 33.2468 33.2468C44.1764 22.3172 57.359 13.9039 71.875 8.59375C99.2187 0 124.219 0 174.219 0H325.781Z" fill="#5F259F"/>
</g>
<path d="M353.991 199.67C353.871 195.493 352.144 191.524 349.167 188.586C346.191 185.648 342.194 183.969 338.009 183.897H308.482L240.863 106.391C237.7 102.844 233.591 100.268 229.017 98.9633C224.442 97.6587 219.59 97.6796 215.027 99.0235L191.591 106.391C190.759 106.673 190.007 107.152 189.4 107.787C188.793 108.422 188.349 109.194 188.106 110.038C187.863 110.881 187.828 111.771 188.004 112.631C188.181 113.491 188.563 114.295 189.119 114.975L262.972 184.934H151.099C150.286 184.898 149.475 185.032 148.718 185.327C147.96 185.623 147.272 186.072 146.699 186.648C146.125 187.224 145.679 187.913 145.387 188.671C145.096 189.429 144.967 190.239 145.007 191.05V203.318C145.081 207.526 146.788 211.541 149.77 214.516C152.751 217.492 156.774 219.196 160.989 219.27H178.225V278.213C178.225 322.384 201.589 348.172 240.935 348.172C252.717 348.533 264.446 346.437 275.371 342.02V381.363C275.337 383.951 275.823 386.519 276.8 388.917C277.777 391.314 279.224 393.492 281.058 395.322C282.891 397.152 285.074 398.597 287.476 399.572C289.878 400.547 292.451 401.032 295.044 400.998H312.244C314.158 400.865 315.959 400.046 317.315 398.692C318.672 397.338 319.492 395.541 319.626 393.63V218.09H347.827C348.649 218.136 349.471 218.009 350.24 217.716C351.009 217.424 351.707 216.972 352.289 216.391C352.871 215.811 353.324 215.114 353.617 214.346C353.91 213.579 354.037 212.758 353.991 211.938V199.67ZM275.156 305.216C267.4 308.602 259.002 310.274 250.538 310.116C230.865 310.116 221.047 300.316 221.047 278.213V219.306H275.156V305.145V305.216Z" fill="white"/>
</g>
<defs>
<clipPath id="clip0_1_63">
<rect width="500" height="500" fill="white"/>
</clipPath>
<clipPath id="clip1_1_63">
<rect width="500" height="500" fill="white"/>
</clipPath>
</defs>
</svg>
