<svg width="24" height="22" viewBox="0 0 24 22" fill="none" xmlns="http://www.w3.org/2000/svg">
<path d="M13.1026 1.01118C13.2404 0.860107 13.4315 0.768566 13.6356 0.755931C13.8397 0.743295 14.0406 0.810557 14.196 0.943479C17.3327 3.29601 20.4694 5.6493 23.6061 8.00333C23.8972 8.1974 24.0992 8.59231 23.9491 8.93419C23.8735 9.16437 23.6738 9.31444 23.4888 9.45547C20.4987 11.694 17.5102 13.9349 14.5232 16.178C14.2783 16.3551 14.0437 16.5977 13.7221 16.609C13.3069 16.6417 12.8849 16.2863 12.9029 15.8587C12.8962 14.8511 12.9007 13.8446 12.9007 12.837C9.24319 13.4372 5.94182 15.382 3.644 18.2902C2.95685 19.1917 2.3092 20.1225 1.6356 21.0342C1.39075 21.3908 0.797261 21.5296 0.467793 21.2136C0.366546 21.1231 0.288271 21.0098 0.239423 20.8831C0.190574 20.7563 0.172552 20.6198 0.186843 20.4847C0.136973 18.8284 0.343642 17.1743 0.799517 15.5811C1.87914 11.8724 4.34123 8.71968 7.67772 6.77347C9.28218 5.81892 11.0762 5.22317 12.9086 4.89032C12.8883 3.84437 12.9074 2.79843 12.8984 1.75248C12.8962 1.49297 12.8838 1.19509 13.1026 1.01118ZM14.451 3.12451C14.4645 3.98203 14.4653 4.83992 14.4532 5.69819C14.4375 5.87888 14.3581 6.0481 14.2291 6.17562C14.1001 6.30314 13.93 6.38067 13.7492 6.39436C11.071 6.69296 8.54328 7.78572 6.491 9.53218C4.43873 11.2786 2.95568 13.599 2.23248 16.1949C2.07677 16.7827 1.91203 17.3785 1.89398 17.9889C4.5489 14.1459 8.96851 11.597 13.6138 11.1615C13.7192 11.1512 13.8257 11.1629 13.9264 11.1958C14.0272 11.2286 14.12 11.282 14.1992 11.3524C14.2783 11.4229 14.3421 11.509 14.3864 11.6052C14.4307 11.7015 14.4546 11.8059 14.4566 11.9118C14.4713 12.6903 14.4431 13.47 14.469 14.2485C16.9355 12.3959 19.4035 10.5454 21.873 8.69725C21.4341 8.32039 20.9512 7.99769 20.4954 7.64115C18.4757 6.14275 16.4831 4.60598 14.451 3.12451Z" fill="white"/>
</svg>
