<?xml version="1.0" encoding="utf-8"?>
<!-- Generator: Adobe Illustrator 27.6.1, SVG Export Plug-In . SVG Version: 6.00 Build 0)  -->
<svg version="1.1" id="Layer_1" xmlns="http://www.w3.org/2000/svg" xmlns:xlink="http://www.w3.org/1999/xlink" x="0px" y="0px"
	 viewBox="0 0 841.89 595.28" style="enable-background:new 0 0 841.89 595.28;" xml:space="preserve">
<style type="text/css">
	.st0{fill:#252525;}
</style>
<g>
	<g>
		<path class="st0" d="M207.48,316.71c1.75,0.83,3.81,1.73,6.19,2.69c2.37,0.96,4.89,1.86,7.53,2.69c2.65,0.83,5.36,1.54,8.13,2.1
			c2.78,0.56,5.46,0.84,8.05,0.84c2.88,0,5.28-0.24,7.22-0.72c1.94-0.48,3.52-1.15,4.73-2c1.2-0.85,2.07-1.87,2.59-3.06
			c0.52-1.19,0.78-2.51,0.78-3.97c0-1.62-0.45-3.01-1.35-4.13c-0.89-1.13-2.21-2.13-3.94-3.01c-1.73-0.88-3.86-1.69-6.38-2.44
			c-2.53-0.75-5.41-1.58-8.67-2.5c-1.59-0.42-3.39-0.91-5.41-1.47c-2.02-0.56-4.07-1.25-6.16-2.06c-2.08-0.81-4.12-1.79-6.1-2.94
			c-1.98-1.15-3.75-2.49-5.31-4.04c-1.56-1.54-2.82-3.33-3.75-5.35c-0.94-2.02-1.41-4.32-1.41-6.91c0-4.26,0.69-8.08,2.06-11.48
			c1.38-3.4,3.49-6.29,6.35-8.66c2.86-2.38,6.48-4.19,10.88-5.45c4.4-1.25,9.64-1.87,15.73-1.87c3.08,0,6.07,0.23,8.95,0.69
			c2.88,0.46,5.64,1.07,8.29,1.81c2.65,0.75,5.18,1.6,7.6,2.54c2.42,0.93,4.73,1.86,6.94,2.78l-5.32,16.46
			c-0.79-0.38-1.82-0.82-3.1-1.32c-1.27-0.5-2.71-1.01-4.29-1.53c-1.59-0.52-3.27-1.04-5.07-1.57c-1.79-0.51-3.61-0.97-5.44-1.37
			c-1.84-0.39-3.64-0.72-5.41-0.97c-1.77-0.25-3.43-0.38-4.97-0.38c-2.67,0-4.87,0.23-6.6,0.69c-1.73,0.46-3.1,1.09-4.1,1.88
			c-1,0.79-1.7,1.69-2.1,2.69c-0.4,1-0.6,2.02-0.6,3.07c0,1.46,0.47,2.72,1.41,3.78c0.94,1.06,2.22,1.99,3.85,2.75
			c1.62,0.77,3.55,1.43,5.76,1.97c2.21,0.54,4.6,1.04,7.19,1.5c4.42,1.09,8.51,2.27,12.26,3.57c3.75,1.29,6.99,2.96,9.7,5
			c2.71,2.04,4.82,4.59,6.35,7.63c1.52,3.04,2.28,6.82,2.28,11.33c0,4.29-0.94,8.08-2.81,11.35c-1.88,3.27-4.45,6.03-7.72,8.26
			c-3.28,2.23-7.16,3.91-11.63,5.04c-4.49,1.12-9.33,1.69-14.55,1.69c-3.92,0-7.59-0.26-11.01-0.79c-3.42-0.52-6.57-1.19-9.47-2
			c-2.9-0.81-5.54-1.72-7.91-2.72c-2.38-1-4.49-1.98-6.33-2.94L207.48,316.71z"/>
		<path class="st0" d="M288.24,255.1h19.83l0,68.06h35.65l0,17.02h-55.49L288.24,255.1z"/>
		<path class="st0" d="M356.86,255.1h19.83l0,85.08h-19.83L356.86,255.1z"/>
		<path class="st0" d="M414.23,314.09l0,26.08H394.4l0-85.08h36.72c4.46,0,8.57,0.74,12.32,2.22c3.76,1.48,7,3.53,9.73,6.16
			c2.72,2.63,4.85,5.75,6.38,9.35c1.52,3.61,2.29,7.56,2.29,11.85c0,4.34-0.75,8.31-2.25,11.92c-1.51,3.6-3.6,6.71-6.29,9.29
			c-2.69,2.59-5.91,4.6-9.64,6.03c-3.73,1.44-7.81,2.16-12.23,2.16H414.23z M430.31,297.08c1.63,0,3.15-0.32,4.57-0.97
			c1.42-0.65,2.66-1.52,3.72-2.63c1.06-1.11,1.89-2.41,2.5-3.91c0.6-1.5,0.9-3.13,0.91-4.88c0-1.71-0.3-3.33-0.9-4.84
			c-0.61-1.53-1.44-2.86-2.5-4.01c-1.06-1.15-2.31-2.05-3.72-2.72c-1.42-0.67-2.94-1-4.57-1h-16.08l0,24.96H430.31z"/>
		<path class="st0" d="M551.35,328.04c-1.92,1.96-4.07,3.8-6.44,5.51c-2.38,1.71-4.95,3.2-7.7,4.44c-2.75,1.25-5.67,2.23-8.76,2.94
			c-3.09,0.71-6.32,1.07-9.69,1.07c-4.25,0-8.34-0.52-12.26-1.56c-3.92-1.04-7.58-2.53-10.98-4.48c-3.4-1.93-6.51-4.25-9.32-6.94
			c-2.82-2.69-5.22-5.69-7.2-8.98c-1.98-3.29-3.53-6.84-4.63-10.64c-1.11-3.79-1.66-7.75-1.66-11.89c0-4.13,0.55-8.09,1.66-11.88
			c1.1-3.79,2.65-7.34,4.63-10.64c1.98-3.29,4.38-6.29,7.19-8.97c2.82-2.69,5.92-5,9.32-6.92c3.4-1.92,7.06-3.4,10.98-4.44
			c3.92-1.04,8.01-1.57,12.26-1.57c3.33,0,6.52,0.34,9.57,1.01c3.04,0.66,5.93,1.61,8.66,2.84c2.73,1.23,5.29,2.7,7.69,4.41
			c2.4,1.71,4.62,3.6,6.66,5.69l-9.57,10.07c-2.8-3.33-6.19-5.94-10.2-7.79c-4-1.86-8.28-2.78-12.83-2.78
			c-4.21,0-8.16,0.79-11.86,2.37c-3.69,1.59-6.91,3.76-9.67,6.54c-2.75,2.77-4.93,6.05-6.53,9.85c-1.6,3.8-2.41,7.88-2.41,12.26
			s0.8,8.46,2.41,12.23c1.6,3.78,3.78,7.05,6.54,9.82c2.76,2.78,5.97,4.95,9.66,6.54c3.69,1.59,7.64,2.38,11.86,2.38
			c4.5,0,8.77-0.94,12.79-2.81c4.03-1.88,7.45-4.47,10.29-7.76L551.35,328.04z"/>
		<path class="st0" d="M624.41,323.97h-39.22l-6.69,16.2h-16.45l35.41-85.14h14.76l35.4,85.14h-16.51L624.41,323.97z M590.7,310.58
			h28.15l-13.51-32.84l-0.5-2.19h-0.06l-0.5,2.19L590.7,310.58z"/>
		<path class="st0" d="M657.63,320.28c1.62,0.79,3.57,1.66,5.82,2.59c2.25,0.94,4.67,1.83,7.26,2.66c2.58,0.83,5.28,1.54,8.07,2.1
			c2.8,0.57,5.59,0.85,8.39,0.85c6.71,0,11.59-1.13,14.64-3.38c3.04-2.25,4.56-5.36,4.56-9.33c0-2.08-0.52-3.84-1.56-5.28
			c-1.04-1.44-2.53-2.68-4.47-3.72c-1.94-1.04-4.27-1.96-6.98-2.76c-2.71-0.79-5.71-1.56-9.01-2.31c-1.75-0.38-3.69-0.81-5.82-1.31
			c-2.13-0.5-4.26-1.13-6.38-1.87c-2.13-0.76-4.19-1.66-6.19-2.72c-2-1.06-3.78-2.36-5.32-3.88c-1.55-1.52-2.79-3.28-3.72-5.28
			c-0.94-2-1.41-4.34-1.41-7c0-3.88,0.63-7.45,1.91-10.7c1.27-3.25,3.26-6.05,5.97-8.38c2.71-2.34,6.19-4.16,10.45-5.47
			c4.25-1.32,9.36-1.98,15.32-1.98c3.14,0,6.13,0.24,8.98,0.72s5.59,1.12,8.19,1.91c2.6,0.79,5.08,1.67,7.41,2.63
			c2.33,0.96,4.55,1.9,6.63,2.82l-4.39,13.01c-1.2-0.63-2.87-1.37-5-2.22c-2.12-0.85-4.49-1.67-7.1-2.47c-2.6-0.79-5.31-1.46-8.1-2
			c-2.79-0.54-5.47-0.82-8.01-0.82c-3.29,0-6.01,0.33-8.16,1c-2.15,0.67-3.86,1.54-5.12,2.6c-1.28,1.07-2.16,2.28-2.66,3.66
			c-0.5,1.37-0.75,2.77-0.75,4.19c0,1.87,0.52,3.47,1.56,4.78c1.03,1.31,2.48,2.42,4.31,3.32c1.83,0.9,4.03,1.64,6.57,2.22
			c2.54,0.58,5.31,1.09,8.32,1.5c4.05,0.88,7.9,1.89,11.57,3.03c3.67,1.15,6.89,2.69,9.67,4.63c2.77,1.94,4.98,4.4,6.63,7.38
			c1.65,2.98,2.47,6.75,2.47,11.29c0,4.13-0.88,7.8-2.63,11.01c-1.75,3.21-4.21,5.91-7.38,8.1c-3.17,2.19-6.97,3.86-11.38,5
			c-4.42,1.15-9.3,1.72-14.64,1.72c-3.59,0-7.01-0.24-10.26-0.72c-3.25-0.48-6.3-1.12-9.13-1.91c-2.84-0.79-5.45-1.69-7.82-2.69
			c-2.38-1-4.51-2.04-6.38-3.13L657.63,320.28z"/>
		<path class="st0" d="M739.08,255.1h15.57l0,36.28h42.92l0-36.28h15.7l0,85.08h-15.7l0-35.41h-42.92l0,35.41h-15.57L739.08,255.1z"
			/>
	</g>
	<g>
		<path class="st0" d="M121.24,228.72l-12.92-7.12v-13.29H85.99v14.33l-11.01,6.07l-24.01,13.25l-12.65,6.97
			c-5.98,3.3-9.7,9.59-9.7,16.42v4.93v9.52v16l22.35,12.32l45.45,25.08l0.85-0.48l22.27-12.28l-68.57-37.82v-9.12
			c0-3.72,2.02-7.14,5.28-8.93l32.62-17.99c5.76-3.17,12.74-3.17,18.5,0l58.32,32.16v-25.51L121.24,228.72z"/>
		<path class="st0" d="M97.89,262.08l-0.85,0.48l-22.27,12.28l68.57,37.82v9.19c0,3.67-2,7.06-5.22,8.83l-32.98,18.18
			c-5.57,3.07-12.33,3.07-17.91,0l-58.62-32.33v25.51l44.45,24.5l12.91,7.12v13.29h22.34v-14.33l11.01-6.07l24.01-13.25l12.27-6.76
			c6.21-3.43,10.07-9.96,10.07-17.06V325v-9.52v-16l-22.35-12.32L97.89,262.08z"/>
	</g>
</g>
</svg>
	