<svg width="500" height="500" viewBox="0 0 500 500" fill="none" xmlns="http://www.w3.org/2000/svg">
<g clip-path="url(#clip0_1_7)">
<g clip-path="url(#clip1_1_7)">
<path d="M325.781 0C375.781 0 400.781 0 428.125 8.59375C442.641 13.9039 455.824 22.3172 466.753 33.2468C477.683 44.1764 486.096 57.359 491.406 71.875C500 99.2187 500 124.219 500 174.297V325.625C500 375.781 500 400.937 491.406 427.969C486.096 442.485 477.683 455.667 466.753 466.597C455.824 477.527 442.641 485.94 428.125 491.25C400.781 500 375.781 500 325.781 500H174.219C124.062 500 98.9062 500 71.875 491.406C57.359 486.096 44.1764 477.683 33.2468 466.753C22.3172 455.824 13.9039 442.641 8.59375 428.125C0 400.781 0 375.781 0 325.703V174.219C0 124.062 0 98.9062 8.59375 71.875C13.9039 57.359 22.3172 44.1764 33.2468 33.2468C44.1764 22.3172 57.359 13.9039 71.875 8.59375C99.2187 0 124.219 0 174.219 0H325.781Z" fill="#0090FF"/>
<path d="M350.29 133.531C359.05 147.508 363 161.904 363 180.089C363 238.09 311.742 313.438 270.141 366.346H175.119L137.011 146.23L220.212 138.6L240.36 295.226C259.187 265.6 282.419 219.042 282.419 187.3C282.419 169.925 279.338 158.091 274.522 148.346L350.29 133.531Z" fill="white"/>
</g>
</g>
<defs>
<clipPath id="clip0_1_7">
<rect width="500" height="500" fill="white"/>
</clipPath>
<clipPath id="clip1_1_7">
<rect width="500" height="500" fill="white"/>
</clipPath>
</defs>
</svg>
