<svg width="500" height="500" viewBox="0 0 500 500" fill="none" xmlns="http://www.w3.org/2000/svg">
<g clip-path="url(#clip0_1_164)">
<g clip-path="url(#clip1_1_164)">
<path d="M325.781 0C375.781 0 400.781 0 428.125 8.59375C442.641 13.9039 455.824 22.3172 466.753 33.2468C477.683 44.1764 486.096 57.359 491.406 71.875C500 99.2187 500 124.219 500 174.297V325.625C500 375.781 500 400.937 491.406 427.969C486.096 442.485 477.683 455.667 466.753 466.597C455.824 477.527 442.641 485.94 428.125 491.25C400.781 500 375.781 500 325.781 500H174.219C124.062 500 98.9062 500 71.875 491.406C57.359 486.096 44.1764 477.683 33.2468 466.753C22.3172 455.824 13.9039 442.641 8.59375 428.125C0 400.781 0 375.781 0 325.703V174.219C0 124.062 0 98.9062 8.59375 71.875C13.9039 57.359 22.3172 44.1764 33.2468 33.2468C44.1764 22.3172 57.359 13.9039 71.875 8.59375C99.2187 0 124.219 0 174.219 0H325.781Z" fill="#6C1CD3"/>
</g>
<path d="M228.542 140L164.133 139.407L164.133 182.138H270.876L159.946 324.329V360.49H228.542V402.138H269.7V360.49H339.669C340.257 358.824 340.463 354.331 336.739 350.215C330.566 343.356 325.655 336.187 321.148 327.171C319.09 323.153 317.527 318.341 316.939 317.949C303.16 317.318 223.894 317.481 223.936 316.98L334.965 173.917V140H269.7V97.8622H228.542V140Z" fill="white"/>
</g>
<defs>
<clipPath id="clip0_1_164">
<rect width="500" height="500" fill="white"/>
</clipPath>
<clipPath id="clip1_1_164">
<rect width="500" height="500" fill="white"/>
</clipPath>
</defs>
</svg>
