<?xml version="1.0" standalone="no"?>
<!DOCTYPE svg PUBLIC "-//W3C//DTD SVG 20010904//EN"
 "http://www.w3.org/TR/2001/REC-SVG-20010904/DTD/svg10.dtd">
<svg version="1.0" xmlns="http://www.w3.org/2000/svg"
 width="270.000000pt" height="270.000000pt" viewBox="0 0 270.000000 270.000000"
 preserveAspectRatio="xMidYMid meet">
<metadata>
Created by potrace 1.11, written by Peter Selinger 2001-2013
</metadata>
<g transform="translate(0.000000,270.000000) scale(0.100000,-0.100000)"
fill="#000000" stroke="none">
<path d="M955 2350 l-300 -300 -150 0 -149 0 74 -75 75 -75 -235 -235 -235
-235 340 -2 340 -3 0 -80 0 -80 -338 -5 -337 -5 610 -610 610 -610 0 163 c0
89 4 162 8 162 4 0 23 -16 42 -35 l34 -35 43 42 43 42 0 -162 c0 -89 3 -162 8
-162 14 0 1213 1206 1206 1213 -4 4 -155 7 -336 7 l-328 0 0 80 0 80 330 0
c182 0 330 3 330 7 0 5 -101 109 -225 233 l-225 225 71 78 71 77 -149 0 -148
0 -302 302 -303 303 0 -198 c0 -108 -3 -197 -7 -197 -4 0 -24 19 -44 43 l-37
42 -39 -45 -38 -44 -5 197 -5 197 -300 -300z m228 -176 l-48 -55 -3 115 c-1
64 -6 116 -9 116 -4 0 -75 -67 -158 -150 l-151 -150 -52 0 c-29 0 -52 3 -52 7
0 5 116 124 258 266 l257 257 3 -175 2 -176 -47 -55z m797 -116 c0 -5 -21 -8
-47 -8 l-48 0 -155 155 c-85 85 -158 155 -162 155 -5 0 -8 -57 -8 -126 l0
-125 -50 53 -49 53 -1 185 0 185 260 -260 c143 -143 260 -263 260 -267z m-510
97 l122 -135 337 0 336 0 -158 -158 -157 -157 0 -380 0 -380 -305 -305 -305
-305 -295 295 -295 295 0 385 0 385 -162 162 -163 163 335 0 335 1 120 134
c66 74 123 135 126 135 3 0 61 -61 129 -135z m-384 -92 c-4 -10 -34 -13 -118
-13 l-113 0 115 115 115 115 3 -102 c1 -56 0 -108 -2 -115z m-534 -220 l28
-27 -127 -128 -128 -128 193 0 192 0 0 -50 0 -50 -302 0 -303 0 205 205 c113
113 207 205 209 205 3 0 18 -12 33 -27z m1823 -173 l200 -200 -298 0 -298 0 3
48 3 47 190 3 189 2 -124 125 -124 124 24 26 c13 14 26 25 29 25 4 0 96 -90
206 -200z m-1707 67 c50 -51 53 -57 50 -98 l-3 -44 -160 -3 -160 -2 100 100
c55 55 104 100 110 100 6 0 34 -24 63 -53z m42 -557 l0 -50 -192 0 -193 0 400
-400 400 -400 5 80 5 81 48 -49 48 -48 -3 -137 -3 -137 -555 555 -555 555 298
0 297 0 0 -50z m1320 -505 l-555 -555 -3 147 -3 147 46 45 45 46 0 -83 c0 -45
3 -82 8 -82 4 0 185 178 402 395 l394 395 -189 2 -190 3 -3 48 -3 47 303 0
303 0 -555 -555z m200 368 c-265 -274 -624 -631 -631 -627 -5 3 -9 33 -9 67
l0 61 195 196 195 196 0 82 0 82 152 0 152 0 -54 -57z"/>
<path d="M1682 1957 c-32 -33 -32 -34 -32 -133 0 -100 0 -100 33 -132 31 -30
37 -32 109 -32 73 0 78 1 97 29 13 18 21 45 21 70 0 41 0 41 -39 41 -31 0 -40
-4 -44 -21 -5 -17 -12 -20 -44 -17 l-38 3 -3 53 c-2 32 2 60 9 68 18 22 62 13
74 -13 8 -18 18 -23 47 -23 38 0 38 0 38 43 0 31 -6 49 -25 70 -24 25 -32 27
-98 27 -69 0 -75 -2 -105 -33z"/>
<path d="M794 1967 c-2 -7 -3 -78 -2 -157 l3 -145 42 -3 42 -3 3 63 3 63 43
-62 43 -63 49 0 c28 0 50 4 50 9 0 5 -26 45 -58 88 -32 43 -62 84 -66 91 -6
10 11 32 55 73 l64 58 -49 1 c-39 0 -55 -6 -86 -30 -21 -16 -41 -30 -44 -30
-3 0 -6 14 -6 30 0 28 -2 30 -40 30 -24 0 -43 -5 -46 -13z"/>
<path d="M1187 1922 c-13 -14 -17 -38 -17 -95 0 -65 3 -78 19 -87 27 -14 124
-13 139 2 7 7 12 42 12 88 0 94 -12 110 -87 110 -36 0 -55 -5 -66 -18z m101
-89 c-3 -55 -4 -58 -30 -61 -28 -3 -28 -3 -28 57 l0 61 30 0 31 0 -3 -57z"/>
<path d="M1390 1835 l0 -105 25 0 c22 0 25 4 25 34 0 30 3 35 28 38 19 2 27 9
27 23 0 14 -8 21 -27 23 -20 2 -28 9 -28 23 0 16 7 19 50 19 47 0 50 2 50 25
0 24 -2 25 -75 25 l-75 0 0 -105z"/>
<path d="M780 1282 l0 -337 283 -283 282 -282 288 281 287 281 0 339 0 339
-570 0 -570 0 0 -338z m580 240 c0 -45 2 -48 43 -70 51 -27 104 -68 97 -75 -3
-3 -32 1 -64 8 -33 8 -63 12 -68 9 -4 -3 -8 -25 -8 -50 0 -32 -4 -44 -15 -44
-11 0 -15 11 -15 43 0 24 -3 46 -6 49 -9 9 -66 -10 -96 -32 -35 -26 -42 -25
-56 5 -24 52 -8 185 22 185 7 0 21 -9 32 -21 20 -22 66 -49 83 -49 6 0 13 17
16 38 9 54 14 64 25 57 5 -3 10 -27 10 -53z m-437 -129 c4 -3 2 -12 -4 -20 -9
-10 -15 -10 -25 -2 -8 6 -11 15 -8 20 6 11 28 12 37 2z m27 -22 c0 -5 -7 -14
-15 -21 -12 -10 -15 -10 -15 2 0 8 3 18 7 21 9 10 23 9 23 -2z m190 -13 c32
-23 38 -38 17 -38 -8 0 -22 -9 -32 -20 -23 -25 -50 -27 -40 -2 5 9 10 32 13
50 2 17 6 32 8 32 3 0 18 -10 34 -22z m-170 -19 c-10 -17 -30 -27 -30 -13 0
15 22 44 31 39 5 -4 5 -13 -1 -26z m40 5 c0 -16 -23 -44 -35 -44 -18 0 -19 5
-3 30 12 18 38 28 38 14z m698 -27 c30 -28 30 -80 0 -101 -26 -18 -64 -21 -73
-6 -5 8 -11 7 -20 0 -11 -9 -11 -17 -2 -38 6 -15 18 -32 26 -38 8 -6 11 -16 7
-22 -11 -19 -26 -14 -26 8 0 11 -5 20 -12 20 -6 0 -20 7 -29 16 -17 16 -23 14
-83 -32 -61 -46 -65 -51 -65 -89 0 -39 4 -43 100 -118 86 -67 120 -107 90
-107 -12 0 -79 47 -138 97 l-53 45 0 -131 c0 -110 -2 -131 -15 -131 -13 0 -15
34 -15 245 0 211 2 245 15 245 9 0 15 -10 15 -26 l0 -25 46 33 c57 40 57 41
43 72 -16 35 -4 44 24 18 27 -26 47 -14 47 28 0 30 8 43 35 58 24 14 53 7 83
-21z m-674 4 c8 -12 -30 -58 -40 -48 -8 8 15 57 27 57 4 0 10 -4 13 -9z m14
-41 c-7 -11 -16 -20 -20 -20 -5 0 -3 9 4 20 7 11 16 20 20 20 5 0 3 -9 -4 -20z
m470 8 c-3 -7 -11 -13 -18 -13 -7 0 -15 6 -17 13 -3 7 4 12 17 12 13 0 20 -5
18 -12z m-230 -33 c-4 -32 -2 -35 22 -35 24 0 26 3 22 35 -3 28 -1 35 13 35
14 0 16 -7 13 -35 l-4 -35 44 0 c30 0 42 -4 40 -12 -3 -9 -34 -14 -96 -16 -77
-2 -92 0 -92 13 0 8 4 15 8 15 4 0 6 16 4 35 -3 28 -1 35 13 35 14 0 16 -7 13
-35z m32 5 c0 -16 -4 -30 -10 -30 -5 0 -10 14 -10 30 0 17 5 30 10 30 6 0 10
-13 10 -30z m70 0 c0 -16 -4 -30 -10 -30 -5 0 -10 14 -10 30 0 17 5 30 10 30
6 0 10 -13 10 -30z m40 0 c0 -20 -5 -30 -15 -30 -10 0 -15 10 -15 30 0 20 5
30 15 30 10 0 15 -10 15 -30z m-342 -3 c2 -12 -3 -17 -17 -17 -12 0 -21 6 -21
13 0 31 32 34 38 4z m110 -76 c59 -49 62 -50 62 -26 0 16 6 25 15 25 13 0 15
-28 15 -196 0 -152 -3 -195 -12 -192 -8 3 -15 32 -18 76 l-5 71 -58 -52 c-44
-39 -57 -56 -52 -70 9 -21 52 -33 74 -20 11 7 24 5 46 -9 17 -10 24 -18 18
-18 -7 0 -15 -11 -19 -25 -5 -20 -9 -23 -24 -15 -10 6 -29 10 -43 10 -13 0
-41 15 -63 33 -21 19 -47 36 -57 40 -10 4 -16 10 -13 15 2 4 -4 27 -15 51 -10
24 -19 65 -19 92 0 43 3 50 29 63 27 15 29 14 34 -7 2 -12 8 -29 11 -38 5 -11
1 -18 -13 -22 -26 -7 -27 -37 -2 -68 l18 -23 66 52 c37 29 71 52 77 52 5 0 10
23 10 53 l0 52 -71 55 c-39 30 -78 60 -86 67 -9 7 -13 19 -9 28 7 20 20 13
104 -54z m-143 49 c3 -5 -1 -20 -9 -32 -9 -12 -16 -30 -16 -40 0 -24 -9 -22
-44 6 -27 22 -27 24 -9 30 11 4 28 15 38 26 20 22 31 25 40 10z m265 -295 c0
-157 -4 -245 -10 -245 -6 0 -10 88 -10 245 0 157 4 245 10 245 6 0 10 -88 10
-245z m40 0 c0 -211 -2 -245 -15 -245 -13 0 -15 34 -15 245 0 211 2 245 15
245 13 0 15 -34 15 -245z m30 0 c0 -157 -4 -245 -10 -245 -6 0 -10 88 -10 245
0 157 4 245 10 245 6 0 10 -88 10 -245z m-100 -210 c0 -24 -5 -35 -15 -35 -18
0 -19 9 -5 44 13 36 20 32 20 -9z m150 -60 c0 -12 -17 -15 -95 -15 -78 0 -95
3 -95 15 0 12 17 15 95 15 78 0 95 -3 95 -15z m-152 -47 c-2 -13 -7 -23 -13
-23 -5 0 -11 10 -13 23 -2 15 2 22 13 22 11 0 15 -7 13 -22z m32 -4 c0 -14 -4
-23 -10 -19 -5 3 -10 15 -10 26 0 10 5 19 10 19 6 0 10 -12 10 -26z m38 4 c-2
-13 -7 -23 -13 -23 -5 0 -11 10 -13 23 -2 15 2 22 13 22 11 0 15 -7 13 -22z
m32 -4 c0 -14 -4 -23 -10 -19 -5 3 -10 15 -10 26 0 10 5 19 10 19 6 0 10 -12
10 -26z m38 4 c-2 -13 -7 -23 -13 -23 -5 0 -11 10 -13 23 -2 15 2 22 13 22 11
0 15 -7 13 -22z m-58 -55 c0 -26 -16 -47 -29 -39 -6 4 -11 18 -11 32 0 17 5
24 20 24 12 0 20 -7 20 -17z"/>
<path d="M1642 1298 c-12 -16 22 -63 38 -53 16 10 12 52 -6 59 -21 8 -20 8
-32 -6z"/>
<path d="M2308 1929 c-24 -14 -24 -71 0 -92 38 -35 92 -8 92 46 0 47 -48 72
-92 46z m72 -18 c5 -11 10 -26 10 -35 0 -18 -27 -46 -45 -46 -36 0 -59 62 -33
88 18 18 56 14 68 -7z"/>
<path d="M2320 1885 c0 -19 5 -35 10 -35 6 0 10 5 10 11 0 8 4 8 13 0 11 -8
14 -5 14 19 0 33 -13 40 -20 13 -4 -14 -5 -12 -6 5 -2 36 -21 25 -21 -13z"/>
</g>
</svg>
