<?xml version="1.0" standalone="no"?>
<!DOCTYPE svg PUBLIC "-//W3C//DTD SVG 20010904//EN"
 "http://www.w3.org/TR/2001/REC-SVG-20010904/DTD/svg10.dtd">
<svg version="1.0" xmlns="http://www.w3.org/2000/svg"
 width="300.000000pt" height="300.000000pt" viewBox="0 0 300.000000 300.000000"
 preserveAspectRatio="xMidYMid meet">
<metadata>
Created by potrace 1.11, written by Peter Selinger 2001-2013
</metadata>
<g transform="translate(0.000000,300.000000) scale(0.100000,-0.100000)"
fill="#000000" stroke="none">
<path d="M55 2948 c-3 -7 -4 -663 -3 -1458 l3 -1445 1448 -3 1447 -2 -2 1457
-3 1458 -1443 3 c-1161 2 -1443 0 -1447 -10z m2368 -42 c-10 -14 -125 -165
-255 -338 -131 -172 -308 -405 -394 -518 -86 -113 -244 -322 -352 -465 -108
-143 -215 -285 -239 -315 -62 -78 -61 -75 -140 -180 -39 -52 -106 -140 -148
-195 -42 -55 -97 -128 -123 -163 -25 -34 -48 -62 -51 -62 -6 1 -75 117 -144
245 -22 38 -49 86 -61 105 -12 19 -25 43 -29 52 -3 10 -22 43 -42 73 -19 31
-35 58 -35 60 0 3 -25 49 -57 103 -31 53 -105 183 -165 289 l-108 191 0 571 0
571 1181 0 1181 0 -19 -24z"/>
</g>
</svg>
