<svg xmlns="http://www.w3.org/2000/svg" width="69.829" height="81.363" viewBox="0 0 69.829 81.363">
  <path id="copy" d="M126.275,24.2c-3.247-3.165-6.477-6.363-9.683-9.561a3.5,3.5,0,0,0-2.612-1.025q-19.968.012-39.935.008c-1.977,0-2.945.985-2.945,2.97V78.308c0,2.181.838,3.043,3,3.051,3.6.008,7.2,0,10.8,0h39.39c2.278,0,3.059-.781,3.059-3.043q0-25.728.016-51.465A3.483,3.483,0,0,0,126.275,24.2Zm-4.817,52.3q-21.969-.037-43.938-.024c-1.871,0-1.546.138-1.554-1.538q-.012-13.706-.008-27.413,0-13.975-.016-27.958c0-.83.269-1.082,1.082-1.082q12.12.037,24.239.024c3.507,0,7.022-.016,10.529-.008,1.294,0,1.294.024,1.294,1.359,0,1.969-.024,3.93,0,5.9.016,1.579.456,1.985,2,1.985,2.181,0,4.361.041,6.534,0,.683-.008.871.179.871.862q-.037,13.438-.016,26.876c0,6.656-.008,13.312.024,19.976C122.508,76.274,122.288,76.5,121.458,76.5Zm19.455-37.543q0-12.8.016-25.6a3.663,3.663,0,0,0-1.147-2.832c-3.125-3.035-6.241-6.078-9.3-9.178A4.314,4.314,0,0,0,127.178,0Q109.383.037,91.6.016c-1.391,0-2.783-.033-4.174,0a2.5,2.5,0,0,0-2.758,2.766c-.024,1.538.016,3.084,0,4.63-.008.5.138.708.667.683.879-.041,1.758-.008,2.628-.008,1.57,0,1.546,0,1.57-1.57C89.562,4.776,89.2,4.9,91.2,4.89q11.387-.012,22.783-.008c3.873,0,7.746.016,11.619-.008.789-.008,1.1.2,1.074,1.066-.065,2.148-.041,4.3-.024,6.444.008,1.269.521,1.741,1.766,1.749,2.213,0,4.418.057,6.623,0,.83-.024,1.009.269,1,1.033-.033,5.11-.016,10.228-.016,15.338q-.012,15.073-.016,30.13c0,2.189.016,2.189-2.213,2.213a1.313,1.313,0,0,1-.179,0c-.488-.041-.724.163-.716.675q.024,1.77,0,3.539c-.008.5.2.7.7.7,1.635-.016,3.271.033,4.9-.033a2.319,2.319,0,0,0,2.384-2.352,8.368,8.368,0,0,0,.016-.9q.024-12.767.016-25.517ZM114.249,63.7a1.829,1.829,0,0,0-1.058-.155H99.221V63.54H89.6c-1.66,0-3.328,0-4.988.016a.953.953,0,1,0-.041,1.9c.244.016.48.008.724.008q11.937.012,23.865.008c1.481,0,2.962,0,4.443-.016a.931.931,0,0,0,1.017-.724.875.875,0,0,0-.374-1.033Zm-1.017-9.788q-14.109.012-28.226,0c-.968,0-1.465.325-1.416.993.065.854.683.944,1.375.944,4.687-.008,9.374,0,14.068,0v.016h8.8c1.9,0,3.808,0,5.72-.016.814-.008,1.261-.521,1.074-1.2C114.42,53.946,113.834,53.914,113.232,53.914Zm.138-9.65H99.221v-.008h-4.63l-9.8.008c-.651,0-1.172.171-1.18.928s.521.944,1.155.976c.244.008.48-.008.724-.008h20.773c2.449,0,4.9.016,7.347-.008a.95.95,0,0,0,.944-1.416c-.269-.456-.724-.472-1.188-.472ZM84.851,36.428c1.814-.016,3.629-.008,5.443-.008,1.871,0,3.751-.008,5.622.008.708.008,1.245-.236,1.229-.993-.016-.692-.529-.936-1.2-.936l-11.066.008c-.659,0-1.253.163-1.261.96S84.159,36.436,84.851,36.428Z" transform="translate(-71.1 0)"/>
</svg>
