<svg xmlns="http://www.w3.org/2000/svg" width="64.794" height="43.982" viewBox="0 0 64.794 43.982">
  <path id="email" d="M96.382,214.089a2.448,2.448,0,0,0-1.222.437,3.051,3.051,0,0,0-.852.94,3.89,3.89,0,0,0-.474,1.281,4.848,4.848,0,0,0-.067,1.466,1.926,1.926,0,0,0,.555,1.355,1.508,1.508,0,0,0,1.148.326,4.218,4.218,0,0,0,.733-.133c.2-.059.422-.141.659-.237l.415-5.406a2.516,2.516,0,0,0-.452-.044,3.1,3.1,0,0,0-.444.015Zm-33.41-4.584q15.417,15.383,30.8,30.782c.866.874,1.259.866,2.14-.007l29.116-29.116c.711-.711,1.7-1.318,2.044-2.177a8.708,8.708,0,0,0,.111-3.058c.007-2.036-.992-3.029-3.036-3.029H65.438a2.649,2.649,0,0,0-2.947,2.977c0,.815.03,1.629-.015,2.444a1.454,1.454,0,0,0,.5,1.185Zm23.54,5.961a10.544,10.544,0,0,1,1.792-3.732,10.968,10.968,0,0,1,3.414-2.925,12.9,12.9,0,0,1,5.169-1.5,10.864,10.864,0,0,1,3.117.141,7.088,7.088,0,0,1,2.658,1.1,6.5,6.5,0,0,1,1.933,2.1,7.708,7.708,0,0,1,.94,3.147,8.168,8.168,0,0,1-.185,2.673,7.773,7.773,0,0,1-1.007,2.444,6.385,6.385,0,0,1-1.762,1.859,5.118,5.118,0,0,1-2.429.9,3.239,3.239,0,0,1-2.458-.585,10.287,10.287,0,0,1-1.3.7,5.557,5.557,0,0,1-1.762.415,4.212,4.212,0,0,1-1.3-.074,2.827,2.827,0,0,1-1.111-.541,3.228,3.228,0,0,1-.822-1.037,4.27,4.27,0,0,1-.422-1.562,7.131,7.131,0,0,1,.23-2.718,6.54,6.54,0,0,1,1.118-2.221,6.075,6.075,0,0,1,1.807-1.555,5.748,5.748,0,0,1,2.318-.726,12.7,12.7,0,0,1,1.91-.037,8.635,8.635,0,0,1,1.792.267l-.674,7.4a1.194,1.194,0,0,0,.726.1,2.28,2.28,0,0,0,1.37-.607,3.825,3.825,0,0,0,.918-1.325,6.045,6.045,0,0,0,.474-1.725,7.47,7.47,0,0,0,.037-1.814,4.757,4.757,0,0,0-1.859-3.628,6.277,6.277,0,0,0-4.354-.9,9.4,9.4,0,0,0-3.673,1.074,8.135,8.135,0,0,0-2.577,2.2,8.538,8.538,0,0,0-1.451,2.955,9.474,9.474,0,0,0-.281,3.325,6.6,6.6,0,0,0,.718,2.592,4.779,4.779,0,0,0,1.422,1.666,4.99,4.99,0,0,0,1.955.844,8.1,8.1,0,0,0,2.3.1,15.505,15.505,0,0,0,2.044-.333,7.933,7.933,0,0,0,1.673-.607c.156.3.311.615.459.94s.281.644.392.97a4.969,4.969,0,0,1-.889.437,8.838,8.838,0,0,1-1.133.37c-.407.111-.844.2-1.3.281s-.926.141-1.377.185a10.276,10.276,0,0,1-3.177-.178,7.318,7.318,0,0,1-2.74-1.2,6.948,6.948,0,0,1-1.992-2.281,8.874,8.874,0,0,1-.985-3.458,11.7,11.7,0,0,1,.341-3.91Zm26.05,13.81c-.17-.17-.341-.326-.637-.615a5.54,5.54,0,0,1-.489.637q-6.653,6.664-13.314,13.321c-2.081,2.081-4.48,2.088-6.546.022q-6.653-6.653-13.314-13.321a6.382,6.382,0,0,1-.511-.659c-.215.193-.289.252-.355.318q-7.264,7.264-14.543,14.528a1.277,1.277,0,0,0-.281,1.377,2.621,2.621,0,0,0,2.858,1.992h58.794a5.014,5.014,0,0,0,.578-.007,2.448,2.448,0,0,0,2.1-1.422,1.6,1.6,0,0,0-.333-2.229C121.862,238.613,117.22,233.934,112.562,229.276Zm-50.019,9.819,12.588-12.588q-6.3-6.353-12.588-12.692Zm64.592-.081V213.8l-12.6,12.6Z" transform="translate(-62.474 -202.9)"/>
</svg>
