<svg xmlns="http://www.w3.org/2000/svg" width="63.369" height="84.139" viewBox="0 0 63.369 84.139">
  <path id="phone" d="M191.838,90.413c-11.567,6.682,6.077,39.767,18.739,32.46l11.74,20.326c-5.346,3.086-9.855,5.029-16.047,1.49-17.191-9.826-36.114-42.584-35.575-62.122.183-6.788,4.192-9.451,9.413-12.471,2.24,3.884,9.48,16.422,11.73,20.316Zm4.846-.548A2.628,2.628,0,0,1,193.1,88.9L182.04,69.741A2.628,2.628,0,0,1,183,66.154l5.817-3.356a2.628,2.628,0,0,1,3.586.961l11.067,19.163a2.615,2.615,0,0,1-.961,3.577Zm30.229,52.353a2.628,2.628,0,0,1-3.586-.961l-11.057-19.163a2.628,2.628,0,0,1,.961-3.586l5.817-3.356a2.628,2.628,0,0,1,3.586.961L233.7,135.276a2.628,2.628,0,0,1-.962,3.586Z" transform="translate(-170.683 -62.448)"/>
</svg>
