<svg xmlns="http://www.w3.org/2000/svg" width="80" height="79.973" viewBox="0 0 80 79.973">
  <path id="qr-code" d="M96.828,112.074a.039.039,0,0,0,.037.037c.018,0,.018-.018,0-.037S96.828,112.056,96.828,112.074Zm3.82,15.291a.039.039,0,0,0,.037.037c.018,0,.018-.018,0-.037S100.649,127.337,100.649,127.365Zm-7.586-15.254a.039.039,0,0,0,.037-.037c0-.018-.018-.018-.037,0S93.035,112.111,93.063,112.111Zm22.913-7.659a.037.037,0,1,0-.037-.037A.033.033,0,0,0,115.976,104.451Zm-4.332-3.811h-6.453a.472.472,0,0,0-.475.475v10.538a.472.472,0,0,0,.475.475h6.352a.472.472,0,0,1,.475.475v2.651a.472.472,0,0,1-.475.475H97.3a.472.472,0,0,1-.475-.475v-2.678a.472.472,0,0,0-.475-.475H93.575a.472.472,0,0,0-.475.475v10.346a.472.472,0,0,0,.475.475H96.3a.508.508,0,0,0,.5-.475l.137-2.6a.5.5,0,0,1,.5-.475h14.148a.517.517,0,0,1,.512.475c.064.932.128,1.791.183,2.623a.557.557,0,0,0,.512.5c.941.055,1.764.1,2.568.146a.508.508,0,0,1,.475.5v2.888a.472.472,0,0,1-.475.475h-2.641a.508.508,0,0,0-.5.475c-.046.941-.082,1.773-.119,2.6a.5.5,0,0,1-.5.475H101.124a.472.472,0,0,1-.475-.475v-2.678a.472.472,0,0,0-.475-.475H97.395a.472.472,0,0,0-.475.475v6.608a.472.472,0,0,0,.475.475h2.861a.472.472,0,0,1,.475.475v2.861a.48.48,0,0,0,.475.484l2.8.055a.486.486,0,0,1,.475.484v2.669a.472.472,0,0,0,.475.475h21.972a.472.472,0,0,0,.475-.475V139.3a.472.472,0,0,0-.475-.475h-2.861a.472.472,0,0,1-.475-.475v-2.87a.472.472,0,0,0-.475-.475h-2.7a.5.5,0,0,0-.5.475l-.165,2.705a.515.515,0,0,1-.5.475h-2.669a.472.472,0,0,1-.475-.475V131.67a.472.472,0,0,1,.475-.475h2.66a.472.472,0,0,0,.475-.475v-2.943a.472.472,0,0,1,.475-.475h2.925a.472.472,0,0,0,.475-.475v-6.681a.472.472,0,0,0-.475-.475h-2.842a.472.472,0,0,1-.475-.475v-6.535a.517.517,0,0,0-.475-.512c-1.024-.073-1.928-.128-2.9-.192a.517.517,0,0,1-.475-.512v-6.526a.494.494,0,0,0-.475-.494l-2.879-.1a.494.494,0,0,1-.475-.494l.009-2.724a.484.484,0,0,0-.484-.466Zm-3.93,38.149h-2.687a.472.472,0,0,1-.475-.475v-2.678a.472.472,0,0,1,.475-.475h2.687a.472.472,0,0,1,.475.475v2.678A.484.484,0,0,1,107.714,138.789Zm.8-31.13v-2.806a.472.472,0,0,1,.475-.475h2.568a.472.472,0,0,1,.475.475v2.806a.472.472,0,0,1-.475.475h-2.568A.478.478,0,0,1,108.509,107.659Zm34.091,7.613V105.009a.517.517,0,0,0-.475-.512l-2.833-.174a.515.515,0,0,1-.475-.5V97.213a.472.472,0,0,0-.475-.475h-6.526a.508.508,0,0,1-.5-.475c-.046-.941-.082-1.8-.128-2.66a.5.5,0,0,0-.5-.475h-6.471a.472.472,0,0,0-.475.475v2.6a.508.508,0,0,0,.475.5c.9.046,1.746.091,2.6.128a.5.5,0,0,1,.475.5v6.645a.472.472,0,0,1-.475.475h-6.489a.472.472,0,0,0-.475.475v2.925a.472.472,0,0,0,.475.475h18a.472.472,0,0,1,.475.475v2.815a.472.472,0,0,1-.475.475H124.284a.472.472,0,0,0-.475.475v2.888a.472.472,0,0,0,.475.475h2.568a.517.517,0,0,1,.512.475c.064.96.128,1.865.192,2.833a.517.517,0,0,0,.512.475h2.678a.472.472,0,0,1,.475.475v2.934a.472.472,0,0,0,.475.475h3a.472.472,0,0,1,.475.475v2.632a.472.472,0,0,0,.475.475h6.4a.472.472,0,0,0,.475-.475v-2.623a.508.508,0,0,0-.475-.5c-.9-.046-1.709-.082-2.532-.119a.5.5,0,0,1-.475-.5v-6.526a.5.5,0,0,1,.475-.5c.923-.055,1.773-.11,2.6-.155a.5.5,0,0,0,.484-.5Zm-8.089-11.013h-2.623a.472.472,0,0,1-.475-.475V101.2a.472.472,0,0,1,.475-.475h2.623a.472.472,0,0,1,.475.475v2.587A.478.478,0,0,1,134.511,104.26Zm-.055,15.419h-2.687a.472.472,0,0,1-.475-.475v-2.678a.472.472,0,0,1,.475-.475h2.687a.472.472,0,0,1,.475.475V119.2A.466.466,0,0,1,134.456,119.678Zm-14.642-15.218a.039.039,0,0,0,.037-.037c0-.018-.018-.018-.037,0S119.787,104.461,119.815,104.461ZM63.13,142.436H88.6a.472.472,0,0,0,.475-.475V116.479A.472.472,0,0,0,88.6,116H63.13a.472.472,0,0,0-.475.475v25.482A.484.484,0,0,0,63.13,142.436Zm3.8-22.63H84.81a.472.472,0,0,1,.475.475V138.15a.472.472,0,0,1-.475.475H66.932a.472.472,0,0,1-.475-.475V120.281A.472.472,0,0,1,66.932,119.806ZM88.557,62.518H63.075a.472.472,0,0,0-.475.475V88.484a.472.472,0,0,0,.475.475H88.557a.472.472,0,0,0,.475-.475V62.994A.478.478,0,0,0,88.557,62.518ZM84.81,85.13H66.932a.472.472,0,0,1-.475-.475V66.778a.472.472,0,0,1,.475-.475H84.81a.472.472,0,0,1,.475.475V84.646A.474.474,0,0,1,84.81,85.13ZM142.116,62.5H116.634a.472.472,0,0,0-.475.475V88.457a.472.472,0,0,0,.475.475h25.491a.472.472,0,0,0,.475-.475V62.975A.486.486,0,0,0,142.116,62.5Zm-3.83,22.776H120.464a.472.472,0,0,1-.475-.475V66.841a.472.472,0,0,1,.475-.475h17.822a.472.472,0,0,1,.475.475v17.95a.48.48,0,0,1-.475.484ZM70.159,104.406a.039.039,0,0,0-.037-.037c-.018,0-.018.018,0,.037S70.159,104.424,70.159,104.406Zm-.027-3.766a.039.039,0,0,0,.037-.037c0-.018-.018-.018-.037,0S70.113,100.64,70.131,100.64Zm26.807,3.245v-2.705a.517.517,0,0,1,.475-.512c.923-.064,1.782-.119,2.623-.174a.517.517,0,0,0,.475-.512V97.2a.472.472,0,0,0-.475-.475H93.565a.472.472,0,0,1-.475-.475V93.6a.472.472,0,0,0-.475-.475H81.994a.472.472,0,0,0-.475.475v2.715a.472.472,0,0,1-.475.475H74.527a.5.5,0,0,0-.5.475c-.064,1.015-.11,1.919-.174,2.879a.508.508,0,0,1-.5.475H70.643a.472.472,0,0,0-.475.475v2.778a.472.472,0,0,0,.475.475h6.544a.5.5,0,0,0,.5-.475l.155-2.651a.508.508,0,0,1,.5-.475h2.906a.472.472,0,0,1,.475.475v6.544a.451.451,0,0,0,.475.457l2.76-.119a.5.5,0,0,0,.475-.5v-2.788a.472.472,0,0,1,.475-.475H96.454A.449.449,0,0,0,96.938,103.885ZM86.034,96.8h6.507a.472.472,0,0,1,.475.475v2.687a.472.472,0,0,1-.475.475H86.034a.472.472,0,0,1-.475-.475V97.277A.478.478,0,0,1,86.034,96.8Zm22.9-23.023h2.6a.472.472,0,0,0,.475-.475V63.021a.472.472,0,0,0-.475-.475h-6.581a.472.472,0,0,0-.475.475V65.69a.472.472,0,0,1-.475.475h-2.788a.472.472,0,0,0-.475.475v10.5a.472.472,0,0,0,.475.475h6.544a.5.5,0,0,0,.5-.475c.055-1.024.11-1.928.165-2.888A.5.5,0,0,1,108.929,73.779Zm-1.234-3.9h-2.678a.472.472,0,0,1-.475-.475V66.714a.472.472,0,0,1,.475-.475H107.7a.472.472,0,0,1,.475.475V69.4A.466.466,0,0,1,107.7,69.876Zm-7,7.741c-.018,0-.018.018,0,.037s.037.018.037,0A.033.033,0,0,0,100.694,77.617Zm34.347,57.388a.039.039,0,0,0,.037.037c.018,0,.018-.018,0-.037S135.041,134.987,135.041,135.006Zm.037,3.766a.039.039,0,0,0-.037.037c0,.018.018.018.037,0S135.1,138.771,135.078,138.771Zm-7.659.027c-.009-.009-.018,0-.018.018a.037.037,0,1,0,.037-.037C127.419,138.78,127.41,138.789,127.419,138.8Zm-3.766-3.8a.037.037,0,1,1-.037-.037A.033.033,0,0,1,123.653,135Zm0-7.65a.037.037,0,1,1-.037-.037A.039.039,0,0,1,123.653,127.346Zm3.82,8.089v2.87a.472.472,0,0,0,.475.475l6.608-.009a.478.478,0,0,0,.475-.475v-2.778a.472.472,0,0,0-.475-.475h-2.916a.472.472,0,0,1-.475-.475v-6.7a.472.472,0,0,0-.475-.475h-6.562a.472.472,0,0,0-.475.475v6.608a.472.472,0,0,0,.475.475H127A.486.486,0,0,1,127.474,135.435ZM96.911,85.3a.039.039,0,0,0-.037-.037c-.018,0-.018.018,0,.037S96.911,85.322,96.911,85.3Zm.475-.055,2.861-.064a.492.492,0,0,0,.475-.484l-.055-6.526a.48.48,0,0,0-.484-.475H97.431a.5.5,0,0,1-.5-.475l-.155-2.769a.508.508,0,0,0-.5-.475h-2.6a.472.472,0,0,0-.475.475v6.462a.5.5,0,0,0,.475.5c.932.055,1.819.11,2.769.165a.508.508,0,0,1,.475.5v2.7A.451.451,0,0,0,97.386,85.249Zm3.281-7.6a.039.039,0,0,0,.037.037c.018,0,.018-.018,0-.037S100.667,77.636,100.667,77.654Zm-3.756,57.334c0-.018-.018-.027-.037-.027s-.027.009-.018.018-.018,0-.018.018a.039.039,0,0,0,.037.037c.009-.009.037-.027.037-.046Zm-.558.037H93.684a.472.472,0,0,0-.475.475v6.48a.472.472,0,0,0,.475.475h6.489a.472.472,0,0,0,.475-.475v-2.66a.472.472,0,0,0-.475-.475H97.3a.472.472,0,0,1-.475-.475V135.5A.472.472,0,0,0,96.353,135.024Zm4.369,3.784a.037.037,0,1,1-.037-.037A.039.039,0,0,1,100.722,138.808Zm-30.6-34.4c-.018-.018-.037-.018-.037,0a.039.039,0,0,0,.037.037C70.149,104.442,70.149,104.424,70.122,104.406Zm-6.974,7.513h2.568a.5.5,0,0,0,.5-.475c.055-.932.11-1.819.174-2.769a.515.515,0,0,1,.5-.475h2.7a.486.486,0,0,0,.484-.475l.009-2.8a.472.472,0,0,0-.475-.475H63.139a.472.472,0,0,0-.475.475v6.517A.48.48,0,0,0,63.148,111.919ZM70.1,108.2a.039.039,0,0,0-.037.037c0,.018.018.018.037,0S70.131,108.2,70.1,108.2Zm49.711-3.775c.018-.018.018-.037,0-.037a.039.039,0,0,0-.037.037C119.778,104.442,119.787,104.442,119.815,104.424Zm-7.659-3.857a.037.037,0,1,1-.037.037A.039.039,0,0,1,112.156,100.567Zm.037-3.144v2.66a.472.472,0,0,0,.475.475h2.87a.472.472,0,0,1,.475.475v2.87a.472.472,0,0,0,.475.475h2.806a.472.472,0,0,0,.475-.475V97.414a.472.472,0,0,0-.475-.475h-6.626a.486.486,0,0,0-.475.484ZM62.6,93.612V96.18a.517.517,0,0,0,.475.512c.9.055,1.773.119,2.66.174a.557.557,0,0,1,.5.512l.155,2.724a.508.508,0,0,0,.5.475H69.61a.472.472,0,0,0,.475-.475v-6.48a.472.472,0,0,0-.475-.475H63.075A.459.459,0,0,0,62.6,93.612Zm7.531,6.992c.018-.018.018-.037,0-.037a.039.039,0,0,0-.037.037C70.095,100.622,70.113,100.622,70.131,100.6Zm38.716-11.516h2.669a.472.472,0,0,0,.475-.475v-6.48a.472.472,0,0,0-.475-.475h-6.48a.472.472,0,0,0-.475.475v2.66a.472.472,0,0,0,.475.475H107.9a.472.472,0,0,1,.475.475V88.6A.474.474,0,0,0,108.847,89.088ZM77.571,111.425v-2.678a.472.472,0,0,0-.475-.475H70.625a.472.472,0,0,0-.475.475v2.678a.472.472,0,0,0,.475.475H77.1A.478.478,0,0,0,77.571,111.425Zm-7.467-3.19c-.018.018-.018.037,0,.037a.039.039,0,0,0,.037-.037C70.14,108.217,70.131,108.217,70.1,108.235Zm15.382-.1c.018-.018.009-.037-.009-.027a.037.037,0,1,0,.037.037C85.513,108.126,85.495,108.126,85.486,108.135Zm.027.53v2.9a.472.472,0,0,0,.475.475h6.562a.472.472,0,0,0,.475-.475v-2.9a.472.472,0,0,0-.475-.475H86a.469.469,0,0,0-.484.475Zm7.549,3.409c.018-.018.018-.037,0-.037a.039.039,0,0,0-.037.037C93.026,112.092,93.035,112.092,93.063,112.074Zm42.015,22.932c.018.018.037.018.037,0a.039.039,0,0,0-.037-.037C135.06,134.969,135.06,134.987,135.078,135.006Zm7-3.665H135.59a.472.472,0,0,0-.475.475v2.669a.472.472,0,0,0,.475.475h6.489a.472.472,0,0,0,.475-.475v-2.669A.472.472,0,0,0,142.079,131.341ZM108.372,89.133a.037.037,0,1,1-.037-.037C108.353,89.088,108.372,89.106,108.372,89.133Zm-3.345,7.458h2.788a.472.472,0,0,0,.475-.475V89.645a.472.472,0,0,0-.475-.475h-2.788a.472.472,0,0,0-.475.475v6.471A.478.478,0,0,0,105.027,96.591Zm2.66,27.108H101.2a.472.472,0,0,0-.475.475v2.669a.472.472,0,0,0,.475.475h6.489a.472.472,0,0,0,.475-.475v-2.669A.466.466,0,0,0,107.686,123.7Zm-7,3.665c.018.018.037.018.037,0a.039.039,0,0,0-.037-.037C100.667,127.328,100.667,127.337,100.685,127.365Zm34.393,11.443c-.018.018-.018.037,0,.037a.039.039,0,0,0,.037-.037C135.115,138.789,135.1,138.789,135.078,138.808Zm3.647,3.19V139.32a.472.472,0,0,0-.475-.475h-2.66a.472.472,0,0,0-.475.475V142a.472.472,0,0,0,.475.475h2.66A.478.478,0,0,0,138.725,142Zm-38.679-33.579H97.368a.472.472,0,0,0-.475.475v2.66a.472.472,0,0,0,.475.475h2.678a.472.472,0,0,0,.475-.475v-2.66A.472.472,0,0,0,100.045,108.418Zm-3.181,3.656c.018.018.037.018.037,0a.039.039,0,0,0-.037-.037C96.847,112.037,96.837,112.056,96.865,112.074Zm7.668-26.743c.009.009.018,0,.018-.018a.037.037,0,1,0-.037.037C104.533,85.349,104.542,85.34,104.533,85.331Zm-3.738-.11c0-.018-.009-.027-.027-.009.018-.018.009-.027-.009-.027a.037.037,0,0,0,0,.073A.033.033,0,0,0,100.795,85.221Zm3.756,3.912a.037.037,0,1,1-.037-.037A.039.039,0,0,1,104.551,89.133Zm-.073-.512v-2.8a.494.494,0,0,0-.475-.494l-2.724-.064a.459.459,0,0,0-.475.466v2.888a.472.472,0,0,0,.475.475H104A.472.472,0,0,0,104.478,88.621Zm-10.785.329h2.669a.472.472,0,0,0,.475-.475v-2.66a.472.472,0,0,0-.475-.475H93.684a.472.472,0,0,0-.475.475v2.66A.48.48,0,0,0,93.693,88.95ZM96.874,85.3c-.018-.018-.037-.018-.037,0a.039.039,0,0,0,.037.037C96.892,85.34,96.9,85.322,96.874,85.3ZM70.762,134.8H80.971a.472.472,0,0,0,.475-.475V124.157a.472.472,0,0,0-.475-.475H70.762a.472.472,0,0,0-.475.475v10.173A.484.484,0,0,0,70.762,134.8ZM80.916,70.15H70.725a.472.472,0,0,0-.475.475V80.844a.472.472,0,0,0,.475.475H80.916a.472.472,0,0,0,.475-.475V70.625A.466.466,0,0,0,80.916,70.15Zm53.522.064H124.229a.472.472,0,0,0-.475.475V80.88a.472.472,0,0,0,.475.475h10.209a.472.472,0,0,0,.475-.475V70.7A.48.48,0,0,0,134.438,70.214Z" transform="translate(-62.6 -62.5)"/>
</svg>
