<svg xmlns="http://www.w3.org/2000/svg" width="843.1" height="874.9" viewBox="0 0 843.1 874.9">
  <path id="share" d="M752,598.7c-58.2,0-109.6,29.6-140.2,74.4L397.5,554.3a168.008,168.008,0,0,0,.9-155.4l162.7-70.8a169.338,169.338,0,0,0,139.2,73.1c93.5,0,169.4-76,169.4-169.4S793.7,62.5,700.3,62.5s-169.4,76-169.4,169.4a166.362,166.362,0,0,0,9.3,54.8l-169,73.5c-31-33.1-74.8-53.9-123.6-53.9-93.5,0-169.4,76-169.4,169.4,0,93.5,76,169.4,169.4,169.4a169.1,169.1,0,0,0,122.6-52.8L591.3,714.7a168.257,168.257,0,0,0-8.8,53.3c0,93.5,76,169.4,169.4,169.4s169.4-76,169.4-169.4S845.5,598.7,752,598.7Z" transform="translate(-78.2 -62.5)" fill="#fff"/>
</svg>
