<svg width="34" height="31" viewBox="0 0 34 31" xmlns="http://www.w3.org/2000/svg"><title>book</title><path d="M33.08 7.064c.505.726.645 1.675.363 2.604l-5.55 18.285C27.386 29.668 25.61 31 23.875 31H5.248C3.19 31 .99 29.365.243 27.266c-.323-.908-.323-1.797-.04-2.563.04-.404.121-.807.14-1.292.021-.322-.16-.585-.12-.828.08-.484.504-.827.827-1.371.606-1.009 1.292-2.644 1.514-3.693.1-.384-.1-.828 0-1.17.1-.384.484-.667.686-1.03.545-.929 1.251-2.724 1.352-3.673.04-.424-.161-.889-.04-1.212.141-.464.585-.666.889-1.07.484-.666 1.292-2.583 1.413-3.652.04-.344-.162-.686-.1-1.05.08-.383.565-.786.888-1.25C8.499 2.16 8.66-.606 11.225.121l-.021.06C11.548.101 11.89 0 12.234 0h15.359c.948 0 1.796.424 2.3 1.13.524.726.646 1.675.363 2.624l-5.53 18.284c-.948 3.108-1.473 3.795-4.036 3.795H3.152c-.263 0-.585.061-.768.303-.161.241-.182.423-.02.868.404 1.17 1.796 1.413 2.906 1.413h18.628c.747 0 1.615-.424 1.837-1.151l6.056-19.92c.121-.384.121-.787.1-1.151.464.182.889.464 1.191.868l-.002.001zm-21.474.04c-.122.363.081.646.444.646h12.27c.344 0 .727-.283.848-.646l.424-1.292c.121-.362-.082-.645-.445-.645h-12.27c-.344 0-.726.283-.848.646l-.423 1.291zm-1.674 5.167c-.122.363.081.646.444.646h12.27c.344 0 .727-.283.848-.646l.424-1.292c.121-.363-.082-.646-.445-.646h-12.27c-.344 0-.726.283-.848.646l-.423 1.292z" fill-rule="nonzero" fill="#FFF"/></svg>