<svg xmlns="http://www.w3.org/2000/svg" width="34" height="34" viewBox="0 0 34 34"><path fill="#FFF" d="M34.001 12.409v18.556a3.045 3.045 0 0 1-3.036 3.036H3.035A3.045 3.045 0 0 1 0 30.965V12.41c0-.171.077-.341.209-.455C2.202 10.209 2.219 10 12.124 2.77 13.319 1.898 15.426 0 17 0c1.575 0 3.7 1.916 4.876 2.77 9.904 7.229 9.924 7.438 11.915 9.183a.608.608 0 0 1 .21.455zM23.3 23.508c2.96-2.145 5.029-3.643 6.547-4.782a.583.583 0 0 0 .114-.836l-.721-.986a.607.607 0 0 0-.854-.114c-1.499 1.1-3.548 2.618-6.508 4.743-1.176.854-3.301 2.752-4.876 2.752-1.575 0-3.7-1.898-4.877-2.752a1219.51 1219.51 0 0 1-6.508-4.743.607.607 0 0 0-.853.114l-.722.986a.583.583 0 0 0 .114.836c1.518 1.139 3.586 2.637 6.547 4.782 1.48 1.063 3.814 3.207 6.299 3.207 2.505 0 4.895-2.182 6.298-3.207z"/></svg>