<?xml version="1.0" encoding="UTF-8"?>
<svg width="469px" height="128px" viewBox="0 0 469 128" version="1.1" xmlns="http://www.w3.org/2000/svg" xmlns:xlink="http://www.w3.org/1999/xlink">
    <!-- Generator: Sketch 57.1 (83088) - https://sketch.com -->
    <title>NHG_BD_logo_COM_White</title>
    <desc>Created with Sketch.</desc>
    <g id="Page-1" stroke="none" stroke-width="1" fill="none" fill-rule="evenodd">
        <g id="NHG_BD_logo_COM_White" fill-rule="nonzero">
            <g id="Group" transform="translate(0.000000, 24.000000)" fill="#FFFFFF">
                <path d="M0.14,59.12 L0.14,0.22 L18.26,0.22 L32.51,21.8 C36.58,28 40.55,35.34 43.71,41.99 L43.91,41.99 C42.99,34.21 42.69,26.26 42.69,17.35 L42.69,0.22 L56.94,0.22 L56.94,59.12 L40.65,59.12 L25.99,36.4 C21.92,30.02 17.34,22.51 14.08,15.6 L13.67,15.6 C14.18,23.46 14.38,31.77 14.38,41.38 L14.38,59.12 L0.14,59.12 Z" id="Path"></path>
                <path d="M75.47,41.91 C75.98,47.5 82.29,50.12 89.52,50.12 C94.81,50.12 99.09,49.51 103.26,48.28 L105.3,57.28 C100.2,59.12 94,60 87.28,60 C70.38,60 60.71,51.61 60.71,38.15 C60.71,27.31 68.65,15.34 85.85,15.34 C101.93,15.34 108.04,26.09 108.04,36.66 C108.04,38.93 107.73,40.94 107.53,41.99 L75.47,41.91 Z M93.69,32.82 C93.69,29.67 92.06,24.17 85.04,24.17 C78.42,24.17 75.78,29.33 75.37,32.82 L93.69,32.82 Z" id="Shape"></path>
                <path d="M122.31,16.39 L126.38,33.95 C127.3,38.32 128.31,43.04 129.13,47.93 L129.44,47.93 C130.36,43.12 131.88,38.23 133,34.04 L138.29,16.39 L150.51,16.39 L155.5,33.43 C156.92,38.32 158.25,43.04 159.16,47.94 L159.36,47.94 C160.07,43.13 161.09,38.24 162.31,33.35 L166.48,16.4 L181.65,16.4 L166.38,59.13 L151.93,59.13 L147.25,44.19 C145.93,40 145.01,36.15 143.99,30.82 L143.79,30.82 C142.87,36.15 141.86,40.17 140.63,44.1 L135.64,59.13 L121.08,59.13 L106.52,16.4 L122.31,16.4 L122.31,16.39 Z" id="Path"></path>
                <polygon id="Path" points="199.87 0.22 199.87 22.94 225.42 22.94 225.42 0.22 240.89 0.22 240.89 59.12 225.42 59.12 225.42 34.57 199.87 34.57 199.87 59.13 184.4 59.13 184.4 0.23 199.87 0.23"></polygon>
                <path d="M270.41,60.08 C255.85,60.08 244.66,51.87 244.66,38.06 C244.66,24.25 255.25,15.43 271.33,15.43 C286.5,15.43 296.68,24.43 296.68,37.36 C296.68,52.91 283.75,60.08 270.52,60.08 L270.41,60.08 L270.41,60.08 Z M270.72,50.56 C276.83,50.56 280.59,45.4 280.59,37.71 C280.59,31.42 277.74,24.95 270.72,24.95 C263.39,24.95 260.54,31.42 260.54,37.8 C260.54,45.05 264.1,50.56 270.62,50.56 L270.72,50.56 L270.72,50.56 Z" id="Shape"></path>
                <path d="M301.15,30.02 C301.15,24.69 300.95,20.23 300.74,16.39 L313.87,16.39 L314.48,22.24 L314.79,22.24 C316.93,19.44 321.41,15.42 329.85,15.42 C336.36,15.42 341.35,18.3 343.49,22.76 L343.69,22.76 C345.62,20.49 347.76,18.74 350.2,17.52 C352.95,16.21 356,15.42 359.67,15.42 C369.24,15.42 376.47,21.19 376.47,33.95 L376.47,59.12 L361.4,59.12 L361.4,35.96 C361.4,29.76 359.06,26.17 354.07,26.17 C350.41,26.17 347.96,28.27 346.84,30.8 C346.53,31.76 346.33,33.07 346.33,34.12 L346.33,59.11 L331.27,59.11 L331.27,35.18 C331.27,29.85 329.03,26.18 324.04,26.18 C320.07,26.18 317.73,28.8 316.81,30.9 C316.3,31.95 316.2,33.17 316.2,34.31 L316.2,59.13 L301.13,59.13 L301.13,30.02 L301.15,30.02 Z" id="Path"></path>
                <path d="M394.49,41.91 C395,47.5 401.31,50.12 408.54,50.12 C413.83,50.12 418.11,49.51 422.28,48.28 L424.32,57.28 C419.23,59.11 413.02,59.99 406.3,59.99 C389.4,59.99 379.73,51.6 379.73,38.14 C379.73,27.3 387.67,15.33 404.87,15.33 C420.95,15.33 427.06,26.08 427.06,36.65 C427.06,38.92 426.75,40.93 426.55,41.98 L394.49,41.91 Z M412.71,32.82 C412.71,29.67 411.08,24.17 404.06,24.17 C397.44,24.17 394.8,29.33 394.39,32.82 L412.71,32.82 Z" id="Shape"></path>
                <path d="M431.14,47.59 C433.99,49.08 439.89,50.74 444.47,50.74 C449.15,50.74 451.09,49.43 451.09,47.24 C451.09,44.97 449.56,43.92 443.86,42.26 C433.48,39.38 429.51,34.48 429.61,29.5 C429.61,21.46 437.55,15.43 449.87,15.43 C455.67,15.43 460.76,16.65 463.82,17.96 L461.17,27.05 C458.93,26.09 454.55,24.69 450.38,24.69 C446.61,24.69 444.48,26 444.48,28.1 C444.48,30.2 446.41,31.25 452.52,33.08 C461.99,35.79 465.85,39.98 465.96,46.19 C465.96,54.23 458.73,60.08 444.48,60.08 C437.97,60.08 432.16,58.77 428.4,57.02 L431.14,47.59 Z" id="Path"></path>
            </g>
            <g id="Group" fill="#FFFFFF">
                <path d="M14.83,19.7 C14.07,20.06 12.28,20.51 10.01,20.51 C3.49,20.51 0.13,16.42 0.13,11.02 C0.13,4.58 4.72,1.02 10.43,1.02 C12.64,1.02 14.32,1.47 15.08,1.86 L14.18,5.22 C13.34,4.86 12.14,4.52 10.6,4.52 C7.24,4.52 4.61,6.56 4.61,10.79 C4.61,14.57 6.85,16.95 10.63,16.95 C11.95,16.95 13.35,16.7 14.21,16.33 L14.83,19.7 Z" id="Path"></path>
                <path d="M17.43,0.32 L21.69,0.32 L21.69,8.16 L21.75,8.16 C22.2,7.54 22.76,7.07 23.43,6.73 C24.07,6.39 24.86,6.2 25.64,6.2 C28.36,6.2 30.43,8.08 30.43,12.22 L30.43,20.2 L26.17,20.2 L26.17,12.67 C26.17,10.88 25.55,9.65 23.96,9.65 C22.84,9.65 22.14,10.38 21.83,11.16 C21.72,11.41 21.69,11.78 21.69,12.08 L21.69,20.2 L17.43,20.2 L17.43,0.32 Z" id="Path"></path>
                <path d="M45.24,16.9 C45.24,18.19 45.3,19.45 45.46,20.2 L41.62,20.2 L41.37,18.83 L41.29,18.83 C40.39,19.92 38.99,20.51 37.37,20.51 C34.6,20.51 32.95,18.49 32.95,16.31 C32.95,12.75 36.14,11.07 40.99,11.07 L40.99,10.9 C40.99,10.17 40.6,9.14 38.5,9.14 C37.1,9.14 35.62,9.62 34.72,10.15 L33.94,7.43 C34.89,6.9 36.77,6.2 39.26,6.2 C43.82,6.2 45.25,8.89 45.25,12.11 L45.25,16.9 L45.24,16.9 Z M41.12,13.74 C38.88,13.74 37.14,14.27 37.14,15.9 C37.14,16.99 37.87,17.52 38.82,17.52 C39.86,17.52 40.75,16.82 41.03,15.95 C41.09,15.73 41.11,15.47 41.11,15.22 L41.11,13.74 L41.12,13.74 Z" id="Shape"></path>
                <path d="M48.65,11.02 C48.65,9 48.62,7.69 48.54,6.51 L52.18,6.51 L52.35,9.06 L52.46,9.06 C53.16,7.04 54.81,6.2 56.16,6.2 C56.55,6.2 56.75,6.23 57.06,6.28 L57.06,10.28 C56.7,10.22 56.36,10.17 55.88,10.17 C54.31,10.17 53.25,10.98 52.97,12.33 C52.91,12.61 52.89,12.92 52.89,13.28 L52.89,20.2 L48.63,20.2 L48.65,11.02 Z" id="Path"></path>
                <polygon id="Path" points="59.18 0.32 63.44 0.32 63.44 20.2 59.18 20.2"></polygon>
                <path d="M70.13,14.69 C70.27,16.48 72.01,17.32 73.99,17.32 C75.45,17.32 76.62,17.12 77.77,16.73 L78.33,19.61 C76.93,20.2 75.22,20.48 73.37,20.48 C68.72,20.48 66.06,17.79 66.06,13.48 C66.06,10.01 68.24,6.17 72.98,6.17 C77.4,6.17 79.08,9.61 79.08,13 C79.08,13.73 79,14.37 78.94,14.71 L70.13,14.69 Z M75.14,11.78 C75.14,10.77 74.69,9.01 72.76,9.01 C70.94,9.01 70.21,10.66 70.1,11.78 L75.14,11.78 Z" id="Shape"></path>
                <path d="M81.61,16.51 C82.39,16.99 84.02,17.52 85.28,17.52 C86.57,17.52 87.1,17.1 87.1,16.4 C87.1,15.67 86.68,15.34 85.11,14.8 C82.25,13.88 81.16,12.31 81.19,10.71 C81.19,8.13 83.37,6.2 86.76,6.2 C88.36,6.2 89.76,6.59 90.6,7.01 L89.87,9.92 C89.25,9.61 88.05,9.16 86.9,9.16 C85.86,9.16 85.28,9.58 85.28,10.25 C85.28,10.92 85.81,11.26 87.49,11.85 C90.09,12.72 91.16,14.06 91.19,16.05 C91.19,18.63 89.2,20.5 85.28,20.5 C83.49,20.5 81.89,20.08 80.86,19.52 L81.61,16.51 Z" id="Path"></path>
                <path d="M98.55,2.79 L98.55,6.51 L101.6,6.51 L101.6,9.65 L98.55,9.65 L98.55,14.63 C98.55,16.28 98.97,17.04 100.23,17.04 C100.82,17.04 101.1,17.01 101.49,16.93 L101.52,20.15 C100.99,20.35 99.95,20.51 98.78,20.51 C97.41,20.51 96.26,20.03 95.56,19.33 C94.78,18.52 94.38,17.2 94.38,15.27 L94.38,9.64 L92.56,9.64 L92.56,6.5 L94.38,6.5 L94.38,3.94 L98.55,2.79 Z" id="Path"></path>
                <path d="M110.23,20.51 C106.23,20.51 103.15,17.88 103.15,13.45 C103.15,9.03 106.06,6.2 110.49,6.2 C114.66,6.2 117.46,9.08 117.46,13.23 C117.46,18.21 113.9,20.51 110.26,20.51 L110.23,20.51 L110.23,20.51 Z M110.31,17.46 C111.99,17.46 113.03,15.81 113.03,13.34 C113.03,11.32 112.25,9.25 110.31,9.25 C108.29,9.25 107.51,11.32 107.51,13.37 C107.51,15.69 108.49,17.46 110.28,17.46 L110.31,17.46 Z" id="Shape"></path>
                <path d="M120.08,10.88 C120.08,9.17 120.02,7.74 119.97,6.51 L123.67,6.51 L123.87,8.41 L123.95,8.41 C124.51,7.51 125.88,6.2 128.18,6.2 C130.98,6.2 133.08,8.08 133.08,12.11 L133.08,20.2 L128.82,20.2 L128.82,12.61 C128.82,10.85 128.2,9.64 126.66,9.64 C125.48,9.64 124.78,10.45 124.48,11.24 C124.37,11.52 124.34,11.91 124.34,12.3 L124.34,20.2 L120.08,20.2 L120.08,10.88 Z" id="Path"></path>
            </g>
            <g id="Group" transform="translate(221.000000, 83.000000)" fill="#FFFFFF">
                <path d="M43.99,41.93 C40.55,42.89 34.03,44.21 27.52,44.21 C18.52,44.21 12,42.35 7.46,38.81 C3,35.27 0.51,29.99 0.51,24.05 C0.58,10.61 12.51,2.93 28.69,2.93 C35.06,2.93 39.96,3.95 42.38,4.85 L40.04,12.23 C37.33,11.21 34.04,10.49 28.62,10.49 C19.32,10.49 12.22,14.81 12.22,23.57 C12.22,31.97 18.66,36.83 27.81,36.83 C30.3,36.83 32.35,36.59 33.23,36.29 L33.23,27.77 L25.62,27.77 L25.62,20.63 L43.99,20.63 L43.99,41.93 Z" id="Path"></path>
                <path d="M82.64,34.37 C82.64,38.21 82.79,41.33 82.93,43.79 L73.27,43.79 L72.76,39.65 L72.54,39.65 C71.15,41.45 67.78,44.45 61.34,44.45 C54.02,44.45 48.75,40.73 48.75,31.67 L48.75,14.45 L59.88,14.45 L59.88,30.23 C59.88,34.49 61.56,37.07 65.52,37.07 C68.6,37.07 70.42,35.33 71.08,33.89 C71.37,33.35 71.52,32.69 71.52,31.91 L71.52,14.45 L82.65,14.45 L82.65,34.37 L82.64,34.37 Z" id="Path"></path>
                <path d="M93.4,10.61 C89.67,10.61 87.25,8.45 87.25,5.75 C87.25,2.99 89.74,0.89 93.55,0.89 C97.36,0.89 99.7,2.99 99.77,5.75 C99.77,8.45 97.35,10.61 93.48,10.61 L93.4,10.61 Z M87.91,43.79 L87.91,14.45 L99.04,14.45 L99.04,43.79 L87.91,43.79 Z" id="Shape"></path>
                <path d="M139,1.19 L139,35.03 C139,38.39 139.15,41.81 139.29,43.79 L129.41,43.79 L128.97,39.53 L128.75,39.53 C126.55,42.77 122.16,44.45 117.55,44.45 C109.06,44.45 102.25,38.51 102.25,29.39 C102.18,19.55 109.72,13.79 118.28,13.79 C122.74,13.79 126.11,15.11 127.72,17.09 L127.87,17.09 L127.87,1.19 L139,1.19 L139,1.19 Z M127.87,26.93 C127.87,26.39 127.87,25.79 127.72,25.25 C127.06,22.79 124.65,20.81 121.21,20.81 C116.09,20.81 113.52,24.53 113.52,29.15 C113.52,34.07 116.52,37.19 121.13,37.19 C124.35,37.19 126.99,35.39 127.64,32.81 C127.79,32.21 127.86,31.49 127.86,30.77 L127.86,26.93 L127.87,26.93 Z" id="Shape"></path>
                <path d="M152.84,31.97 C153.21,35.81 157.74,37.61 162.94,37.61 C166.75,37.61 169.82,37.19 172.82,36.35 L174.28,42.53 C170.62,43.79 166.16,44.39 161.32,44.39 C149.17,44.39 142.22,38.63 142.22,29.39 C142.22,21.95 147.93,13.73 160.3,13.73 C171.86,13.73 176.26,21.11 176.26,28.37 C176.26,29.93 176.04,31.31 175.89,32.03 L152.84,31.97 Z M165.94,25.73 C165.94,23.57 164.77,19.79 159.72,19.79 C154.96,19.79 153.06,23.33 152.77,25.73 L165.94,25.73 Z" id="Shape"></path>
            </g>
            <path d="M405.05,124.45 C405.05,125.33 404.75,126.07 404.15,126.68 C403.55,127.29 402.81,127.6 401.93,127.6 C401.06,127.6 400.31,127.29 399.69,126.68 C399.07,126.07 398.75,125.32 398.75,124.45 C398.75,123.57 399.06,122.83 399.69,122.22 C400.32,121.61 401.06,121.3 401.93,121.3 C402.48,121.3 403,121.44 403.49,121.72 C403.98,122 404.37,122.38 404.64,122.86 C404.91,123.34 405.05,123.87 405.05,124.45 Z" id="Path" fill="#E0A150"></path>
            <path d="M420.55,126.64 C420.11,126.81 419.65,126.96 419.16,127.1 C418.67,127.24 418.12,127.36 417.51,127.45 C416.9,127.54 416.23,127.59 415.51,127.59 C413.88,127.59 412.5,127.31 411.37,126.76 C410.24,126.21 409.37,125.51 408.76,124.68 C408.15,123.85 407.73,122.99 407.49,122.12 C407.25,121.25 407.14,120.48 407.14,119.82 C407.14,119.16 407.26,118.39 407.5,117.52 C407.74,116.65 408.16,115.81 408.75,115 C409.34,114.19 410.21,113.51 411.33,112.96 C412.45,112.41 413.85,112.14 415.5,112.14 C416.6,112.14 417.5,112.22 418.2,112.37 C418.9,112.52 419.6,112.74 420.31,113 L420.31,117.15 C418.59,116.6 417.25,116.33 416.28,116.33 C415.34,116.33 414.51,116.61 413.78,117.18 C413.05,117.75 412.69,118.63 412.69,119.82 C412.69,120.61 412.87,121.28 413.23,121.82 C413.59,122.36 414.05,122.76 414.61,123.01 C415.17,123.26 415.72,123.39 416.28,123.39 C416.81,123.39 417.41,123.31 418.08,123.16 C418.75,123.01 419.57,122.78 420.54,122.49 L420.54,126.64 L420.55,126.64 Z" id="Path" fill="#E0A150"></path>
            <path d="M439.58,119.86 C439.58,121.34 439.26,122.67 438.61,123.83 C437.96,124.99 437,125.91 435.72,126.58 C434.44,127.25 432.87,127.59 431.03,127.59 C429.19,127.59 427.62,127.25 426.33,126.58 C425.04,125.91 424.08,124.99 423.44,123.83 C422.8,122.67 422.48,121.34 422.48,119.86 C422.48,118.74 422.66,117.72 423.01,116.8 C423.36,115.88 423.91,115.07 424.64,114.36 C425.37,113.65 426.26,113.11 427.33,112.73 C428.4,112.35 429.62,112.16 431.02,112.16 C432.43,112.16 433.67,112.35 434.75,112.74 C435.83,113.13 436.72,113.66 437.43,114.36 C438.14,115.06 438.67,115.86 439.03,116.79 C439.39,117.72 439.58,118.74 439.58,119.86 Z M434.02,119.86 C434.02,118.68 433.76,117.75 433.25,117.08 C432.74,116.41 431.99,116.08 431.02,116.08 C430.05,116.08 429.31,116.41 428.8,117.08 C428.29,117.75 428.03,118.67 428.03,119.86 C428.03,121.03 428.29,121.96 428.81,122.64 C429.33,123.32 430.06,123.67 431.02,123.67 C432,123.67 432.74,123.33 433.25,122.65 C433.76,121.97 434.02,121.04 434.02,119.86 Z" id="Shape" fill="#E0A150"></path>
            <path d="M468.89,127.33 L463.62,127.33 L463.62,119.38 C463.62,118.33 463.45,117.54 463.1,117.01 C462.75,116.48 462.2,116.23 461.45,116.23 C460.72,116.23 460.12,116.45 459.65,116.9 C459.18,117.35 458.71,117.9 458.24,118.58 L458.24,127.34 L452.97,127.34 L452.97,119.39 C452.97,118.38 452.81,117.61 452.49,117.06 C452.17,116.51 451.6,116.24 450.78,116.24 C450.39,116.24 450.03,116.32 449.7,116.47 C449.37,116.62 449.11,116.8 448.9,117 C448.69,117.2 448.45,117.48 448.15,117.86 C447.85,118.24 447.67,118.48 447.59,118.58 L447.59,127.34 L442.32,127.34 L442.32,112.43 L447.59,112.43 L447.59,114.57 C448.38,113.73 449.19,113.12 450.01,112.74 C450.83,112.36 451.78,112.17 452.85,112.17 C453.36,112.17 453.84,112.22 454.3,112.31 C454.76,112.4 455.21,112.56 455.65,112.79 C456.09,113.02 456.5,113.32 456.86,113.71 C457.22,114.1 457.51,114.55 457.72,115.07 C458.57,114.11 459.45,113.39 460.36,112.9 C461.27,112.41 462.33,112.17 463.52,112.17 C464.71,112.17 465.71,112.41 466.52,112.89 C467.33,113.37 467.92,114.06 468.31,114.96 C468.7,115.86 468.89,116.96 468.89,118.25 L468.89,127.33 L468.89,127.33 Z" id="Path" fill="#E0A150"></path>
        </g>
    </g>
</svg>