<svg width="175" height="174" viewBox="0 0 175 174" xmlns="http://www.w3.org/2000/svg"><title>icon-faq</title><path d="M45.43 1.815c-48.69 9.562-61.953 72.832-20.803 99.238 7.774 4.988 20.158 9.044 27.617 9.044h5.433l1.541 7.419c1.893 9.116 5.429 16.417 11.234 23.199 4.346 5.078 4.428 5.395 4.791 18.564.457 16.54 1.253 16.942 15.294 7.718l9.763-6.415 9.847.745c44.259 3.348 75.493-35.367 60.367-74.823-6.87-17.918-30.412-34.472-49.024-34.472h-4.861l-2.122-8.597C107.205 13.844 76.962-4.377 45.43 1.815m30.801 10.088c31.634 12.02 41.845 49.697 20.018 73.858-4.369 4.835-4.507 5.31-4.507 15.456v10.467l-3.548-2.255c-1.952-1.24-4.903-3.484-6.558-4.987-2.757-2.503-4.491-2.732-20.646-2.732-25 0-38.152-6.961-47.977-25.393C-7.168 38.458 34.469-3.965 76.231 11.903M51.578 29.689c-4.968 3.083-8.221 9.046-6.238 11.435 2.301 2.773 4.207 2.316 8.337-1.995 4.397-4.589 8.763-4.968 11.54-1.003 2.788 3.981 2.785 3.989-4.515 12.051-5.697 6.291-6.474 7.805-6.129 11.949.499 5.992 6.517 7.249 7.271 1.519.233-1.774 2.93-5.839 5.992-9.032 14.496-15.119 1.081-35.685-16.258-24.924m85.959 34.542c52.621 23.271 25.394 99.763-31.524 88.565l-7.771-1.529-6.916 5.221c-8.889 6.711-8.616 6.848-8.616-4.334 0-9.113-.218-9.814-4.714-15.161-15.619-18.575-14.385-35.853 1.684-23.587 16.445 12.552 19.046 11.77 19.53-5.879.355-12.944.535-13.707 4.104-17.419 4.876-5.071 9.942-15.34 11.768-23.855l1.459-6.801 6.94.816c3.817.448 10.142 2.232 14.056 3.963m-82.3 10.543c-1.766 1.766-.93 7.944 1.185 8.755 3.046 1.169 5.834-1.72 5.385-5.58-.381-3.278-4.484-5.261-6.57-3.175m75.871 6.917c-1.219 1.974-4.797 34.873-4.014 36.914.761 1.985 5.372 2.484 6.474.701 1.831-2.963 4.634-35.386 3.208-37.105-1.725-2.078-4.542-2.332-5.668-.51m-33.964 50.664c.532 5.517 5.663 6.827 6.932 1.77 1.062-4.23-.132-5.964-4.105-5.964-2.868 0-3.186.471-2.827 4.194m14.483-2.424c-1.434 3.738.027 6.617 3.358 6.617 2.705 0 3.209-.607 3.209-3.871 0-4.328-5.136-6.476-6.567-2.746m14.159.09c-1.402 3.654.092 6.527 3.393 6.527 2.676 0 3.275-.695 3.612-4.193.438-4.541-5.411-6.489-7.005-2.334" fill="#59621D" fill-rule="evenodd"/></svg>