<?xml version="1.0" standalone="no"?>
<!DOCTYPE svg PUBLIC "-//W3C//DTD SVG 20010904//EN"
 "http://www.w3.org/TR/2001/REC-SVG-20010904/DTD/svg10.dtd">
<svg version="1.0" xmlns="http://www.w3.org/2000/svg"
 width="300.000000pt" height="300.000000pt" viewBox="0 0 300.000000 300.000000"
 preserveAspectRatio="xMidYMid meet">
<metadata>
Created by potrace 1.14, written by Peter Selinger 2001-2017
</metadata>
<g transform="translate(0.000000,300.000000) scale(0.100000,-0.100000)"
fill="#000000" stroke="none">
<path d="M0 1500 l0 -1500 1500 0 1500 0 0 1500 0 1500 -1500 0 -1500 0 0
-1500z m1800 390 c79 -330 147 -600 150 -600 3 0 59 222 124 493 64 270 122
509 127 530 l10 37 119 0 c104 0 119 -2 124 -17 3 -10 88 -367 191 -793 102
-426 188 -783 191 -792 5 -16 -4 -18 -99 -18 -138 0 -137 -1 -180 201 l-33
154 -194 0 -194 0 -33 -155 -33 -155 25 -110 c14 -60 28 -118 31 -127 5 -17
-5 -18 -118 -18 -136 0 -156 7 -178 60 -7 17 -29 108 -49 203 l-36 172 -235 0
-235 0 -36 -170 c-43 -205 -43 -206 -74 -239 -23 -25 -27 -26 -150 -26 -116 0
-126 1 -121 18 3 9 15 58 26 107 11 50 23 98 26 107 4 15 -2 14 -48 -7 -70
-32 -176 -49 -254 -42 -238 23 -432 294 -474 662 -33 293 21 576 147 767 136
207 366 273 577 166 42 -22 126 -96 157 -139 l19 -27 -34 -82 c-63 -147 -76
-155 -151 -90 -65 56 -100 72 -172 78 -203 16 -325 -205 -310 -563 8 -192 49
-322 126 -408 69 -77 173 -98 272 -56 l49 21 0 124 0 124 -53 0 c-86 0 -91 8
-96 149 l-3 121 181 0 180 0 3 -152 3 -153 149 623 150 622 146 0 146 0 144
-600z"/>
<path d="M1497 1984 c-14 -75 -126 -622 -142 -691 l-5 -23 165 0 165 0 -7 33
c-3 17 -41 198 -83 401 l-76 369 -17 -89z"/>
<path d="M2313 1928 c-14 -75 -111 -536 -119 -560 -5 -17 6 -18 136 -18 110 0
141 3 137 13 -2 6 -33 150 -68 319 -35 170 -66 308 -69 308 -3 0 -11 -28 -17
-62z"/>
</g>
</svg>
