<?xml version="1.0" standalone="no"?>
<!DOCTYPE svg PUBLIC "-//W3C//DTD SVG 20010904//EN"
 "http://www.w3.org/TR/2001/REC-SVG-20010904/DTD/svg10.dtd">
<svg version="1.0" xmlns="http://www.w3.org/2000/svg"
 width="300.000000pt" height="300.000000pt" viewBox="0 0 300.000000 300.000000"
 preserveAspectRatio="xMidYMid meet">
<metadata>
Created by potrace 1.14, written by Peter Selinger 2001-2017
</metadata>
<g transform="translate(0.000000,300.000000) scale(0.100000,-0.100000)"
fill="#000000" stroke="none">
<path d="M552 2685 c-69 -19 -98 -35 -152 -83 -63 -55 -90 -109 -165 -333 -54
-162 -69 -197 -92 -214 -56 -40 -102 -95 -122 -147 -19 -50 -20 -72 -18 -408
2 -399 0 -385 78 -429 35 -20 52 -23 119 -19 132 5 173 53 175 202 l1 91 320
5 320 5 41 35 c31 27 45 51 63 105 13 39 25 75 26 80 6 28 75 216 95 255 32
65 143 171 217 209 76 39 167 61 251 61 49 0 62 3 58 13 -3 8 -29 85 -57 173
-29 87 -66 185 -83 217 -45 87 -128 152 -232 185 -11 3 -193 7 -405 9 -309 2
-395 -1 -438 -12z m782 -296 c16 -8 31 -28 40 -53 36 -97 76 -218 76 -227 0
-5 -192 -9 -475 -9 -261 0 -475 4 -475 8 0 28 85 251 102 270 21 22 22 22 364
22 237 0 351 -4 368 -11z m-894 -571 c51 -32 58 -122 13 -170 -68 -72 -186
-23 -186 77 0 90 96 141 173 93z"/>
<path d="M1614 1941 c-93 -23 -193 -98 -237 -179 -15 -28 -56 -137 -92 -244
-54 -161 -69 -196 -92 -212 -56 -40 -102 -96 -122 -152 -21 -54 -22 -70 -19
-408 l3 -351 24 -32 c31 -41 86 -63 161 -63 69 0 105 12 142 47 33 31 41 64
42 168 l1 80 600 3 600 2 1 -94 c1 -104 15 -141 67 -180 42 -31 169 -36 224
-8 80 41 78 30 78 442 0 350 -1 367 -21 411 -21 46 -80 112 -122 139 -17 12
-37 58 -83 195 -89 270 -118 320 -217 383 -93 59 -118 62 -531 61 -207 -1
-390 -4 -407 -8z m783 -310 c17 -16 103 -244 103 -274 0 -4 -214 -7 -475 -7
-261 0 -475 3 -475 7 0 27 84 254 101 271 20 22 24 22 373 22 335 0 353 -1
373 -19z m-893 -581 c24 -23 30 -38 30 -74 1 -123 -166 -155 -212 -41 -22 57
-6 101 53 137 40 25 91 16 129 -22z m1171 23 c41 -22 58 -52 58 -99 0 -38 -5
-51 -31 -77 -27 -26 -40 -32 -77 -31 -64 0 -121 60 -111 116 3 13 5 28 5 34 1
18 51 63 74 66 33 6 60 3 82 -9z"/>
</g>
</svg>
