<?xml version="1.0" encoding="utf-8"?>
<!-- Generator: Adobe Illustrator 16.0.0, SVG Export Plug-In . SVG Version: 6.00 Build 0)  -->
<!DOCTYPE svg PUBLIC "-//W3C//DTD SVG 1.1//EN" "http://www.w3.org/Graphics/SVG/1.1/DTD/svg11.dtd">
<svg version="1.1" xmlns="http://www.w3.org/2000/svg" xmlns:xlink="http://www.w3.org/1999/xlink" x="0px" y="0px"
	 width="719.999px" height="237.261px" viewBox="0 0 719.999 237.261" enable-background="new 0 0 719.999 237.261"
	 xml:space="preserve">
<g id="Background" display="none">
	<rect display="inline" fill="#030303" width="719.999" height="237.261"/>
</g>
<g id="Logos">
	<g>
		<g>
			<g>
				<g>
					<g>
						<path fill="#FFFFFF" d="M119.43,136.592l-56.028-31.139l0.001-7.645c0-0.043,0-0.086,0-0.13v-0.457
							c0.002-2.167,0.125-3.966,2.809-5.458l0,0l31.771-17.659c1.26-0.7,2.57-0.806,3.857-0.806c1.286,0,2.597,0.105,3.857,0.806
							l52.884,29.393V82.556l-47.59-26.449V45.099H92.688v11.008l-39.53,21.969c-6.994,3.891-8.061,8.972-8.061,16.063v22.082
							l55.493,30.844L119.43,136.592z"/>
					</g>
					<g>
						<path fill="#FFFFFF" d="M84.249,100.672l56.028,31.14l-0.001,7.643c0,0.045,0,0.087,0,0.13v0.459
							c-0.002,2.165-0.125,3.966-2.809,5.458l0,0l-31.771,17.657c-1.26,0.701-2.57,0.807-3.856,0.807
							c-1.287,0-2.598-0.105-3.858-0.807l-52.884-29.392v20.941l47.591,26.448v11.008h18.303v-11.008l39.529-21.969
							c6.994-3.889,8.061-8.972,8.061-16.063v-22.082L103.088,90.2L84.249,100.672z"/>
					</g>
				</g>
			</g>
			<g>
				<g>
					<path fill="#FFFFFF" d="M202.217,152.378c-5.137-1.49-9.261-3.429-12.375-5.815l5.467-12.126
						c2.982,2.187,6.526,3.944,10.636,5.269c4.107,1.326,8.216,1.988,12.325,1.988c4.572,0,7.952-0.68,10.139-2.039
						c2.188-1.357,3.28-3.163,3.28-5.416c0-1.656-0.646-3.032-1.938-4.125c-1.292-1.093-2.949-1.971-4.97-2.634
						c-2.021-0.662-4.756-1.393-8.2-2.187c-5.302-1.259-9.642-2.518-13.021-3.778c-3.379-1.258-6.279-3.279-8.697-6.063
						c-2.42-2.783-3.628-6.492-3.628-11.133c0-4.041,1.093-7.703,3.28-10.984c2.187-3.279,5.482-5.879,9.89-7.801
						c4.406-1.922,9.791-2.884,16.152-2.884c4.439,0,8.78,0.532,13.021,1.591c4.24,1.062,7.952,2.585,11.133,4.572l-4.97,12.227
						c-6.429-3.645-12.857-5.467-19.284-5.467c-4.507,0-7.836,0.729-9.989,2.186c-2.154,1.459-3.23,3.38-3.23,5.766
						c0,2.385,1.242,4.16,3.728,5.318c2.484,1.16,6.278,2.303,11.382,3.429c5.301,1.261,9.641,2.52,13.021,3.776
						c3.379,1.261,6.278,3.248,8.697,5.965c2.419,2.718,3.628,6.396,3.628,11.033c0,3.977-1.11,7.604-3.329,10.885
						c-2.222,3.279-5.551,5.881-9.99,7.802c-4.44,1.922-9.841,2.884-16.201,2.884C212.669,154.615,207.352,153.87,202.217,152.378z"
						/>
					<path fill="#FFFFFF" d="M254.748,83.843h16.102v56.458h34.89v13.121h-50.991V83.843z"/>
					<path fill="#FFFFFF" d="M314.783,83.843h16.103v69.579h-16.103V83.843z"/>
					<path fill="#FFFFFF" d="M387.592,86.924c4.538,2.055,8.034,4.97,10.486,8.748c2.45,3.777,3.678,8.25,3.678,13.418
						c0,5.104-1.228,9.559-3.678,13.37c-2.452,3.811-5.948,6.726-10.486,8.746c-4.54,2.022-9.891,3.032-16.053,3.032h-14.016v19.184
						h-16.103V83.843h30.118C377.701,83.843,383.052,84.87,387.592,86.924z M381.678,117.986c2.517-2.087,3.776-5.053,3.776-8.896
						c0-3.908-1.26-6.908-3.776-8.994c-2.52-2.088-6.197-3.133-11.034-3.133h-13.12v24.154h13.12
						C375.48,121.117,379.158,120.073,381.678,117.986z"/>
					<path fill="#FFFFFF" d="M426.655,149.595c-5.602-3.081-9.989-7.321-13.17-12.723c-3.182-5.399-4.771-11.48-4.771-18.239
						c0-6.76,1.59-12.839,4.771-18.24c3.181-5.4,7.586-9.642,13.219-12.723c5.633-3.082,11.93-4.621,18.886-4.621
						c5.433,0,10.402,0.91,14.909,2.732c4.507,1.823,8.352,4.521,11.532,8.102l-6.462,6.262c-5.234-5.5-11.764-8.251-19.581-8.251
						c-5.169,0-9.84,1.16-14.016,3.479c-4.175,2.32-7.439,5.517-9.79,9.592c-2.354,4.076-3.529,8.632-3.529,13.668
						c0,5.037,1.176,9.592,3.529,13.667c2.351,4.075,5.615,7.272,9.79,9.592c4.176,2.32,8.847,3.479,14.016,3.479
						c7.752,0,14.278-2.783,19.581-8.35l6.462,6.262c-3.181,3.578-7.043,6.296-11.58,8.151c-4.539,1.855-9.527,2.782-14.96,2.782
						C438.533,154.217,432.254,152.677,426.655,149.595z"/>
					<path fill="#FFFFFF" d="M530.873,136.027h-36.976l-7.654,17.395h-10.236l31.508-69.579h9.84l31.609,69.579h-10.436
						L530.873,136.027z M527.395,128.075l-15.01-34.094l-15.008,34.094H527.395z"/>
					<path fill="#FFFFFF" d="M564.42,151.782c-4.871-1.623-8.697-3.728-11.481-6.313l3.679-7.752
						c2.65,2.385,6.047,4.323,10.189,5.813c4.14,1.492,8.398,2.237,12.771,2.237c5.767,0,10.073-0.977,12.924-2.934
						c2.847-1.953,4.274-4.555,4.274-7.803c0-2.385-0.779-4.323-2.336-5.813c-1.559-1.492-3.479-2.634-5.766-3.43
						c-2.286-0.795-5.519-1.689-9.692-2.684c-5.234-1.258-9.46-2.519-12.672-3.777c-3.216-1.258-5.965-3.195-8.251-5.814
						c-2.285-2.617-3.429-6.146-3.429-10.586c0-3.711,0.977-7.057,2.933-10.039c1.953-2.982,4.919-5.367,8.895-7.156
						c3.977-1.789,8.912-2.684,14.812-2.684c4.107,0,8.15,0.529,12.126,1.588c3.977,1.063,7.389,2.586,10.238,4.573l-3.279,7.952
						c-2.918-1.854-6.03-3.263-9.344-4.225c-3.314-0.959-6.561-1.441-9.741-1.441c-5.634,0-9.858,1.029-12.673,3.081
						c-2.818,2.055-4.225,4.707-4.225,7.952c0,2.387,0.796,4.324,2.385,5.815c1.592,1.49,3.562,2.65,5.913,3.479
						c2.353,0.828,5.55,1.707,9.594,2.633c5.232,1.26,9.442,2.52,12.623,3.778c3.18,1.259,5.914,3.181,8.2,5.765
						c2.287,2.585,3.429,6.063,3.429,10.437c0,3.646-0.994,6.976-2.98,9.989c-1.989,3.017-5.006,5.401-9.047,7.158
						c-4.041,1.756-9.011,2.633-14.91,2.633C574.342,154.217,569.291,153.407,564.42,151.782z"/>
					<path fill="#FFFFFF" d="M674.901,83.843v69.579h-9.94v-31.013h-39.958v31.013h-9.939V83.843h9.939v29.92h39.958v-29.92H674.901
						z"/>
				</g>
			</g>
		</g>
	</g>
</g>
</svg>
